<?xml version="1.0" encoding="UTF-8"?>
<svg viewBox="0 0 15 15" version="1.1" xmlns="http://www.w3.org/2000/svg" xmlns:xlink="http://www.w3.org/1999/xlink">
  <path d="M15 4.18L15 4.18C15 4.07 14.79 4.07 14.57 3.96C14.68 3.75 15 3.21 15 2.68C15 1.82 14.57 1.07 14.36 1.07C14.14 1.07 13.82 1.82 13.82 2.68C13.82 3.21 14.04 3.64 14.14 3.96C14.04 3.96 13.29 3.96 12.86 3.96L12.86 1.07L11.57 1.07L10.71 7.5L12.86 7.5L12.86 4.39C13.39 4.39 14.04 4.39 14.14 4.39C14.04 4.71 13.71 5.14 13.71 5.68C13.71 6.54 14.04 7.29 14.25 7.29C14.57 7.18 15 6.43 15 5.57C15 5.04 14.68 4.61 14.57 4.29C14.79 4.29 15 4.18 15 4.18Z"/>
  <path d="M4.93 11.57C4.93 11.57 5.04 11.57 4.93 11.57C5.04 11.57 5.04 11.57 5.04 11.57C5.46 11.14 6.11 10.39 7.5 10.39C8.89 10.39 9.54 11.14 9.96 11.57C9.96 11.57 9.96 11.57 9.96 11.68C9.96 11.68 9.96 11.68 9.96 11.57C10.39 11.14 11.04 10.39 12.43 10.39C13.82 10.39 14.46 11.14 14.89 11.57C14.89 11.57 14.89 11.57 14.89 11.57L14.89 8.57L0 8.57C0.21 9.32 0.54 9.96 1.39 10.5C1.71 10.39 2.04 10.29 2.57 10.29C3.86 10.29 4.61 11.14 4.93 11.57Z"/>
  <path d="M15 13.82C14.14 13.82 13.71 13.29 13.39 12.96C13.07 12.64 12.96 12.43 12.54 12.43C12.21 12.43 12 12.64 11.68 12.96C11.36 13.29 10.93 13.82 10.07 13.82C9.21 13.82 8.79 13.29 8.46 12.96C8.14 12.64 8.04 12.43 7.61 12.43C7.18 12.43 7.07 12.64 6.75 12.96C6.43 13.29 6 13.82 5.14 13.82C4.29 13.82 3.86 13.29 3.54 12.96C3.21 12.64 3 12.43 2.68 12.43C2.36 12.43 2.14 12.64 1.82 12.96C1.5 13.29 1.07 13.82 0.21 13.82L0.21 12.75C0.54 12.75 0.75 12.54 1.07 12.21C1.39 11.89 1.82 11.36 2.68 11.36C3.54 11.36 3.96 11.89 4.29 12.21C4.61 12.54 4.82 12.75 5.14 12.75C5.46 12.75 5.68 12.54 6 12.21C6.32 11.89 6.75 11.36 7.61 11.36C8.46 11.36 8.89 11.89 9.21 12.21C9.54 12.54 9.64 12.75 10.07 12.75C10.5 12.75 10.61 12.54 10.93 12.21C11.25 11.89 11.68 11.36 12.54 11.36C13.39 11.36 13.82 11.89 14.14 12.21C14.46 12.54 14.57 12.75 15 12.75L15 13.82Z"/>
</svg>