<?xml version="1.0" encoding="UTF-8"?>
<svg viewBox="0 0 15 15" version="1.1" xmlns="http://www.w3.org/2000/svg" xmlns:xlink="http://www.w3.org/1999/xlink">
  <path d="M8.25 11.52C8.05 11.73 7.77 11.86 7.5 11.86L7.5 8.18L10.23 7.5L10.23 8.86L8.25 11.52Z"/>
  <path d="M6.14 3.41L5.45 3.41L5.45 2.8C5.45 2.8 4.84 2.93 4.64 3.14L2.59 6.27C2.52 6.34 2.52 6.55 2.52 6.68C2.52 7.02 2.66 7.3 2.93 7.43L5.66 8.93L5.66 11.59C5.66 11.93 5.93 12.27 6.34 12.27C6.68 12.27 6.89 12 6.89 11.59L6.89 8.39C6.89 8.39 7.09 7.84 6.55 7.57L4.77 6.68L6 4.77L6.68 5.8C6.82 6 6.95 6.14 7.16 6.14L8.86 6.14C9.55 6.14 9.55 5.18 8.86 5.18L7.5 5.18L6.14 3.14L6.14 3.41Z"/>
  <path d="M13.57 7.3L13.64 7.43C13.64 7.5 13.57 7.57 13.5 7.57L13.43 7.57C13.16 7.43 12.95 7.36 12.61 7.36C12.41 7.36 12.14 7.43 11.8 7.7L11.52 7.09C11.86 6.95 12.2 6.82 12.55 6.82C12.95 6.82 13.23 7.02 13.57 7.3Z"/>
  <path d="M2.18 7.77L4.77 9.34L4.77 9.95L1.77 8.18C1.57 8.05 1.23 7.98 1.02 7.98C0.68 7.98 0.82 8.05 0.55 8.18L0.48 8.18C0.41 8.18 0.34 8.11 0.34 8.05L0.41 7.91C0.75 7.64 0.68 7.5 1.23 7.5C1.5 7.5 1.77 7.57 2.18 7.77L2.18 7.77Z"/>
  <path d="M2.39 13.57C3.27 13.57 4.02 12.82 4.02 11.86C4.02 10.91 3.27 10.16 2.39 10.16C1.5 10.16 0.75 10.91 0.75 11.86C0.75 12.82 1.5 13.57 2.39 13.57ZM0 11.86C0 10.5 1.09 9.41 2.39 9.41C3.68 9.41 4.77 10.5 4.77 11.86C4.77 13.23 3.68 14.32 2.39 14.32C1.09 14.32 0 13.23 0 11.86Z"/>
  <path d="M12.55 13.57C13.5 13.57 14.25 12.82 14.25 11.86C14.25 10.91 13.5 10.16 12.55 10.16C11.59 10.16 10.84 10.91 10.84 11.86C10.84 12.82 11.66 13.57 12.55 13.57ZM10.09 11.86C10.09 10.5 11.18 9.41 12.55 9.41C13.91 9.41 15 10.5 15 11.86C15 13.23 13.91 14.32 12.55 14.32C11.18 14.32 10.09 13.23 10.09 11.86Z"/>
  <path d="M12 8.86L10.91 6.68C10.77 6.41 10.36 6.14 10.02 6.14L9.27 6.14C9.14 6.14 9 6.34 9 6.55C9 6.75 9.14 6.82 9.27 6.82L10.02 6.82C10.16 6.82 10.3 6.89 10.36 7.02L11.45 8.86L12 8.86Z"/>
  <path d="M8.18 2.05L8.8 2.05C8.86 1.91 8.86 1.84 8.86 1.7C8.86 0.75 8.11 0 7.16 0C6.2 0 5.45 0.75 5.45 1.7C5.45 2.11 5.59 2.45 5.8 2.73L8.18 2.73L8.18 2.05Z"/>
  <path d="M6.14 2.39a1.02 1.02 0 1 0 2.05 0a1.02 1.02 0 1 0 -2.05 0z"/>
</svg>