<?xml version="1.0" encoding="UTF-8"?>
<svg viewBox="0 0 15 15" version="1.1" xmlns="http://www.w3.org/2000/svg" xmlns:xlink="http://www.w3.org/1999/xlink">
  <path d="M6.11 1.39a1.39 1.39 0 1 0 2.79 0a1.39 1.39 0 1 0 -2.79 0z"/>
  <path d="M14.46 15C14.14 15 13.82 14.89 13.61 14.79C13.29 14.68 13.07 14.14 12.75 14.14C12.43 14.14 12.11 14.68 11.89 14.79C11.68 14.89 11.36 15 11.04 15C10.71 15 10.39 14.89 10.18 14.79C9.86 14.68 9.64 14.14 9.32 14.14C9 14.14 8.68 14.68 8.46 14.79C8.14 14.89 7.82 15 7.5 15C7.18 15 6.86 14.89 6.64 14.79C6.32 14.68 6.11 14.14 5.79 14.14C5.46 14.14 5.14 14.68 4.93 14.79C4.61 14.89 4.29 15 3.96 15C3.64 15 3.32 14.89 3.11 14.79C2.79 14.68 2.57 14.14 2.25 14.14C1.93 14.14 1.61 14.68 1.39 14.79C1.07 14.89 0.75 15 0.54 15L0.54 13.71C0.86 13.71 1.18 13.61 1.39 13.5C1.61 13.39 1.93 12.86 2.25 12.86C2.57 12.86 2.89 13.39 3.11 13.5C3.32 13.61 3.64 13.71 3.96 13.71C4.29 13.71 4.61 13.61 4.82 13.5C5.14 13.39 5.46 12.86 5.79 12.86C6.11 12.86 6.43 13.39 6.64 13.5C6.86 13.61 7.18 13.71 7.5 13.71C7.82 13.71 8.14 13.61 8.36 13.5C8.68 13.39 8.89 12.86 9.21 12.86C9.54 12.86 9.86 13.39 10.07 13.5C10.29 13.61 10.61 13.71 10.93 13.71C11.25 13.71 11.57 13.61 11.79 13.5C12.11 13.39 12.32 12.86 12.64 12.86C12.96 12.86 13.29 13.39 13.5 13.5C13.71 13.61 14.04 13.71 14.36 13.71L14.36 15L14.46 15Z"/>
  <path d="M9 12.43C8.79 12.43 8.25 12.86 8.04 12.86L7.5 12.86L7.5 9.32L9 8.46L9 12.43Z"/>
  <path d="M7.5 12.86C7.29 12.86 6.11 12.54 5.79 12.54L5.79 11.89L3.96 11.89L3.64 9.64C3.64 9.54 3.64 9.54 3.64 9.43C3.64 8.89 3.96 8.36 4.5 8.14L4.5 4.61C4.5 3.75 5.14 3.11 6 3.11L8.89 3.11C9.86 3.11 10.61 3.86 10.61 4.71L10.61 8.57C10.61 9.32 9.64 9.32 9.64 8.57L9.64 4.93L9 4.93L9 7.39L5.89 7.39L5.89 4.93L5.36 4.93L5.36 8.14C5.46 8.14 5.57 8.25 5.68 8.25L7.5 9.32L7.5 12.86ZM4.07 9.64L5.68 9.64C5.68 9.32 5.57 8.89 5.25 8.68C5.14 9.11 4.5 9.11 4.39 8.68C4.29 8.89 4.07 9.32 4.07 9.64Z"/>
</svg>