<?xml version="1.0" encoding="UTF-8"?>
<svg viewBox="0 0 15 15" xmlns="http://www.w3.org/2000/svg">
  <path d="M10.06 11.22c0.47 -0.51 0.94 -1.02 1.59 -1.24c0.92 -0.31 1.59 0.08 1.87 0.28c0.72 0.53 1.39 -0.22 0.59 -0.81c-0.43 -0.31 -1.45 -0.87 -2.77 -0.42c-0.72 0.24 -1.21 0.77 -1.7 1.29c-0.4 0.43 -0.8 0.86 -1.32 1.13c-0.62 0.32 -1.06 -0.03 -1.06 -0.64v-0.01c0 -0.8 -0.41 -1.3 -1.25 -1.3c-0.49 0 -0.99 0.26 -1.5 0.5c-1.18 0.56 -2.32 1.29 -3.32 2.11c-0.21 0.18 -0.24 0.5 -0.07 0.71c0.25 0.3 0.58 0.16 0.83 -0.04c0.41 -0.33 1.78 -1.39 2.93 -1.94c0.48 -0.23 0.86 -0.34 1.12 -0.34c0.25 0 0.25 0.1 0.25 0.34c0 1.33 1.29 2.14 2.53 1.49c0.5 -0.26 0.9 -0.69 1.29 -1.12zm-7.56 -2.22c1.5 -1 3.25 -2 5 -2c0.75 0 0.75 0.38 0.75 0.75s0 0.75 0.75 0.75c2.53 0 5.36 -3.21 5.5 -5.5l-2.5 1l-2.34 -0.97c-0.61 -0.2 -0.93 0.74 -0.32 0.95l1.16 0.53l-1.5 0.5l-4 -1.25c-0.24 -0.08 -0.39 0.03 -0.5 0.25l-1.5 3l-2 1zm2.5 -7c0 -0.55 0.45 -1 1 -1s1 0.45 1 1s-0.45 1 -1 1s-1 -0.45 -1 -1z"/>
</svg>