<?xml version="1.0" encoding="UTF-8"?>
<svg viewBox="0 0 15 15" version="1.1" xmlns="http://www.w3.org/2000/svg" xmlns:xlink="http://www.w3.org/1999/xlink">
  <path d="M2.25 0.33L5.12 1.12L6.71 0L7.27 0.14L5.69 1.26L14.39 3.68L13.75 6.04L5.03 3.63C1.64 2.61 2.26 0.33 2.26 0.33"/>
  <path d="M9.89 6.38C9.88 6.18 9.84 5.99 9.78 5.81L13.76 6.92L13.63 7.42L9.89 6.38L9.89 6.38ZM6.27 5.38C6.38 5.22 6.5 5.08 6.65 4.96L0 3.12L0 3.65L6.27 5.38ZM7.91 7.13C8.27 7.13 8.56 6.84 8.56 6.48C8.56 6.13 8.27 5.84 7.91 5.84C7.56 5.84 7.27 6.13 7.27 6.48C7.27 6.84 7.56 7.13 7.91 7.13ZM14.4 11.1C14.09 11.1 13.79 11.03 13.52 10.91C13.24 10.78 12.93 10.71 12.6 10.71C12.28 10.71 11.97 10.78 11.69 10.91C11.42 11.03 11.12 11.1 10.81 11.1C10.49 11.1 10.19 11.03 9.92 10.91C9.65 10.78 9.34 10.71 9.02 10.71C8.69 10.71 8.38 10.78 8.1 10.91C7.84 11.03 7.53 11.1 7.22 11.1C6.91 11.1 6.6 11.03 6.33 10.91C6.05 10.78 5.74 10.71 5.42 10.71C5.09 10.71 4.78 10.78 4.51 10.91C4.24 11.03 3.94 11.1 3.62 11.1C3.31 11.1 3.01 11.03 2.74 10.91C2.46 10.78 2.15 10.71 1.82 10.71C1.5 10.71 1.19 10.78 0.91 10.91C0.64 11.03 0.34 11.1 0.03 11.1L0.01 5.82L7.28 7.83C6.77 7.59 6.43 7.08 6.43 6.49C6.43 5.66 7.1 4.99 7.92 4.99C8.74 4.99 9.41 5.66 9.41 6.49C9.41 7.31 8.74 7.98 7.92 7.98L7.77 7.97L14.4 9.79L14.41 11.11L14.4 11.1Z"/>
</svg>