<?xml version="1.0" encoding="UTF-8"?>
<svg viewBox="0 0 15 15" version="1.1" xmlns="http://www.w3.org/2000/svg" xmlns:xlink="http://www.w3.org/1999/xlink">
  <path d="M7.55 5.21C8.73 5.21 9.69 4.24 9.69 3.05C9.69 1.86 8.73 0.9 7.55 0.9C6.36 0.9 5.4 1.87 5.4 3.05C5.4 4.24 6.36 5.21 7.55 5.21ZM9.63 5.7C10.61 5.7 11.02 6.54 11.02 6.54L14.19 10.9C14.32 11.1 14.4 11.33 14.4 11.59C14.4 12.27 13.85 12.82 13.17 12.82C13.01 12.82 12.86 12.79 12.72 12.74L10.8 12.2L10.8 14.1L4.2 14.1L4.2 12.2L2.28 12.74C2.14 12.79 1.99 12.83 1.82 12.83C1.15 12.83 0.6 12.28 0.6 11.6C0.6 11.34 0.67 11.11 0.81 10.91L3.98 6.54C3.98 6.54 4.39 5.71 5.36 5.71L9.63 5.71L9.63 5.7ZM7.5 12.78L9.98 11.96L9.92 11.94C8.21 11.44 8.87 9.17 10.57 9.68L10.8 9.76L10.8 7.2L7.5 8.29L4.2 7.2L4.2 9.76L4.42 9.68C6.13 9.17 6.79 11.44 5.08 11.94L5.02 11.96L7.5 12.78Z"/>
</svg>