<?xml version="1.0" encoding="UTF-8"?>
<svg viewBox="0 0 15 15" version="1.1" xmlns="http://www.w3.org/2000/svg" xmlns:xlink="http://www.w3.org/1999/xlink">
  <path d="M5.8 2.45C5.11 2.45 4.57 1.91 4.57 1.23C4.57 0.55 5.11 0 5.8 0C6.48 0 7.02 0.55 7.02 1.23C7.02 1.91 6.48 2.45 5.8 2.45Z"/>
  <path d="M11.52 4.77C11.52 4.77 9.95 4.77 9.61 4.77C9.41 4.57 8.18 3.48 7.91 3.14C7.91 3.14 7.77 3 7.77 3C7.5 2.86 7.16 2.73 6.75 2.73L4.23 2.73C3.27 2.73 2.45 3.48 2.45 4.3L2.45 8.05C2.45 8.8 3.41 8.8 3.41 8.05L3.41 4.36L4.09 4.36L4.09 14.32C4.09 14.73 4.36 15 4.77 15C5.18 15 5.45 14.66 5.45 14.32L5.45 8.86L6.14 8.86L6.14 14.32C6.14 14.73 6.48 15 6.82 15C7.23 15 7.5 14.66 7.5 14.32L7.5 4.09L9.07 5.59C9.14 5.66 9.27 5.73 9.41 5.73L11.52 5.73C11.8 5.73 12 5.52 12 5.25C12 4.98 11.8 4.77 11.52 4.77Z"/>
  <path d="M3.68 6.41L0.68 9.48C0.61 9.55 0.61 9.68 0.68 9.75C0.75 9.82 0.89 9.82 0.95 9.75L1.64 9.07L1.64 9.82L0.82 10.64C0.75 10.7 0.75 10.77 0.82 10.84C0.89 10.91 0.95 10.91 1.02 10.84L1.64 10.23L1.64 12.07C1.64 12.14 1.7 12.2 1.77 12.2C1.84 12.2 1.91 12.14 1.91 12.07L1.91 11.11L2.39 11.59C2.39 11.59 2.45 11.59 2.52 11.59C2.52 11.59 2.52 11.52 2.52 11.45L1.98 10.91L1.98 8.73L3.95 6.75L3.68 6.41Z"/>
  <path d="M14.32 4.23C14.39 4.16 14.39 4.09 14.32 4.02C14.25 3.95 14.18 3.95 14.11 4.02L13.36 4.77L13.36 4.02C13.36 3.95 13.3 3.95 13.3 3.95C13.23 3.95 13.23 4.02 13.23 4.02L13.23 4.84L11.39 6.68L9.82 6.68C9.82 6.68 11.45 5.05 11.52 4.98C11.59 4.84 11.59 4.7 11.59 4.7L11.59 3.82L12.95 2.73L13.91 2.73C13.98 2.73 13.98 2.66 13.98 2.66C13.98 2.59 13.91 2.59 13.91 2.59L12.95 2.59L13.84 1.91C13.91 1.84 13.91 1.77 13.84 1.7C13.77 1.64 13.7 1.64 13.64 1.7L12.27 2.73L12.27 1.23C12.27 1.16 12.2 1.09 12.14 1.09C12.07 1.09 12 1.16 12 1.23L12 2.93L11.32 3.48L11.32 2.45C11.32 2.39 11.25 2.32 11.18 2.32C11.11 2.32 11.05 2.39 11.05 2.45L11.05 4.43L7.84 7.64L8.25 8.05L9.2 7.09L13.16 7.09C13.3 7.09 13.36 7.02 13.36 6.89C13.36 6.75 13.3 6.68 13.16 6.68L11.73 6.68L12.48 5.93L13.77 5.93C13.84 5.93 13.91 5.86 13.91 5.8C13.91 5.73 13.84 5.66 13.77 5.66L12.75 5.66L14.32 4.23Z"/>
</svg>