<?xml version="1.0" encoding="UTF-8"?>
<svg viewBox="0 0 15 15" version="1.1" xmlns="http://www.w3.org/2000/svg" xmlns:xlink="http://www.w3.org/1999/xlink">
  <path d="M11.98 8.43C12.11 8.5 12.29 8.49 12.35 8.42C12.42 8.36 12.36 8.24 12.22 8.18L9.77 7.04C9.62 6.98 9.39 6.96 9.24 7.01L8.36 7.27C8.21 7.31 8.02 7.35 7.93 7.35C7.85 7.35 7.77 7.23 7.77 7.07L7.77 4.4C7.77 4.25 7.9 4.12 8.05 4.12L14.42 4.12C14.57 4.12 14.7 4 14.7 3.85L14.7 2.95C14.7 2.8 14.57 2.64 14.43 2.59L7.73 0.64C7.58 0.59 7.34 0.59 7.19 0.64L0.57 2.59C0.42 2.63 0.3 2.79 0.3 2.95L0.3 3.84C0.3 4 0.43 4.12 0.58 4.12L6.86 4.12C7.02 4.12 7.14 4.25 7.14 4.39L7.14 7.07C7.14 7.22 7.02 7.35 6.86 7.35L6.75 7.35C6.59 7.35 6.38 7.26 6.26 7.16L4.75 5.71C4.64 5.6 4.42 5.52 4.26 5.52L3.56 5.52C3.41 5.52 3.22 5.43 3.15 5.31C3.08 5.2 2.91 5.11 2.77 5.11C2.64 5.11 2.6 5.22 2.68 5.35L2.69 5.37C2.78 5.5 2.78 5.71 2.7 5.84L1.94 7.01C1.86 7.14 1.88 7.33 2 7.43L2.06 7.48C2.17 7.58 2.38 7.61 2.51 7.54L3.32 7.11C3.46 7.04 3.64 7.09 3.73 7.22L4.62 8.58C4.7 8.71 4.67 8.89 4.55 8.99L4.15 9.33C4.03 9.43 3.96 9.63 3.99 9.78L4.52 12.08C4.55 12.23 4.71 12.32 4.86 12.28L5.22 12.19C5.37 12.15 5.47 12 5.44 11.85L5.08 10.3C5.05 10.15 5.14 10 5.29 9.95L6.19 9.71C6.34 9.67 6.59 9.64 6.75 9.64L6.86 9.64C7.02 9.64 7.14 9.77 7.14 9.91L7.14 12.67C7.14 12.82 7.02 12.95 6.86 12.95L0.58 12.95C0.43 12.95 0.3 13.07 0.3 13.22L0.3 14.12C0.3 14.27 0.43 14.4 0.58 14.4L14.3 14.4C14.46 14.4 14.58 14.27 14.58 14.12L14.58 13.22C14.58 13.07 14.46 12.95 14.3 12.95L8.06 12.95C7.9 12.95 7.77 12.83 7.77 12.67L7.77 9.92C7.77 9.77 7.9 9.64 8.06 9.64L8.38 9.64C8.54 9.64 8.78 9.68 8.93 9.71L9.84 9.96C9.99 10 10.08 10.15 10.05 10.3L9.69 11.86C9.65 12.01 9.75 12.16 9.9 12.2L10.27 12.29C10.42 12.32 10.57 12.23 10.61 12.08L11.14 9.79C11.17 9.64 11.11 9.44 10.99 9.35C10.88 9.25 10.77 9.05 10.76 8.9L10.72 8.08C10.71 7.93 10.82 7.86 10.96 7.93L11.98 8.43L11.98 8.43Z"/>
</svg>