<?xml version="1.0" encoding="UTF-8"?>
<svg viewBox="0 0 15 15" version="1.1" xmlns="http://www.w3.org/2000/svg" xmlns:xlink="http://www.w3.org/1999/xlink">
  <path d="M10.5 7.66C10.4 7.28 9.91 6.97 9.54 7.15L8.1 7.8L8.1 5.22L10.63 1.25C10.81 0.96 10.74 0.58 10.45 0.39C10.15 0.21 9.77 0.29 9.61 0.58L7.49 3.95L6.21 3.96C6.13 3.96 6.05 3.97 5.96 4L3.75 4.86L2.62 3.15C2.43 2.86 2.04 2.78 1.75 2.96C1.46 3.15 1.37 3.54 1.56 3.83L2.98 5.97C3.14 6.22 3.48 6.33 3.77 6.21L5.4 5.58L5.4 8.4L3.18 13.32C3.01 13.69 3.19 14.11 3.59 14.32C3.98 14.54 4.43 14.41 4.59 14.04L6.37 9.97C6.53 10.01 6.7 10.03 6.87 10.03C7.04 10.03 7.19 10 7.33 9.95L9.34 9.02L9.77 10.78C9.87 11.17 10.27 11.41 10.67 11.31C11.06 11.21 11.3 10.82 11.2 10.43L10.5 7.67L10.5 7.66ZM8.7 6.63L8.7 7.09C11.7 5.59 12.86 0.43 12.86 0L12.44 0C12.29 1.08 11.1 5.38 8.7 6.63L8.7 6.63ZM6.57 3.73C7.19 3.73 7.69 3.24 7.69 2.63C7.69 2.02 7.19 1.52 6.57 1.52C5.96 1.52 5.46 2.02 5.46 2.63C5.46 3.24 5.96 3.73 6.57 3.73ZM7.5 15L8.1 15L8.1 10.03L7.5 10.5L7.5 15Z"/>
</svg>