<?xml version="1.0" encoding="UTF-8"?>
<svg xmlns="http://www.w3.org/2000/svg" viewBox="0 0 15 15">
  <path d="M5.45 0.03C5.85 0.14 6.08 0.55 5.97 0.95L5.74 1.81C5.49 2.72 5.74 3.7 6.4 4.38C7.13 5.14 8.25 5.36 9.22 4.95L9.51 4.82C10.08 4.58 10.54 4.1 10.76 3.51C10.92 3.08 11 2.63 11 2.17V2C11 1.59 11.34 1.25 11.75 1.25C12.16 1.25 12.5 1.59 12.5 2V2.17C12.5 2.81 12.39 3.44 12.16 4.04C11.83 4.93 11.18 5.66 10.34 6.09L10.26 6.14C9.67 6.51 9.34 7.19 9.41 7.88L9.54 9.31C9.56 9.4 9.57 9.49 9.58 9.58L10 14.18C10.03 14.59 9.73 14.96 9.32 15C8.91 15.03 8.54 14.73 8.5 14.32L8.08 9.72C8.08 9.66 8.06 9.6 8.04 9.55C8.01 9.47 7.95 9.41 7.89 9.36C7.83 9.3 7.77 9.25 7.69 9.23L7.68 9.22C7.45 9.16 7.21 9.24 7.07 9.43L6.09 10.77C5.88 11.06 5.78 11.41 5.81 11.77L6 14.19C6.03 14.61 5.72 14.97 5.31 15C4.89 15.03 4.53 14.72 4.5 14.31L4.32 11.88C4.26 11.17 4.46 10.47 4.88 9.89L5.85 8.55C5.98 8.38 6.08 8.18 6.1 7.97L6.19 7.15C6.25 6.55 5.92 5.99 5.48 5.58C5.43 5.53 5.38 5.48 5.33 5.43C4.3 4.37 3.9 2.84 4.29 1.41L4.53 0.55C4.64 0.15 5.05 -0.08 5.45 0.03ZM8.25 4.13C9.08 4.13 9.75 3.45 9.75 2.63C9.75 1.8 9.08 1.13 8.25 1.13C7.42 1.13 6.75 1.8 6.75 2.63C6.75 3.45 7.42 4.13 8.25 4.13ZM2.36 4.79C2.33 4.62 2.17 4.5 2 4.5C1.83 4.5 1.67 4.62 1.64 4.79L1.53 5.28C1.45 5.66 1.16 5.95 0.78 6.03L0.29 6.14C0.12 6.17 0 6.33 0 6.5C0 6.68 0.12 6.83 0.29 6.86L0.78 6.97C1.16 7.05 1.45 7.34 1.53 7.72L1.64 8.21C1.67 8.38 1.83 8.5 2 8.5C2.17 8.5 2.33 8.38 2.36 8.21L2.47 7.72C2.55 7.34 2.84 7.05 3.22 6.97L3.71 6.86C3.88 6.83 4 6.68 4 6.5C4 6.33 3.88 6.17 3.71 6.14L3.22 6.03C2.84 5.95 2.55 5.66 2.47 5.28L2.36 4.79ZM13 7C13.18 7 13.33 7.12 13.36 7.29L13.47 7.78C13.55 8.16 13.84 8.45 14.22 8.53L14.71 8.64C14.88 8.67 15 8.83 15 9C15 9.18 14.88 9.33 14.71 9.36L14.22 9.47C13.84 9.55 13.55 9.84 13.47 10.22L13.36 10.71C13.33 10.88 13.18 11 13 11C12.83 11 12.67 10.88 12.64 10.71L12.53 10.22C12.45 9.84 12.16 9.55 11.78 9.47L11.29 9.36C11.12 9.33 11 9.18 11 9C11 8.83 11.12 8.67 11.29 8.64L11.78 8.53C12.16 8.45 12.45 8.16 12.53 7.78L12.64 7.29C12.67 7.12 12.83 7 13 7Z"/>
</svg>