<?xml version="1.0" encoding="UTF-8"?>
<svg viewBox="0 0 15 15" version="1.1" xmlns="http://www.w3.org/2000/svg" xmlns:xlink="http://www.w3.org/1999/xlink">
  <path d="M14.1 14.4C13.81 14.4 13.54 14.33 13.29 14.22C13.04 14.11 12.75 14.04 12.45 14.04C12.15 14.04 11.87 14.11 11.61 14.22C11.37 14.33 11.09 14.4 10.8 14.4C10.51 14.4 10.24 14.33 9.99 14.22C9.73 14.11 9.45 14.04 9.15 14.04C8.85 14.04 8.57 14.11 8.31 14.22C8.07 14.33 7.79 14.4 7.5 14.4C7.21 14.4 6.94 14.33 6.69 14.22C6.44 14.11 6.15 14.04 5.85 14.04C5.55 14.04 5.27 14.11 5.02 14.22C4.77 14.33 4.49 14.4 4.21 14.4C3.92 14.4 3.64 14.33 3.39 14.22C3.14 14.11 2.85 14.04 2.56 14.04C2.26 14.04 1.97 14.11 1.72 14.22C1.47 14.33 1.19 14.4 0.9 14.4L0.9 13.19C1.19 13.19 1.47 13.12 1.72 13.01C1.97 12.89 2.26 12.83 2.56 12.83C2.85 12.83 3.14 12.89 3.39 13.01C3.64 13.12 3.92 13.19 4.21 13.19C4.49 13.19 4.77 13.12 5.02 13.01C5.27 12.89 5.56 12.83 5.85 12.83C6.15 12.83 6.44 12.89 6.69 13.01C6.94 13.12 7.21 13.19 7.5 13.19C7.79 13.19 8.07 13.12 8.31 13.01C8.57 12.89 8.85 12.83 9.15 12.83C9.45 12.83 9.73 12.89 9.99 13.01C10.23 13.12 10.51 13.19 10.8 13.19C11.09 13.19 11.37 13.12 11.61 13.01C11.87 12.89 12.15 12.83 12.45 12.83C12.75 12.83 13.04 12.89 13.29 13.01C13.53 13.12 13.81 13.19 14.1 13.19L14.1 14.4ZM4.64 8.44C5.25 8.44 5.75 7.94 5.75 7.33C5.75 6.72 5.25 6.23 4.64 6.23C4.02 6.23 3.52 6.72 3.52 7.33C3.52 7.94 4.02 8.44 4.64 8.44ZM4.79 12.28C4.62 12.58 4.24 12.68 3.94 12.5C3.64 12.33 3.54 11.95 3.71 11.65L6.29 7.22C6.39 7.05 6.53 6.91 6.69 6.82L10.01 4.82L12.27 0.99C12.48 0.62 12.96 0.49 13.33 0.71C13.7 0.92 13.83 1.4 13.62 1.77L10.92 6.35C10.82 6.52 10.69 6.65 10.52 6.74L6.6 9.17L4.8 12.28L4.79 12.28Z"/>
</svg>