<?xml version="1.0" encoding="UTF-8"?>
<svg viewBox="0 0 15 15" xmlns="http://www.w3.org/2000/svg">
  <path d="M8 6.5v-1c0 -0.27 -0.11 -0.52 -0.29 -0.71c-0.19 -0.19 -0.44 -0.29 -0.71 -0.29s-0.52 0.11 -0.71 0.29c-0.19 0.19 -0.29 0.44 -0.29 0.71v3zm-2 -3.5c0 -0.2 0.06 -0.39 0.17 -0.56s0.27 -0.29 0.45 -0.37c0.18 -0.08 0.38 -0.1 0.58 -0.06c0.19 0.04 0.37 0.13 0.51 0.27c0.14 0.14 0.24 0.32 0.27 0.51c0.04 0.19 0.02 0.4 -0.06 0.58c-0.08 0.18 -0.2 0.34 -0.37 0.45s-0.36 0.17 -0.56 0.17c-0.27 0 -0.52 -0.11 -0.71 -0.29c-0.19 -0.19 -0.29 -0.44 -0.29 -0.71zm9 3c0 0.27 -0.11 0.52 -0.29 0.71c-0.19 0.19 -0.44 0.29 -0.71 0.29h-1.58c-0.13 0 -0.26 0.02 -0.38 0.07c-0.12 0.05 -0.23 0.12 -0.33 0.22l-5.42 5.42c-0.19 0.18 -0.44 0.29 -0.7 0.29h-2.59c-0.27 0 -0.52 -0.11 -0.71 -0.29c-0.19 -0.19 -0.29 -0.44 -0.29 -0.71s0.11 -0.52 0.29 -0.71c0.19 -0.19 0.44 -0.29 0.71 -0.29h1.59c0.26 0 0.51 -0.11 0.7 -0.29l5.42 -5.42c0.09 -0.09 0.2 -0.17 0.33 -0.22c0.12 -0.05 0.25 -0.07 0.38 -0.07h2.58c0.27 0 0.52 0.11 0.71 0.29c0.19 0.19 0.29 0.44 0.29 0.71z"/>
</svg>