<?xml version="1.0" encoding="UTF-8"?>
<svg viewBox="0 0 15 15" version="1.1" xmlns="http://www.w3.org/2000/svg" xmlns:xlink="http://www.w3.org/1999/xlink">
  <path d="M10.44 3.62C10.44 3.31 10.33 3.05 10.11 2.84C9.89 2.63 9.62 2.53 9.32 2.53C9.01 2.53 8.75 2.63 8.53 2.84C8.31 3.05 8.21 3.31 8.21 3.62C8.21 3.93 8.31 4.19 8.53 4.4C8.75 4.61 9.01 4.71 9.32 4.71C9.62 4.71 9.89 4.61 10.11 4.4C10.33 4.19 10.44 3.93 10.44 3.62L10.44 3.62ZM7.51 15C7.75 15 7.94 14.89 8.09 14.66L11.3 9.82L11.47 10.49L10.99 14.11C10.97 14.29 11.01 14.46 11.11 14.6C11.21 14.74 11.36 14.83 11.54 14.86C11.72 14.9 11.89 14.86 12.04 14.75C12.2 14.64 12.28 14.5 12.31 14.32L12.8 10.61C12.81 10.48 12.8 10.35 12.77 10.22L11.67 5.86L14.53 5.35C14.68 5.32 14.8 5.25 14.89 5.12C14.98 4.99 15.01 4.85 14.99 4.7C14.95 4.55 14.87 4.42 14.73 4.32L8.17 0L7.57 0.87C7.43 1.08 7.46 1.25 7.68 1.4C7.88 1.53 8.06 1.49 8.21 1.3L8.55 0.79L13.88 4.29L9.52 5.07C9.36 5.11 9.23 5.19 9.14 5.32C9.04 5.45 9.02 5.59 9.06 5.74L10 9.41L6.93 14.01C6.87 14.11 6.84 14.22 6.84 14.33C6.84 14.52 6.91 14.67 7.04 14.8C7.17 14.93 7.32 15 7.51 15L7.51 15Z"/>
  <path d="M1.67 13.85L2.71 7.03L3.52 6.55L4.32 7.05C4.32 7.05 5.22 13.93 5.14 13.89C5.05 13.85 1.69 13.91 1.67 13.85L1.67 13.85Z"/>
  <path d="M1.13 4.12C1.08 4.12 1.04 4.14 1.01 4.17L0.06 5.05C-0.02 5.13 -0.02 5.27 0.07 5.34L2.85 7.72L0.07 10.1C-0.02 10.18 -0.02 10.31 0.06 10.39L1.01 11.27C1.09 11.35 1.22 11.34 1.29 11.24L3.52 8.21L5.75 11.24C5.81 11.34 5.95 11.35 6.03 11.27L6.97 10.39C7.06 10.31 7.06 10.18 6.97 10.1L4.18 7.72L6.97 5.34C7.06 5.27 7.06 5.13 6.97 5.05L6.03 4.17C5.99 4.14 5.94 4.12 5.89 4.12C5.83 4.12 5.78 4.15 5.75 4.2L3.52 7.23L1.29 4.2C1.25 4.14 1.19 4.11 1.13 4.12L1.13 4.12ZM3.52 7.6L3.64 7.72L3.52 7.84L3.4 7.72L3.52 7.6Z"/>
</svg>