<?xml version="1.0" encoding="UTF-8"?>
<svg xmlns="http://www.w3.org/2000/svg" viewBox="0 0 15 15">
  <path d="M10 1C9.73 1 9.48 1.11 9.29 1.29C9.11 1.48 9 1.73 9 2C9 2.27 9.11 2.52 9.29 2.71C9.48 2.89 9.73 3 10 3C10.27 3 10.52 2.89 10.71 2.71C10.89 2.52 11 2.27 11 2C11 1.73 10.89 1.48 10.71 1.29C10.52 1.11 10.27 1 10 1ZM5.5 3C5.25 3 4.5 3 5 3.75L6.25 6H4.5C4.22 6 3.98 6.1 3.75 6.25C2.94 5.12 2.24 5.55 1.51 6C1.11 6.25 0.69 6.5 0.25 6.5C0.18 6.5 0.12 6.53 0.08 6.58C0.03 6.62 0 6.68 0 6.75C0 6.82 0.03 6.88 0.08 6.92C0.12 6.97 0.18 7 0.25 7C0.63 7.02 1.06 6.91 1.49 6.79C2.14 6.62 2.8 6.45 3.25 6.75C3.16 6.94 3 7.5 3 8L3 9.51C2.79 9.71 2.62 9.63 2.44 9.55C2.3 9.49 2.16 9.42 2 9.5L1 12.45C1 12.7 1.39 12.75 1.5 12.5L2.25 10.74C3 10.74 4.5 10 5 9L9 10L11.5 12.5C11.7 12.7 12.12 12.36 11.96 12.12L10 9L12 6.5C12.25 7 12.5 7 12.99 7H13L13.6 7.75C13.99 8.24 14.82 7.74 14.5 7.25L12.83 4.79L13 4.5C13.06 4.31 12.64 3.92 12.5 4L10.5 5.5L8.89 3.19C8.84 3.13 8.78 3.08 8.72 3.05C8.65 3.02 8.57 3 8.5 3H5.5ZM9 5.25L9.5 6L6.78 7.92C6.72 7.95 6.66 7.98 6.6 8C6.53 8.01 6.46 8.01 6.4 8C6.33 7.99 6.27 7.96 6.21 7.93C6.16 7.89 6.11 7.84 6.07 7.79C6.03 7.73 6.01 7.67 6 7.6C5.98 7.54 5.98 7.47 6 7.4C6.01 7.34 6.04 7.28 6.08 7.22C6.12 7.17 6.17 7.12 6.22 7.08L9 5.25Z"/>
</svg>