<?xml version="1.0" encoding="UTF-8"?>
<svg viewBox="0 0 15 15" version="1.1" xmlns="http://www.w3.org/2000/svg" xmlns:xlink="http://www.w3.org/1999/xlink">
  <path d="M12.44 9.25C12.14 9.25 11.85 9.32 11.6 9.44C11.35 9.56 11.07 9.62 10.78 9.62C10.49 9.62 10.22 9.55 9.97 9.44C9.72 9.32 9.43 9.25 9.13 9.25C8.84 9.25 8.55 9.32 8.3 9.44C8.05 9.56 7.77 9.62 7.49 9.62C7.2 9.62 6.92 9.55 6.67 9.44C6.42 9.32 6.13 9.25 5.83 9.25C5.53 9.25 5.25 9.32 5 9.44C4.75 9.56 4.47 9.62 4.18 9.62C3.89 9.62 3.62 9.55 3.37 9.44C3.11 9.32 2.83 9.25 2.53 9.25C2.23 9.25 1.96 9.32 1.71 9.44C1.46 9.56 1.21 9.62 0.91 9.62L0.91 10.88C1.21 10.88 1.46 10.82 1.71 10.7C1.96 10.58 2.24 10.51 2.54 10.51C2.84 10.51 3.12 10.58 3.37 10.7C3.58 10.8 3.81 10.85 4.05 10.87L3.04 11.92C2.72 11.71 2.29 11.75 2.01 12.04L0.85 13.24C0.53 13.57 0.53 14.12 0.85 14.45C1.17 14.78 1.7 14.78 2.02 14.45L3.18 13.25C3.44 12.98 3.49 12.57 3.32 12.25L4.72 10.8C4.81 10.77 4.9 10.75 4.99 10.71C5.24 10.58 5.53 10.51 5.83 10.51C6.13 10.51 6.41 10.58 6.67 10.71C6.91 10.82 7.19 10.89 7.48 10.89C7.77 10.89 8.05 10.82 8.3 10.71C8.55 10.58 8.84 10.51 9.13 10.51C9.43 10.51 9.72 10.58 9.97 10.71C10.22 10.82 10.49 10.89 10.79 10.89C11.08 10.89 11.35 10.82 11.6 10.71C11.85 10.58 12.14 10.51 12.44 10.51C12.74 10.51 13.03 10.58 13.28 10.71C13.53 10.82 13.81 10.89 14.11 10.89L14.11 9.62C13.81 9.62 13.53 9.56 13.28 9.44C13.03 9.32 12.74 9.25 12.44 9.25L12.44 9.25ZM13 3.07L14.16 1.86C14.48 1.53 14.48 0.98 14.16 0.65C13.84 0.32 13.31 0.32 12.99 0.65L11.83 1.85C11.55 2.15 11.51 2.59 11.72 2.92L10.27 4.41L7.41 3.31C7.33 3.27 7.25 3.23 7.16 3.2C6.54 3.01 5.88 3.38 5.69 4.03L4.81 7.1L4.79 7.2L0.9 7.2L0.9 8.83C1.2 8.83 1.32 8.78 1.52 8.69C1.84 8.54 2.18 8.45 2.54 8.45C2.88 8.45 3.23 8.54 3.54 8.69C3.75 8.78 3.96 8.83 4.18 8.83C4.4 8.83 4.61 8.78 4.81 8.69C5.13 8.54 5.48 8.46 5.83 8.46C6.18 8.46 6.53 8.54 6.85 8.69C7.05 8.78 7.27 8.83 7.49 8.83C7.7 8.83 7.91 8.78 8.12 8.69C8.43 8.54 8.79 8.46 9.14 8.46C9.49 8.46 9.83 8.54 10.15 8.69C10.35 8.79 10.58 8.84 10.79 8.84C11.01 8.84 11.22 8.79 11.42 8.7C11.74 8.54 12.09 8.46 12.44 8.46C12.5 8.46 12.74 8.48 12.98 8.32C13.4 8.13 13.56 8.02 13.92 7.79C14.23 7.59 14.47 7.22 13.81 7.22L8.11 7.22L9.87 5.48L10.1 5.56C10.38 5.67 10.69 5.52 10.8 5.23C10.87 5.02 10.82 4.79 10.68 4.64L12.04 3.23C12.35 3.4 12.74 3.35 13.01 3.08L13 3.07ZM7.6 7.2L7.25 7.2L7.96 4.74L9.43 5.31L7.6 7.2L7.6 7.2ZM7.59 1.77L7.44 2.08C7.34 2.29 7.14 2.4 6.9 2.4L6.55 2.4C6.75 2.7 7.15 2.89 7.52 2.89C8.14 2.89 8.7 2.37 8.7 1.73L8.7 1.8L7.65 1.8L7.59 1.77L7.59 1.77ZM6.9 2.1C7.03 2.1 7.13 2.03 7.18 1.92L7.33 1.65C7.39 1.52 7.5 1.5 7.64 1.5L8.8 1.5C8.65 0.9 8.1 0.37 7.46 0.37C6.7 0.37 6.09 0.97 6.09 1.76C6.09 1.89 6.1 2.1 6.13 2.1L6.9 2.1L6.9 2.1Z"/>
</svg>