<?xml version="1.0" encoding="UTF-8"?>
<svg viewBox="0 0 15 15" version="1.1" xmlns="http://www.w3.org/2000/svg" xmlns:xlink="http://www.w3.org/1999/xlink">
  <path d="M1.93 6.47C1.86 6.6 1.82 6.75 1.79 6.91C1.78 6.98 1.77 7.07 1.77 7.14L1.83 10.78L0.57 13.49C0.53 13.57 0.5 13.66 0.48 13.76C0.41 14.21 0.72 14.62 1.17 14.69C1.52 14.75 1.85 14.57 2.01 14.27L3.4 11.32C3.43 11.25 3.45 11.18 3.47 11.1L3.47 10.99L3.46 8.74L5.6 9.66L5.94 11.86C6.01 12.18 6.27 12.44 6.62 12.5C7.07 12.56 7.49 12.25 7.55 11.81C7.57 11.74 7.57 11.66 7.56 11.59L7.14 8.93C7.09 8.68 6.92 8.46 6.68 8.35L4.77 7.5L5.99 5.4L6.59 6.16C6.65 6.23 6.73 6.29 6.82 6.32L9.12 6.99C9.42 7.06 9.74 6.9 9.85 6.61C9.99 6.27 9.83 5.9 9.5 5.77L9.47 5.75L7.47 5.17L5.97 3.38C5.75 3.14 5.45 2.97 5.1 2.91C4.49 2.82 3.91 3.11 3.61 3.6L1.94 6.47L1.93 6.47ZM8.51 11.68L8.37 12.77L4.42 13.73L4.46 14.4L14.09 14.4C14.43 14.4 14.7 14.13 14.7 13.79L14.69 0.87L13.37 0.56L12.61 3.96L11.35 4.49L10.22 7.62L11.29 10.02L10.99 10.94L8.51 11.68L8.51 11.68ZM5.83 2.75C6.51 2.75 7.06 2.2 7.06 1.52C7.06 0.85 6.51 0.3 5.84 0.3C5.16 0.3 4.61 0.85 4.61 1.52C4.61 2.2 5.16 2.75 5.84 2.75L5.83 2.75ZM3.39 2.94C3.48 2.77 3.43 2.56 3.26 2.46L2.66 2.12C2.49 2.02 2.28 2.08 2.18 2.24L0.35 5.39C0.26 5.56 0.31 5.77 0.48 5.87L1.07 6.21C1.24 6.31 1.46 6.25 1.55 6.09L3.38 2.94L3.39 2.94Z"/>
</svg>