<?xml version="1.0" encoding="UTF-8"?>
<svg viewBox="0 0 15 15" version="1.1" xmlns="http://www.w3.org/2000/svg" xmlns:xlink="http://www.w3.org/1999/xlink">
  <path d="M6.64 1.28C6.65 0.66 6.14 0.15 5.52 0.16C4.89 0.15 4.38 0.66 4.38 1.28C4.38 1.91 4.89 2.42 5.52 2.42C6.14 2.42 6.65 1.91 6.64 1.28ZM9.89 7.47L6.27 3.08C6.08 2.8 5.04 2.68 4.59 3.04L2.83 6.24L3.26 8.95C3.71 9.66 4.58 8.94 4.33 8.56L4.04 6.64L4.8 5.1L4.8 8.7L3 13.5C2.69 14.55 4.19 15.11 4.5 14.1L6.6 8.7L6.6 6L5.72 4.79C5.67 4.73 5.68 4.65 5.74 4.61C5.79 4.56 5.87 4.57 5.91 4.62L8.92 8.18C9.4 8.85 10.37 8.14 9.89 7.47L9.89 7.47ZM8.51 13.56L6.73 9.14L6 11.1L7.05 14.15C7.47 15.14 8.94 14.56 8.51 13.56L8.51 13.56ZM13.22 14.57L13.23 14.58C13.3 14.66 13.42 14.67 13.51 14.6C13.58 14.54 13.59 14.43 13.54 14.35L10.19 8.53L10.18 8.52C10.12 8.44 9.99 8.42 9.91 8.5C9.83 8.56 9.82 8.67 9.87 8.75L13.22 14.57L13.22 14.57Z"/>
</svg>