<?xml version="1.0" encoding="UTF-8"?>
<svg viewBox="0 0 15 15" version="1.1" xmlns="http://www.w3.org/2000/svg" xmlns:xlink="http://www.w3.org/1999/xlink">
  <path d="M6.96 0C6.08 0 5.36 0.72 5.36 1.61C5.36 2.49 6.08 3.21 6.96 3.21C7.85 3.21 8.57 2.49 8.57 1.61C8.57 0.72 7.85 0 6.96 0ZM1.25 4.9L2.68 7.5L5.89 6.43L6.96 10.71L4.82 12.86C4.53 13.18 4.32 13.35 4.29 13.93C4.29 15 5.36 15 5.36 15L11.79 15C11.79 15 12.86 15 12.86 13.93C12.86 12.86 11.79 12.86 11.79 12.86L8.57 12.86L9.64 11.79C10.71 10.71 10.64 10.21 10.51 9.64L9.64 5.36C9.39 4.4 8.72 3.93 7.5 4.13L6.43 4.29L3.21 5.89L2.14 4.29C1.67 3.66 0.87 4.2 1.25 4.9Z"/>
</svg>