<?xml version="1.0" encoding="UTF-8"?>
<svg viewBox="0 0 15 15" version="1.1" xmlns="http://www.w3.org/2000/svg" xmlns:xlink="http://www.w3.org/1999/xlink">
  <path d="M3.21 0L3.21 2.14C2.47 2.54 0.56 4.01 0.33 4.29C0.12 4.55 0.1 6.49 0.47 6.43C1.11 6.33 3.29 4.57 3.85 4.96C4.41 5.34 4.25 7.15 4.29 8.57C3.52 9.55 3.27 10.62 2.54 11.42C2.19 11.09 1.81 10.79 1.41 10.38C1.32 10.28 0.92 10.04 0.54 10.39C0.31 10.71 0.27 11.11 0.56 11.38C2.72 13.53 4.77 14.67 7.8 14.67C10.73 14.67 12.17 13.52 14.34 11.35C14.57 11.19 14.66 10.56 14.46 10.36C14.26 10.16 13.75 10.15 13.59 10.38C13.22 10.75 12.89 11.05 12.56 11.35C11.55 9.99 11.68 9.65 10.71 6.43C13 5.84 13.49 8.26 15 8.94L15 6.43C15 5.36 12.54 5.39 10.71 5.83C10.36 5.36 9.64 4.29 7.11 4.74C6.79 3.21 6.26 2.84 4.84 2.14L3.21 0ZM5.36 8.57C6.43 9.28 8.9 9.22 9.64 8.57C10.54 9.15 11.3 10.78 11.82 11.99C10.55 12.98 9.36 13.46 7.5 13.46C5.66 13.46 4.52 13.04 3.35 12.15C4.23 10.79 4.36 10.57 5.36 8.57Z"/>
</svg>