<?xml version="1.0" encoding="UTF-8"?>
<svg viewBox="0 0 15 15" version="1.1" xmlns="http://www.w3.org/2000/svg" xmlns:xlink="http://www.w3.org/1999/xlink">
  <path d="M1.47 0.07C-2.82 2.86 4.92 3.32 0.16 6.62L1.1 6.61C5.57 3.08 -2.21 2.82 2.5 0.05L1.47 0.07ZM4.72 0.08C0.43 2.86 8.17 3.32 3.41 6.62L4.35 6.61C8.82 3.08 1.04 2.83 5.75 0.05L4.72 0.08ZM10.94 3.87C11.76 3.87 12.43 3.21 12.43 2.38C12.43 1.56 11.76 0.89 10.94 0.89C10.11 0.89 9.45 1.56 9.45 2.38C9.45 3.21 10.11 3.87 10.94 3.87ZM12.87 4.82L14.96 10.63C14.98 10.68 14.99 10.74 14.99 10.79L15 10.89C15 11.23 14.76 11.51 14.44 11.57L14.33 11.58L10.49 11.57L7.86 14.76C7.6 15.07 7.16 15.09 6.87 14.81C6.57 14.52 6.55 14.03 6.81 13.72L9.41 10.58C9.52 10.35 9.75 10.19 10.03 10.19L13.29 10.2L11.9 6.32L11.1 7.9L11.05 7.98L11.02 8.03C10.96 8.13 10.87 8.21 10.75 8.25L7.92 9.22C7.65 9.31 7.35 9.17 7.26 8.9C7.17 8.63 7.31 8.33 7.58 8.24L10.24 7.33L11.53 4.8L11.55 4.75L11.58 4.71C11.66 4.57 11.79 4.45 11.96 4.39C12.33 4.26 12.74 4.45 12.87 4.82ZM15 12.96L15 13.75L11.35 13.75L11.35 12.96L15 12.96ZM0.89 10.82L4.5 10.82L4.02 15L1.3 15L0.89 10.82Z"/>
</svg>