<?xml version="1.0" encoding="UTF-8"?>
<svg viewBox="0 0 15 15" version="1.1" xmlns="http://www.w3.org/2000/svg" xmlns:xlink="http://www.w3.org/1999/xlink">
  <path d="M4.97 5.18C4.69 3.39 7.28 2.85 7.69 4.68L8.39 8.18L11.02 8.19C11.78 8.19 12.18 8.8 12.18 9.37L12.18 14.14C12.18 15.3 10.53 15.29 10.53 14.12C10.53 13.03 10.53 10.41 10.53 10.41L7.18 10.41C6.4 10.41 5.91 9.87 5.79 9.26L4.97 5.18Z"/>
  <path d="M4.66 1.55a1.55 1.55 0 1 0 3.09 0a1.55 1.55 0 1 0 -3.09 0z"/>
  <path d="M2.84 7.06C2.65 6.06 3.96 5.83 4.14 6.82L4.72 9.94C4.85 10.59 5.33 11.15 6.01 11.35C6.21 11.42 6.43 11.42 6.64 11.44L8.53 11.45C9.54 11.44 9.53 12.77 8.52 12.76L6.53 12.75C6.22 12.75 5.92 12.71 5.61 12.62C4.43 12.27 3.61 11.3 3.39 10.17L2.84 7.06Z"/>
</svg>