<?xml version="1.0" encoding="UTF-8"?>
<svg viewBox="0 0 15 15" version="1.1" xmlns="http://www.w3.org/2000/svg" xmlns:xlink="http://www.w3.org/1999/xlink">
  <path d="M7.67 2.68C8.36 2.73 8.97 2.24 9.02 1.59C9.07 0.93 8.56 0.35 7.87 0.3C7.18 0.25 6.58 0.74 6.53 1.4C6.47 2.06 6.99 2.63 7.67 2.68L7.67 2.68ZM12.84 12.3L12.42 8.7L11.75 8.7C11.75 8.4 11.75 8.37 11.73 8.18C11.71 8 11.65 7.86 11.56 7.82C11.63 7.73 11.69 7.63 11.7 7.51C11.71 7.32 11.63 7.14 11.48 7.04L9.76 5.9L8.49 3.52C8.28 3.21 7.93 2.96 7.5 2.92C7.17 2.9 6.86 3.01 6.62 3.17L4.11 5.11C4.03 5.18 3.97 5.27 3.94 5.37L3.35 7.73L3.31 7.8L3.31 7.8L3.3 7.8C3.2 7.8 3.11 7.89 3.08 8.02C3.05 8.14 3.01 8.3 3.01 8.43L3.01 8.7L2.36 8.7L1.94 12.3L3.62 12.3L2.88 13.48C2.84 13.57 2.78 13.7 2.77 13.82C2.73 14.27 3.08 14.66 3.55 14.69C3.88 14.72 4.17 14.56 4.34 14.3L5.59 12.3L5.75 12.3L5.72 12.08L6.07 11.52C6.11 11.45 6.23 11.27 6.24 11.18L6.66 9.35L8.46 11.23L9.03 14.06C9.12 14.39 9.4 14.67 9.79 14.69C10.26 14.73 10.67 14.4 10.7 13.95L10.7 13.79L10.4 12.3L12.84 12.3L12.84 12.3ZM3.29 8.4C3.31 8.26 3.36 8.18 3.45 8.18L3.49 8.18C3.59 8.29 3.72 8.37 3.89 8.38C4.07 8.4 4.24 8.32 4.35 8.19C4.37 8.21 4.39 8.25 4.41 8.29C4.43 8.38 4.45 8.48 4.45 8.56C4.45 8.61 4.45 8.71 4.44 8.71L3.28 8.71C3.28 8.71 3.28 8.51 3.29 8.4L3.29 8.4ZM5.01 8.7L4.65 8.7C4.66 8.4 4.66 8.37 4.64 8.18C4.62 8.03 4.58 7.91 4.51 7.85L4.95 5.91L5.83 5.24L5.01 8.7ZM11.54 8.7L10.37 8.7C10.37 8.7 10.37 8.51 10.38 8.4C10.4 8.26 10.45 8.18 10.55 8.18C10.68 8.18 10.8 8.17 10.91 8.17C11.02 8.17 11.17 8.16 11.36 8.16C11.43 8.16 11.48 8.2 11.5 8.29C11.53 8.38 11.54 8.48 11.54 8.56L11.54 8.7L11.54 8.7ZM7.77 8.02L8.33 5.63L8.81 6.53C8.85 6.59 8.89 6.64 8.95 6.69L10.64 7.8L10.39 7.8C10.29 7.8 10.25 7.89 10.22 8.02C10.19 8.14 10.2 8.3 10.2 8.43L10.2 8.7L9.44 8.7L9.32 9.76L7.77 8.01L7.77 8.02Z"/>
</svg>