<?xml version="1.0" encoding="UTF-8"?>
<svg viewBox="0 0 15 15" version="1.1" xmlns="http://www.w3.org/2000/svg" xmlns:xlink="http://www.w3.org/1999/xlink">
  <path d="M3.15 7.8C3.1 8.05 3.3 8.25 3.5 8.3C3.75 8.35 3.95 8.15 4 7.95C4.05 7.7 3.9 7.5 3.65 7.45C3.4 7.4 3.2 7.55 3.15 7.8ZM3.55 6.8C3.6 6.6 3.45 6.35 3.2 6.35C3 6.3 2.75 6.45 2.75 6.7C2.7 6.95 2.85 7.15 3.1 7.15C3.3 7.2 3.5 7.05 3.55 6.8ZM2.7 5.25C2.9 5.25 3.1 5.45 3.1 5.65C3.1 5.85 2.9 6.05 2.7 6.05C2.5 6.05 2.3 5.85 2.3 5.65C2.3 5.45 2.5 5.25 2.7 5.25ZM2.25 4.2C2.45 4.2 2.6 4.35 2.6 4.55C2.6 4.75 2.45 4.9 2.25 4.9C2.05 4.9 1.9 4.75 1.9 4.55C1.9 4.35 2.05 4.2 2.25 4.2ZM1.8 3.1C2 3.1 2.15 3.25 2.15 3.45C2.15 3.65 2 3.8 1.8 3.8C1.6 3.8 1.45 3.65 1.45 3.45C1.45 3.25 1.6 3.1 1.8 3.1ZM1.3 2.1C1.45 2.1 1.6 2.25 1.6 2.4C1.6 2.55 1.45 2.7 1.3 2.7C1.15 2.7 1 2.55 1 2.4C1 2.25 1.15 2.1 1.3 2.1ZM4.75 6.25C4.75 6 4.95 5.85 5.2 5.85C5.45 5.85 5.6 6.05 5.6 6.3C5.6 6.55 5.4 6.7 5.15 6.7C4.9 6.7 4.75 6.5 4.75 6.25ZM4.5 5C4.7 5 4.9 5.2 4.9 5.4C4.9 5.6 4.7 5.8 4.5 5.8C4.3 5.8 4.1 5.6 4.1 5.4C4.1 5.2 4.3 5 4.5 5ZM3.85 4.1C4.05 4.1 4.25 4.3 4.25 4.5C4.25 4.7 4.05 4.9 3.85 4.9C3.65 4.9 3.45 4.7 3.45 4.5C3.45 4.3 3.65 4.1 3.85 4.1ZM3.2 3.25C3.4 3.25 3.55 3.4 3.55 3.6C3.55 3.8 3.4 3.95 3.2 3.95C3 3.95 2.85 3.8 2.85 3.6C2.85 3.4 3 3.25 3.2 3.25ZM2.5 2.4C2.7 2.4 2.85 2.55 2.85 2.75C2.85 2.95 2.7 3.1 2.5 3.1C2.3 3.1 2.15 2.95 2.15 2.75C2.15 2.55 2.3 2.4 2.5 2.4ZM1.85 1.55C2 1.55 2.15 1.7 2.15 1.85C2.15 2 2 2.15 1.85 2.15C1.7 2.15 1.55 2 1.55 1.85C1.55 1.7 1.7 1.55 1.85 1.55ZM5.9 4.45C5.65 4.45 5.45 4.3 5.45 4.05C5.45 3.8 5.6 3.6 5.85 3.6C6.1 3.6 6.3 3.75 6.3 4C6.3 4.2 6.15 4.4 5.9 4.45ZM5.4 3.3C5.4 3.5 5.25 3.7 5 3.7C4.8 3.7 4.6 3.55 4.6 3.3C4.6 3.1 4.75 2.9 5 2.9C5.2 2.95 5.4 3.1 5.4 3.3L5.4 3.3ZM4.5 2.65C4.5 2.85 4.35 3.05 4.15 3.05C3.95 3.05 3.75 2.9 3.75 2.7C3.75 2.5 3.9 2.3 4.1 2.3C4.3 2.3 4.5 2.45 4.5 2.65ZM3.25 1.65C3.45 1.65 3.6 1.8 3.6 2C3.6 2.2 3.45 2.35 3.25 2.35C3.05 2.35 2.9 2.2 2.9 2C2.9 1.8 3.05 1.65 3.25 1.65ZM2.35 1.05C2.5 1.05 2.65 1.2 2.65 1.35C2.65 1.5 2.5 1.65 2.35 1.65C2.2 1.65 2.05 1.5 2.05 1.35C2.05 1.2 2.2 1.05 2.35 1.05ZM2.9 0.5C3.05 0.5 3.2 0.65 3.2 0.8C3.2 0.95 3.05 1.1 2.9 1.1C2.75 1.1 2.6 0.95 2.6 0.8C2.6 0.65 2.75 0.5 2.9 0.5ZM4 0.95C4.2 0.95 4.35 1.1 4.35 1.3C4.35 1.5 4.2 1.65 4 1.65C3.8 1.65 3.65 1.5 3.65 1.3C3.65 1.1 3.8 0.95 4 0.95ZM5.15 1.4C5.35 1.4 5.5 1.55 5.5 1.75C5.5 1.95 5.35 2.1 5.15 2.1C4.95 2.1 4.8 1.95 4.8 1.75C4.8 1.55 4.95 1.4 5.15 1.4ZM6.3 1.9C6.5 1.9 6.65 2.05 6.65 2.25C6.65 2.45 6.5 2.6 6.3 2.6C6.1 2.6 5.95 2.45 5.95 2.25C5.95 2.05 6.1 1.9 6.3 1.9ZM7.45 2.3C7.65 2.3 7.85 2.5 7.85 2.7C7.85 2.9 7.65 3.1 7.45 3.1C7.25 3.1 7.05 2.9 7.05 2.7C7.05 2.5 7.25 2.3 7.45 2.3ZM8.6 2.8C8.8 2.8 9 3 9 3.2C9 3.4 8.8 3.6 8.6 3.6C8.4 3.6 8.2 3.4 8.2 3.2C8.2 3 8.4 2.8 8.6 2.8ZM9.7 3.2C9.95 3.2 10.15 3.4 10.15 3.65C10.15 3.9 9.95 4.1 9.7 4.1C9.45 4.1 9.25 3.9 9.25 3.65C9.25 3.4 9.45 3.2 9.7 3.2ZM0.5 0L3 0L3 0.5L2.5 0.5L2.5 1L2 1L2 1.5L1.5 1.5L1.5 2L1 2L1 2.5L0.5 2.5L0.5 0ZM13 5L14 5L14.5 5.5L14.5 6L10.5 10L10.5 15L6 15L6 12.5L4 12.5C3.45 12.5 3 12.05 3 11.5L3 11L3 11L6 8.5L9.5 8.5L13 5ZM6.5 10.5L6.5 11L7 11L7 12.5L6.5 12.5L6.5 13L7.5 13L8 12.5L8 11L7.5 10.5L6.5 10.5ZM7.75 4.5C8.7 4.5 9.5 5.3 9.5 6.25C9.5 7.2 8.7 8 7.75 8C6.8 8 6 7.2 6 6.25C6 5.3 6.8 4.5 7.75 4.5Z"/>
</svg>