<?xml version="1.0" encoding="UTF-8"?>
<svg viewBox="0 0 15 15" version="1.1" xmlns="http://www.w3.org/2000/svg" xmlns:xlink="http://www.w3.org/1999/xlink">
  <path d="M3.68 11.76L0 8.06L0 8.71L3.43 12.15C3.82 12.58 4.49 12.09 4.49 12.09L4.17 11.74C4.17 11.74 3.85 11.95 3.69 11.77L3.68 11.76L3.68 11.76ZM0 4.8L3.9 4.8L3.9 5.1L0 5.1L0 4.8ZM13.97 3.75L14.4 3.95L10.13 12.6L9.65 12.6L13.97 3.75ZM6.88 3.04L5.16 5.03C5.06 5.16 4.91 5.24 4.73 5.24C4.42 5.24 4.18 4.99 4.18 4.68C4.18 4.51 4.25 4.36 4.37 4.26L6.22 2.12C6.32 2 6.47 1.92 6.65 1.92L9.33 1.92C9.53 1.92 9.71 2 9.84 2.12L11.55 3.84L12.97 2.42C13.07 2.34 13.2 2.28 13.34 2.28C13.66 2.28 13.91 2.54 13.91 2.86C13.91 3 13.87 3.12 13.79 3.23L12.08 4.95C11.56 5.48 11.14 5.03 11.14 5.03L10.09 3.98L8.45 5.88L9.95 7.38C9.95 7.38 10.27 7.68 10.09 8.27L9.24 12.03C9.18 12.36 8.89 12.6 8.54 12.6C8.15 12.6 7.83 12.28 7.83 11.89C7.83 11.82 7.84 11.76 7.85 11.71L8.55 8.62L6.84 6.96L5.37 8.6C5.37 8.6 5.14 8.89 4.51 8.87L1.53 8.88C1.19 8.88 0.89 8.65 0.82 8.31C0.73 7.93 0.97 7.55 1.35 7.46C1.41 7.45 1.47 7.44 1.53 7.45L4.09 7.45L7.88 3.05L6.89 3.04L6.88 3.04Z"/>
  <path d="M13.45 12.65C13.45 12.94 13.21 13.2 12.92 13.2L4.2 13.2L4.2 13.5L12.92 13.5C13.41 13.5 13.8 13.13 13.8 12.64L13.45 12.65L13.45 12.65Z"/>
  <path d="M9.58 1.11C9.58 1.73 10.07 2.22 10.68 2.22C11.3 2.22 11.79 1.73 11.79 1.11C11.79 0.5 11.3 0 10.68 0C10.07 0 9.58 0.5 9.58 1.11Z"/>
</svg>