<?xml version="1.0" encoding="UTF-8"?>
<svg version="1.1" xmlns="http://www.w3.org/2000/svg" viewBox="0 0 15 15">
  <path d="M15 4.5C15 5.33 14.33 6 13.5 6S12 5.33 12 4.5S12.67 3 13.5 3S15 3.67 15 4.5zM13.72 11.89c-0.06 -0.12 -0.21 -0.17 -0.33 -0.11c-0.68 0.42 -1.52 0.51 -2.28 0.25L4.78 8.86L7.5 7.5v-3L9 5.25v3L10.5 9L12 8.25L10.5 7.5V3l-3 -1.5L6 2.25v4.5L3.28 8.11L0.61 6.78C0.49 6.72 0.34 6.77 0.28 6.9C0.21 7.02 0.27 7.17 0.39 7.23l10.5 5.25c0.32 0.14 0.66 0.2 1 0.19c0.6 -0.01 1.19 -0.16 1.72 -0.44c0.12 -0.06 0.17 -0.21 0.11 -0.34C13.72 11.89 13.72 11.89 13.72 11.89z"/>
</svg>