<?xml version="1.0" encoding="UTF-8"?>
<svg viewBox="0 0 15 15" version="1.1" xmlns="http://www.w3.org/2000/svg" xmlns:xlink="http://www.w3.org/1999/xlink">
  <path d="M5.57 3.96C6.32 3.96 6.96 3.32 6.96 2.57C6.96 1.82 6.32 1.18 5.57 1.18C4.82 1.18 4.18 1.82 4.18 2.57C4.18 3.32 4.82 3.96 5.57 3.96Z"/>
  <path d="M14.25 6.21L10.29 5.04L8.46 6L7.71 5.36L10.18 2.89L10.18 2.89C10.39 2.79 10.5 2.57 10.5 2.25C10.5 1.82 10.18 1.5 9.75 1.5C9.54 1.5 9.32 1.61 9.11 1.82L6.11 4.39L4.29 4.18L2.89 0.54L2.89 0.54C2.79 0.21 2.46 0 2.14 0C1.71 0 1.29 0.32 1.29 0.75C1.29 0.86 1.29 0.96 1.39 0.96L3.11 5.68L12 11.57C12.21 11.68 12.32 11.79 12.54 11.79C12.96 11.79 13.29 11.46 13.29 11.04C13.29 10.82 13.18 10.5 12.96 10.39L12.96 10.39L12.96 10.39C12.96 10.39 12.96 10.39 12.96 10.39L8.89 7.82L10.5 6.75L13.82 7.82C13.93 7.93 14.04 7.93 14.25 7.93C14.68 7.93 15 7.5 15 7.07C15 6.64 14.68 6.32 14.25 6.21Z"/>
  <path d="M0 15L0 7.93L6.21 11.04L7.5 15z"/>
  <path d="M11.46 13.29C8.46 10.18 7.82 11.79 7.82 11.79C7.82 11.79 9.32 11.68 9.32 13.18C9.32 14.36 8.57 15 8.04 15.11L14.46 15.11C13.61 14.79 12.86 14.79 11.46 13.29Z"/>
</svg>