<?xml version="1.0" encoding="UTF-8"?>
<svg viewBox="0 0 15 15" version="1.1" xmlns="http://www.w3.org/2000/svg" xmlns:xlink="http://www.w3.org/1999/xlink">
  <path d="M6.61 1.91C6.82 1.23 6.48 0.55 5.8 0.34C5.18 0.14 4.43 0.48 4.23 1.16C4.02 1.84 4.36 2.52 5.05 2.73C5.73 2.93 6.41 2.52 6.61 1.91Z"/>
  <path d="M8.93 5.66L8.45 2.8L11.32 1.16C11.45 1.09 11.59 0.95 11.59 0.82C11.66 0.48 11.52 0.2 11.18 0.07C11.05 0 10.84 0.07 10.7 0.14L6.61 2.52C6.48 2.59 6.34 2.66 6.27 2.8L4.57 5.11L2.18 4.84C2.05 4.84 1.91 4.98 1.84 5.11C1.7 5.45 1.84 5.8 2.18 5.93C2.32 6 2.45 6 2.59 5.93L4.98 6.2C5.05 6.2 5.11 6.14 5.18 6.07L6.14 4.84L6.61 7.5C6.68 7.84 6.95 8.18 7.3 8.39L9.41 9L9.75 11.39C9.82 11.66 9.95 11.93 10.23 12C10.64 12.14 11.05 11.93 11.18 11.52C11.25 11.39 11.25 11.25 11.18 11.18L10.84 8.18C10.77 7.98 10.64 7.77 10.43 7.64L9.14 7.23L11.32 5.93L13.98 7.09C13.98 7.09 13.98 7.09 14.05 7.09C14.45 7.23 14.86 7.02 15 6.61C15.14 6.2 14.93 5.86 14.59 5.66L11.59 4.3C11.59 4.3 11.59 4.3 11.52 4.3C11.32 4.23 11.05 4.23 10.91 4.36L8.93 5.66Z"/>
  <path d="M0 14.93L0 7.7L7.43 10.5L8.11 14.93C8.11 15 3.89 14.93 0 14.93Z"/>
</svg>