<?xml version="1.0" encoding="UTF-8"?>
<svg viewBox="0 0 15 15" version="1.1" xmlns="http://www.w3.org/2000/svg" xmlns:xlink="http://www.w3.org/1999/xlink">
  <path d="M6.21 3.72C6.8 3.72 7.28 3.22 7.28 2.61C7.28 2 6.8 1.5 6.21 1.5C5.61 1.5 5.13 2 5.13 2.61C5.13 3.22 5.61 3.72 6.21 3.72ZM7.47 12.6L12.59 12.6C12.59 12.6 12.92 12.66 13.58 12.12L14.7 11.27L14.7 12.27L13.56 13.15C13.56 13.15 13.22 13.44 12.65 13.5L7.05 13.5L7.48 12.6L7.47 12.6ZM0.35 13.5L5.47 13.5L5.89 12.6L0.73 12.6L0.31 13.5L0.35 13.5ZM6.75 5.11C6.75 4.47 6.22 3.96 5.63 3.96C5.03 3.96 4.5 4.47 4.5 5.11L4.5 7.91C4.5 8.27 4.76 8.7 5 8.7L2.6 8.7L1.3 11.27C1.27 11.33 1.25 11.45 1.25 11.52C1.25 11.75 1.59 12 1.8 12L10.5 12C10.5 12 10.9 12.04 11.47 11.55L13.77 9.73L12.9 8.1C12.9 8.1 12.71 7.7 11.97 7.58L10.23 7.27L9.3 5.61L9.26 5.59C9.13 5.42 9 5.41 8.7 5.55L8.7 5.55C8.7 5.66 8.55 5.84 8.61 5.99L9.3 7.22L9.3 7.23L8.39 8.81L6.6 8.1L6.6 7.5L8.13 7.5C8.2 7.5 8.27 7.44 8.33 7.41C8.6 7.31 8.73 6.97 8.63 6.69C8.55 6.47 8.36 6.33 8.16 6.33L6.75 6.32L6.75 5.1"/>
</svg>