<?xml version="1.0" encoding="UTF-8"?>
<svg viewBox="0 0 15 15" version="1.1" xmlns="http://www.w3.org/2000/svg" xmlns:xlink="http://www.w3.org/1999/xlink">
  <path d="M1.46 1.1C1.76 1.1 2.06 1.2 2.31 1.4L12.21 9.25C12.46 9.45 12.61 9.7 12.71 10C12.76 10.25 12.76 10.5 12.66 10.7C13.16 11 13.51 11.55 13.51 12.2C13.51 13.2 12.71 14 11.76 14C10.81 14 10.01 13.2 10.01 12.25C10.01 11.3 10.81 10.5 11.76 10.5C11.86 10.5 12.01 10.5 12.11 10.55C12.16 10.45 12.16 10.3 12.11 10.15C12.06 9.95 11.96 9.8 11.81 9.65L11.21 9.15L8.16 10.15C7.56 10.35 6.86 10 6.66 9.4L6.61 9.25L5.86 10.9C6.21 11.2 6.46 11.7 6.46 12.2C6.46 13.15 5.66 13.95 4.71 13.95C3.76 13.95 2.96 13.15 2.96 12.2C2.96 11.25 3.81 10.5 4.76 10.5C5.01 10.5 5.21 10.55 5.41 10.65L6.36 8.5L4.86 4.15L1.96 1.85C1.81 1.75 1.61 1.65 1.41 1.65C0.91 1.65 0.56 2.05 0.56 2.5C0.56 2.8 0.71 3.05 0.91 3.2C1.01 3.3 1.06 3.5 0.96 3.6C0.86 3.7 0.71 3.75 0.56 3.65C0.21 3.4 0.01 3 0.01 2.5C0.01 1.7 0.66 1.1 1.46 1.1ZM11.76 11.25C11.21 11.25 10.76 11.7 10.76 12.25C10.76 12.8 11.21 13.25 11.76 13.25C12.31 13.25 12.76 12.8 12.76 12.25C12.76 11.7 12.31 11.25 11.76 11.25ZM4.76 11.25C4.21 11.25 3.76 11.7 3.76 12.25C3.76 12.8 4.21 13.25 4.76 13.25C5.31 13.25 5.76 12.8 5.76 12.25C5.76 11.7 5.31 11.25 4.76 11.25ZM12.41 7.05L14.76 8.9L14.78 8.92C14.87 8.99 15.21 9.32 14.81 9.8C14.86 9.8 14.41 10.35 13.86 9.9L11.96 8.45L10.46 7.25L11.46 6.95C12.16 6.75 12.41 7.05 12.41 7.05ZM7.71 2.2C8.46 2.2 9.06 2.8 9.06 3.55C9.06 4.35 8.46 4.9 7.71 4.9C6.96 4.9 6.36 4.3 6.36 3.55C6.36 2.8 6.96 2.2 7.71 2.2Z"/>
</svg>