<?xml version="1.0" encoding="UTF-8"?>
<svg version="1.1" xmlns="http://www.w3.org/2000/svg" viewBox="0 0 15 15">
  <path d="M10.11 2C10 2 9.68 2.15 9.68 2.15L6.35 3.83C5.91 4 5.74 4.71 6 5.06l0.97 1.41L3 8.5L5 10l2.5 -1.5l2.5 1.5l1 -1l-3 -4l2.56 -1.53c0.53 -0.27 0.44 -0.7 0.44 -0.97C11 2.29 10.64 2 10.11 2zM12.25 5C11.28 5 10.5 5.78 10.5 6.75s0.78 1.75 1.75 1.75s1.75 -0.78 1.75 -1.75S13.22 5 12.25 5zM2.5 10L0 11.5V13l2.5 -1.5L5 13l2.5 -1.5l2.5 1.5L12 11.5l3 1.5v-1.5L12 10l-2 1.5l-2.5 -1.5L5 11.5L2.5 10z"/>
</svg>