<?xml version="1.0" encoding="UTF-8"?>
<svg viewBox="0 0 15 15" version="1.1" xmlns="http://www.w3.org/2000/svg" xmlns:xlink="http://www.w3.org/1999/xlink">
  <path d="M3.43 0L6.64 5.46L6.64 5.46L7.5 4.82L4.61 0L3.43 0L3.43 0ZM11.79 11.25L9.21 13.07L9.75 13.93L12.32 12.11L11.79 11.25ZM10.5 8.36C10.71 8.25 10.93 8.14 11.14 8.14L14.04 8.14C14.57 8.14 15 8.57 15 9.11C15 9.64 14.57 10.07 14.04 10.07L11.68 10.07L8.57 12.21C7.5 12.96 6.86 12.11 6.86 12.11L4.39 9.86C3.96 9.43 4.07 8.46 4.5 8.04L7.82 5.68C8.14 5.36 8.68 5.46 8.89 5.79C9.21 6.11 9.11 6.64 8.79 6.86L6.64 8.36L8.14 9.86L10.5 8.36ZM3.43 8.14C4.29 8.14 4.93 7.5 4.93 6.64C4.93 5.79 4.29 5.14 3.43 5.14C2.57 5.14 1.93 5.79 1.93 6.64C1.93 7.5 2.57 8.14 3.43 8.14Z"/>
</svg>