<?xml version="1.0" encoding="UTF-8"?>
<svg viewBox="0 0 15 15" version="1.1" xmlns="http://www.w3.org/2000/svg" xmlns:xlink="http://www.w3.org/1999/xlink">
  <path d="M10.11 2C10.34 2 10.54 2.16 10.59 2.38L11 4L11.64 4C11.85 4 12.04 4.14 12.11 4.34L13 7C13.55 7 14 7.45 14 8L14 11L13 11L13 12C13 12.55 12.55 13 12 13C11.45 13 11 12.55 11 12L11 11L8 11L8 12C8 12.55 7.55 13 7 13C6.45 13 6 12.55 6 12L6 11L5 11L5 8C5 7.45 5.45 7 6 7L6.89 4.34C6.96 4.14 7.15 4 7.36 4L8 4L8.41 2.38C8.46 2.16 8.66 2 8.89 2L10.11 2ZM7 8C6.45 8 6 8.45 6 9C6 9.55 6.45 10 7 10C7.55 10 8 9.55 8 9C8 8.45 7.55 8 7 8ZM7 7L12 7L11.38 5L7.62 5L7 7ZM12 10C12.55 10 13 9.55 13 9C13 8.45 12.55 8 12 8C11.45 8 11 8.45 11 9C11 9.55 11.45 10 12 10Z"/>
  <path d="M2.5 9.87L2.5 11L2.47 11.16L1.97 12.66C1.89 12.92 1.6 13.06 1.34 12.97C1.08 12.89 0.94 12.6 1.03 12.34L1.5 10.92L1.5 9.87C1.2 9.69 1 9.37 1 9L1 7.25C1 6.7 1.45 6.25 2 6.25C2.21 6.25 2.4 6.31 2.57 6.43L3.41 6.88L4.15 6.15C4.34 5.95 4.66 5.95 4.85 6.15C5.05 6.34 5.05 6.66 4.85 6.85L3.85 7.85C3.7 8.01 3.46 8.05 3.26 7.94L3 7.8L3 8.94L4.22 9.55C4.39 9.64 4.5 9.81 4.5 10L4.5 11.5C4.5 11.78 4.28 12 4 12C3.72 12 3.5 11.78 3.5 11.5L3.5 10.31L2.55 9.83C2.53 9.85 2.52 9.86 2.5 9.87L2.5 9.87ZM2 6C1.45 6 1 5.55 1 5C1 4.45 1.45 4 2 4C2.55 4 3 4.45 3 5C3 5.55 2.55 6 2 6Z"/>
</svg>