<?xml version="1.0" encoding="UTF-8"?>
<svg viewBox="0 0 15 15" version="1.1" xmlns="http://www.w3.org/2000/svg" xmlns:xlink="http://www.w3.org/1999/xlink">
  <path d="M1.77 11.79C1.32 11.79 0.64 12.17 0.02 12.48L0 14.65C0.65 14.34 1.35 13.93 1.77 13.93C2.49 13.93 3.86 15 4.61 15C5.29 15 6.74 13.93 7.46 13.93C8.17 13.93 9.62 15 10.3 15C11.02 15 12.47 13.93 13.14 13.93C13.56 13.93 14.29 14.35 14.95 14.66L15 12.49C14.36 12.17 13.61 11.76 13.14 11.79C12.46 11.79 11.06 12.86 10.3 12.86C9.67 12.86 8.17 11.79 7.46 11.79C6.74 11.79 5.25 12.86 4.61 12.86C3.94 12.86 2.53 11.79 1.77 11.79ZM5.09 4.29C4.23 4.29 3.21 5.36 3.21 6.96L3.21 10.71L4.55 10.71L4.55 6.43C4.55 5.78 4.8 5.68 5.09 5.68L5.09 10.71L9.91 10.71L9.91 5.68C10.2 5.68 10.41 5.79 10.45 6.43L10.45 10.71L11.79 10.71L11.79 6.96C11.79 5.36 10.77 4.29 9.91 4.29L5.09 4.29ZM7.5 0.27C6.46 0.27 5.63 1.11 5.63 2.14C5.63 3.18 6.46 4.02 7.5 4.02C8.54 4.02 9.38 3.18 9.38 2.14C9.38 1.11 8.54 0.27 7.5 0.27Z"/>
</svg>