<?xml version="1.0" encoding="UTF-8"?>
<svg viewBox="0 0 15 15" version="1.1" xmlns="http://www.w3.org/2000/svg" xmlns:xlink="http://www.w3.org/1999/xlink">
  <path d="M5.14 3.21L4.18 4.71L4.18 6.54L5.14 6.54L5.14 4.29L6.43 4.29L6.43 7.5L8.57 7.5L8.57 4.29L9.86 4.29L9.86 6.54L10.82 6.54L10.82 4.71L9.86 3.21z"/>
  <path d="M7.5 2.79L7.5 2.79C6.75 2.79 6.11 2.14 6.11 1.39C6.11 0.64 6.75 0 7.5 0C8.25 0 8.89 0.64 8.89 1.39C8.89 2.14 8.25 2.79 7.5 2.79Z"/>
  <path d="M2.79 8.46L1.93 10.29C1.93 10.29 6.43 11.25 7.5 11.25C8.57 11.25 13.07 10.29 13.07 10.29L12.11 8.36C12.11 8.36 8.68 9.11 7.39 9.11C6.11 9.11 2.79 8.46 2.79 8.46Z"/>
  <path d="M0.96 12.21L0 14.04C0 14.04 6 15 7.5 15C9 15 15 14.04 15 14.04L14.04 12.11C14.04 12.11 9 13.18 7.5 13.18C6 13.18 0.96 12.21 0.96 12.21Z"/>
</svg>