<?xml version="1.0" encoding="UTF-8"?>
<svg viewBox="0 0 15 15" version="1.1" xmlns="http://www.w3.org/2000/svg" xmlns:xlink="http://www.w3.org/1999/xlink">
  <path d="M6.05 1.9C6.7 1.7 7.4 2.05 7.65 2.7C7.85 3.35 7.5 4.05 6.8 4.25C6.15 4.45 5.45 4.1 5.2 3.45C5.05 2.8 5.4 2.1 6.05 1.9Z"/>
  <path d="M2.5 0.05C3.15 -0.15 3.85 0.2 4.1 0.85C4.25 1.5 3.9 2.2 3.25 2.45C2.6 2.65 1.85 2.3 1.65 1.65C1.45 0.95 1.8 0.25 2.5 0.05Z"/>
  <path d="M2.8 5.45C2.45 5.4 2.1 5.7 2.1 6.05C2.05 6.4 2.35 6.75 2.7 6.75L4.85 6.75L6.05 6.35L6.65 11.1C6.65 11.2 8 14.65 8 14.65C8.2 15 8.7 15.1 9.05 14.9C9.4 14.7 9.5 14.2 9.3 13.9L8 10.05C8 10.05 8.95 10.7 10 11.4C11.75 12.05 12.35 12.25 12.35 12.25C12.75 12.4 13.15 12.25 13.35 11.85C13.5 11.45 13.35 11.05 12.95 10.85L10.7 10.05L9.2 9.05L8.7 5.4C8.7 5.4 9.9 4.6 10.45 4.25C10.45 4.25 11 3.95 10.5 3C9.85 1.9 9.3 0.95 9.3 0.95C9.15 0.65 8.75 0.5 8.4 0.65C8.1 0.8 7.95 1.2 8.1 1.5L9.25 3.4L7.8 4.4C7.8 4.4 4.55 5.45 4.55 5.45L2.8 5.45Z"/>
</svg>