<?xml version="1.0" encoding="UTF-8"?>
<svg viewBox="0 0 15 15" version="1.1" xmlns="http://www.w3.org/2000/svg" xmlns:xlink="http://www.w3.org/1999/xlink">
  <path d="M7.5 5.36H15V6.43H7.5V5.36z"/>
  <path d="M1.07 3.21a2.14 2.14 0 1 0 4.29 0a2.14 2.14 0 1 0 -4.29 0z"/>
  <path d="M9.64 0L9.64 1.07C9.64 1.71 10.07 2.14 10.71 2.14L10.71 3.21L9.64 3.21L9.64 4.29L12.86 4.29L12.86 3.21L11.79 3.21L11.79 2.14C12.43 2.14 12.86 1.71 12.86 1.07L12.86 0L9.64 0Z"/>
  <path d="M12.32 7.5L10.18 7.5L8.57 10.71L6.43 6.43L4.29 6.43L3.21 10.71L2.14 6.43L0 6.43L0 15L6.43 15L6.43 9.64L7.82 11.79L9.11 11.79L10.71 8.57L12.32 8.57C12.64 8.57 12.86 8.36 12.86 8.04C12.86 7.71 12.64 7.5 12.32 7.5Z"/>
</svg>