<?xml version="1.0" encoding="UTF-8"?>
<svg viewBox="0 0 15 15" version="1.1" xmlns="http://www.w3.org/2000/svg" xmlns:xlink="http://www.w3.org/1999/xlink">
  <path d="M14.81 0L11.22 0.26L11.22 0.27L11.21 0.26L10.64 4.98L4.95 4.98L4.95 6.5L7.45 6.5C6.49 7 5.74 7.83 5.34 8.83L2.19 8.83L2.19 8.89L1.53 11.09C0.66 11.33 0.05 12.11 0.05 13.01C0.05 13.54 0.26 14.04 0.64 14.42C1.01 14.79 1.52 15 2.05 15C2.58 15 3.09 14.79 3.47 14.42C3.84 14.04 4.05 13.54 4.05 13.01C4.05 12.3 3.67 11.65 3.06 11.29L3.19 10.86L5.03 10.86C5.23 13.2 7.19 15 9.55 15C10.75 15 11.91 14.52 12.76 13.68C13.61 12.83 14.09 11.68 14.09 10.49C14.09 9.15 13.48 7.87 12.45 7.02L13.1 1.65L14.95 1.51L14.81 0ZM9.58 7.76C10.33 7.76 11.04 8.05 11.57 8.58C12.1 9.1 12.39 9.82 12.39 10.56C12.39 11.3 12.1 12.02 11.57 12.54C11.04 13.07 10.33 13.36 9.58 13.36C8.84 13.36 8.12 13.07 7.59 12.54C7.07 12.02 6.77 11.3 6.77 10.56C6.77 9.82 7.07 9.1 7.59 8.58C8.12 8.05 8.84 7.76 9.58 7.76Z"/>
</svg>