<?xml version="1.0" encoding="UTF-8"?>
<svg viewBox="0 0 15 15" version="1.1" xmlns="http://www.w3.org/2000/svg" xmlns:xlink="http://www.w3.org/1999/xlink">
  <path d="M14.4 14.7C14.1 14.7 13.81 14.63 13.55 14.52C13.29 14.39 12.99 14.33 12.68 14.33C12.37 14.33 12.07 14.4 11.8 14.52C11.54 14.63 11.25 14.7 10.95 14.7C10.65 14.7 10.36 14.63 10.1 14.52C9.84 14.39 9.54 14.33 9.23 14.33C8.92 14.33 8.62 14.4 8.35 14.52C8.09 14.63 7.8 14.7 7.5 14.7C7.2 14.7 6.91 14.63 6.65 14.52C6.39 14.39 6.09 14.33 5.78 14.33C5.47 14.33 5.17 14.4 4.91 14.52C4.65 14.63 4.36 14.7 4.06 14.7C3.75 14.7 3.47 14.63 3.21 14.52C2.94 14.39 2.64 14.33 2.33 14.33C2.02 14.33 1.72 14.4 1.46 14.52C1.2 14.63 0.91 14.7 0.61 14.7L0.61 13.45C0.91 13.45 1.2 13.38 1.46 13.26C1.72 13.14 2.02 13.07 2.33 13.07C2.65 13.07 2.94 13.15 3.21 13.26C3.47 13.38 3.76 13.45 4.06 13.45C4.36 13.45 4.65 13.38 4.91 13.26C5.18 13.14 5.47 13.07 5.78 13.07C6.1 13.07 6.39 13.15 6.66 13.26C6.92 13.38 7.21 13.45 7.51 13.45C7.81 13.45 8.1 13.38 8.36 13.26C8.63 13.14 8.93 13.07 9.23 13.07C9.55 13.07 9.85 13.15 10.11 13.26C10.37 13.38 10.66 13.45 10.96 13.45C11.26 13.45 11.55 13.38 11.81 13.26C12.08 13.14 12.38 13.07 12.68 13.07C13 13.07 13.3 13.15 13.56 13.26C13.82 13.38 14.11 13.45 14.41 13.45L14.41 14.7L14.4 14.7ZM2.08 7.44C2.54 7.44 2.92 7.07 2.92 6.62C2.92 6.17 2.54 5.8 2.08 5.8C1.62 5.8 1.25 6.17 1.25 6.62C1.25 7.07 1.62 7.44 2.08 7.44L2.08 7.44ZM5.76 11.1L3.37 11.1C3.02 11.1 2.71 10.93 2.57 10.63L1.69 8.67C1.67 8.6 1.66 8.54 1.66 8.47C1.66 7.99 2.05 7.61 2.54 7.61L4.48 7.61L5.81 7.02C5.83 7.01 5.89 6.99 5.95 6.99C6.17 6.99 6.36 7.18 6.36 7.4C6.36 7.54 6.29 7.67 6.18 7.74L4.73 8.35C4.64 8.42 4.46 8.4 4.46 8.4L3.58 8.4L4.31 10.2L5.93 10.2C6.09 10.2 6.2 10.19 6.3 10.27L7.88 11.72C8.11 11.92 8.12 12.25 7.91 12.47C7.7 12.68 7.36 12.65 7.13 12.45L5.76 11.1L5.76 11.1ZM13.21 8.49C13.24 8.54 13.31 8.56 13.38 8.56C13.52 8.56 13.63 8.45 13.63 8.32C13.63 8.25 13.6 8.19 13.56 8.14C12.07 5.33 8.03 6.17 7.54 6.35C7.46 6.38 7.41 6.47 7.41 6.56C7.41 6.7 7.52 6.8 7.65 6.8C7.7 6.8 7.72 6.8 7.75 6.79C11.71 5.92 13 8.13 13.21 8.49L13.21 8.49ZM13.9 8.74L8.84 11.88L4.23 0.3C8.35 0.84 13.59 3.99 13.9 8.74L13.9 8.74Z"/>
</svg>