<?xml version="1.0" encoding="UTF-8"?>
<svg viewBox="0 0 15 15" version="1.1" xmlns="http://www.w3.org/2000/svg" xmlns:xlink="http://www.w3.org/1999/xlink">
  <path d="M7.67 10.85C8.74 15.89 14.84 11.77 8.79 8.25C15.46 12.13 15.47 2.88 8.8 6.75C15.48 2.88 7.51 -1.75 7.51 5.99C7.51 -1.75 -0.46 2.87 6.21 6.75C-0.46 2.87 -0.47 12.12 6.2 8.25C0.14 11.76 6.23 15.9 7.31 10.85L7.67 10.85L7.67 10.85ZM6.7 7.5C6.7 7.05 7.06 6.69 7.5 6.69C7.95 6.69 8.3 7.05 8.3 7.5C8.3 7.94 7.94 8.31 7.5 8.31C7.06 8.31 6.7 7.95 6.7 7.5L6.7 7.5Z"/>
</svg>