<?xml version="1.0" encoding="UTF-8"?>
<svg viewBox="0 0 15 15" version="1.1" xmlns="http://www.w3.org/2000/svg" xmlns:xlink="http://www.w3.org/1999/xlink">
  <path d="M7.47 0.21C6.89 0.21 6.38 0.6 6.22 1.15C6.12 1.13 6.02 1.12 5.91 1.11C5.57 1.11 5.23 1.26 4.98 1.5C4.74 1.75 4.6 2.08 4.6 2.43C4.6 2.84 4.8 3.23 5.14 3.47C4.8 3.72 4.6 4.11 4.6 4.52C4.6 4.87 4.74 5.2 4.98 5.45C5.23 5.69 5.57 5.83 5.91 5.83C6.02 5.83 6.13 5.81 6.23 5.79C6.37 6.16 6.65 6.47 7.02 6.6L7.02 9.12L4.5 9.12L5.66 15L9.35 15L10.5 9.12L7.92 9.12L7.92 6.6C8.34 6.45 8.65 6.09 8.75 5.66C8.89 5.71 9.04 5.73 9.2 5.74C9.54 5.74 9.87 5.59 10.12 5.35C10.37 5.1 10.5 4.77 10.5 4.43C10.5 4.07 10.35 3.73 10.09 3.48C10.35 3.24 10.5 2.89 10.5 2.53C10.5 2.18 10.37 1.85 10.12 1.6C9.87 1.36 9.54 1.23 9.2 1.23C9.04 1.23 8.9 1.25 8.76 1.3C8.65 0.67 8.11 0.21 7.47 0.21L7.47 0.21ZM7.55 2.48C7.81 2.48 8.06 2.58 8.24 2.75C8.42 2.94 8.52 3.18 8.52 3.45C8.52 3.71 8.42 3.95 8.24 4.14C8.06 4.31 7.81 4.42 7.55 4.42C7.29 4.42 7.04 4.31 6.86 4.14C6.68 3.95 6.58 3.71 6.58 3.45C6.58 3.18 6.68 2.94 6.86 2.75C7.04 2.58 7.29 2.48 7.55 2.48L7.55 2.48Z"/>
</svg>