<?xml version="1.0" encoding="UTF-8"?>
<svg version="1.1" xmlns="http://www.w3.org/2000/svg" viewBox="0 0 15 15">
  <path d="M1.48 4.5C1.91 4.15 2.45 3.97 3 4c1.23 -0.09 2.32 0.78 2.5 2l0.78 4.68c-0.64 -0.29 -1.38 -0.27 -2 0.05L3.48 6C3.19 5.13 2.39 4.54 1.48 4.5zM7.48 11.24c0.38 -0.31 0.83 -0.53 1.3 -0.65L10 3c0.29 -0.87 1.09 -1.46 2 -1.5c-0.42 -0.35 -0.95 -0.53 -1.5 -0.5C9.27 0.91 8.18 1.78 8 3l-1.3 7.79C6.98 10.91 7.24 11.06 7.48 11.24zM11.8 10.74L11.8 10.74c0.16 -0.13 0.32 -0.24 0.5 -0.34L13 6c0.29 -0.87 1.09 -1.46 2 -1.5c-0.42 -0.35 -0.95 -0.53 -1.5 -0.5c-1.23 -0.09 -2.32 0.78 -2.5 2l-0.67 4C10.87 10.12 11.38 10.38 11.8 10.74zM14 12L14 12c-0.43 -0.01 -0.86 0.14 -1.19 0.42l-0.47 0.41c-0.28 0.25 -0.72 0.25 -1 0c-0.15 -0.12 -0.29 -0.26 -0.44 -0.39c-0.71 -0.6 -1.74 -0.6 -2.45 0c-0.16 0.13 -0.31 0.28 -0.47 0.41c-0.28 0.25 -0.72 0.25 -1 0c-0.16 -0.13 -0.31 -0.28 -0.47 -0.41c-0.71 -0.59 -1.73 -0.59 -2.44 0c-0.15 0.13 -0.29 0.27 -0.44 0.39c-0.09 0.07 -0.19 0.13 -0.3 0.16c-0.29 0.07 -0.6 -0.03 -0.8 -0.25c-0.25 -0.21 -0.51 -0.41 -0.79 -0.58C1.53 12.04 1.3 11.99 1.06 12H1c-0.28 0 -0.5 0.22 -0.5 0.5S0.72 13 1 13l0 0c0.25 0.01 0.48 0.13 0.64 0.31L2 13.57c0.67 0.55 1.63 0.57 2.33 0.06c0.19 -0.14 0.36 -0.32 0.55 -0.47c0.28 -0.25 0.72 -0.25 1 0l0.39 0.35c0.69 0.62 1.73 0.65 2.46 0.07c0.15 -0.11 0.27 -0.25 0.42 -0.37c0.3 -0.3 0.79 -0.31 1.09 -0.01c0 0 0.01 0.01 0.01 0.01l0.39 0.35c0.49 0.41 1.15 0.55 1.76 0.37c0.38 -0.1 0.73 -0.31 1 -0.6c0.15 -0.18 0.37 -0.29 0.6 -0.33l0 0c0.28 0 0.5 -0.22 0.5 -0.5S14.28 12 14 12z"/>
</svg>