<?xml version="1.0" encoding="UTF-8"?>
<svg xmlns="http://www.w3.org/2000/svg" viewBox="0 0 15 15">
  <path d="M8.75 6.28a0.5 0.5 0 0 1 -0.51 0A4.11 4.11 0 0 1 6.5 3.5a2.78 2.78 0 0 0 -0.59 -1.51l-0.02 -0.03a0.26 0.26 0 0 1 -0.06 -0.14a0.24 0.24 0 0 1 0.25 -0.25a0.26 0.26 0 0 1 0.06 0.01A3.52 3.52 0 0 1 7.5 2.5L8.28 0.94a0.25 0.25 0 0 1 0.44 0L9.5 2.5a3.4 3.4 0 0 1 1.34 -0.91a0.28 0.28 0 0 1 0.1 -0.02c0.18 0.01 0.21 0.12 0.22 0.25a0.35 0.35 0 0 1 -0.04 0.14A5.2 5.2 0 0 0 10.5 3.5A4.11 4.11 0 0 1 8.75 6.28ZM5 8H6.29a0.25 0.25 0 0 0 0.25 -0.25a0.24 0.24 0 0 0 -0.06 -0.15L4.7 5.24a0.26 0.26 0 0 0 -0.39 0L2.52 7.59a0.27 0.27 0 0 0 -0.06 0.16a0.25 0.25 0 0 0 0.25 0.25H4L1.34 10.6a0.27 0.27 0 0 0 -0.06 0.15A0.25 0.25 0 0 0 1.53 11H3L1.44 12.57a0.26 0.26 0 0 0 0.18 0.44H4v1H5V13H7.39a0.26 0.26 0 0 0 0.18 -0.43L6 11H7.47a0.25 0.25 0 0 0 0.25 -0.25a0.23 0.23 0 0 0 -0.06 -0.15Zm9.35 3.75a0.25 0.25 0 0 1 -0.25 0.25H8.91a0.25 0.25 0 0 1 -0.23 -0.36L11.27 6.45a0.25 0.25 0 0 1 0.45 0l2.6 5.18h0A0.25 0.25 0 0 1 14.35 11.75ZM12.75 10L11.5 7.5L10.25 10Z"/>
</svg>