<?xml version="1.0" encoding="UTF-8"?>
<svg viewBox="0 0 15 15" version="1.1" xmlns="http://www.w3.org/2000/svg" xmlns:xlink="http://www.w3.org/1999/xlink">
  <path d="M12.78 11.15C13.33 10.97 13.63 10.38 13.45 9.84L13.05 9.97C13.16 10.29 12.98 10.65 12.65 10.76L2.14 14.31L2.27 14.7L12.78 11.15ZM3.1 5.01C3.68 4.85 4.01 4.24 3.84 3.67C3.67 3.1 3.07 2.77 2.49 2.93C1.91 3.1 1.58 3.71 1.75 4.28C1.91 4.85 2.52 5.18 3.1 5.01L3.1 5.01ZM2.66 6.51C2.08 5.42 3.73 4.55 4.34 5.6L5.52 7.83L7.78 7.2C8.15 7.09 8.67 7.5 8.67 7.97L8.68 11.16C8.68 11.95 7.5 11.95 7.5 11.15C7.5 10.41 7.48 8.83 7.48 8.83L5.12 9.53C4.61 9.68 4.18 9.43 3.98 9.05L2.65 6.51L2.66 6.51ZM6.3 7.02L6.3 0.3L5.7 0.3L5.7 7.15L6.3 7.02ZM1.57 7.97C1.25 7.33 2.08 6.91 2.41 7.55L3.43 9.53C3.65 9.94 4.08 10.22 4.58 10.22C4.73 10.22 4.88 10.18 5.02 10.15L6.31 9.77C6.99 9.57 7.25 10.46 6.56 10.66L5.21 11.05C5.01 11.12 4.79 11.15 4.57 11.15C3.7 11.15 2.95 10.66 2.58 9.95L1.57 7.97L1.57 7.97Z"/>
</svg>