<?xml version="1.0" encoding="UTF-8"?>
<svg version="1.1" xmlns="http://www.w3.org/2000/svg" viewBox="0 0 15 15">
  <path d="M14 4h-4v3.44l0 0c0 0 0 0 0 0.06c0 0.91 0.62 1.7 1.5 1.93V13H11c-0.28 0 -0.5 0.22 -0.5 0.5S10.72 14 11 14h2c0.28 0 0.5 -0.22 0.5 -0.5S13.28 13 13 13h-0.5V9.43c0.88 -0.23 1.5 -1.02 1.5 -1.93c0 0 0 0 0 -0.06l0 0V4zM13 7.5c0 0.55 -0.45 1 -1 1s-1 -0.45 -1 -1V5h2V7.5zM5.5 2.5V2C5.78 2 6 1.78 6 1.5S5.78 1 5.5 1V0.5C5.5 0.22 5.28 0 5 0H4C3.72 0 3.5 0.22 3.5 0.5V1C3.22 1 3 1.22 3 1.5S3.22 2 3.5 2v0.5C3.5 3.93 1 5.57 1 7v6c0 0.55 0.45 1 1 1h5c0.53 -0.05 0.95 -0.47 1 -1V7C8 5.65 5.5 3.85 5.5 2.5zM4.5 12C3.12 12 2 10.88 2 9.5S3.12 7 4.5 7S7 8.12 7 9.5S5.88 12 4.5 12z"/>
</svg>