<?xml version="1.0" encoding="UTF-8"?>
<svg viewBox="0 0 15 15" version="1.1" xmlns="http://www.w3.org/2000/svg" xmlns:xlink="http://www.w3.org/1999/xlink">
  <path d="M6.62 0C8.18 0 9.32 0.32 10.05 0.95C10.79 1.59 11.15 2.35 11.15 3.23C11.15 3.73 11.04 4.2 10.82 4.65C10.59 5.11 10.33 5.48 10.01 5.76C9.7 6.05 9.13 6.47 8.32 7.03C8.99 7.74 9.69 8.4 10.43 9C10.62 8.59 10.79 8.16 10.93 7.71L13.94 8.4C13.78 8.98 13.63 9.45 13.48 9.8C13.34 10.15 13.13 10.57 12.87 11.04L14.31 12.08C14.49 12.2 14.72 12.34 15 12.51L12.92 15C12.55 14.79 12.15 14.54 11.74 14.27C11.34 13.99 10.97 13.75 10.65 13.55C9.98 14.01 9.31 14.35 8.64 14.56C7.72 14.86 6.66 15 5.48 15C3.63 15 2.26 14.6 1.35 13.79C0.45 12.99 0 12.01 0 10.86C0 10.04 0.27 9.26 0.8 8.53C1.33 7.79 2.19 7.16 3.4 6.65C2.89 6.01 2.55 5.46 2.36 4.99C2.17 4.52 2.08 4.03 2.08 3.54C2.08 2.52 2.45 1.67 3.2 1C3.95 0.34 5.09 0 6.62 0ZM6.78 2.18C6.39 2.18 6.07 2.3 5.82 2.54C5.58 2.77 5.46 3.05 5.46 3.38C5.46 3.79 5.8 4.38 6.5 5.16C6.99 4.88 7.38 4.57 7.65 4.24C7.92 3.9 8.06 3.58 8.06 3.29C8.06 2.98 7.95 2.72 7.72 2.51C7.49 2.29 7.18 2.18 6.78 2.18ZM5.12 8.68C4.59 9.07 4.24 9.41 4.06 9.68C3.89 9.96 3.81 10.25 3.81 10.56C3.81 11.05 4.01 11.48 4.4 11.85C4.8 12.23 5.32 12.42 5.96 12.42C6.65 12.42 7.42 12.13 8.28 11.57C7.46 10.91 6.4 9.95 5.12 8.68Z"/>
</svg>