<?xml version="1.0" encoding="UTF-8"?>
<svg version="1.1" xmlns="http://www.w3.org/2000/svg" viewBox="0 0 15 15">
  <path d="M7.5 0C5.5 0 4 1.57 4 3.5c0 1.56 1.04 2.9 2.5 3.34v6.04c-0.93 -0.16 -1.88 -0.55 -2.65 -1.27C2.8 10.63 2 9.07 2 6.5c0.01 -0.56 -0.45 -1.02 -1.02 -1.01C0.43 5.49 -0.01 5.95 0 6.5c0 3 1.01 5.2 2.49 6.57C3.97 14.45 5.84 15 7.5 15c1.67 0 3.54 -0.56 5.01 -1.94S15 9.49 15 6.5c0.06 -1.4 -2.06 -1.4 -2 0c0 2.55 -0.8 4.11 -1.85 5.1C10.37 12.32 9.43 12.71 8.5 12.88V6.84C9.96 6.41 11 5.06 11 3.5C11 1.57 9.5 0 7.5 0zM7.5 2C8.33 2 9 2.67 9 3.5S8.33 5 7.5 5S6 4.33 6 3.5S6.67 2 7.5 2z"/>
</svg>