<?xml version="1.0" encoding="UTF-8"?>
<svg viewBox="0 0 15 15" version="1.1" xmlns="http://www.w3.org/2000/svg" xmlns:xlink="http://www.w3.org/1999/xlink">
  <path d="M5.66 3.18C6.33 3.18 6.87 2.63 6.87 1.94C6.87 1.25 6.33 0.7 5.66 0.7C4.99 0.7 4.45 1.25 4.45 1.94C4.45 2.62 4.99 3.18 5.66 3.18ZM6 3.6L2.4 3.6C1.8 3.6 1.8 4.5 2.4 4.5L6 4.5C6.6 4.5 6.6 3.6 6 3.6ZM11.7 3.98C11.7 2.6 11.22 1.28 10.34 0.25C10.35 0.25 10.12 0 10.12 0L6.71 3.5L6.65 3.55L6.68 3.6C6.74 3.69 6.77 3.8 6.78 3.91C6.78 3.95 6.78 4 6.77 4.04C6.77 4.13 6.75 4.22 6.71 4.31L6.71 4.32L6.68 4.37L6.66 4.42C6.51 4.65 6.26 4.8 5.94 4.8L3.9 4.8L3.9 9.6L3.25 14.17C3.17 14.55 3.46 14.92 3.83 14.99C4.2 15.07 4.72 14.78 4.8 14.4L5.4 9.3L5.7 9.3L6.72 14.44C6.79 14.82 7.32 15.07 7.69 14.99C8.06 14.92 8.26 14.55 8.19 14.18L7.2 9.3L7.2 5.21L10 7.96C10 7.96 10.29 7.71 10.29 7.7C11.16 6.67 11.7 5.36 11.7 3.98L11.7 3.98ZM11.09 4.5C10.99 5.4 10.46 6.49 9.8 7.28C9.2 6.66 7.8 5.5 7.2 4.73L7.2 4.5L11.09 4.5L11.09 4.5ZM11.09 3.6L7.17 3.6C7.89 2.7 9.23 1.49 9.92 0.79C10.58 1.58 10.99 2.4 11.09 3.6L11.09 3.6Z"/>
</svg>