<?xml version="1.0" encoding="UTF-8"?>
<svg viewBox="0 0 15 15" version="1.1" xmlns="http://www.w3.org/2000/svg" xmlns:xlink="http://www.w3.org/1999/xlink">
  <path d="M0 8.57L1.07 8.57L2.14 13.93L5.36 13.93L6.43 8.57L7.5 8.57L6.43 15L1.07 15z"/>
  <path d="M6.43 5.36H7.5V6.43H6.43V5.36z"/>
  <path d="M4.29 5.36H5.36V6.43H4.29V5.36z"/>
  <path d="M4.29 7.5H5.36V8.57H4.29V7.5z"/>
  <path d="M2.14 7.5H3.21V8.57H2.14V7.5z"/>
  <path d="M6.43 3.21H7.5V4.29H6.43V3.21z"/>
  <path d="M3.21 8.57H4.29V9.64H3.21V8.57z"/>
  <path d="M2.14 12.86H3.21V13.93H2.14V12.86z"/>
  <path d="M3.21 12.86H4.29V13.93H3.21V12.86z"/>
  <path d="M3.21 10.71H4.29V11.79H3.21V10.71z"/>
  <path d="M4.29 9.64H5.36V10.71H4.29V9.64z"/>
  <path d="M4.29 11.79H5.36V12.86H4.29V11.79z"/>
  <path d="M2.14 9.64H3.21V10.71H2.14V9.64z"/>
  <path d="M8.57 2.14L8.57 6.43L12.86 5.36L12.86 3.21z"/>
</svg>