<?xml version="1.0" encoding="UTF-8"?>
<svg viewBox="0 0 15 15" version="1.1" xmlns="http://www.w3.org/2000/svg" xmlns:xlink="http://www.w3.org/1999/xlink">
  <path d="M8.32 10.37C7.97 10.76 7.59 11.07 7.16 11.31C6.74 11.55 6.31 11.66 5.88 11.66C5.41 11.66 4.96 11.53 4.51 11.26C4.07 10.99 3.71 10.57 3.43 10.01C3.15 9.45 3.02 8.83 3.02 8.16C3.02 7.34 3.23 6.51 3.66 5.68C4.09 4.85 4.63 4.23 5.27 3.81C5.91 3.4 6.53 3.19 7.13 3.19C7.59 3.19 8.03 3.31 8.44 3.55C8.86 3.78 9.22 4.14 9.52 4.62L9.79 3.41L11.21 3.41L10.07 8.65C9.91 9.37 9.83 9.78 9.83 9.85C9.83 9.99 9.88 10.12 9.99 10.22C10.1 10.32 10.23 10.37 10.38 10.37C10.66 10.37 11.03 10.21 11.48 9.89C12.09 9.48 12.56 8.92 12.91 8.23C13.26 7.52 13.44 6.8 13.44 6.06C13.44 5.19 13.21 4.38 12.76 3.63C12.31 2.87 11.64 2.27 10.74 1.82C9.85 1.36 8.86 1.14 7.78 1.14C6.54 1.14 5.41 1.42 4.39 2C3.37 2.56 2.58 3.38 2.01 4.44C1.45 5.5 1.17 6.64 1.17 7.86C1.17 9.13 1.45 10.23 2.01 11.15C2.58 12.07 3.39 12.75 4.45 13.18C5.52 13.63 6.7 13.85 7.99 13.85C9.37 13.85 10.53 13.62 11.47 13.16C12.4 12.7 13.1 12.15 13.57 11.49L15 11.49C14.73 12.04 14.27 12.59 13.61 13.16C12.96 13.73 12.18 14.17 11.28 14.5C10.37 14.83 9.29 15 8.01 15C6.84 15 5.76 14.85 4.77 14.56C3.78 14.26 2.94 13.81 2.24 13.21C1.54 12.62 1.02 11.94 0.67 11.16C0.22 10.18 0 9.12 0 7.98C0 6.72 0.26 5.51 0.79 4.36C1.44 2.95 2.35 1.87 3.53 1.12C4.72 0.37 6.16 0 7.85 0C9.16 0 10.33 0.27 11.37 0.8C12.42 1.32 13.24 2.1 13.84 3.15C14.36 4.05 14.61 5.03 14.61 6.08C14.61 7.59 14.07 8.93 13 10.1C12.04 11.15 10.98 11.67 9.84 11.67C9.48 11.67 9.18 11.62 8.96 11.51C8.74 11.4 8.57 11.24 8.47 11.04C8.4 10.91 8.35 10.69 8.32 10.37ZM4.48 8.26C4.48 8.97 4.65 9.52 5 9.92C5.34 10.31 5.73 10.51 6.18 10.51C6.47 10.51 6.78 10.42 7.11 10.25C7.44 10.08 7.75 9.82 8.05 9.47C8.35 9.13 8.59 8.7 8.78 8.17C8.97 7.64 9.07 7.11 9.07 6.58C9.07 5.87 8.89 5.32 8.53 4.94C8.18 4.55 7.74 4.35 7.23 4.35C6.89 4.35 6.57 4.44 6.27 4.61C5.98 4.77 5.69 5.04 5.41 5.42C5.13 5.79 4.9 6.25 4.74 6.78C4.57 7.32 4.48 7.81 4.48 8.26Z"/>
</svg>