<?xml version="1.0" encoding="UTF-8"?>
<svg viewBox="0 0 15 15" version="1.1" xmlns="http://www.w3.org/2000/svg" xmlns:xlink="http://www.w3.org/1999/xlink">
  <path d="M10.07 4.61L7.71 2.46L9.21 0.86L14.25 5.46C13.18 6.64 12.21 7.5 10.61 7.61L10.07 4.61Z"/>
  <path d="M6.32 5.89L6.64 4.5L7.71 3.32L9.32 4.82L2.57 12.11C2.04 12.64 1.61 13.39 1.39 14.14L0 13.71C0.32 12.75 0.75 11.89 1.39 11.14L6.32 5.89Z"/>
  <path d="M12.54 9.64L12.32 12.32L9.86 13.39C10.29 14.36 11.25 15 12.32 15C13.82 15 15 13.82 15 12.32C15 10.93 13.93 9.75 12.54 9.64Z"/>
  <path d="M5.36 15L8.57 15L7.5 12.86z"/>
  <path d="M11.68 12L9.43 9.75L8.57 11.79z"/>
</svg>