<?xml version="1.0" encoding="UTF-8"?>
<svg viewBox="0 0 15 15" version="1.1" xmlns="http://www.w3.org/2000/svg" xmlns:xlink="http://www.w3.org/1999/xlink">
  <path d="M2.68 13.07C2.68 13.07 3.54 15 5.46 15L6 12.43L2.68 13.07Z"/>
  <path d="M9.96 9.11C9.96 9.11 9.96 11.25 11.68 12L13.18 9.86L9.96 9.11Z"/>
  <path d="M7.07 12L7.29 14.79C7.29 14.79 9.86 15.32 10.5 12.54L7.07 12Z"/>
  <path d="M9.54 11.36L7.29 9C7.29 9 5.79 9.96 6 11.25L9.54 11.36Z"/>
  <path d="M8.14 8.14L11.68 8.25C11.68 8.25 11.89 6.54 10.82 5.79L8.14 8.14Z"/>
  <path d="M14.04 15C14.04 15 14.79 12.75 12.96 12L10.71 14.36L14.04 15Z"/>
  <path d="M5.89 1.18L6.96 0L10.61 3.32C10.61 3.32 9.43 4.82 7.93 4.93L7.71 3.11C7.71 3.11 7.71 2.89 7.39 2.57C6.96 2.14 5.89 1.18 5.89 1.18Z"/>
  <path d="M6.96 2.89L6.21 2.14L5.89 1.93C5.89 1.93 5.57 2.36 5.36 2.46C5.25 2.57 5.04 2.68 5.04 2.89C5.04 3.11 4.93 3.43 4.82 3.75C3.75 4.82 2.79 5.89 2.25 6.43C1.71 6.96 0.96 8.14 0.86 8.46C0.64 8.79 0.86 8.89 0.86 8.89C0.86 8.89 1.5 9.21 1.71 9.21C1.93 9.32 2.14 9.21 2.25 8.79C2.36 8.46 2.46 7.93 2.57 7.82C2.68 7.61 2.89 7.39 3.11 7.18C3.96 6.21 6.96 2.89 6.96 2.89Z"/>
</svg>