<?xml version="1.0" encoding="UTF-8"?>
<svg viewBox="0 0 15 15" version="1.1" xmlns="http://www.w3.org/2000/svg" xmlns:xlink="http://www.w3.org/1999/xlink">
  <path d="M7.82 3.39L8.31 3.71L9.45 4.86C9.45 4.86 4.88 9.92 3.57 11.39C3.25 11.71 2.92 12.04 2.76 12.37C2.66 12.46 2.57 12.78 2.47 13.12L2.39 13.42C2.35 13.57 2.31 13.71 2.27 13.84C2.1 14.49 1.78 14.65 1.45 14.49C1.12 14.49 0.15 14 0.15 14C0.15 14 -0.18 13.84 0.15 13.35C0.31 12.86 1.45 11.06 2.27 10.24C3.08 9.43 4.55 7.8 6.19 6.16C6.35 5.67 6.51 5.18 6.51 4.86C6.51 4.53 6.84 4.37 7 4.2C7.33 4.04 7.82 3.39 7.82 3.39ZM9.45 0.45L15 5.51C15 5.51 13.2 7.8 10.92 7.96L10.59 5.18C10.59 5.18 10.59 4.86 10.1 4.37C9.9 4.17 9.61 3.89 9.31 3.61L9.04 3.36C8.42 2.79 7.82 2.25 7.82 2.25L9.45 0.45Z"/>
</svg>