<?xml version="1.0" encoding="UTF-8"?>
<svg viewBox="0 0 15 15" version="1.1" xmlns="http://www.w3.org/2000/svg" xmlns:xlink="http://www.w3.org/1999/xlink">
  <path d="M7.5,0 C9.5697252,0 11.6425428,0.642817595 13,2 C14.3578176,3.35754279 15,5.4297252 15,7.5 C15,9.5871763 13.8774012,11.1399176 12.5,12.5 C11.1452693,13.8376969 9.5528237,15 7.5,15 C5.44460522,15 3.35515708,14.3406549 2,13 C0.625583967,11.6402922 0,9.58460522 0,7.5 C0,5.44193307 1.15626847,3.85559581 2.5,2.5 C3.85931396,1.12868417 5.41806693,0 7.5,0 Z M7.5,13 C7.22385763,13 7,13.2238576 7,13.5 C7,13.7761424 7.22385763,14 7.5,14 C7.77614237,14 8,13.7761424 8,13.5 C8,13.2238576 7.77614237,13 7.5,13 Z M4.5,12 C4.22385763,12 4,12.2238576 4,12.5 C4,12.7761424 4.22385763,13 4.5,13 C4.77614237,13 5,12.7761424 5,12.5 C5,12.2238576 4.77614237,12 4.5,12 Z M6.5,11 C6.22385763,11 6,11.2238576 6,11.5 C6,11.7761424 6.22385763,12 6.5,12 C6.77614237,12 7,11.7761424 7,11.5 C7,11.2238576 6.77614237,11 6.5,11 Z M9.5,11 C9.22385763,11 9,11.2238576 9,11.5 C9,11.7761424 9.22385763,12 9.5,12 C9.77614237,12 10,11.7761424 10,11.5 C10,11.2238576 9.77614237,11 9.5,11 Z M2.5,10 C2.22385763,10 2,10.2238576 2,10.5 C2,10.7761424 2.22385763,11 2.5,11 C2.77614237,11 3,10.7761424 3,10.5 C3,10.2238576 2.77614237,10 2.5,10 Z M12.5,10 C12.2238576,10 12,10.2238576 12,10.5 C12,10.7761424 12.2238576,11 12.5,11 C12.7761424,11 13,10.7761424 13,10.5 C13,10.2238576 12.7761424,10 12.5,10 Z M10.5,9 C10.2238576,9 10,9.22385763 10,9.5 C10,9.77614237 10.2238576,10 10.5,10 C10.7761424,10 11,9.77614237 11,9.5 C11,9.22385763 10.7761424,9 10.5,9 Z M9.526586,5.40406365 L7.05528258,6.0662474 C6.22375489,6.28905458 5.62809244,7.01895428 5.57651374,7.87826853 L5.473414,9.59593635 L7.94471742,8.9337526 C8.77624511,8.71094542 9.37190756,7.98104572 9.42348626,7.12173147 L9.526586,5.40406365 Z M3.5,8 C3.22385763,8 3,8.22385763 3,8.5 C3,8.77614237 3.22385763,9 3.5,9 C3.77614237,9 4,8.77614237 4,8.5 C4,8.22385763 3.77614237,8 3.5,8 Z M1.5,7 C1.22385763,7 1,7.22385763 1,7.5 C1,7.77614237 1.22385763,8 1.5,8 C1.77614237,8 2,7.77614237 2,7.5 C2,7.22385763 1.77614237,7 1.5,7 Z M12.0075961,7.41317591 C11.9596445,7.68512306 12.1412288,7.94445226 12.4131759,7.99240388 C12.6851231,8.0403555 12.9444523,7.85877124 12.9924039,7.58682409 C13.0403555,7.31487694 12.8587712,7.05554774 12.5868241,7.00759612 C12.3148769,6.9596445 12.0555477,7.14122876 12.0075961,7.41317591 Z M11.5,5 C11.2238576,5 11,5.22385763 11,5.5 C11,5.77614237 11.2238576,6 11.5,6 C11.7761424,6 12,5.77614237 12,5.5 C12,5.22385763 11.7761424,5 11.5,5 Z M3.5,5 C3.22385763,5 3,5.22385763 3,5.5 C3,5.77614237 3.22385763,6 3.5,6 C3.77614237,6 4,5.77614237 4,5.5 C4,5.22385763 3.77614237,5 3.5,5 Z M6.5,4 C6.22385763,4 6,4.22385763 6,4.5 C6,4.77614237 6.22385763,5 6.5,5 C6.77614237,5 7,4.77614237 7,4.5 C7,4.22385763 6.77614237,4 6.5,4 Z M4.5,3 C4.22385763,3 4,3.22385763 4,3.5 C4,3.77614237 4.22385763,4 4.5,4 C4.77614237,4 5,3.77614237 5,3.5 C5,3.22385763 4.77614237,3 4.5,3 Z M9.5,3 C9.22385763,3 9,3.22385763 9,3.5 C9,3.77614237 9.22385763,4 9.5,4 C9.77614237,4 10,3.77614237 10,3.5 C10,3.22385763 9.77614237,3 9.5,3 Z M12.5,3 C12.2238576,3 12,3.22385763 12,3.5 C12,3.77614237 12.2238576,4 12.5,4 C12.7761424,4 13,3.77614237 13,3.5 C13,3.22385763 12.7761424,3 12.5,3 Z M7.5,1 C7.22385763,1 7,1.22385763 7,1.5 C7,1.77614237 7.22385763,2 7.5,2 C7.77614237,2 8,1.77614237 8,1.5 C8,1.22385763 7.77614237,1 7.5,1 Z"/>
</svg>