<?xml version="1.0" encoding="UTF-8"?>
<svg viewBox="0 0 15 15" version="1.1" xmlns="http://www.w3.org/2000/svg" xmlns:xlink="http://www.w3.org/1999/xlink">
  <path d="M7.5,0 C9.5697252,0 11.6425428,0.642817595 13,2 C14.3578176,3.35754279 15,5.4297252 15,7.5 C15,9.5871763 13.8774012,11.1399176 12.5,12.5 C11.1452693,13.8376969 9.5528237,15 7.5,15 C5.44460522,15 3.35515708,14.3406549 2,13 C0.625583967,11.6402922 0,9.58460522 0,7.5 C0,5.44193307 1.15626847,3.85559581 2.5,2.5 C3.85931396,1.12868417 5.41806693,0 7.5,0 Z M9.526586,5.40406365 L7.05528258,6.0662474 C6.22375489,6.28905458 5.62809244,7.01895428 5.57651374,7.87826853 L5.473414,9.59593635 L7.94471742,8.9337526 C8.77624511,8.71094542 9.37190756,7.98104572 9.42348626,7.12173147 L9.526586,5.40406365 Z"/>
</svg>