<?xml version="1.0" encoding="UTF-8"?>
<svg viewBox="0 0 15 15" version="1.1" xmlns="http://www.w3.org/2000/svg" xmlns:xlink="http://www.w3.org/1999/xlink">
  <path d="M0.09 8.27C0.21 9.23 1.03 9.96 2.01 9.96C3 9.96 3.81 9.23 3.93 8.27L0.09 8.27L0.09 8.27ZM10.56 12.17C10.56 12.34 10.42 12.47 10.26 12.47L4.66 12.47C4.49 12.47 4.36 12.34 4.36 12.17C4.36 12.01 4.49 11.88 4.66 11.88L10.26 11.88C10.42 11.88 10.56 12.01 10.56 12.17ZM4.39 12.63L10.53 12.63L10.53 13.49L4.39 13.49L4.39 12.63ZM11.07 8.27C11.2 9.23 12.01 9.96 12.99 9.96C13.98 9.96 14.79 9.23 14.91 8.27L11.07 8.27L11.07 8.27ZM14.81 7.67L13.24 5.51L14.08 5.51C14.28 5.51 14.45 5.34 14.45 5.13C14.45 4.93 14.28 4.76 14.08 4.76L9.62 4.76C9.36 4.03 8.72 3.47 7.93 3.34L7.93 2.17C7.93 1.96 7.76 1.79 7.56 1.79L7.52 1.8L7.49 1.79C7.28 1.79 7.11 1.96 7.11 2.17L7.11 3.34C6.33 3.48 5.69 4.03 5.42 4.76L0.97 4.76C0.77 4.76 0.6 4.92 0.6 5.13C0.6 5.34 0.77 5.51 0.97 5.51L1.77 5.51L0.2 7.67L0.01 7.67L0.01 8.07L4.03 8.07L4.03 7.67L3.83 7.67L2.26 5.51L5.91 5.51C5.91 5.42 5.92 5.34 5.93 5.26C5.94 5.22 5.95 5.18 5.95 5.15C6.09 4.57 6.54 4.11 7.12 3.97L7.12 8.08L7.1 8.08C7.07 9.62 6.34 10.97 5.25 11.73L9.81 11.73C8.72 10.97 7.98 9.62 7.95 8.08L7.94 8.08L7.94 3.97C8.51 4.11 8.97 4.57 9.1 5.15C9.1 5.18 9.11 5.22 9.13 5.26C9.14 5.34 9.15 5.42 9.15 5.51L12.76 5.51L11.19 7.67L10.99 7.67L10.99 8.07L15.01 8.07L15.01 7.67L14.81 7.67L14.81 7.67ZM1.85 7.67L0.6 7.67L1.85 5.94L1.85 7.67L1.85 7.67ZM2.17 7.67L2.17 5.94L3.43 7.67L2.17 7.67L2.17 7.67ZM12.83 7.67L11.58 7.67L12.83 5.94L12.83 7.67L12.83 7.67ZM13.16 7.67L13.16 5.94L14.41 7.67L13.16 7.67L13.16 7.67ZM2.39 4.24C2.39 4.44 2.22 4.61 2.02 4.61C1.81 4.61 1.64 4.44 1.64 4.24C1.64 4.03 1.81 3.86 2.02 3.86C2.22 3.86 2.39 4.03 2.39 4.24ZM13.37 4.22C13.37 4.42 13.2 4.59 13 4.59C12.79 4.59 12.62 4.42 12.62 4.22C12.62 4.01 12.79 3.84 13 3.84C13.2 3.84 13.37 4.01 13.37 4.22Z"/>
</svg>