<?xml version="1.0" encoding="UTF-8"?>
<svg viewBox="0 0 15 15" version="1.1" xmlns="http://www.w3.org/2000/svg" xmlns:xlink="http://www.w3.org/1999/xlink">
  <path d="M7.5 0C6.43 0 6.43 1.07 6.43 1.07L2.41 2.14L2.41 3.21L0 8.57C0 9.64 0.85 10.71 2.68 10.71C4.51 10.71 5.36 9.64 5.36 8.57L2.95 3.21L6.43 3.21L6.43 13.93L2.14 13.93L1.07 15L13.93 15L12.86 13.93L8.57 13.93L8.57 3.21L12.05 3.21L9.64 8.57C9.64 9.64 10.47 10.71 12.32 10.71C14.17 10.71 15 9.64 15 8.57L12.59 3.21L12.59 2.14L8.57 1.07C8.57 1.07 8.57 0 7.5 0ZM2.68 4.29L4.55 8.57L0.8 8.57L2.68 4.29ZM12.32 4.29L14.2 8.57L10.45 8.57L12.32 4.29Z"/>
</svg>