<?xml version="1.0" encoding="UTF-8"?>
<svg version="1.1" xmlns="http://www.w3.org/2000/svg" viewBox="0 0 15 15">
  <path d="M1 3C0.45 3 0 3.45 0 4v7c0 0.55 0.45 1 1 1h13c0.55 0 1 -0.45 1 -1V4c0 -0.55 -0.45 -1 -1 -1H1zM1 4h1.5C2.78 4 3 4.22 3 4.5S2.78 5 2.5 5S2 4.78 2 4.5L1.5 5C1.78 5 2 5.22 2 5.5S1.78 6 1.5 6S1 5.78 1 5.5V4zM7.5 4C8.88 4 10 5.57 10 7.5l0 0C10 9.43 8.88 11 7.5 11S5 9.43 5 7.5S6.12 4 7.5 4zM12.5 4H14v1.5C14 5.78 13.78 6 13.5 6S13 5.78 13 5.5S13.22 5 13.5 5L13 4.5C13 4.78 12.78 5 12.5 5S12 4.78 12 4.5S12.22 4 12.5 4zM7.5 5.5c-0.32 0 -0.53 0.11 -0.68 0.25h1.36C8.03 5.61 7.82 5.5 7.5 5.5zM6.63 6C6.58 6.09 6.56 6.17 6.54 6.25h1.91C8.44 6.17 8.42 6.09 8.38 6H6.63zM6.5 6.5v0.25h2V6.5H6.5zM6.5 7v0.25h2V7H6.5zM6.5 7.5v0.25h2V7.5H6.5zM6.5 8L6.25 8.25h2L8.5 8H6.5zM6 8.5c0 0 0.04 0.1 0.1 0.25H8.38L8 8.5H6zM1.5 9C1.78 9 2 9.22 2 9.5S1.78 10 1.5 10L2 10.5C2 10.22 2.22 10 2.5 10S3 10.22 3 10.5S2.78 11 2.5 11H1V9.5C1 9.22 1.22 9 1.5 9zM6.24 9C6.28 9.09 6.31 9.16 6.38 9.25h2.27C8.71 9.11 8.75 9 8.75 9H6.24zM13.5 9C13.78 9 14 9.22 14 9.5V11h-1.5c-0.28 0 -0.5 -0.22 -0.5 -0.5s0.22 -0.5 0.5 -0.5s0.5 0.22 0.5 0.5l0.5 -0.5C13.22 10 13 9.78 13 9.5S13.22 9 13.5 9zM6.57 9.5c0.08 0.09 0.16 0.18 0.26 0.25h1.42C8.35 9.67 8.43 9.59 8.5 9.5H6.57z"/>
</svg>