<?xml version="1.0" encoding="UTF-8"?>
<svg viewBox="0 0 15 15" version="1.1" xmlns="http://www.w3.org/2000/svg" xmlns:xlink="http://www.w3.org/1999/xlink">
  <path d="M5.5 11.61C6.12 11.86 6.79 12 7.5 12C8.21 12 8.88 11.86 9.5 11.61L10.36 15L12.19 15L11.09 10.63C12.24 9.63 12.86 8.07 12.86 6.43L2.14 6.43C2.14 8.07 2.76 9.63 3.91 10.63L2.81 15L4.64 15L5.5 11.61Z"/>
  <path d="M3.71 5.32C3.71 5.32 3.31 4.57 3.49 3.9C3.57 3.57 3.67 3.37 3.77 3.18C3.89 2.92 4.02 2.67 4.02 2.25C4.02 1.94 3.95 1.65 3.87 1.34C3.78 0.97 3.67 0.55 3.67 0L2.95 0C2.95 0.63 3.07 1.12 3.16 1.52C3.23 1.79 3.29 2.03 3.29 2.25C3.29 2.51 3.23 2.63 3.11 2.86C3.01 3.06 2.89 3.32 2.78 3.72C2.62 4.35 2.79 4.96 2.93 5.33L3.71 5.33L3.71 5.32Z"/>
  <path d="M6.47 5.32C6.47 5.32 6.07 4.57 6.24 3.9C6.33 3.57 6.43 3.37 6.52 3.18C6.65 2.92 6.77 2.67 6.77 2.25C6.77 1.94 6.7 1.65 6.62 1.34C6.53 0.97 6.43 0.55 6.43 0L5.7 0C5.7 0.63 5.82 1.12 5.92 1.52C5.99 1.79 6.05 2.03 6.05 2.25C6.05 2.51 5.98 2.63 5.87 2.86C5.77 3.06 5.65 3.32 5.54 3.72C5.37 4.35 5.54 4.96 5.68 5.33L6.46 5.33L6.47 5.32Z"/>
  <path d="M9.22 5.32C9.22 5.32 8.82 4.57 9 3.9C9.08 3.57 9.19 3.37 9.28 3.18C9.41 2.92 9.53 2.68 9.53 2.25C9.53 1.94 9.46 1.65 9.38 1.34C9.29 0.97 9.18 0.55 9.18 0L8.46 0C8.46 0.63 8.58 1.12 8.67 1.52C8.74 1.79 8.8 2.03 8.8 2.25C8.8 2.51 8.74 2.63 8.63 2.86C8.52 3.06 8.4 3.32 8.3 3.72C8.13 4.35 8.3 4.96 8.44 5.33L9.22 5.33L9.22 5.32Z"/>
  <path d="M11.98 5.32C11.98 5.32 11.58 4.57 11.75 3.9C11.84 3.57 11.94 3.37 12.03 3.18C12.16 2.92 12.29 2.68 12.29 2.25C12.29 1.94 12.21 1.65 12.14 1.34C12.04 0.97 11.94 0.55 11.94 0L11.21 0C11.21 0.63 11.33 1.12 11.43 1.52C11.5 1.79 11.56 2.03 11.56 2.25C11.56 2.51 11.5 2.63 11.38 2.86C11.28 3.06 11.16 3.32 11.05 3.72C10.88 4.35 11.05 4.96 11.2 5.33L11.97 5.33L11.98 5.32Z"/>
</svg>