<?xml version="1.0" encoding="UTF-8"?>
<svg xmlns="http://www.w3.org/2000/svg" viewBox="0 0 15 15">
  <path d="M9.32 7.66C10.88 7.11 11.95 5.65 12 4H3c0.05 1.63 1.1 3.07 2.63 3.63L4.92 9.04c-1.36 -0.24 -2.65 0.67 -2.88 2.03s0.67 2.65 2.03 2.88C4.99 14.12 5.93 13.75 6.49 13h4.22l0.34 0.72c0.08 0.17 0.26 0.28 0.45 0.28c0.07 0 0.15 -0.02 0.21 -0.05c0.25 -0.12 0.36 -0.41 0.24 -0.66L9.32 7.66zM4.5 12.75c-0.69 0 -1.25 -0.56 -1.25 -1.25s0.56 -1.25 1.25 -1.25s1.25 0.56 1.25 1.25C5.75 12.19 5.19 12.75 4.5 12.75zM6.95 12c0.21 -1.01 -0.23 -2.04 -1.09 -2.59L6.6 7.92c0.58 0.1 1.17 0.1 1.75 0l1.9 4.07L6.95 12zM4.75 1C4.61 1 4.5 1.11 4.5 1.25c0 0.5 -0.5 0.5 -0.5 0.5c-1 0 -1 1 -1 1C3 2.89 3.11 3 3.25 3S3.5 2.89 3.5 2.75c0 -0.5 0.5 -0.5 0.5 -0.5c1 0 1 -1 1 -1C5 1.11 4.89 1 4.75 1zM6.75 1C6.61 1 6.5 1.11 6.5 1.25c0 0.5 -0.5 0.5 -0.5 0.5c-1 0 -1 1 -1 1C5 2.89 5.11 3 5.25 3S5.5 2.89 5.5 2.75c0 -0.5 0.5 -0.5 0.5 -0.5c1 0 1 -1 1 -1C7 1.11 6.89 1 6.75 1zM8.75 1C8.61 1 8.5 1.11 8.5 1.25c0 0.5 -0.5 0.5 -0.5 0.5c-1 0 -1 1 -1 1C7 2.89 7.11 3 7.25 3S7.5 2.89 7.5 2.75c0 -0.5 0.5 -0.5 0.5 -0.5c1 0 1 -1 1 -1C9 1.11 8.89 1 8.75 1zM10.75 1c-0.14 0 -0.25 0.11 -0.25 0.25c0 0.5 -0.5 0.5 -0.5 0.5c-1 0 -1 1 -1 1C9 2.89 9.11 3 9.25 3S9.5 2.89 9.5 2.75c0 -0.5 0.5 -0.5 0.5 -0.5c1 0 1 -1 1 -1C11 1.11 10.89 1 10.75 1zM12.75 1c-0.14 0 -0.25 0.11 -0.25 0.25c0 0.5 -0.5 0.5 -0.5 0.5c-1 0 -1 1 -1 1C11 2.89 11.11 3 11.25 3s0.25 -0.11 0.25 -0.25c0 -0.5 0.5 -0.5 0.5 -0.5c1 0 1 -1 1 -1C13 1.11 12.89 1 12.75 1z"/>
</svg>