<?xml version="1.0" encoding="UTF-8"?>
<svg viewBox="0 0 15 15" xmlns="http://www.w3.org/2000/svg">
  <path d="M9 3.5c0 0.83 -0.67 1.5 -1.5 1.5s-1.5 -0.67 -1.5 -1.5s0.67 -1.5 1.5 -1.5s1.5 0.67 1.5 1.5zm-3 -3.22c0 -0.15 -0.13 -0.28 -0.28 -0.28c-0.1 0.03 -0.19 0.08 -0.25 0.16l-2.47 4.43c-0.01 0.04 -0.01 0.09 0 0.13c0 0.15 0.13 0.28 0.28 0.28c0.1 -0.02 0.19 -0.08 0.26 -0.16l2.46 -4.43c0.01 -0.04 0.01 -0.09 0 -0.13zm5.9 13.92l-2.9 -7.81c-0.05 -0.23 -0.25 -0.39 -0.48 -0.39h-5c-0.28 0 -0.5 0.22 -0.5 0.5s0.22 0.5 0.5 0.5h2.48l1.45 2.51l-4.27 4.61c-0.11 0.09 -0.18 0.23 -0.18 0.38c0 0.28 0.22 0.5 0.5 0.5c0.12 0 0.24 -0.05 0.33 -0.13l4.45 -4.15l2.76 4c0.09 0.16 0.26 0.26 0.44 0.26c0.28 0 0.51 -0.22 0.52 -0.5c0 -0.1 -0.04 -0.2 -0.1 -0.28z"/>
</svg>