<?xml version="1.0" encoding="UTF-8"?>
<svg viewBox="0 0 15 15" xmlns="http://www.w3.org/2000/svg">
  <path d="M3.66 7H2.03C2.11 6.02 2.46 5.05 3.04 4.26C3.39 5.12 3.6 6.07 3.66 7ZM4.74 7H7V2C5.79 2.11 4.72 2.61 3.84 3.44C4.36 4.55 4.67 5.78 4.74 7ZM8 2V7H10.27C10.33 5.78 10.64 4.55 11.17 3.44C10.28 2.61 9.21 2.11 8 2ZM11.96 4.26C11.61 5.12 11.4 6.07 11.34 7H12.97C12.89 6.02 12.54 5.05 11.96 4.26ZM14 8.5C14 8.77 13.78 9 13.5 9H11.72L10.96 10.52V12.9C10.96 12.97 10.93 13.05 10.89 13.11C10.85 13.17 10.79 13.22 10.72 13.25C10.67 13.26 10.63 13.27 10.58 13.27C10.53 13.27 10.48 13.26 10.44 13.24C10.39 13.22 10.35 13.2 10.32 13.16L9.3 12.15L7.71 13.21C7.65 13.25 7.57 13.27 7.5 13.27C7.43 13.27 7.35 13.25 7.29 13.21L5.7 12.15L4.68 13.16C4.63 13.21 4.56 13.25 4.49 13.26C4.42 13.28 4.35 13.27 4.28 13.25C4.21 13.22 4.15 13.17 4.11 13.11C4.07 13.05 4.04 12.97 4.04 12.9V10.52L3.28 9H1.5C1.22 9 1 8.77 1 8.5C1 8.22 1.22 8 1.5 8H13.5C13.78 8 14 8.22 14 8.5ZM6.86 9H4.12L4.75 10.27C4.78 10.32 4.79 10.37 4.79 10.43V11.99L5.35 11.44L6.86 9ZM8.84 11.55L7.5 9.39L6.16 11.55L7.5 12.45L8.84 11.55ZM10.89 9H8.14L9.65 11.44L10.21 11.99V10.43C10.21 10.37 10.22 10.32 10.25 10.27L10.89 9Z"/>
</svg>