<?xml version="1.0" encoding="UTF-8"?>
<svg viewBox="0 0 15 15" version="1.1" xmlns="http://www.w3.org/2000/svg" xmlns:xlink="http://www.w3.org/1999/xlink">
  <path d="M12.11 4.61C12.11 4.61 12 6.54 10.29 6.43C10.29 6.43 10.07 4.71 12.11 4.61Z"/>
  <path d="M11.57 7.07C12.21 7.07 12.86 7.39 12.86 8.14C12.86 8.14 12.86 8.14 12.86 8.25L12.86 8.25C12.86 8.57 12.75 8.89 12.54 9.32C12.54 9.32 12.21 9.96 11.89 10.29L11.89 10.29C11.79 10.39 11.57 10.5 11.36 10.5C11.14 10.5 10.82 10.39 10.71 10.18L10.71 10.18C10.61 10.29 10.39 10.39 10.07 10.39C9.86 10.39 9.64 10.29 9.54 10.18L9.54 10.18C9.21 9.86 8.89 9.21 8.89 9.21C8.68 8.79 8.57 8.46 8.57 8.14L8.57 8.14C8.57 8.14 8.57 8.14 8.57 8.04C8.57 7.39 9.11 6.96 9.86 6.96C10.18 7.07 10.5 7.29 10.71 7.5C10.71 7.5 11.25 7.07 11.57 7.07Z"/>
  <path d="M5.57 6.75L3.96 5.89C3.96 5.89 3.96 5.79 3.96 5.79C3.96 5.14 3.54 4.61 2.89 4.5L2.36 4.39C2.36 4.29 2.36 4.18 2.36 4.18C2.46 3.64 1.93 3.21 1.39 3.21C0.86 3.21 0.43 3.64 0.43 4.18C0.43 4.18 0.43 4.29 0.43 4.29L0 4.29L0 10.5L0.86 9.64L4.61 9.21C5.04 9.11 5.36 8.89 5.57 8.57L6 7.61C6 7.5 6 7.39 6 7.39C6 7.07 5.79 6.86 5.57 6.75Z"/>
  <path d="M10.71 1.07C8.36 1.07 6.43 1.5 6.43 2.14L6.43 12.86C6.43 13.5 8.36 13.93 10.71 13.93C13.07 13.93 15 13.5 15 12.86L15 2.14C15 1.5 13.07 1.07 10.71 1.07ZM7.5 12.43L7.5 2.79C8.25 3.11 9.43 3.21 10.71 3.21C12 3.21 13.18 3.11 13.93 2.89L13.93 12.54C13.18 12.75 12 12.96 10.71 12.96C9.43 12.96 8.25 12.75 7.5 12.43Z"/>
</svg>