<?xml version="1.0" encoding="UTF-8"?>
<svg viewBox="0 0 15 15" version="1.1" xmlns="http://www.w3.org/2000/svg" xmlns:xlink="http://www.w3.org/1999/xlink">
  <path d="M15 2.14L15 1.07L8.57 1.07L8.57 13.93L15 13.93L15 12.86L9.64 12.86L9.64 2.14z"/>
  <path d="M14.25 4.61C14.25 4.61 14.14 6.54 12.43 6.43C12.43 6.43 12.21 4.71 14.25 4.61Z"/>
  <path d="M13.71 7.07C14.36 7.07 15 7.39 15 8.14C15 8.14 15 8.14 15 8.25L15 8.25C15 8.57 14.89 8.89 14.68 9.32C14.68 9.32 14.36 9.96 14.04 10.29L14.04 10.29C13.93 10.39 13.71 10.5 13.5 10.5C13.29 10.5 12.96 10.39 12.86 10.18L12.86 10.18C12.75 10.39 12.54 10.5 12.21 10.5C12 10.5 11.79 10.39 11.68 10.29L11.68 10.29C11.36 9.96 11.04 9.32 11.04 9.32C10.82 8.89 10.71 8.57 10.71 8.25L10.71 8.25C10.71 8.25 10.71 8.25 10.71 8.14C10.71 7.5 11.25 7.07 12 7.07C12.32 7.07 12.64 7.29 12.86 7.5C12.86 7.5 13.39 7.07 13.71 7.07Z"/>
  <path d="M6.64 6.75L5.04 5.89C5.04 5.89 5.04 5.79 5.04 5.79C5.04 5.14 4.61 4.61 3.96 4.5L3.43 4.39C3.43 4.29 3.43 4.18 3.43 4.18C3.54 3.64 3 3.21 2.46 3.21C1.93 3.21 1.5 3.64 1.5 4.18C1.5 4.18 1.5 4.29 1.5 4.29L0 4.5L0 11.79L1.93 9.64L5.68 9.21C6.11 9.11 6.43 8.89 6.64 8.57L7.07 7.61C7.07 7.5 7.07 7.39 7.07 7.39C7.07 7.07 6.86 6.86 6.64 6.75Z"/>
</svg>