<?xml version="1.0" encoding="UTF-8"?>
<svg viewBox="0 0 15 15" version="1.1" xmlns="http://www.w3.org/2000/svg" xmlns:xlink="http://www.w3.org/1999/xlink">
  <path d="M0.5 2.5C0.2 2.5 0 2.7 0 3L0 10.5L0 12.5C0 12.8 0.2 13 0.5 13C0.8 13 1 12.8 1 12.5L1 11L14 11L14 12.5C14 12.8 14.2 13 14.5 13C14.8 13 15 12.8 15 12.5L15 10.5C15 10.2 14.8 10 14.5 10L1 10L1 3C1 2.7 0.8 2.5 0.5 2.5ZM3.5 3C2.7 3 2 3.7 2 4.5L2 4.5C2 5.3 2.7 6 3.5 6L3.5 6C4.3 6 5 5.3 5 4.5L5 4.5C5 3.7 4.3 3 3.5 3L3.5 3ZM7 4C5.5 4 5.5 5.5 5.5 5.5L5.5 7L3 7C2.45 7 2 7.45 2 8C2 8.55 2.45 9 3 9L6 9L6 9L15 9L15 6.5C15 4 12.5 4 12.5 4L7 4Z"/>
</svg>