<?xml version="1.0" encoding="UTF-8"?>
<svg version="1.1" xmlns="http://www.w3.org/2000/svg" viewBox="0 0 15 15">
  <path d="M10 1C9.45 1 9 1.45 9 2c0 0.55 0.45 1 1 1s1 -0.45 1 -1C11 1.45 10.55 1 10 1zM8.14 2.99c-0.13 0 -0.25 0.05 -0.35 0.14l-2.64 2.5c-0.23 0.21 -0.21 0.58 0.04 0.76L7 7.75v2.75c-0.01 0.68 1.01 0.68 1 0v-3c0 -0.16 -0.07 -0.31 -0.2 -0.4L7.03 6.52l1.82 -1.72l0.75 1C9.69 5.93 9.84 6 10 6h1.5c0.68 0.01 0.68 -1.01 0 -1h-1.25L9.5 4L8.9 3.2C8.81 3.08 8.67 3 8.52 2.99H8.14zM3 7c-1.66 0 -3 1.34 -3 3s1.34 3 3 3s3 -1.34 3 -3S4.66 7 3 7zM12 7c-1.66 0 -3 1.34 -3 3s1.34 3 3 3s3 -1.34 3 -3S13.66 7 12 7zM3 8c1.1 0 2 0.9 2 2s-0.9 2 -2 2s-2 -0.9 -2 -2S1.9 8 3 8zM12 8c1.1 0 2 0.9 2 2s-0.9 2 -2 2s-2 -0.9 -2 -2S10.9 8 12 8z"/>
</svg>