<?xml version="1.0" encoding="UTF-8"?>
<svg xmlns="http://www.w3.org/2000/svg" viewBox="0 0 15 15">
  <path d="M8 1L11 4H12C14 4 14 1 12 1H8ZM8.46 3C8.34 3.01 8.23 3.06 8.15 3.15L5.65 5.65C5.6 5.7 5.56 5.76 5.53 5.82C5.51 5.89 5.5 5.96 5.5 6.03C5.5 6.1 5.52 6.17 5.56 6.23C5.59 6.29 5.63 6.35 5.69 6.39L7.85 8.12L6.57 10.24C6.5 10.36 6.48 10.49 6.51 10.62C6.55 10.75 6.63 10.86 6.74 10.93C6.86 11 6.99 11.02 7.12 10.99C7.25 10.95 7.36 10.87 7.43 10.76L8.93 8.26C8.99 8.15 9.02 8.03 8.99 7.91C8.97 7.79 8.91 7.68 8.81 7.61L7.3 6.4L9 4.71L10.15 5.85C10.19 5.9 10.25 5.94 10.31 5.96C10.37 5.99 10.43 6 10.5 6H13C13.13 6 13.26 5.95 13.35 5.85C13.45 5.76 13.5 5.63 13.5 5.5C13.5 5.37 13.45 5.24 13.35 5.15C13.26 5.05 13.13 5 13 5H10.71L8.85 3.15C8.8 3.09 8.74 3.06 8.67 3.03C8.61 3.01 8.53 2.99 8.46 3ZM2.95 7C2.16 7.01 1.41 7.34 0.86 7.9C0.31 8.46 0 9.21 0 10C0 10.8 0.32 11.56 0.88 12.12C1.44 12.68 2.2 13 3 13C3.8 13 4.56 12.68 5.12 12.12C5.68 11.56 6 10.8 6 10C6 9.6 5.92 9.21 5.77 8.84C5.61 8.47 5.39 8.14 5.1 7.86C4.82 7.58 4.48 7.36 4.11 7.21C3.74 7.07 3.35 6.99 2.95 7H2.95ZM11.95 7C11.16 7.01 10.41 7.34 9.86 7.9C9.31 8.46 9 9.21 9 10C9 10.8 9.32 11.56 9.88 12.12C10.44 12.68 11.2 13 12 13C12.8 13 13.56 12.68 14.12 12.12C14.68 11.56 15 10.8 15 10C15 9.6 14.92 9.21 14.77 8.84C14.61 8.47 14.39 8.14 14.1 7.86C13.82 7.58 13.48 7.36 13.11 7.21C12.74 7.07 12.35 6.99 11.95 7H11.95ZM12.05 8C12.57 8.01 13.07 8.23 13.43 8.6C13.8 8.98 14 9.48 14 10C14 10.53 13.79 11.04 13.41 11.41C13.04 11.79 12.53 12 12 12C11.47 12 10.96 11.79 10.59 11.41C10.21 11.04 10 10.53 10 10C10 9.73 10.05 9.47 10.16 9.22C10.26 8.98 10.41 8.75 10.6 8.57C10.79 8.38 11.02 8.24 11.27 8.14C11.52 8.04 11.78 7.99 12.05 8V8Z"/>
</svg>