<?xml version="1.0" encoding="UTF-8"?>
<svg viewBox="0 0 15 15" version="1.1" xmlns="http://www.w3.org/2000/svg" xmlns:xlink="http://www.w3.org/1999/xlink">
  <path d="M9,15 L10.875,12.962963 L13.5,14.0740741 L11.4819046,11.1569229 C10.9758287,10.4253915 10.8009217,9.51467698 11,8.64771748 L11.1693699,7.91013433 C11.2644855,7.49591857 11.3125,7.07228291 11.3125,6.64728682 C11.3125,6.22345818 11.2472317,5.80215712 11.1189897,5.39819583 L11.09375,5.31869078 C10.9539817,4.87842161 10.6409545,4.51405162 10.2267812,4.30952156 L9,3.7037037 L9,3.7037037 L9,2.37695994 C9,1.41886519 8.33947674,0.587242234 7.40625,0.37037037 L6.66634493,0.198424385 C6.15501567,0.0795969606 5.62446326,0.297144484 5.34375,0.740740741 C5.05190636,1.20192575 4.54417184,1.48148148 3.99840237,1.48148148 L1.5,1.48148148 L1.5,1.48148148 L4.875,3.33333333 L5.00389758,3.58794584 C5.14237752,3.86148647 5.04501203,4.19554843 4.78125,4.35185185 C4.4781748,4.53145197 4.24681893,4.81066274 4.12666604,5.14183349 L4.0625,5.31869078 C3.90001129,5.76654943 3.88342275,6.25434237 4.01511029,6.71220516 L4.0771785,6.92800936 C4.23286837,7.46932557 4.48169752,7.97937068 4.8125,8.43525696 C5.13990343,8.88645893 5.58170834,9.24218855 6.09237742,9.46578038 L6.3125,9.56215906 C6.97520396,9.85231798 7.58920616,10.2429245 8.13286586,10.7202115 L8.15625,10.7407407 C8.69254473,11.2115619 9,11.890609 9,12.6042508 L9,15 L9,15 Z" transform="translate(7.5, 7.5) scale(-1, 1) translate(-7.5, -7.5)"/>
</svg>