<?xml version="1.0" encoding="UTF-8"?>
<svg viewBox="0 0 15 15" version="1.1" xmlns="http://www.w3.org/2000/svg" xmlns:xlink="http://www.w3.org/1999/xlink">
  <path d="M1.62725382,11.2414831 L5.88978,8.04458846 C5.26816159,7.77818057 4.86854977,7.556174 4.69094451,7.37856874 C4.42453662,7.11216086 4.33573399,5.24730565 4.15812874,4.18167411 L4.04726525,4.10502627 C3.15680117,3.4610029 -0.352218733,0.433377105 0.0288064992,0.0523518723 C0.428418329,-0.347259957 5.62337211,1.65079919 6.28939183,2.31681891 C6.73340497,2.76083205 7.1330168,3.60445702 7.48822731,4.84769382 C8.39528274,4.60031507 8.9960597,4.35293632 9.29055822,4.10555757 L9.35308252,4.04847017 C9.6194904,3.78206228 10.1523062,3.60445702 10.9515298,3.51565439 L12.2835693,2.71643073 L11.4843456,4.04847017 C11.4029432,4.78109185 11.2469219,5.28985691 11.0162818,5.57476535 L10.9515298,5.64691748 C10.6851219,5.91332537 10.4187141,6.53494377 10.1523062,7.51177269 C11.395543,7.8669832 12.239168,8.26659503 12.6831811,8.71060817 C13.3492008,9.37662789 15.34726,14.5715817 14.9476481,14.9711935 C14.5480363,15.3708053 11.2373213,11.4915989 10.8183259,10.8418713 C9.75269435,10.664266 7.88783914,10.5754634 7.62143126,10.3090555 C7.443826,10.1314502 7.22181943,9.73183841 6.95541154,9.11022 L3.75851691,13.3727462 C3.04809588,13.3727462 2.5152801,13.1951409 2.16006959,12.8399304 C1.80485907,12.4847199 1.62725382,11.9519041 1.62725382,11.2414831 Z"/>
</svg>