<?xml version="1.0" encoding="UTF-8"?>
<svg viewBox="0 0 15 15" version="1.1" xmlns="http://www.w3.org/2000/svg" xmlns:xlink="http://www.w3.org/1999/xlink">
  <path d="M12.9545455,2.5 L13.9772727,4.22413793 L15,4.9137931 L15,7.67241379 L14.3181818,9.74137931 L12.6136364,10.0862069 L11.5909091,9.05172414 C11.2137844,8.63615623 10.9865117,8.29132864 10.9090909,8.01724138 C10.8316702,7.74315412 10.7180338,7.283384 10.5681818,6.63793103 C10.1821881,7.06490221 10.0685517,7.63961485 10.2272727,8.36206897 C10.3356061,8.85517257 10.5817524,9.22590209 10.9657116,9.47425754 L10.5681818,9.74137931 L10.9090909,10.7758621 L10.9090909,11.8103448 L11.25,12.5 L10.2272727,12.5 L9.88636364,11.1206897 L9.20454545,10.4310345 L9.20454545,11.1206897 L8.18181818,12.1551724 L7.84090909,12.1551724 L7.5,11.4655172 L8.52272727,10.7758621 L7.84090909,9.74137931 L6.81818182,9.74137931 L5.11363636,9.05172414 L5.11363636,10.4310345 L6.13636364,12.5 L5.45454545,12.5 L4.09090909,10.4310345 L4.09090909,9.74137931 L3.40909091,9.05172414 L2.04545455,10.4310345 L2.04545455,12.5 L1.36363636,12.1551724 L1.36363636,9.74137931 L2.04545455,8.36206897 L2.04545455,6.29310345 L1.36363636,6.98275862 L1.02272727,7.67241379 L0.340909091,8.36206897 L0.340909091,7.67241379 L-1.77635684e-15,7.67241379 L2.04545455,4.56896552 L6.43707233,3.01423187 C7.95165804,2.47803371 9.6343889,2.73988124 10.9144311,3.71094776 L11.5909091,4.22413793 L12.2680992,4.22420686 C12.5051916,4.47361995 12.8476434,4.5885395 13.2954545,4.56896552 L12.9545455,4.22413793 L12.9545455,2.5 Z"/>
</svg>