<?xml version="1.0" encoding="UTF-8"?>
<svg viewBox="0 0 15 15" version="1.1" xmlns="http://www.w3.org/2000/svg" xmlns:xlink="http://www.w3.org/1999/xlink">
  <path d="M0.0926844153,10.1590358 C-0.0111564574,10.0787598 0.000381417347,9.94114386 0.000381417347,9.94114386 L0.611888779,2.77364631 C0.611888779,2.77364631 0.623426653,2.69337034 0.658040278,2.65896635 C0.669578152,2.62456236 0.704191777,2.59015837 0.750343276,2.56722238 C1.36185064,2.32639446 4.67322069,0.537387072 6.34621253,2.2002465 C6.62312152,2.52135039 6.92310626,2.99153823 6.92310626,3.34704611 L6.92310626,9.41361604 C6.92310626,9.41361604 6.93464414,9.539764 6.80772752,9.62003997 C6.78465177,9.64297596 6.66927302,9.68884795 6.53081852,9.62003997 C3.95787245,8.34709241 1.09647952,9.79205991 0.369593409,10.1819718 C0.231138912,10.2507798 0.115760165,10.1705038 0.0926844153,10.1590358 Z M14.6304066,10.1819718 C13.9035205,9.80352791 11.0421275,8.34709241 8.46918148,9.62003997 C8.33072698,9.68884795 8.21534823,9.63150797 8.19227248,9.62003997 C8.06535586,9.539764 8.07689374,9.41361604 8.07689374,9.41361604 L8.07689374,3.34704611 C8.07689374,2.99153823 8.37687848,2.52135039 8.65378747,2.2002465 C10.3267793,0.537387072 13.6150736,2.32639446 14.226581,2.56722238 C14.2842703,2.59015837 14.3073461,2.62456236 14.3304218,2.64749835 C14.3650355,2.69337034 14.3765733,2.77364631 14.3765733,2.77364631 L14.9996186,9.94114386 C14.9996186,9.94114386 15.0111565,10.0787598 14.9073156,10.1590358 C14.8842398,10.1705038 14.7688611,10.2507798 14.6304066,10.1819718 Z M9.06915096,13.3127347 C9.11530246,13.3012667 9.18452971,13.2668627 9.20760546,13.2209907 C9.23068121,13.1751188 9.25375696,13.1521828 9.25375696,13.0948428 C9.31144633,12.0168512 11.1228927,11.0191355 14.6188687,13.0604388 C14.7111717,13.1063108 14.8150126,13.1063108 14.8957777,13.0375028 C14.9996186,12.9686948 14.9996186,12.8540149 14.9996186,12.8540149 L14.9996186,12.2232751 C14.9996186,12.2232751 14.9996186,12.1315311 14.965005,12.0856591 C14.9419292,12.0512551 14.9073156,12.0168512 14.8611641,11.9824472 C12.5189755,10.4801397 9.56527958,9.80352791 8.06535586,11.7989592 C8.04228011,11.8448312 8.01920436,11.8677672 7.98459074,11.9021712 C7.92690137,11.9480432 7.84613624,11.9480432 7.84613624,11.9480432 L7.16540163,11.9480432 C7.16540163,11.9480432 7.08463651,11.9480432 7.01540926,11.9021712 C6.96925776,11.8677672 6.95771989,11.8448312 6.93464414,11.7989592 C5.43472042,9.80352791 2.48102449,10.4457357 0.138835914,11.9480432 C0.0926844153,11.9709792 0.0580707911,12.0053832 0.0349950416,12.0512551 C0.000381417347,12.0971271 0.000381417347,12.1888711 0.000381417347,12.1888711 L0.000381417347,12.8196109 C0.000381417347,12.8196109 0.000381417347,12.9457588 0.0926844153,13.0145668 C0.184987413,13.0833748 0.288828286,13.0833748 0.369593409,13.0375028 C3.85403158,10.9961995 5.67701579,12.0283191 5.73470516,13.1063108 C5.73470516,13.1636508 5.75778091,13.1865868 5.78085666,13.2324587 C5.80393241,13.2668627 5.87315966,13.3127347 5.91931116,13.3242027 C6.76157602,13.5191586 7.97305286,13.5994346 9.06915096,13.3127347 Z"/>
</svg>