<?xml version="1.0" encoding="UTF-8"?>
<svg version="1.1" xmlns="http://www.w3.org/2000/svg" viewBox="0 0 15 15">
  <path d="M1.08 9.94C0.99 9.87 1 9.75 1 9.75L1.53 3.5c0 0 0.01 -0.07 0.04 -0.1C1.58 3.37 1.61 3.34 1.65 3.32C2.18 3.11 5.05 1.55 6.5 3c0.24 0.28 0.5 0.69 0.5 1v5.29c0 0 0.01 0.11 -0.1 0.18c-0.02 0.02 -0.12 0.06 -0.24 0c-2.23 -1.11 -4.71 0.15 -5.34 0.49C1.2 10.02 1.1 9.95 1.08 9.94zM13.68 9.96c-0.63 -0.33 -3.11 -1.6 -5.34 -0.49c-0.12 0.06 -0.22 0.01 -0.24 0C7.99 9.4 8 9.29 8 9.29V4c0 -0.31 0.26 -0.72 0.5 -1c1.45 -1.45 4.3 0.11 4.83 0.32c0.05 0.02 0.07 0.05 0.09 0.07C13.45 3.43 13.46 3.5 13.46 3.5l0.54 6.25c0 0 0.01 0.12 -0.08 0.19C13.9 9.95 13.8 10.02 13.68 9.96zM8.86 12.69c0.04 -0.01 0.1 -0.04 0.12 -0.08c0.02 -0.04 0.04 -0.06 0.04 -0.11c0.05 -0.94 1.62 -1.81 4.65 -0.03c0.08 0.04 0.17 0.04 0.24 -0.02C14 12.39 14 12.29 14 12.29v-0.55c0 0 0 -0.08 -0.03 -0.12c-0.02 -0.03 -0.05 -0.06 -0.09 -0.09c-2.03 -1.31 -4.59 -1.9 -5.89 -0.16c-0.02 0.04 -0.04 0.06 -0.07 0.09C7.87 11.5 7.8 11.5 7.8 11.5H7.21c0 0 -0.07 0 -0.13 -0.04c-0.04 -0.03 -0.05 -0.05 -0.07 -0.09c-1.3 -1.74 -3.86 -1.18 -5.89 0.13c-0.04 0.02 -0.07 0.05 -0.09 0.09c-0.03 0.04 -0.03 0.12 -0.03 0.12v0.55c0 0 0 0.11 0.08 0.17c0.08 0.06 0.17 0.06 0.24 0.02c3.02 -1.78 4.6 -0.88 4.65 0.06c0 0.05 0.02 0.07 0.04 0.11c0.02 0.03 0.08 0.07 0.12 0.08C6.86 12.87 7.91 12.94 8.86 12.69z"/>
</svg>