<?xml version="1.0" encoding="UTF-8"?>
<svg viewBox="0 0 15 15" version="1.1" xmlns="http://www.w3.org/2000/svg" xmlns:xlink="http://www.w3.org/1999/xlink">
  <path d="M0.09 10.16C-0.01 10.08 0 9.94 0 9.94L0.61 2.77C0.61 2.77 0.62 2.69 0.66 2.66C0.67 2.62 0.7 2.59 0.75 2.57C1.36 2.33 4.67 0.54 6.35 2.2C6.62 2.52 6.92 2.99 6.92 3.35L6.92 9.41C6.92 9.41 6.93 9.54 6.81 9.62C6.78 9.64 6.67 9.69 6.53 9.62C3.96 8.35 1.1 9.79 0.37 10.18C0.23 10.25 0.12 10.17 0.09 10.16ZM14.63 10.18C13.9 9.8 11.04 8.35 8.47 9.62C8.33 9.69 8.22 9.63 8.19 9.62C8.07 9.54 8.08 9.41 8.08 9.41L8.08 3.35C8.08 2.99 8.38 2.52 8.65 2.2C10.33 0.54 13.62 2.33 14.23 2.57C14.28 2.59 14.31 2.62 14.33 2.65C14.37 2.69 14.38 2.77 14.38 2.77L15 9.94C15 9.94 15.01 10.08 14.91 10.16C14.88 10.17 14.77 10.25 14.63 10.18ZM9.07 13.31C9.12 13.3 9.18 13.27 9.21 13.22C9.23 13.18 9.25 13.15 9.25 13.09C9.31 12.02 11.12 11.02 14.62 13.06C14.71 13.11 14.82 13.11 14.9 13.04C15 12.97 15 12.85 15 12.85L15 12.22C15 12.22 15 12.13 14.97 12.09C14.94 12.05 14.91 12.02 14.86 11.98C12.52 10.48 9.57 9.8 8.07 11.8C8.04 11.84 8.02 11.87 7.98 11.9C7.93 11.95 7.85 11.95 7.85 11.95L7.17 11.95C7.17 11.95 7.08 11.95 7.02 11.9C6.97 11.87 6.96 11.84 6.93 11.8C5.43 9.8 2.48 10.45 0.14 11.95C0.09 11.97 0.06 12.01 0.03 12.05C0 12.1 0 12.19 0 12.19L0 12.82C0 12.82 0 12.95 0.09 13.01C0.18 13.08 0.29 13.08 0.37 13.04C3.85 11 5.68 12.03 5.73 13.11C5.73 13.16 5.76 13.19 5.78 13.23C5.8 13.27 5.87 13.31 5.92 13.32C6.76 13.52 7.97 13.6 9.07 13.31Z"/>
</svg>