<?xml version="1.0" encoding="UTF-8"?>
<svg viewBox="0 0 15 15" version="1.1" xmlns="http://www.w3.org/2000/svg" xmlns:xlink="http://www.w3.org/1999/xlink">
  <path d="M12.86 5.36L15 5.36L15 11.68L0 11.68L0 5.36L2.14 5.36L2.14 4.29C2.14 3.75 2.68 3.21 3.21 3.21L11.79 3.21C12.32 3.21 12.86 3.75 12.86 4.29L12.86 5.36ZM11.79 5.36L11.79 4.29L3.21 4.29L3.21 5.36L11.79 5.36ZM8.57 8.57L8.57 6.43L6.43 6.43L6.43 8.57L8.57 8.57ZM3 11.04C4.29 11.04 5.25 9.96 5.25 8.79C5.25 7.5 4.18 6.43 3 6.43C1.71 6.43 0.75 7.5 0.75 8.68C0.75 9.96 1.71 11.04 3 11.04ZM12 11.04C13.29 11.04 14.25 9.96 14.25 8.79C14.25 7.5 13.18 6.54 12 6.54C10.71 6.54 9.75 7.61 9.75 8.79C9.75 9.96 10.82 11.04 12 11.04Z"/>
</svg>