<?xml version="1.0" encoding="UTF-8"?>
<svg xmlns="http://www.w3.org/2000/svg" viewBox="0 0 15 15">
  <path d="M1.5 1A2.7 2.7 0 0 1 4 3l0.5 -3L5 3A2.7 2.7 0 0 1 7.5 1c-0.2 0.03 -1 0.26 -1 2v0.08A1.96 1.96 0 0 1 4.5 5H4.42A1.96 1.96 0 0 1 2.5 3C2.5 1.26 1.7 1.03 1.5 1ZM12.01 11l3 -0.5l-3 -0.5A2.69 2.69 0 0 0 14 7.5c-0.03 0.2 -0.25 1 -1.99 1a2 2 0 0 0 0 4c1.74 0 1.96 0.8 1.99 1A2.69 2.69 0 0 0 12.01 11ZM9.69 5.55a1 1 0 0 1 0 -2a1 1 0 0 1 0 -2a0.99 0.99 0 0 1 0.85 0.51l0.02 -0.01a0.98 0.98 0 0 1 -0.12 -0.44a1 1 0 1 1 2 0a0.98 0.98 0 0 1 -0.12 0.44l0.02 0.01a0.99 0.99 0 0 1 0.85 -0.5a1 1 0 0 1 0.03 2a1 1 0 0 1 -0.02 2a0.99 0.99 0 0 1 -0.85 -0.5l-0.02 0.01a0.98 0.98 0 0 1 0.11 0.44a1 1 0 0 1 -2 0a0.98 0.98 0 0 1 0.11 -0.44l-0.02 -0.01a0.99 0.99 0 0 1 -0.85 0.51Zm0.71 -1.99A1.05 1.05 0 1 0 11.45 2.5A1.05 1.05 0 0 0 10.4 3.55v0ZM4.95 11.44l-0.52 -0.51L8.89 6.48A1.75 1.75 0 0 1 8.44 6.22L4.08 10.58l-0.52 -0.52A16.05 16.05 0 0 0 4.91 6a3.37 3.37 0 0 1 -0.41 0.04c-0.04 0 -0.07 -0.01 -0.11 -0.01A16.95 16.95 0 0 1 3.13 9.63L2.76 9.26a0.25 0.25 0 0 0 -0.4 0.08L0.23 14.45a0.29 0.29 0 0 0 -0.02 0.09a0.25 0.25 0 0 0 0.25 0.25a0.29 0.29 0 0 0 0.1 -0.02l5.1 -2.12a0.25 0.25 0 0 0 0.08 -0.4l-0.37 -0.37a16.87 16.87 0 0 1 3.61 -1.26c0 -0.06 -0.01 -0.11 -0.01 -0.17A3.35 3.35 0 0 1 9 10.09A16.08 16.08 0 0 0 4.95 11.44Z"/>
</svg>