<?xml version="1.0" encoding="UTF-8"?>
<svg viewBox="0 0 15 15" version="1.1" xmlns="http://www.w3.org/2000/svg" xmlns:xlink="http://www.w3.org/1999/xlink">
  <path d="M9.47 9.05C9.47 9.05 8.91 7.64 8.36 6.3C8.36 6.3 8.18 5.49 8.32 4.42C8.32 4.42 8.71 2.78 8.49 2C8.49 2 8.16 1.34 7.47 1.29C7.47 1.29 6.52 1.36 6.34 2.28C6.34 2.28 6.29 2.82 6.44 3.43C6.44 3.43 6.98 5.47 6.39 6.8C6.39 6.8 5.57 8.51 5.51 8.9C5.51 8.9 5.21 10.57 5.51 11.79C5.51 11.79 6.14 13.9 6.6 14.6C6.6 14.6 7.53 14.84 8.34 14.57C8.34 14.57 9.3 13.01 9.49 11.6C9.49 11.6 9.74 10.11 9.47 9.05L9.47 9.05ZM12.47 8.06C12.47 8.06 11.91 6.65 11.36 5.31C11.36 5.31 11.18 4.5 11.33 3.43C11.33 3.43 11.72 1.79 11.5 1.01C11.5 1.01 11.17 0.35 10.48 0.3C10.48 0.3 9.53 0.37 9.35 1.3C9.35 1.3 9.3 1.83 9.45 2.45C9.45 2.45 9.98 4.49 9.39 5.82C9.39 5.82 9.27 6.08 9.11 6.43C9.62 7.69 10.11 8.91 10.11 8.91L10.12 8.93L10.13 8.96C10.41 10.07 10.17 11.58 10.16 11.63C10.07 12.3 9.82 12.99 9.57 13.55L9.6 13.61C9.6 13.61 10.54 13.85 11.34 13.58C11.34 13.58 12.31 12.03 12.5 10.61C12.5 10.61 12.74 9.12 12.47 8.06L12.47 8.06ZM5.77 6.68C5.8 6.61 5.83 6.53 5.85 6.46C5.71 6.09 5.55 5.7 5.39 5.31C5.39 5.31 5.21 4.5 5.35 3.43C5.35 3.43 5.74 1.79 5.53 1.02C5.53 1.02 5.19 0.35 4.5 0.31C4.5 0.31 3.55 0.38 3.37 1.3C3.37 1.3 3.33 1.83 3.47 2.45C3.47 2.45 4.01 4.49 3.42 5.82C3.42 5.82 2.6 7.52 2.54 7.91C2.54 7.91 2.23 9.59 2.53 10.81C2.53 10.81 3.16 12.92 3.62 13.61C3.62 13.61 4.56 13.85 5.36 13.59L5.42 13.51C5.12 12.73 4.88 11.94 4.86 11.87C4.55 10.59 4.85 8.91 4.86 8.84C4.93 8.43 5.63 6.95 5.77 6.67L5.77 6.68Z"/>
</svg>