<?xml version="1.0" encoding="UTF-8"?>
<svg viewBox="0 0 15 15" version="1.1" xmlns="http://www.w3.org/2000/svg" xmlns:xlink="http://www.w3.org/1999/xlink">
  <path d="M5.05 2.45a2.45 2.45 0 1 0 4.91 0a2.45 2.45 0 1 0 -4.91 0z"/>
  <path d="M12.41 8.18C12 7.5 11.66 6.82 11.25 6.34C10.98 6.07 10.7 5.86 10.3 5.73C10.09 5.66 9.82 5.59 9.55 5.59L5.73 5.59C5.25 5.59 4.84 5.73 4.57 5.93C3.68 6.48 3.27 7.5 2.8 8.52C2.39 9.34 1.91 10.3 1.84 11.32C1.77 12.34 2.18 13.23 2.8 13.77C3.48 14.39 5.18 15.14 6.55 15.07C7.36 15 8.11 14.73 8.39 14.11C8.73 13.3 8.05 12.82 7.43 12.75C6.82 12.68 6.07 12.75 5.45 12.61C5.18 12.55 4.91 12.48 4.64 12.41C4.36 12.34 4.09 12.2 4.02 12C4.3 11.86 4.7 11.93 5.11 11.86C5.39 11.8 5.93 11.73 5.93 11.45C5.93 11.32 5.73 10.98 5.66 10.77C5.45 10.23 5.32 9.14 6.2 9.34C6.68 9.41 6.82 9.95 7.02 10.3C7.57 11.18 8.18 11.93 9.68 11.8C9.41 12.14 8.93 12.34 8.86 12.89C8.8 13.57 9.34 13.91 9.89 13.91C11.05 13.91 11.8 13.16 12.41 12.55C12.82 12.07 13.23 11.45 13.23 10.57C13.23 9.55 12.82 8.8 12.41 8.18ZM9.27 10.91C8.45 10.91 7.84 10.23 7.84 9.48C7.84 8.73 8.52 8.05 9.27 8.05C10.02 8.05 10.7 8.73 10.7 9.48C10.7 10.23 10.09 10.91 9.27 10.91Z"/>
</svg>