<?xml version="1.0" encoding="UTF-8"?>
<svg viewBox="0 0 15 15" version="1.1" xmlns="http://www.w3.org/2000/svg" xmlns:xlink="http://www.w3.org/1999/xlink">
  <path d="M0 0L0 11.79L4.29 15L4.29 3.21L0 0ZM3.21 12L1.07 10.5L1.07 6.21L3.21 7.82L3.21 12ZM3.21 5.57L1.07 4.07L1.07 3L3.21 4.61L3.21 5.57Z"/>
  <path d="M10.71 0L10.71 11.79L15 15L15 3.21L10.71 0ZM13.93 12L11.79 10.39L11.79 9.32L13.93 10.93L13.93 12ZM13.93 8.79L11.79 7.18L11.79 2.89L13.93 4.5L13.93 8.79Z"/>
  <path d="M5.36 3.21L5.36 15L9.64 11.79L9.64 0L5.36 3.21ZM8.57 11.57L6.43 13.18L6.43 12.11L8.57 10.5L8.57 11.57ZM8.57 9.43L6.43 11.04L6.43 9.96L8.57 8.36L8.57 9.43ZM8.57 7.29L6.43 8.79L6.43 7.71L8.57 6.11L8.57 7.29ZM8.57 4.07L6.43 5.57L6.43 4.5L8.57 2.89L8.57 4.07Z"/>
</svg>