<?xml version="1.0" encoding="UTF-8"?>
<svg viewBox="0 0 15 15" xmlns="http://www.w3.org/2000/svg">
  <path d="M8.91 2.85c0.03 0.02 0.05 0.05 0.07 0.09c0.02 0.03 0.02 0.07 0.02 0.1v3.71c0 0.07 -0.03 0.13 -0.07 0.18c-0.05 0.05 -0.11 0.07 -0.18 0.07h-2.5c-0.07 0 -0.13 -0.03 -0.18 -0.07c-0.05 -0.05 -0.07 -0.11 -0.07 -0.18v-1.75h-1v1.75c0 0.07 -0.03 0.13 -0.07 0.18c-0.05 0.05 -0.11 0.07 -0.18 0.07h-2.5c-0.07 0 -0.13 -0.03 -0.18 -0.07c-0.05 -0.05 -0.07 -0.11 -0.07 -0.18v-3.7c0 -0.04 0.01 -0.07 0.02 -0.1c0.02 -0.03 0.04 -0.06 0.07 -0.09l3.25 -2.73c0.04 -0.04 0.1 -0.06 0.16 -0.06s0.11 0.02 0.16 0.06zm-1.16 5.65c-0.05 0 -0.1 0.01 -0.14 0.04l-2.61 1.96h-1v-2c0 -0.13 -0.05 -0.26 -0.15 -0.35c-0.09 -0.09 -0.22 -0.15 -0.35 -0.15s-0.26 0.05 -0.35 0.15c-0.09 0.09 -0.15 0.22 -0.15 0.35v2h-1v-2c0 -0.13 -0.05 -0.26 -0.15 -0.35c-0.09 -0.09 -0.22 -0.15 -0.35 -0.15s-0.26 0.05 -0.35 0.15c-0.09 0.09 -0.15 0.22 -0.15 0.35v4.25c0 0.07 0.03 0.13 0.07 0.18c0.05 0.05 0.11 0.07 0.18 0.07h6.5c0.07 0 0.13 -0.03 0.18 -0.07c0.05 -0.05 0.07 -0.11 0.07 -0.18v-4c0 -0.03 -0.01 -0.07 -0.02 -0.1c-0.01 -0.03 -0.03 -0.06 -0.05 -0.08c-0.02 -0.02 -0.05 -0.04 -0.08 -0.05s-0.06 -0.02 -0.1 -0.02zm6.25 -3.25v6.5c0 0.07 -0.03 0.13 -0.07 0.18c-0.05 0.05 -0.11 0.07 -0.18 0.07h-3.49c-0.07 0 -0.13 -0.03 -0.18 -0.07s-0.07 -0.11 -0.07 -0.18v-6.5c0 -0.03 0.01 -0.07 0.02 -0.1c0.01 -0.03 0.03 -0.06 0.05 -0.08c0.02 -0.02 0.05 -0.04 0.08 -0.05s0.06 -0.02 0.1 -0.02h0.75v-0.75c0 -0.07 0.03 -0.13 0.07 -0.18s0.11 -0.07 0.18 -0.07h1.5c0.07 0 0.13 0.03 0.18 0.07c0.05 0.05 0.07 0.11 0.07 0.18v0.75h0.76c0.07 0 0.13 0.03 0.17 0.07c0.05 0.05 0.07 0.11 0.07 0.17zm-1 4.75h-2v1h2zm0 -2h-2v1h2zm0 -2h-2v1h2z"/>
</svg>