<?xml version="1.0" encoding="UTF-8"?>
<svg version="1.1" xmlns="http://www.w3.org/2000/svg" viewBox="0 0 15 15">
  <path d="M7 1v2v1.5v0.51C4.17 5.1 2 5.97 2 7v4.5c0 1.1 2.46 2 5.5 2s5.5 -0.9 5.5 -2V7c0 -1.03 -2.17 -1.9 -5 -1.99V4.06L11 2.75L7 1zM3 8.15c0.51 0.27 1.2 0.48 2 0.63v2.97C3.79 11.48 3 11.02 3 10.5V8.15zM12 8.15V10.5c0 0.52 -0.79 0.98 -2 1.25V8.78C10.8 8.63 11.49 8.42 12 8.15zM6 8.92C6.49 8.97 6.99 9 7.5 9C8.01 9 8.51 8.97 9 8.92v2.98C8.53 11.96 8.03 12 7.5 12S6.47 11.96 6 11.91V8.92z"/>
</svg>