<?xml version="1.0" encoding="UTF-8"?>
<svg viewBox="0 0 15 15" xmlns="http://www.w3.org/2000/svg">
  <path d="M6.18 1.18a0.25 0.25 0 0 0 -0.35 0l-4.4 4.4A0.25 0.25 0 0 0 1.6 6H3v6.75a0.25 0.25 0 0 0 0.25 0.25h3.5A0.25 0.25 0 0 0 7 12.75v-7.43c0 -0.07 0.03 -0.13 0.07 -0.18L8.5 3.5L6.18 1.18ZM6 11H5v-1h1v1Zm0 -2H5V8h1v1Zm0 -3v1H5V6h1ZM12.75 3h-0.5a0.25 0.25 0 0 0 -0.25 0.25V5l-1.32 -1.82a0.25 0.25 0 0 0 -0.35 0L8.06 5.93A0.25 0.25 0 0 0 8 6.09v6.66a0.25 0.25 0 0 0 0.25 0.25h1.5a0.25 0.25 0 0 0 0.25 -0.25V11h1v1.75a0.25 0.25 0 0 0 0.25 0.25h1.5a0.25 0.25 0 0 0 0.25 -0.25V3.25a0.25 0.25 0 0 0 -0.25 -0.25ZM10 8H9V7h1v1Zm2 0h-1V7h1v1Zm-2 2H9V9h1v1Zm2 0h-1V9h1v1Z"/>
</svg>