<?xml version="1.0" encoding="UTF-8"?>
<svg viewBox="0 0 15 15" xmlns="http://www.w3.org/2000/svg">
  <path d="M15 6.1c0 1.38 -1.36 0.69 -1.36 0.69L12.5 7H11a5.31 5.31 0 0 1 -1.5 2a3.27 3.27 0 0 1 -0.52 1.13c-0.08 0.09 -0.06 0.2 -0.07 0.33l0.09 2.3a0.26 0.26 0 0 1 -0.27 0.25a0.24 0.24 0 0 1 -0.23 -0.2L8 9.5H4v3.25a0.25 0.25 0 0 1 -0.25 0.25a0.25 0.25 0 0 1 -0.24 -0.2L3 10v-0.5a8.2 8.2 0 0 1 -1.43 -0.1A1.89 1.89 0 0 1 0.9 10.83c-0.13 0.08 -0.15 0.21 -0.13 0.39l0.19 1.54a0.25 0.25 0 0 1 -0.25 0.25a0.24 0.24 0 0 1 -0.23 -0.17l-0.43 -1.7a0.35 0.35 0 0 1 0.06 -0.3c0.44 -0.68 -0.05 -2.55 -0.05 -2.55A1.35 1.35 0 0 1 0 7.92V5.5a2.03 2.03 0 0 1 2.74 -1.91s0.1 0.03 0.14 0.05a15.15 15.15 0 0 0 3.81 0.04l0.18 -0.06a1.84 1.84 0 0 1 1.26 0c0.08 0.02 0.15 0.05 0.23 0.09c0.1 0.05 0.2 0.11 0.29 0.17A1.8 1.8 0 0 0 9.5 4h1V3l0.5 0.5c0.5 -1.5 2.5 -1 2.5 -1a1.69 1.69 0 0 0 -1.5 1l2.5 2a0.61 0.61 0 0 1 0.19 -0.07a0.32 0.32 0 0 1 0.31 0.32V6.1Z"/>
</svg>