<?xml version="1.0" encoding="UTF-8"?>
<svg version="1.1" xmlns="http://www.w3.org/2000/svg" viewBox="0 0 15 15">
  <path d="M14 8c0 0.55 -0.45 1 -1 1H2C1.45 9 1 8.55 1 8s0.45 -1 1 -1h11C13.55 7 14 7.45 14 8zM3.5 10H2c0 1.66 1.34 3 3 3h5c1.66 0 3 -1.34 3 -3H3.5zM3 6H2V4c0 -1.1 0.9 -2 2 -2h7c1.1 0 2 0.9 2 2v2H3zM11 4.5C11 4.78 11.22 5 11.5 5S12 4.78 12 4.5S11.78 4 11.5 4S11 4.22 11 4.5zM9 3.5C9 3.78 9.22 4 9.5 4S10 3.78 10 3.5S9.78 3 9.5 3S9 3.22 9 3.5zM7 4.5C7 4.78 7.22 5 7.5 5S8 4.78 8 4.5S7.78 4 7.5 4S7 4.22 7 4.5zM5 3.5C5 3.78 5.22 4 5.5 4S6 3.78 6 3.5S5.78 3 5.5 3S5 3.22 5 3.5zM3 4.5C3 4.78 3.22 5 3.5 5S4 4.78 4 4.5S3.78 4 3.5 4S3 4.22 3 4.5z"/>
</svg>