<?xml version="1.0" encoding="UTF-8"?>
<svg viewBox="0 0 15 15" version="1.1" xmlns="http://www.w3.org/2000/svg" xmlns:xlink="http://www.w3.org/1999/xlink">
  <path d="M12.3 0.3L2.7 0.3C2.04 0.3 1.5 0.84 1.5 1.5L1.5 13.5C1.5 14.16 2.04 14.7 2.7 14.7L12.3 14.7C12.96 14.7 13.5 14.16 13.5 13.5L13.5 1.5C13.5 0.84 12.96 0.3 12.3 0.3ZM5.1 12.3C5.1 12.63 4.83 12.9 4.5 12.9L3.3 12.9C2.97 12.9 2.7 12.63 2.7 12.3L2.7 12C2.7 11.67 2.97 11.4 3.3 11.4L4.5 11.4C4.83 11.4 5.1 11.67 5.1 12L5.1 12.3ZM5.1 9.9C5.1 10.23 4.83 10.5 4.5 10.5L3.3 10.5C2.97 10.5 2.7 10.23 2.7 9.9L2.7 9.6C2.7 9.27 2.97 9 3.3 9L4.5 9C4.83 9 5.1 9.27 5.1 9.6L5.1 9.9ZM5.1 7.5C5.1 7.83 4.83 8.1 4.5 8.1L3.3 8.1C2.97 8.1 2.7 7.83 2.7 7.5L2.7 7.2C2.7 6.87 2.97 6.6 3.3 6.6L4.5 6.6C4.83 6.6 5.1 6.87 5.1 7.2L5.1 7.5ZM8.7 12.3C8.7 12.63 8.43 12.9 8.1 12.9L6.9 12.9C6.57 12.9 6.3 12.63 6.3 12.3L6.3 12C6.3 11.67 6.57 11.4 6.9 11.4L8.1 11.4C8.43 11.4 8.7 11.67 8.7 12L8.7 12.3ZM8.7 9.9C8.7 10.23 8.43 10.5 8.1 10.5L6.9 10.5C6.57 10.5 6.3 10.23 6.3 9.9L6.3 9.6C6.3 9.27 6.57 9 6.9 9L8.1 9C8.43 9 8.7 9.27 8.7 9.6L8.7 9.9ZM8.7 7.5C8.7 7.83 8.43 8.1 8.1 8.1L6.9 8.1C6.57 8.1 6.3 7.83 6.3 7.5L6.3 7.2C6.3 6.87 6.57 6.6 6.9 6.6L8.1 6.6C8.43 6.6 8.7 6.87 8.7 7.2L8.7 7.5ZM12.3 12.3C12.3 12.63 12.03 12.9 11.7 12.9L10.5 12.9C10.17 12.9 9.9 12.63 9.9 12.3L9.9 12C9.9 11.67 10.17 11.4 10.5 11.4L11.7 11.4C12.03 11.4 12.3 11.67 12.3 12L12.3 12.3ZM12.3 9.9C12.3 10.23 12.03 10.5 11.7 10.5L10.5 10.5C10.17 10.5 9.9 10.23 9.9 9.9L9.9 9.6C9.9 9.27 10.17 9 10.5 9L11.7 9C12.03 9 12.3 9.27 12.3 9.6L12.3 9.9ZM12.3 7.5C12.3 7.83 12.03 8.1 11.7 8.1L10.5 8.1C10.17 8.1 9.9 7.83 9.9 7.5L9.9 7.2C9.9 6.87 10.17 6.6 10.5 6.6L11.7 6.6C12.03 6.6 12.3 6.87 12.3 7.2L12.3 7.5ZM12.3 4.8C12.3 5.13 12.03 5.4 11.7 5.4L3.3 5.4C2.97 5.4 2.7 5.13 2.7 4.8L2.7 2.4C2.7 2.07 2.97 1.8 3.3 1.8L11.7 1.8C12.03 1.8 12.3 2.07 12.3 2.4L12.3 4.8Z"/>
</svg>