<?xml version="1.0" encoding="UTF-8"?>
<svg viewBox="0 0 15 15" version="1.1" xmlns="http://www.w3.org/2000/svg" xmlns:xlink="http://www.w3.org/1999/xlink">
  <path d="M2.04 4.27C0 4.29 0 4.5 0 6.42L0.02 12.89C0 15 0 15 2.07 15.04L12.91 15C15 15 15 15 15.05 12.84L15.05 6.43C15 4.29 15 4.29 12.91 4.28L2.04 4.27ZM8.57 5.37C10.94 5.37 12.86 7.29 12.86 9.66C12.86 12.03 10.94 13.95 8.57 13.95C6.2 13.95 4.29 12.03 4.29 9.66C4.29 7.29 6.2 5.37 8.57 5.37ZM2.13 2.12L3.23 2.12C4.29 2.14 4.29 3.21 4.32 3.74L1.13 3.77C1.07 3.21 1.07 2.14 2.13 2.12ZM11.26 9.68C11.26 11.16 10.06 12.36 8.58 12.36C7.1 12.36 5.9 11.16 5.9 9.68C5.9 8.2 7.1 7.01 8.58 7.01C10.06 7.01 11.26 8.2 11.26 9.68ZM9.64 1.05L9.63 3.84L15.02 3.83L15.04 0.93C15 0 15 0 13.95 0L10.77 0.02C9.64 0 9.64 0 9.64 1.05ZM10.83 1.1L13.95 1.09L13.98 3.21L10.86 3.23L10.83 1.1Z"/>
</svg>