<?xml version="1.0" encoding="UTF-8"?>
<svg version="1.1" xmlns="http://www.w3.org/2000/svg" viewBox="0 0 15 15">
  <path d="M6 2C5.45 2 5.25 2.5 5 3L4.5 4h-2C1.67 4 1 4.67 1 5.5v5C1 11.33 1.67 12 2.5 12h10c0.83 0 1.5 -0.67 1.5 -1.5v-5C14 4.67 13.33 4 12.5 4h-2L10 3C9.75 2.5 9.55 2 9 2H6zM2.5 5C2.78 5 3 5.22 3 5.5S2.78 6 2.5 6S2 5.78 2 5.5S2.22 5 2.5 5zM7.5 5c1.66 0 3 1.34 3 3s-1.34 3 -3 3s-3 -1.34 -3 -3S5.84 5 7.5 5zM7.5 6.5C6.67 6.5 6 7.17 6 8l0 0c0 0.83 0.67 1.5 1.5 1.5l0 0C8.33 9.5 9 8.83 9 8l0 0C9 7.17 8.33 6.5 7.5 6.5L7.5 6.5z"/>
</svg>