<?xml version="1.0" encoding="UTF-8"?>
<svg viewBox="0 0 15 15" version="1.1" xmlns="http://www.w3.org/2000/svg" xmlns:xlink="http://www.w3.org/1999/xlink">
  <path d="M7.5 0C8.68 1.77 9.34 3.15 9.47 4.14C12.1 4.53 14 5.66 14 7L14 12C14 13.66 11.09 15 7.5 15C3.91 15 1 13.66 1 12L1 7L1.01 6.87C1.12 5.59 2.99 4.51 5.52 4.14C5.66 3.15 6.32 1.77 7.5 0ZM9.39 5.12L9.36 5.19C9.15 5.63 8.69 5.89 8 5.97L8 7L7 7L7 5.97C6.27 5.89 5.81 5.6 5.61 5.12C3.5 5.4 2 6.14 2 7C2 8.1 4.46 9 7.5 9C10.54 9 13 8.1 13 7C13 6.14 11.5 5.4 9.39 5.12ZM7.5 2C6.5 4.17 6.5 5.25 7.5 5.25C8.5 5.25 8.5 4.17 7.5 2Z"/>
</svg>