<?xml version="1.0" encoding="UTF-8"?>
<svg viewBox="0 0 15 15" version="1.1" xmlns="http://www.w3.org/2000/svg" xmlns:xlink="http://www.w3.org/1999/xlink">
  <path d="M14.86 3.75C14.59 4.09 14.18 4.09 14.18 4.09L4.3 4.3C3.41 4.36 3.27 5.05 3.2 5.45C3.14 5.32 3 5.25 2.8 5.25C2.59 5.25 2.32 5.45 2.32 5.73C2.32 6 2.52 6.2 2.8 6.2C3 6.2 3.14 6.07 3.2 5.93C3.27 6.2 3.41 6.61 3.75 6.82L2.11 9.48L1.23 9.55L1.23 9.27L0 9.41L0.14 11.05L3 10.7L4.57 8.11L5.39 6.89L5.59 7.02L6.55 7.98C6.48 8.05 6.41 8.18 6.41 8.25L4.64 8.25L4.64 8.52L6.34 8.52C6.34 8.66 6.41 8.73 6.48 8.86L5.32 10.02L5.52 10.23L6.68 9.07C6.75 9.14 6.89 9.2 7.02 9.2L7.02 10.91L7.3 10.91L7.3 9.2C7.43 9.2 7.5 9.14 7.57 9.07L8.8 10.3L9 10.09L7.77 8.86C7.84 8.8 7.84 8.66 7.84 8.59L9.61 8.59L9.61 8.32L7.84 8.32C7.84 8.25 8.05 7.98 7.98 7.84L9 6.75L8.86 6.61L14.32 5.73C14.32 5.73 14.66 5.66 15 6L14.86 3.75ZM7.02 6.82L7.02 7.64C6.95 7.64 6.82 7.7 6.75 7.7L5.93 6.89L7.02 6.82ZM7.57 7.77C7.5 7.7 7.43 7.7 7.3 7.7L7.3 6.82L8.86 6.61L7.57 7.77Z"/>
  <path d="M7.16 5.45C5.45 5.45 4.09 6.82 4.09 8.52C4.09 10.23 5.45 11.59 7.16 11.59C8.86 11.59 10.23 10.23 10.23 8.52C10.23 6.82 8.86 5.45 7.16 5.45ZM7.16 10.91C5.86 10.91 4.77 9.82 4.77 8.52C4.77 7.23 5.86 6.14 7.16 6.14C8.45 6.14 9.55 7.23 9.55 8.52C9.55 9.82 8.45 10.91 7.16 10.91Z"/>
</svg>