<?xml version="1.0" encoding="UTF-8"?>
<svg viewBox="0 0 15 15" version="1.1" xmlns="http://www.w3.org/2000/svg" xmlns:xlink="http://www.w3.org/1999/xlink">
  <path d="M5.23 3.87C5.97 3.87 6.57 3.27 6.57 2.53C6.57 1.8 5.97 1.2 5.23 1.2C4.49 1.2 3.9 1.8 3.9 2.53C3.9 3.27 4.49 3.87 5.23 3.87ZM0.3 11.15C0.6 11.15 0.92 11.08 1.19 10.96C1.46 10.83 1.78 10.76 2.1 10.76C2.42 10.76 2.74 10.83 3.01 10.96C3.28 11.08 3.59 11.15 3.9 11.15C4.22 11.15 4.52 11.08 4.79 10.96C5.06 10.83 5.38 10.76 5.7 10.76C6.03 10.76 6.34 10.83 6.62 10.96C6.88 11.08 7.19 11.15 7.5 11.15C7.82 11.15 8.12 11.08 8.39 10.96C8.66 10.83 8.98 10.76 9.3 10.76C9.62 10.76 9.94 10.83 10.21 10.96C10.48 11.08 10.79 11.15 11.1 11.15C11.42 11.15 11.72 11.08 11.99 10.96C12.26 10.83 12.58 10.76 12.9 10.76C13.18 10.76 13.45 10.81 13.69 10.9C14.09 10.47 14.33 9.89 14.33 9.26C14.33 7.92 13.25 6.83 11.9 6.83L11.63 6.86C11.33 8.08 10.12 8.13 10.12 8.13L4.56 8.13L4.1 7.85L5.21 5.98L6.44 6.69C7.18 7.16 7.56 6.5 7.56 6.5L8.79 4.49C9.32 3.62 8.19 2.93 7.66 3.8L6.8 5.2L4.75 4.07C3.33 3.29 2.73 4.59 2.73 4.59L1.13 7.34C0.85 7.91 1.1 8.15 1.1 8.15L0.3 8.15L0.3 11.15L0.3 11.15ZM14.7 13.8C14.39 13.8 14.08 13.73 13.82 13.61C13.54 13.48 13.23 13.41 12.9 13.41C12.58 13.41 12.26 13.48 11.99 13.61C11.72 13.73 11.42 13.8 11.1 13.8C10.79 13.8 10.48 13.73 10.21 13.61C9.94 13.48 9.62 13.41 9.3 13.41C8.97 13.41 8.66 13.49 8.39 13.61C8.12 13.73 7.81 13.81 7.5 13.81C7.19 13.81 6.88 13.74 6.62 13.61C6.34 13.49 6.03 13.41 5.7 13.41C5.38 13.41 5.06 13.49 4.79 13.62C4.52 13.74 4.22 13.81 3.91 13.81C3.59 13.81 3.29 13.74 3.02 13.62C2.74 13.49 2.43 13.42 2.11 13.42C1.78 13.42 1.47 13.49 1.19 13.62C0.92 13.74 0.62 13.81 0.31 13.81L0.31 12.49C0.62 12.49 0.93 12.41 1.19 12.29C1.47 12.17 1.78 12.09 2.11 12.09C2.43 12.09 2.74 12.17 3.02 12.3C3.29 12.42 3.59 12.49 3.91 12.49C4.22 12.49 4.53 12.42 4.79 12.3C5.07 12.17 5.38 12.1 5.71 12.1C6.03 12.1 6.35 12.17 6.62 12.3C6.89 12.42 7.19 12.49 7.51 12.49C7.82 12.49 8.12 12.42 8.39 12.3C8.67 12.17 8.98 12.1 9.31 12.1C9.63 12.1 9.94 12.17 10.22 12.3C10.49 12.42 10.79 12.5 11.11 12.5C11.42 12.5 11.72 12.42 11.99 12.3C12.27 12.18 12.58 12.1 12.91 12.1C13.23 12.1 13.54 12.18 13.82 12.31C14.09 12.43 14.39 12.5 14.71 12.5L14.71 13.82L14.7 13.8Z"/>
</svg>