<?xml version="1.0" encoding="UTF-8"?>
<svg viewBox="0 0 15 15" version="1.1" xmlns="http://www.w3.org/2000/svg" xmlns:xlink="http://www.w3.org/1999/xlink">
  <path d="M14.89 1.61C14.36 0.32 13.18 -0.11 11.04 0.54C8.79 1.18 0 3.86 0 3.86L0 7.29L2.04 6.64L3.96 6.11C3.86 6.32 3.86 6.43 3.96 6.54L4.71 7.29C4.82 7.5 4.93 7.5 5.14 7.5C5.14 7.5 5.14 7.5 5.14 7.5L6.32 7.39C6.32 7.61 6.21 7.82 6.21 8.14L5.68 12.32L4.71 14.36C4.71 14.46 4.61 14.57 4.61 14.68C4.61 15 4.93 15.32 5.25 15.32C5.46 15.32 5.68 15.21 5.79 15L6.86 12.75C6.86 12.64 6.96 12.54 6.96 12.43L7.07 11.36L8.14 14.89C8.25 15.11 8.46 15.32 8.79 15.32C9.11 15.32 9.43 15 9.43 14.68C9.43 14.68 9.43 14.57 9.43 14.57L7.93 9.64L8.14 8.25C8.25 7.82 8.25 7.5 8.25 7.18L9.75 6.21C9.64 6.32 9.75 6.21 9.75 6.11L10.18 4.82L9.11 5.14L8.89 5.68L7.71 6.43L5.25 6.54L5.04 6.32L5.04 6.32L4.61 5.89C4.61 5.89 4.61 5.89 4.61 5.89L5.36 5.68L11.25 3.96C11.25 3.96 12.43 3.64 13.07 4.71L13.39 4.61C14.57 4.29 15.32 3 14.89 1.61Z"/>
  <path d="M7.29 6.21C7.71 6.21 8.14 5.89 8.14 5.36L6.54 5.89C6.75 6.11 6.96 6.21 7.29 6.21Z"/>
</svg>