<?xml version="1.0" encoding="UTF-8"?>
<svg viewBox="0 0 15 15" version="1.1" xmlns="http://www.w3.org/2000/svg" xmlns:xlink="http://www.w3.org/1999/xlink">
  <path d="M14.33 3.56C14.13 3.4 13.58 3.27 13.16 3.17L12.6 3.1L12.6 1.74L12.89 1.74C13.16 1.88 13.55 2.1 13.57 2.4L14.65 2.4C14.63 1.8 14.17 1.42 13.76 1.12C13.49 0.92 13.2 0.82 12.6 0.75L12.6 0L12 0L12 0.73C11.4 0.78 11.21 0.93 10.94 1.18C10.58 1.49 10.42 1.9 10.42 2.38C10.42 2.9 10.57 3.29 10.94 3.54C11.14 3.68 11.4 3.81 12 3.93L12 5.4C11.7 5.35 11.7 5.36 11.59 5.24C11.49 5.11 11.46 4.8 11.43 4.8L10.35 4.8C10.35 5.4 10.52 5.69 10.92 6.01C11.22 6.24 11.4 6.28 12 6.34L12 6.9L12.6 6.9L12.6 6.35C13.2 6.29 13.71 6.14 14 5.89C14.39 5.56 14.7 5.15 14.7 4.66C14.7 4.18 14.66 3.82 14.34 3.56L14.33 3.56ZM11.71 2.73C11.53 2.63 11.46 2.49 11.46 2.3C11.46 2.09 11.52 1.92 11.7 1.81C11.79 1.75 11.7 1.7 12 1.67L12 2.85C11.7 2.81 11.77 2.77 11.7 2.73L11.71 2.73ZM13.01 5.37C12.96 5.39 12.6 5.4 12.6 5.42L12.6 4.16C13.2 4.22 13.16 4.27 13.25 4.33C13.41 4.43 13.49 4.57 13.49 4.75C13.49 5.05 13.33 5.26 13.01 5.37ZM11.56 9L11.39 9L9.55 5.66C9.47 5.52 9.27 5.4 9.11 5.4L3.51 5.4C3.35 5.4 3.15 5.52 3.07 5.66L1.23 9L1.06 9C0.73 9 0.31 9.27 0.31 9.6L0.31 12.6C0.31 12.93 0.73 13.2 1.06 13.2L1.51 13.2L1.51 14.1C1.51 14.6 2.07 15 2.56 15L2.86 15C3.36 15 3.61 14.6 3.61 14.1L3.61 13.2L8.71 13.2L8.71 14.1C8.71 14.6 9.27 15 9.76 15L10.06 15C10.56 15 10.81 14.6 10.81 14.1L10.81 13.2L11.56 13.2C11.89 13.2 12.01 12.93 12.01 12.6L12.01 9.6C12.01 9.27 11.89 9 11.56 9L11.56 9ZM2.11 11.4C1.69 11.4 1.36 11.06 1.36 10.65C1.36 10.23 1.69 9.9 2.11 9.9C2.52 9.9 2.86 10.23 2.86 10.65C2.86 11.06 2.52 11.4 2.11 11.4ZM2.71 9L3.92 6.57C4 6.42 4.19 6.3 4.36 6.3L8.26 6.3C8.42 6.3 8.62 6.42 8.69 6.57L9.91 9L2.71 9L2.71 9ZM10.51 11.4C10.09 11.4 9.76 11.06 9.76 10.65C9.76 10.23 10.09 9.9 10.51 9.9C10.92 9.9 11.26 10.23 11.26 10.65C11.26 11.06 10.92 11.4 10.51 11.4Z"/>
</svg>