<?xml version="1.0" encoding="UTF-8"?>
<svg viewBox="0 0 15 15" version="1.1" xmlns="http://www.w3.org/2000/svg" xmlns:xlink="http://www.w3.org/1999/xlink">
  <path d="M0.54 0C0.24 0 0 0.24 0 0.54L0 1.07L0 6.43L1.07 6.43L1.07 5.36L13.93 5.36L13.93 6.43L15 6.43L15 2.14L15 1.61C15 1.31 14.76 1.07 14.46 1.07C14.17 1.07 13.93 1.31 13.93 1.61L13.93 2.14L13.93 4.29L1.07 4.29L1.07 1.07L1.07 0.54C1.07 0.24 0.83 0 0.54 0ZM3.75 0C2.86 0 2.14 0.72 2.14 1.61C2.14 2.49 2.86 3.21 3.75 3.21C4.64 3.21 5.36 2.49 5.36 1.61C5.36 0.72 4.64 0 3.75 0ZM6.43 1.07L6.43 3.21L12.86 3.21C12.86 2.14 11.75 1.07 10.71 1.07L6.43 1.07ZM4.29 6.43L3.21 9.64C2.71 9.64 2.14 10.05 2.14 10.71L2.14 13.93L3.21 13.93C3.21 13.93 3.21 15 4.29 15C5.36 15 5.36 13.93 5.36 13.93L9.64 13.93C9.64 13.93 9.64 15 10.71 15C11.79 15 11.79 13.93 11.79 13.93L12.86 13.93L12.86 10.71C12.86 10.16 12.37 9.64 11.79 9.64L10.71 6.43L4.29 6.43ZM5.36 7.5L9.64 7.5L10.31 9.64L4.69 9.64L5.36 7.5ZM4.29 10.98C4.73 10.98 5.09 11.34 5.09 11.79C5.09 12.23 4.73 12.59 4.29 12.59C3.84 12.59 3.48 12.23 3.48 11.79C3.48 11.34 3.84 10.98 4.29 10.98ZM10.71 10.98C11.16 10.98 11.52 11.34 11.52 11.79C11.52 12.23 11.16 12.59 10.71 12.59C10.27 12.59 9.91 12.23 9.91 11.79C9.91 11.34 10.27 10.98 10.71 10.98Z"/>
</svg>