<?xml version="1.0" encoding="UTF-8"?>
<svg viewBox="0 0 15 15" xmlns="http://www.w3.org/2000/svg">
  <path d="M3 5C3.74 5 4.39 4.6 4.73 4H12C12.55 4 13 3.55 13 3C13 2.45 12.55 2 12 2H4.73C4.39 1.4 3.74 1 3 1C2.26 1 1.61 1.4 1.27 2H3V4H1.27C1.61 4.6 2.26 5 3 5ZM2.15 9.35C2.05 9.45 2 9.57 2 9.71V13.5C2 13.78 2.22 14 2.5 14H4C4.28 14 4.5 13.78 4.5 13.5V13H10.5V13.5C10.5 13.78 10.72 14 11 14H12.5C12.78 14 13 13.78 13 13.5V9.71C13 9.57 12.95 9.45 12.85 9.35L12 8.5L10.65 6.24C10.56 6.09 10.39 6 10.22 6H4.78C4.61 6 4.44 6.09 4.35 6.24L3 8.5L2.15 9.35ZM11.13 9H3.87L5.07 7H9.93L11.13 9ZM5.5 10.83V11.2C5.5 11.37 5.37 11.5 5.2 11.5H3.3C3.13 11.5 3 11.37 3 11.2V10.37C3 10.18 3.17 10.03 3.36 10.07L5.18 10.44C5.37 10.47 5.5 10.64 5.5 10.83ZM12 10.49V11.2C12 11.37 11.87 11.5 11.7 11.5H9.8C9.63 11.5 9.5 11.37 9.5 11.2V10.75C9.5 10.6 9.6 10.48 9.74 10.45L11.52 10.1C11.77 10.05 12 10.24 12 10.49Z"/>
</svg>