<?xml version="1.0" encoding="UTF-8"?>
<svg xmlns="http://www.w3.org/2000/svg" viewBox="0 0 15 15">
  <path d="M12.6 8.7L11.5 6.5a1.05 1.05 0 0 0 -0.9 -0.5H4.4a1.05 1.05 0 0 0 -0.9 0.5L2.4 8.7L1.16 9.85a0.5 0.5 0 0 0 -0.16 0.37V14.5a0.5 0.5 0 0 0 0.5 0.5h2c0.2 0 0.5 -0.2 0.5 -0.4V14h7v0.5c0 0.2 0.2 0.5 0.4 0.5h2.1a0.5 0.5 0 0 0 0.5 -0.5V10.22a0.5 0.5 0 0 0 -0.16 -0.37ZM4.5 7h6l1 2h-8ZM5 11.6c0 0.2 -0.3 0.4 -0.5 0.4H2.4c-0.2 0 -0.4 -0.3 -0.4 -0.5V10.4c0.1 -0.3 0.3 -0.5 0.6 -0.4l2 0.4c0.2 0 0.4 0.3 0.4 0.5Zm8 -0.1c0 0.2 -0.2 0.5 -0.4 0.5H10.5c-0.2 0 -0.5 -0.2 -0.5 -0.4v-0.7c0 -0.2 0.2 -0.5 0.4 -0.5l2 -0.4c0.3 -0.1 0.5 0.1 0.6 0.4ZM8 4H7L6 0H9ZM1.1 1.8L3.7 0.3l1.1 4L4 4.7ZM11.3 0.3l2.6 1.5L11 4.8l-0.9 -0.5Z"/>
</svg>