<?xml version="1.0" encoding="UTF-8"?>
<svg viewBox="0 0 15 15" version="1.1" xmlns="http://www.w3.org/2000/svg" xmlns:xlink="http://www.w3.org/1999/xlink">
  <path d="M12.9 1.8L12.9 0.6L2.1 0.6L2.1 1.8L0 1.8L0 14.7L1.2 14.7L1.2 3L2.1 3L2.1 4.2L12.9 4.2L12.9 3L13.8 3L13.8 14.7L15 14.7L15 1.8L12.9 1.8ZM12.62 8.7L10.66 5.36C10.58 5.22 10.39 5.1 10.22 5.1L4.78 5.1C4.61 5.1 4.42 5.22 4.34 5.37L2.39 8.71C2.07 8.71 1.8 8.98 1.8 9.31L1.8 12.31C1.8 12.64 2.07 12.91 2.39 12.91L3 12.91L3 13.81C3 14.3 3.37 14.71 3.85 14.71L4.14 14.71C4.63 14.71 5.11 14.3 5.11 13.81L5.11 12.91L9.91 12.91L9.91 13.81C9.91 14.3 10.39 14.71 10.87 14.71L11.16 14.71C11.65 14.71 12.01 14.3 12.01 13.81L12.01 12.91L12.62 12.91C12.95 12.91 13.21 12.64 13.21 12.31L13.21 9.31C13.21 8.98 12.95 8.71 12.62 8.71L12.62 8.7ZM3.41 11.1C3.01 11.1 2.68 10.76 2.68 10.35C2.68 9.94 3 9.6 3.41 9.6C3.81 9.6 4.14 9.94 4.14 10.35C4.14 10.76 3.81 11.1 3.41 11.1ZM3.85 8.7L5.18 6.27C5.25 6.12 5.44 6 5.6 6L9.4 6C9.56 6 9.75 6.12 9.82 6.27L11.16 8.7L3.85 8.7L3.85 8.7ZM11.59 11.1C11.19 11.1 10.86 10.76 10.86 10.35C10.86 9.94 11.19 9.6 11.59 9.6C12 9.6 12.32 9.94 12.32 10.35C12.32 10.76 12 11.1 11.59 11.1Z"/>
</svg>