<?xml version="1.0" encoding="UTF-8"?>
<svg viewBox="0 0 15 15" version="1.1" xmlns="http://www.w3.org/2000/svg" xmlns:xlink="http://www.w3.org/1999/xlink">
  <path d="M5.36 2.14L3.21 5.36L2.14 5.36L4.29 2.14L5.36 2.14ZM9.64 2.14L11.79 5.36L12.86 5.36L10.71 2.14L9.64 2.14ZM6.96 2.14L8.04 2.14L8.04 5.36L6.96 5.36L6.96 2.14ZM6.43 0L4.29 1.07L10.71 1.07L8.57 0L6.43 0ZM4.29 6.43L3.21 9.64C2.71 9.64 2.14 10.05 2.14 10.71L2.14 13.93L3.21 13.93C3.21 13.93 3.21 15 4.29 15C5.36 15 5.36 13.93 5.36 13.93L9.64 13.93C9.64 13.93 9.64 15 10.71 15C11.79 15 11.79 13.93 11.79 13.93L12.86 13.93L12.86 10.71C12.86 10.16 12.37 9.64 11.79 9.64L10.71 6.43L4.29 6.43ZM5.36 7.5L9.64 7.5L10.31 9.64L4.69 9.64L5.36 7.5ZM4.29 10.98C4.73 10.98 5.09 11.34 5.09 11.79C5.09 12.23 4.73 12.59 4.29 12.59C3.84 12.59 3.48 12.23 3.48 11.79C3.48 11.34 3.84 10.98 4.29 10.98ZM10.71 10.98C11.16 10.98 11.52 11.34 11.52 11.79C11.52 12.23 11.16 12.59 10.71 12.59C10.27 12.59 9.91 12.23 9.91 11.79C9.91 11.34 10.27 10.98 10.71 10.98Z"/>
</svg>