<?xml version="1.0" encoding="UTF-8"?>
<svg viewBox="0 0 15 15" version="1.1" xmlns="http://www.w3.org/2000/svg" xmlns:xlink="http://www.w3.org/1999/xlink">
  <path d="M7.5 3.5C7.8 3.5 8 3.7 8 4L8 11L15 11L15 12L8 12L8 13.5C8 13.8 7.8 14 7.5 14C7.2 14 7 13.8 7 13.5L7 4C7 3.7 7.2 3.5 7.5 3.5ZM2.38 2C2.76 2 3.11 2.21 3.28 2.55L5 6C5.55 6 6 6.45 6 7L6 11.5L5 11.5L5 12.5C5 13.05 4.55 13.5 4 13.5L3 13.5C2.45 13.5 2 13.05 2 12.5L2 11.5L0 11.5L0 6L3.5 6L2.25 3.5L0 3.5L0 2L2.38 2ZM15 5L15 10L10 10C9.45 10 9 9.55 9 9C9 8.45 9.45 8 10 8L12.5 8L12.5 8L12.5 6.91L12.5 6.47L12.51 6.34C12.56 5.95 12.8 5 14 5L15 5ZM2.75 7.5C2.06 7.5 1.5 8.06 1.5 8.75C1.5 9.44 2.06 10 2.75 10C3.44 10 4 9.44 4 8.75C4 8.06 3.44 7.5 2.75 7.5ZM10.5 4C11.3 4 12 4.7 12 5.5L11.99 5.64C11.92 6.38 11.25 7 10.5 7L10.36 6.99C9.62 6.92 9 6.25 9 5.5L9.01 5.36C9.08 4.62 9.75 4 10.5 4Z"/>
</svg>