<?xml version="1.0" encoding="UTF-8"?>
<svg viewBox="0 0 15 15" xmlns="http://www.w3.org/2000/svg">
  <path d="M4.75 2.5c-0.14 0 -0.25 -0.11 -0.25 -0.25v-1.5c0 -0.14 0.11 -0.25 0.25 -0.25h1.5c0.14 0 0.25 0.11 0.25 0.25v1.5c0 0.14 -0.11 0.25 -0.25 0.25zm-2 2c-0.14 0 -0.25 -0.11 -0.25 -0.25v-1.5c0 -0.14 0.11 -0.25 0.25 -0.25h1.5c0.14 0 0.25 0.11 0.25 0.25v1.5c0 0.14 -0.11 0.25 -0.25 0.25zm8 0c-0.14 0 -0.25 -0.11 -0.25 -0.25v-1.5c0 -0.14 0.11 -0.25 0.25 -0.25h1.5c0.14 0 0.25 0.11 0.25 0.25v1.5c0 0.14 -0.11 0.25 -0.25 0.25zm-4.25 -0.25c0 0.14 0.11 0.25 0.25 0.25h1.5c0.14 0 0.25 -0.11 0.25 -0.25v-1.5c0 -0.14 -0.11 -0.25 -0.25 -0.25h-1.5c-0.14 0 -0.25 0.11 -0.25 0.25zm2 -2c0 0.14 0.11 0.25 0.25 0.25h1.5c0.14 0 0.25 -0.11 0.25 -0.25v-1.5c0 -0.14 -0.11 -0.25 -0.25 -0.25h-1.5c-0.14 0 -0.25 0.11 -0.25 0.25zm-6.5 7.46c0 -0.13 0.05 -0.26 0.15 -0.35l0.85 -0.85l1.35 -2.26c0.09 -0.15 0.25 -0.24 0.43 -0.24h5.43c0.18 0 0.34 0.09 0.43 0.24l1.35 2.26l0.85 0.85c0.09 0.09 0.15 0.22 0.15 0.35v3.79c0 0.28 -0.22 0.5 -0.5 0.5h-1.5c-0.28 0 -0.5 -0.22 -0.5 -0.5v-0.5h-6v0.5c0 0.28 -0.22 0.5 -0.5 0.5h-1.5c-0.28 0 -0.5 -0.22 -0.5 -0.5zm1.87 -0.71h7.27l-1.2 -2h-4.87zm1.63 2.2v-0.37c0 -0.19 -0.13 -0.35 -0.32 -0.39l-1.82 -0.36c-0.19 -0.04 -0.36 0.1 -0.36 0.29v0.83c0 0.17 0.13 0.3 0.3 0.3h1.9c0.17 0 0.3 -0.13 0.3 -0.3zm6.5 0v-0.71c0 -0.25 -0.23 -0.44 -0.48 -0.39l-1.78 0.36c-0.14 0.03 -0.24 0.15 -0.24 0.29v0.45c0 0.17 0.13 0.3 0.3 0.3h1.9c0.17 0 0.3 -0.13 0.3 -0.3z"/>
</svg>