<?xml version="1.0" encoding="UTF-8"?>
<svg xmlns="http://www.w3.org/2000/svg" viewBox="0 0 15 15">
  <path d="M13.84 6.85L12.6 5.7L11.5 3.5a1.05 1.05 0 0 0 -0.9 -0.5H4.4a1.05 1.05 0 0 0 -0.9 0.5L2.4 5.7L1.16 6.85A0.5 0.5 0 0 0 1 7.22V11.5a0.5 0.5 0 0 0 0.5 0.5h2c0.2 0 0.5 -0.2 0.5 -0.4V11h7v0.5c0 0.2 0.2 0.5 0.4 0.5h2.1a0.5 0.5 0 0 0 0.5 -0.5V7.22A0.5 0.5 0 0 0 13.84 6.85ZM4.5 4h6l1 2h-8ZM5 8.6c0 0.2 -0.3 0.4 -0.5 0.4H2.4C2.2 9 2 8.7 2 8.5V7.4c0.1 -0.3 0.3 -0.5 0.6 -0.4l2 0.4c0.2 0 0.4 0.3 0.4 0.5Zm8 -0.1c0 0.2 -0.2 0.5 -0.4 0.5H10.5c-0.2 0 -0.5 -0.2 -0.5 -0.4V7.9c0 -0.2 0.2 -0.5 0.4 -0.5l2 -0.4c0.3 -0.1 0.5 0.1 0.6 0.4Z"/>
</svg>