<?xml version="1.0" encoding="UTF-8"?>
<svg viewBox="0 0 15 15" version="1.1" xmlns="http://www.w3.org/2000/svg" xmlns:xlink="http://www.w3.org/1999/xlink">
  <path d="M12.86 0C11.67 0 10.71 0.96 10.71 2.14L10.71 12.86C10.71 14.04 11.67 15 12.86 15C14.04 15 15 14.04 15 12.86L15 2.14C15 0.96 14.04 0 12.86 0ZM0 2.14L0 3.21L1.07 3.21L1.07 4.5L0 4.5L0 5.57L1.07 5.57L1.07 6.86L0 6.86L0 7.93L1.07 7.93L1.07 9.21L0 9.21L0 10.29L1.07 10.29L1.07 11.57L0 11.57L0 12.64L1.07 12.64L1.07 13.93L0 13.93L0 15L9.64 15L9.64 2.14L0 2.14ZM2.14 3.21L4.29 4.29L6.43 3.21L8.57 4.29L8.57 5.36L6.43 4.29L4.29 5.36L2.14 4.29L2.14 3.21ZM2.14 6.07L4.29 7.14L6.43 6.07L8.57 7.14L8.57 8.21L6.43 7.14L4.29 8.21L2.14 7.14L2.14 6.07ZM2.14 8.93L4.29 10L6.43 8.93L8.57 10L8.57 11.07L6.43 10L4.29 11.07L2.14 10L2.14 8.93ZM2.14 11.79L4.29 12.86L6.43 11.79L8.57 12.86L8.57 13.93L6.43 12.86L4.29 13.93L2.14 12.86L2.14 11.79ZM12.86 11.79C13.45 11.79 13.93 12.27 13.93 12.86C13.93 13.45 13.45 13.93 12.86 13.93C12.27 13.93 11.79 13.45 11.79 12.86C11.79 12.27 12.27 11.79 12.86 11.79Z"/>
</svg>