<?xml version="1.0" encoding="UTF-8"?>
<svg version="1.1" xmlns="http://www.w3.org/2000/svg" viewBox="0 0 15 15">
  <path d="M11 4H4C3.45 4 3 3.55 3 3V0.5C3 0.22 3.22 0 3.5 0S4 0.22 4 0.5V2h1V1c0 -0.55 0.45 -1 1 -1s1 0.45 1 1v1h1V1c0 -0.55 0.45 -1 1 -1s1 0.45 1 1v1h1V0.5C11 0.22 11.22 0 11.5 0S12 0.22 12 0.5V3C12 3.55 11.55 4 11 4zM14 14.5c0 0.28 -0.22 0.5 -0.5 0.5h-12C1.22 15 1 14.78 1 14.5S1.22 14 1.5 14H2c0.55 0 1 -0.45 1 -1c0 0 1 -6 1 -7c0 -0.55 0.45 -1 1 -1h5c0.55 0 1 0.45 1 1c0 1 1 7 1 7c0 0.55 0.45 1 1 1h0.5c0.27 0 0.49 0.22 0.5 0.49V14.5zM9 10.5C9 9.67 8.33 9 7.5 9S6 9.67 6 10.5V14h3V10.5z"/>
</svg>