<?xml version="1.0" encoding="UTF-8"?>
<svg viewBox="0 0 15 15" version="1.1" xmlns="http://www.w3.org/2000/svg" xmlns:xlink="http://www.w3.org/1999/xlink">
  <path d="M1.07 1.07L0 2.68L0 3.21L5.36 3.21L5.36 2.68L4.29 1.07L1.07 1.07ZM10.71 1.07L9.64 2.68L9.64 3.21L15 3.21L15 2.68L13.93 1.07L10.71 1.07ZM0 4.29L0 13.93L5.36 13.93C5.36 12.86 5.36 10.71 7.5 10.71C9.64 10.71 9.64 12.86 9.64 13.93L15 13.93L15 4.29L9.64 4.29L9.64 6.43L7.5 6.43L5.36 6.43L5.36 4.29L0 4.29ZM2.14 6.43L3.21 6.43L3.21 7.5L2.68 8.57L2.14 7.5L2.14 6.43ZM11.79 6.43L12.86 6.43L12.86 7.5L12.32 8.57L11.79 7.5L11.79 6.43Z"/>
</svg>