<?xml version="1.0" encoding="UTF-8"?>
<svg viewBox="0 0 15 15" version="1.1" xmlns="http://www.w3.org/2000/svg" xmlns:xlink="http://www.w3.org/1999/xlink">
  <path d="M0.67 10.5C0.56 10.49 0.45 10.45 0.35 10.39L0.26 10.32L0.2 10.26L0.15 10.2C0.14 10.19 0.14 10.18 0.13 10.18C0.05 10.06 0 9.91 0 9.75L0 9.68C0.01 9.57 0.05 9.46 0.1 9.37L2.59 4.9C2.62 4.83 2.67 4.77 2.72 4.72C2.95 4.49 3.32 4.43 3.61 4.59C3.72 4.65 3.8 4.72 3.86 4.81L6.19 9L8.81 9L11.09 4.9L11.09 4.89C11.3 4.52 11.75 4.39 12.11 4.59C12.22 4.65 12.3 4.72 12.36 4.81L14.91 9.39C15.11 9.75 14.98 10.2 14.61 10.41C14.51 10.46 14.41 10.49 14.3 10.5L9.3 10.5C9.26 10.5 9.22 10.5 9.17 10.5L0.67 10.5ZM12.98 9L11.75 6.79L10.53 9L12.98 9ZM3.25 6.79L2.02 9L4.48 9L3.25 6.79Z"/>
</svg>