<?xml version="1.0" encoding="UTF-8"?>
<svg xmlns="http://www.w3.org/2000/svg" viewBox="0 0 15 15">
  <path d="M13.91 3.41L13.5 3l0.2 -0.28c0.02 -0.03 0.04 -0.05 0.06 -0.08A0.97 0.97 0 0 0 14 1.99a1 1 0 0 0 -1.62 -0.77c-0.03 0.02 -0.06 0.05 -0.09 0.07L12 1.5l-0.39 -0.39a0.35 0.35 0 0 0 -0.52 0.48l0.42 0.42l-0.5 0.5l-0.39 -0.39a0.35 0.35 0 0 0 -0.52 0.48L10.5 3l-0.5 0.5l-0.38 -0.38a0.35 0.35 0 1 0 -0.53 0.47h0l0.03 0.03L9.5 4L9 4.5l-0.39 -0.39a0.35 0.35 0 0 0 -0.52 0.48L8.5 5L8 5.5l-0.36 -0.36a0.35 0.35 0 0 0 -0.56 0.44h0C7.1 5.6 7.51 6 7.51 6L7 6.5l-0.39 -0.39a0.39 0.39 0 0 0 -0.5 -0.03a0.38 0.38 0 0 0 -0.03 0.5L6.1 6.6l0.4 0.4L6 7.5l-0.4 -0.4a0.37 0.37 0 0 0 -0.5 0L6.25 8.24L12.09 2.41L12.5 2H13v0.5l-0.41 0.41L6.75 8.75L7.9 9.9a0.36 0.36 0 0 0 0 -0.5l-0.01 -0.01L7.5 9L8 8.5l0.38 0.38a0.35 0.35 0 0 0 0.53 -0.47L8.5 8L9 7.5l0.38 0.38a0.35 0.35 0 0 0 0.53 -0.47l-0.02 -0.02L9.5 7l0.5 -0.5l0.38 0.38A0.35 0.35 0 0 0 10.64 7a0.35 0.35 0 0 0 0.25 -0.6L10.5 6l0.5 -0.5l0.38 0.38a0.35 0.35 0 0 0 0.53 -0.47L11.88 5.38L11.5 5l0.5 -0.5l0.38 0.38a0.35 0.35 0 0 0 0.53 -0.47l-0.02 -0.02L12.5 4l0.5 -0.5l0.38 0.38a0.35 0.35 0 0 0 0.53 -0.47ZM4.39 7.92C3.89 7.42 3.64 7 3 7H1.5a0.5 0.5 0 0 0 -0.5 0.5v3A2.19 2.19 0 0 0 1.5 12l0.82 0.81A2.25 2.25 0 0 0 5.49 13h0L7.5 11ZM3.5 10L2.26 11.24A1.3 1.3 0 0 1 2 10.5V8H3a0.55 0.55 0 0 1 0.34 0.19a0.46 0.46 0 0 1 0.17 0.42Z"/>
</svg>