<?xml version="1.0" encoding="UTF-8"?>
<svg viewBox="0 0 15 15" version="1.1" xmlns="http://www.w3.org/2000/svg" xmlns:xlink="http://www.w3.org/1999/xlink">
  <path d="M9.64 11.79H15V13.93H9.64V11.79z"/>
  <path d="M10.29 10.71L15 10.71L15 5.36L14.57 5.36z"/>
  <path d="M9.64 0L10.39 1.07L10.39 1.07L9.64 2.14L10.82 2.14C10.71 2.36 10.71 2.46 10.71 2.68C10.71 3.54 11.46 4.29 12.32 4.29C13.18 4.29 13.93 3.54 13.93 2.68C13.93 2.46 13.93 2.14 13.93 2.14L13.93 1.07L13.93 0L9.64 0Z"/>
  <path d="M13.29 5.36L10.39 5.36C10.39 5.36 10.39 5.36 10.39 5.36C10.39 5.36 10.29 5.36 10.29 5.36L9.64 5.36L9.64 5.36C9 5.36 8.46 5.57 8.04 6.11L5.57 9.11C5.36 9.54 5.36 9.96 5.68 10.29C5.79 10.39 6 10.5 6.21 10.5C6.43 10.5 6.64 10.39 6.86 10.18L9.64 6.64L9.64 9.86L13.29 5.36Z"/>
  <path d="M7.5 13.93L3.21 13.93C2.68 13.93 2.14 13.5 2.14 12.86L2.14 12.86C2.14 12.32 2.14 11.79 2.14 11.79L8.57 11.79C8.57 11.79 8.57 12.21 8.57 12.86L8.57 12.86C8.57 13.5 8.14 13.93 7.5 13.93Z"/>
  <path d="M0 10.71L0 6.43C0 5.89 0.43 5.36 1.07 5.36L1.07 5.36C1.61 5.36 2.14 5.36 2.14 5.36L2.14 11.79C2.14 11.79 1.71 11.79 1.07 11.79L1.07 11.79C0.43 11.79 0 11.36 0 10.71Z"/>
</svg>