<?xml version="1.0" encoding="UTF-8"?>
<svg viewBox="0 0 15 15" version="1.1" xmlns="http://www.w3.org/2000/svg" xmlns:xlink="http://www.w3.org/1999/xlink">
  <path d="M0 1.07L0 4.29L15 4.29L15 1.07L12.86 1.07L12.86 3.21L10.71 3.21L10.71 1.07L8.57 1.07L8.57 3.21L6.43 3.21L6.43 1.07L4.29 1.07L4.29 3.21L2.14 3.21L2.14 1.07L0 1.07ZM0 5.36L0 13.93L2.68 13.93C2.68 10.71 3.74 6.96 7.5 6.96C11.15 6.94 12.32 10.71 12.32 13.93L15 13.93L15 5.36L0 5.36ZM7.5 8.57C5.36 8.57 4.29 10.71 4.29 13.93L10.71 13.93C10.71 10.71 9.64 8.57 7.5 8.57Z"/>
</svg>