<?xml version="1.0" encoding="UTF-8"?>
<svg viewBox="0 0 15 15" version="1.1" xmlns="http://www.w3.org/2000/svg" xmlns:xlink="http://www.w3.org/1999/xlink">
  <path d="M7.5 0C11.64 0 15 3.36 15 7.5C15 11.64 11.64 15 7.5 15C3.36 15 0 11.64 0 7.5C0 3.36 3.36 0 7.5 0ZM12.93 4.24C12.79 4.01 12.48 3.93 12.24 4.07L7.61 6.85L3.3 4.45C3.03 4.3 2.7 4.38 2.51 4.61L2.45 4.7C2.29 5 2.39 5.38 2.7 5.55L7.2 8.05C7.25 8.07 7.3 8.09 7.35 8.11L7.35 11.34C7.19 11.4 7.08 11.55 7.08 11.73L7.08 13.58C7.08 13.81 7.27 14 7.5 14C7.73 14 7.92 13.81 7.92 13.58L7.92 11.73C7.92 11.55 7.81 11.4 7.65 11.33L7.65 8.11C7.81 8.07 7.96 7.96 8.05 7.8C8.06 7.78 8.07 7.76 8.08 7.74L11.66 5.59L12.11 5.33C12.13 5.31 12.16 5.3 12.18 5.28L12.76 4.93C12.99 4.79 13.07 4.48 12.93 4.24ZM9.98 10.95C9.86 10.75 9.61 10.68 9.4 10.8C9.2 10.91 9.13 11.17 9.25 11.38L9.67 12.11C9.79 12.31 10.05 12.38 10.25 12.26C10.45 12.15 10.52 11.89 10.4 11.69ZM5.6 10.8C5.39 10.68 5.14 10.75 5.02 10.95L4.6 11.69C4.48 11.89 4.55 12.15 4.75 12.26C4.95 12.38 5.21 12.31 5.33 12.11L5.75 11.38C5.87 11.17 5.8 10.91 5.6 10.8ZM11.38 9.25C11.17 9.13 10.91 9.2 10.8 9.4C10.68 9.61 10.75 9.86 10.95 9.98L11.69 10.4C11.89 10.52 12.15 10.45 12.26 10.25C12.38 10.05 12.31 9.79 12.11 9.67ZM4.2 9.4C4.09 9.2 3.83 9.13 3.62 9.25L2.89 9.67C2.69 9.79 2.62 10.05 2.74 10.25C2.85 10.45 3.11 10.52 3.31 10.4L4.05 9.98C4.25 9.86 4.32 9.61 4.2 9.4ZM3.27 7.08L1.42 7.08C1.19 7.08 1 7.27 1 7.5C1 7.73 1.19 7.92 1.42 7.92L3.27 7.92C3.5 7.92 3.69 7.73 3.69 7.5C3.69 7.27 3.5 7.08 3.27 7.08ZM13.58 7.08L11.73 7.08C11.5 7.08 11.31 7.27 11.31 7.5C11.31 7.73 11.5 7.92 11.73 7.92L13.58 7.92C13.81 7.92 14 7.73 14 7.5C14 7.27 13.81 7.08 13.58 7.08ZM5.33 2.89C5.21 2.69 4.95 2.62 4.75 2.74C4.55 2.85 4.48 3.11 4.6 3.31L5.02 4.05C5.14 4.25 5.39 4.32 5.6 4.2C5.8 4.09 5.87 3.83 5.75 3.62ZM10.25 2.74C10.05 2.62 9.79 2.69 9.67 2.89L9.25 3.62C9.13 3.83 9.2 4.09 9.4 4.2C9.61 4.32 9.86 4.25 9.98 4.05L10.4 3.31C10.52 3.11 10.45 2.85 10.25 2.74ZM7.5 1C7.27 1 7.08 1.19 7.08 1.42L7.08 3.27C7.08 3.5 7.27 3.69 7.5 3.69C7.73 3.69 7.92 3.5 7.92 3.27L7.92 1.42C7.92 1.19 7.73 1 7.5 1Z"/>
</svg>