<?xml version="1.0" encoding="UTF-8"?>
<svg viewBox="0 0 15 15" version="1.1" xmlns="http://www.w3.org/2000/svg" xmlns:xlink="http://www.w3.org/1999/xlink">
  <path d="M12.98 2.1C8.07 2.06 7.02 0.78 4.93 0.78C2.45 0.78 0.99 1.46 0.37 1.85C-0.1 2.1 0.01 1.62 0.01 1.45C0.01 1.28 0.29 1.12 0.29 1.12C0.86 0.75 2.34 0 4.93 0C7.02 0 8.08 1.28 13 1.32C13 1.32 13.37 1.28 13.37 1.62C13.37 1.95 13.35 2.1 12.98 2.1Z"/>
  <path d="M13.37 14.52C13.37 14.18 13 14.22 13 14.22C8.08 14.19 7.02 12.9 4.93 12.9C2.34 12.9 0.86 13.65 0.29 14.02C0.29 14.02 0.01 14.18 0.01 14.35C0.01 14.52 -0.1 15 0.37 14.75C0.99 14.37 2.45 13.68 4.93 13.68C7.02 13.68 8.07 14.96 12.98 15C13.35 15 13.37 14.85 13.37 14.52Z"/>
  <path d="M13.37 3.21C13.37 2.87 13 2.91 13 2.91C8.08 2.88 7.02 1.59 4.93 1.59C2.34 1.59 0.86 2.34 0.29 2.71C0.29 2.71 0.01 2.87 0.01 3.04L0.01 12.74C0.01 12.91 -0.1 13.39 0.37 13.14C0.99 12.75 2.45 12.07 4.93 12.07C7.02 12.07 8.07 13.35 12.98 13.39C13.35 13.39 13.37 13.24 13.37 12.91L13.37 3.21Z"/>
</svg>