<?xml version="1.0" encoding="UTF-8"?>
<svg viewBox="0 0 15 15" version="1.1" xmlns="http://www.w3.org/2000/svg" xmlns:xlink="http://www.w3.org/1999/xlink">
  <path d="M3.22 11.78L4.78 13.34C5.15 13.71 5.87 13.02 5.61 12.62L5.56 12.56C5.56 12.56 4 11 4 11C3.63 10.63 4.31 9.91 4.72 10.18L4.78 10.23C4.78 10.23 6.33 11.78 6.33 11.78C6.72 12.17 7.5 11.39 7.11 11L5.56 9.45C5.17 9.06 5.95 8.28 6.33 8.67L7.89 10.23C8.28 10.61 9.06 9.84 8.67 9.45L7.11 7.89C6.72 7.5 7.5 6.72 7.89 7.11L9.45 8.67C9.84 9.06 10.61 8.28 10.23 7.89L8.67 6.33C8.28 5.95 9.06 5.17 9.45 5.56L11 7.11C11.39 7.5 12.17 6.72 11.78 6.33L10.23 4.78C9.86 4.41 10.54 3.69 10.94 3.95L11 4C11 4 12.56 5.56 12.56 5.56C12.93 5.93 13.65 5.24 13.39 4.84L13.34 4.78C13.34 4.78 11.78 3.22 11.78 3.22C11.41 2.85 12.1 2.13 12.5 2.39L12.56 2.44C12.56 2.44 14.12 4 14.12 4C14.49 4.37 15.21 3.69 14.94 3.28L14.89 3.22C14.89 3.22 11.78 0.11 11.78 0.11C11.39 -0.28 10.61 0.5 10.61 0.5L0.47 10.65C0.32 10.8 -0.23 11.44 0.11 11.78L3.22 14.89C3.61 15.28 4.39 14.5 4 14.12L2.44 12.56C2.05 12.17 2.83 11.39 3.22 11.78Z"/>
</svg>