<?xml version="1.0" encoding="UTF-8"?>
<svg viewBox="0 0 15 15" version="1.1" xmlns="http://www.w3.org/2000/svg" xmlns:xlink="http://www.w3.org/1999/xlink">
  <path d="M3.22157741,11.7813242 L4.777895,13.3376417 C5.14752043,13.7072672 5.86829001,13.0234601 5.60585596,12.6205684 L5.5560538,12.5594829 C5.5560538,12.5594829 3.99973621,11.0031654 3.99973621,11.0031654 C3.63011078,10.6335399 4.31391782,9.91277035 4.71680954,10.1752044 L4.777895,10.2250066 C4.777895,10.2250066 6.33421259,11.7813242 6.33421259,11.7813242 C6.72329199,12.1704036 7.50145078,11.3922448 7.11237139,11.0031654 L5.5560538,9.44684777 C5.1669744,9.05776837 5.94513319,8.27960958 6.33421259,8.66868897 L7.89053018,10.2250066 C8.27960958,10.614086 9.05776837,9.83592717 8.66868897,9.44684777 L7.11237139,7.89053018 C6.72329199,7.50145078 7.50145078,6.72329199 7.89053018,7.11237139 L9.44684777,8.66868897 C9.83592717,9.05776837 10.614086,8.27960958 10.2250066,7.89053018 L8.66868897,6.33421259 C8.27960958,5.94513319 9.05776837,5.1669744 9.44684777,5.5560538 L11.0031654,7.11237139 C11.3922448,7.50145078 12.1704036,6.72329199 11.7813242,6.33421259 L10.2250066,4.777895 C9.85538114,4.40826957 10.5391882,3.68749999 10.9420799,3.94993404 L11.0031654,3.99973621 C11.0031654,3.99973621 12.5594829,5.5560538 12.5594829,5.5560538 C12.9291084,5.92567922 13.649878,5.24187218 13.3874439,4.83898047 L13.3376417,4.777895 C13.3376417,4.777895 11.7813242,3.22157741 11.7813242,3.22157741 C11.4116987,2.85195198 12.0955058,2.1311824 12.4983975,2.39361645 L12.5594829,2.44341862 C12.5594829,2.44341862 14.1158005,3.99973621 14.1158005,3.99973621 C14.485426,4.36936163 15.2061956,3.68555459 14.9437615,3.28266288 L14.8939593,3.22157741 C14.8939593,3.22157741 11.7813242,0.108942231 11.7813242,0.108942231 C11.3922448,-0.280137166 10.614086,0.498021629 10.614086,0.498021629 L0.465345039,10.6482824 C0.321720027,10.8025463 -0.231502241,11.4408797 0.108942231,11.7813242 L3.22157741,14.8939593 C3.61065681,15.2830387 4.3888156,14.5048799 3.99973621,14.1158005 L2.44341862,12.5594829 C2.05433922,12.1704036 2.83249801,11.3922448 3.22157741,11.7813242 Z"/>
</svg>