<?xml version="1.0" encoding="UTF-8"?>
<svg version="1.1" xmlns="http://www.w3.org/2000/svg" viewBox="0 0 15 15">
  <path d="M2 1c0 0 -1 0 -1 1v5.16C1 8.89 1.35 11 4.5 11H5V8L2.5 9c0 0 0 -2.5 2.5 -2.5V5c0 -0.71 0.09 -1.32 0.5 -1.78C5.88 2.81 6.5 1.97 8.16 2.75L9 3.3V2c0 0 0 -1 -1 -1C7.29 1 6.02 2 5 2S2.79 1 2 1zM3 3c0.55 0 1 0.45 1 1S3.55 5 3 5S2 4.55 2 4S2.45 3 3 3zM7 4c0 0 -1 0 -1 1v5c0 2 1 4 4 4s4 -2 4 -4V5c0 -1 -1 -1 -1 -1c-0.71 0 -1.98 1 -3 1S7.79 4 7 4zM8 6c0.55 0 1 0.45 1 1S8.55 8 8 8S7 7.55 7 7S7.45 6 8 6zM12 6c0.55 0 1 0.45 1 1s-0.45 1 -1 1s-1 -0.45 -1 -1S11.45 6 12 6zM7.5 10H10h2.5c0 0 0 2.5 -2.5 2.5S7.5 10 7.5 10z"/>
</svg>