<?xml version="1.0" encoding="UTF-8"?>
<svg viewBox="0 0 15 15" version="1.1" xmlns="http://www.w3.org/2000/svg" xmlns:xlink="http://www.w3.org/1999/xlink">
  <path d="M8.64 0.06C8.05 0.09 7.45 0.21 6.89 0.43L7.8 1.34C9.28 0.94 10.91 1.3 12.08 2.47C13.25 3.63 13.61 5.25 13.21 6.73L14.12 7.64C14.9 5.64 14.5 3.26 12.89 1.66C11.88 0.65 10.57 0.12 9.24 0.06C9.04 0.05 8.84 0.05 8.64 0.06ZM8.62 2.57C8.12 2.57 7.61 2.68 7.15 2.9L8.01 3.75C8.75 3.56 9.56 3.73 10.15 4.32C10.73 4.9 10.91 5.71 10.71 6.45L11.57 7.31C12.16 6.07 11.96 4.55 10.94 3.53C10.3 2.9 9.46 2.58 8.62 2.57ZM3.21 2.95C1.01 5.15 1.01 8.7 3.21 10.9C5.41 13.09 8.98 13.09 11.18 10.9L7.73 7.45L9.18 6.01L8.4 5.23L6.95 6.67L3.21 2.95ZM2.53 11.71L0.5 15.05L8.28 15.05L8.28 13.52C6.26 13.85 4.11 13.25 2.53 11.71Z"/>
</svg>