<?xml version="1.0" encoding="UTF-8"?>
<svg viewBox="0 0 15 15" version="1.1" xmlns="http://www.w3.org/2000/svg" xmlns:xlink="http://www.w3.org/1999/xlink">
  <path d="M8.36 1.39C11.14 1.71 13.29 3.96 13.61 6.64L14.25 6.86L15 7.07C14.79 3.32 11.68 0.21 7.93 0L8.14 0.75L8.36 1.39Z"/>
  <path d="M6.64 13.61C3.86 13.29 1.71 11.04 1.39 8.36L0.75 8.14L0 7.93C0.21 11.79 3.32 14.79 7.07 15L6.86 14.25L6.64 13.61Z"/>
  <path d="M13.61 8.36C13.29 11.14 11.04 13.29 8.36 13.61L8.14 14.25L7.93 15C11.79 14.79 14.79 11.68 15 7.93L14.25 8.14L13.61 8.36Z"/>
  <path d="M1.39 6.64C1.71 3.86 3.96 1.71 6.64 1.39L6.86 0.75L7.07 0C3.32 0.21 0.21 3.32 0 7.07L0.75 6.86L1.39 6.64Z"/>
  <path d="M9.43 4.61L9.43 4.71L9.64 5.36L10.29 5.57L10.39 5.57L10.39 5.57L11.46 3.75L11.68 3.32L11.25 3.54z"/>
  <path d="M3.54 3.75L4.61 5.57L4.61 5.57L4.71 5.57L5.36 5.36L5.57 4.71L5.57 4.61L5.57 4.61L3.75 3.54L3.32 3.32z"/>
  <path d="M5.57 10.39L5.57 10.29L5.36 9.64L4.71 9.43L4.61 9.43L4.61 9.43L3.54 11.25L3.32 11.68L3.75 11.46z"/>
  <path d="M10.39 9.43L10.29 9.43L9.64 9.64L9.43 10.29L9.43 10.39L9.43 10.39L11.25 11.46L11.68 11.68L11.46 11.25z"/>
  <path d="M13.71 7.61L14.04 7.5L13.71 7.39L9.11 5.89L7.5 0.96L7.39 1.29L5.89 5.89L1.29 7.39L0.96 7.5L1.29 7.61L5.89 9.11L7.39 13.71L7.5 14.04L7.61 13.71L9.11 9.11z"/>
</svg>