<?xml version="1.0" encoding="UTF-8"?>
<svg viewBox="0 0 15 15" version="1.1" xmlns="http://www.w3.org/2000/svg" xmlns:xlink="http://www.w3.org/1999/xlink">
  <path d="M7.5 14.7C3.53 14.7 0.3 11.47 0.3 7.5C0.3 3.53 3.53 0.3 7.5 0.3C11.47 0.3 14.7 3.53 14.7 7.5C14.7 11.47 11.47 14.7 7.5 14.7ZM7.5 1.5C4.19 1.5 1.5 4.19 1.5 7.5C1.5 10.81 4.19 13.5 7.5 13.5C10.81 13.5 13.5 10.81 13.5 7.5C13.5 4.19 10.81 1.5 7.5 1.5ZM7.52 2.48C7.52 2.48 5.4 6.1 5.4 7.2L5.4 7.8C5.4 8.9 7.52 12.6 7.52 12.6C7.52 12.6 9.6 8.98 9.6 7.88L9.6 7.2C9.6 6.1 7.52 2.48 7.52 2.48L7.52 2.48ZM7.5 8.7C6.84 8.7 6.3 8.16 6.3 7.5C6.3 6.84 6.84 6.3 7.5 6.3C8.17 6.3 8.7 6.84 8.7 7.5C8.7 8.16 8.17 8.7 7.5 8.7Z"/>
</svg>