<?xml version="1.0" encoding="UTF-8"?>
<svg viewBox="0 0 15 15" version="1.1" xmlns="http://www.w3.org/2000/svg" xmlns:xlink="http://www.w3.org/1999/xlink">
  <path d="M7.5 0C11.64 0 15 3.36 15 7.5C15 11.64 11.64 15 7.5 15C3.36 15 0 11.64 0 7.5C0 3.36 3.36 0 7.5 0ZM10.76 1.88L5.35 6.22L4.26 13.14L9.68 8.72L10.76 1.88ZM7.5 11.31C7.27 11.31 7.08 11.5 7.08 11.73L7.08 12.58C7.08 12.81 7.27 13 7.5 13C7.73 13 7.92 12.81 7.92 12.58L7.92 11.73C7.92 11.5 7.73 11.31 7.5 11.31ZM9.98 10.95C9.86 10.75 9.61 10.68 9.4 10.8C9.2 10.91 9.13 11.17 9.25 11.38L9.67 12.11C9.79 12.31 10.05 12.38 10.25 12.26C10.45 12.15 10.52 11.89 10.4 11.69L9.98 10.95ZM11.38 9.25C11.17 9.13 10.91 9.2 10.8 9.4C10.68 9.61 10.75 9.86 10.95 9.98L11.69 10.4C11.89 10.52 12.15 10.45 12.26 10.25C12.38 10.05 12.31 9.79 12.11 9.67L11.38 9.25ZM4.2 9.4C4.09 9.2 3.83 9.13 3.62 9.25L2.89 9.67C2.69 9.79 2.62 10.05 2.74 10.25C2.85 10.45 3.11 10.52 3.31 10.4L4.05 9.98C4.25 9.86 4.32 9.61 4.2 9.4ZM9.37 4.28L8.76 8.18L6.28 6.75L9.37 4.28ZM3.27 7.08L2.42 7.08C2.19 7.08 2 7.27 2 7.5C2 7.73 2.19 7.92 2.42 7.92L3.27 7.92C3.5 7.92 3.69 7.73 3.69 7.5C3.69 7.27 3.5 7.08 3.27 7.08ZM12.58 7.08L11.73 7.08C11.5 7.08 11.31 7.27 11.31 7.5C11.31 7.73 11.5 7.92 11.73 7.92L12.58 7.92C12.81 7.92 13 7.73 13 7.5C13 7.27 12.81 7.08 12.58 7.08ZM3.31 4.6C3.11 4.48 2.85 4.55 2.74 4.75C2.62 4.95 2.69 5.21 2.89 5.33L3.62 5.75C3.83 5.87 4.09 5.8 4.2 5.6C4.32 5.39 4.25 5.14 4.05 5.02L3.31 4.6ZM12.26 4.75C12.15 4.55 11.89 4.48 11.69 4.6L10.95 5.02C10.75 5.14 10.68 5.39 10.8 5.6C10.91 5.8 11.17 5.87 11.38 5.75L12.11 5.33C12.31 5.21 12.38 4.95 12.26 4.75ZM5.33 2.89C5.21 2.69 4.95 2.62 4.75 2.74C4.55 2.85 4.48 3.11 4.6 3.31L5.02 4.05C5.14 4.25 5.39 4.32 5.6 4.2C5.8 4.09 5.87 3.83 5.75 3.62L5.33 2.89ZM7.5 2C7.27 2 7.08 2.19 7.08 2.42L7.08 3.27C7.08 3.5 7.27 3.69 7.5 3.69C7.73 3.69 7.92 3.5 7.92 3.27L7.92 2.42C7.92 2.19 7.73 2 7.5 2Z"/>
</svg>