<?xml version="1.0" encoding="UTF-8"?>
<svg viewBox="0 0 15 15" version="1.1" xmlns="http://www.w3.org/2000/svg" xmlns:xlink="http://www.w3.org/1999/xlink">
  <path d="M3.21 2.14C2.14 2.14 1.07 3.21 1.07 4.29C3.21 4.29 4.29 5.97 4.29 7.5L10.71 7.5C10.71 5.87 11.79 4.29 13.93 4.29C13.93 3.21 12.86 2.14 11.79 2.14L3.21 2.14ZM1.07 5.36C0 5.36 0 6.43 0 6.43C0 6.98 0.52 7.5 1.07 7.5L1.07 10.71C1.07 11.41 1.53 11.79 2.14 11.79L2.68 11.79C2.68 11.79 2.68 12.86 3.75 12.86C4.82 12.86 4.82 11.79 4.82 11.79L10.18 11.79C10.18 11.79 10.18 12.86 11.25 12.86C12.32 12.86 12.32 11.79 12.32 11.79L12.86 11.79C13.4 11.79 13.93 11.27 13.93 10.71L13.93 7.5C14.46 7.5 15 7.08 15 6.43C15 6.43 15 5.36 13.93 5.36C12.86 5.36 11.79 6.43 11.79 8.57L3.21 8.57C3.21 6.43 2.14 5.36 1.07 5.36Z"/>
</svg>