<?xml version="1.0" encoding="UTF-8"?>
<svg version="1.1" xmlns="http://www.w3.org/2000/svg" viewBox="0 0 15 15">
  <path d="M8 1.5C8 2.33 7.33 3 6.5 3S5 2.33 5 1.5S5.67 0 6.5 0S8 0.67 8 1.5zM10.88 7.18L10.88 7.18l-2 -2l0 0l0 0C8.78 5.06 8.63 5 8.48 5H3.75C3.37 4.99 3.05 5.27 3 5.64l0 0l-1 7.7l0 0c-0.01 0.05 -0.01 0.09 0 0.14c0 0.28 0.22 0.5 0.5 0.5c0.23 0.02 0.43 -0.13 0.5 -0.34l0 0l1.2 -3.89l0 0l0.26 -0.83l0.4 0.44l0 0L6 10.6v2.9C6 13.78 6.22 14 6.5 14S7 13.78 7 13.5v-3l0 0l0 0c-0.01 -0.08 -0.04 -0.15 -0.08 -0.22l0 0L5.48 8.5l1 -2.5h1.71l2 1.84l0 0c0.09 0.11 0.23 0.17 0.37 0.17C10.82 7.98 11.01 7.76 11 7.5C11 7.38 10.96 7.27 10.88 7.18zM14 11.27c-0.41 0 -0.75 0.34 -0.75 0.75s0.34 0.75 0.75 0.75s0.75 -0.34 0.75 -0.75S14.41 11.27 14 11.27zM10.76 9.74V9c0 -0.14 -0.11 -0.25 -0.25 -0.25S10.26 8.86 10.26 9v0.74c-0.15 0.09 -0.25 0.25 -0.25 0.42v3.34c0 0.28 0.22 0.5 0.5 0.5s0.5 -0.22 0.5 -0.5v-3.34C11.01 9.99 10.91 9.83 10.76 9.74z"/>
</svg>