<?xml version="1.0" encoding="UTF-8"?>
<svg xmlns="http://www.w3.org/2000/svg" viewBox="0 0 15 15">
  <path d="M5.29 4.38L6 9.5a0.98 0.98 0 0 0 1 1H8a0.98 0.98 0 0 0 1 -1l0.71 -5.12C9.71 3 7.5 3 7.5 3S5.29 3 5.29 4.38ZM3.5 5C2 5 2 6 2 6l1 4H4.5a0.79 0.79 0 0 0 0.79 -0.76L4.5 5Zm-2 2.5a1.53 1.53 0 0 0 -1.06 0.41A1.37 1.37 0 0 0 0 8.79V11H0.88A1.02 1.02 0 0 0 2 10ZM11.5 5C13 5 13 6 13 6l-1 4H10.5a0.79 0.79 0 0 1 -0.79 -0.76L10.5 5Zm2 2.5a1.53 1.53 0 0 1 1.06 0.41A1.37 1.37 0 0 1 15 8.79V11h-0.88A1.02 1.02 0 0 1 13 10Z"/>
</svg>