<?xml version="1.0" encoding="UTF-8"?>
<svg viewBox="0 0 15 15" version="1.1" xmlns="http://www.w3.org/2000/svg" xmlns:xlink="http://www.w3.org/1999/xlink">
  <path d="M10.84 2.18L12.2 2.18C12.41 2.18 12.55 2.32 12.55 2.52C12.55 2.73 12.41 2.86 12.2 2.86L10.84 2.86C10.77 2.86 10.64 2.86 10.64 2.93C10.57 3.07 10.5 3.2 10.57 3.27C10.64 3.41 10.7 3.48 10.77 3.61L11.52 3.61C11.59 3.61 11.66 3.61 11.73 3.68L13.57 4.64C13.64 4.77 13.77 4.91 13.77 5.11C13.77 5.39 13.5 5.66 13.23 5.66L12.07 5.66L10.43 9.55L9.55 10.23L9.55 14.32C9.55 14.73 9.07 15 8.73 15C8.32 15 8.18 14.73 8.18 14.32L8.18 10.23L5.45 10.23L4.64 11.25L6.14 13.91C6.34 14.25 6.2 14.66 5.86 14.86C5.52 15.07 5.11 14.93 4.91 14.59L3.41 11.86L3.41 10.7L2.73 11.59L2.73 14.32C2.73 14.73 2.32 14.93 1.98 14.93C1.57 14.93 1.36 14.73 1.36 14.32L1.36 11.59L1.91 10.57L1.91 9.34L1.43 10.09C1.43 10.09 1.36 10.16 1.36 10.16C1.3 10.16 1.3 10.16 1.3 10.09L1.36 7.5C1.36 6.95 1.5 6.14 2.05 6.14L8.86 6.14L10.09 4.77L9.2 3.89C9.2 3.89 9.14 3.82 9.14 3.82C9.14 3.75 9.2 3.68 9.27 3.68L9.95 3.68C9.82 3.34 9.68 3 9.68 2.59C9.68 1.16 10.84 0.07 12.2 0.07C12.41 0.07 12.55 0.2 12.55 0.41C12.55 0.61 12.41 0.75 12.2 0.75C11.25 0.75 10.43 1.5 10.36 2.39C10.5 2.25 10.64 2.18 10.84 2.18Z"/>
</svg>