<?xml version="1.0" encoding="UTF-8"?>
<svg viewBox="0 0 15 15" version="1.1" xmlns="http://www.w3.org/2000/svg" xmlns:xlink="http://www.w3.org/1999/xlink">
  <path d="M4.14 1.14C3.46 1.19 2.81 1.57 2.44 2.21L0.29 5.93C-0.3 6.96 0.03 8.25 1.06 8.84L4.78 10.98C4.93 11.07 5.09 11.17 5.25 11.22L5.25 7.47C5.25 5.71 6.7 4.25 8.46 4.25L9.77 4.25C9.59 3.99 9.36 3.75 9.07 3.58L5.35 1.44C4.96 1.22 4.55 1.11 4.14 1.14L4.14 1.14ZM4.47 1.9C5.07 1.9 5.59 2.31 5.75 2.89C5.94 3.61 5.52 4.34 4.8 4.53C4.09 4.72 3.36 4.3 3.16 3.59C2.97 2.87 3.4 2.14 4.11 1.95C4.23 1.91 4.35 1.9 4.47 1.9L4.47 1.9ZM2.2 5.84C2.8 5.84 3.32 6.25 3.48 6.83C3.67 7.54 3.24 8.28 2.53 8.47C1.82 8.66 1.08 8.23 0.89 7.52C0.7 6.81 1.12 6.07 1.84 5.88C1.95 5.85 2.08 5.83 2.2 5.84L2.2 5.84ZM8.46 5.32C7.28 5.32 6.32 6.28 6.32 7.47L6.32 11.75C6.32 12.94 7.28 13.9 8.46 13.9L12.75 13.9C13.94 13.9 14.89 12.94 14.89 11.75L14.89 7.47C14.89 6.28 13.94 5.32 12.75 5.32L8.46 5.32ZM12.75 6.13C13.1 6.13 13.44 6.27 13.7 6.52C13.95 6.77 14.09 7.11 14.09 7.47C14.09 7.82 13.95 8.16 13.7 8.41C13.44 8.67 13.1 8.81 12.75 8.81C12.01 8.81 11.41 8.21 11.41 7.47C11.41 6.73 12.01 6.13 12.75 6.13L12.75 6.13ZM8.46 10.41C8.82 10.41 9.16 10.55 9.41 10.81C9.66 11.06 9.8 11.4 9.8 11.75C9.8 12.49 9.2 13.09 8.46 13.09C7.72 13.09 7.12 12.49 7.12 11.75C7.12 11.4 7.26 11.06 7.52 10.81C7.77 10.55 8.11 10.41 8.46 10.41L8.46 10.41Z"/>
</svg>