<?xml version="1.0" encoding="UTF-8"?>
<svg viewBox="0 0 15 15" version="1.1" xmlns="http://www.w3.org/2000/svg" xmlns:xlink="http://www.w3.org/1999/xlink">
  <path d="M13.84 12.95C13.16 13.5 12.82 13.64 12.82 13.64L0.41 13.64L0 14.32L0.07 14.32L12.89 14.32C13.5 14.25 13.84 13.98 13.84 13.98L15 13.09L15 12.07L13.84 12.95Z"/>
  <path d="M3.27 2.93C3.82 2.86 4.16 2.32 4.09 1.77C4.02 1.23 3.48 0.89 2.93 1.02C2.39 1.16 2.05 1.57 2.11 2.11C2.25 2.66 2.73 3.07 3.27 2.93Z"/>
  <path d="M1.57 13.16C1.57 13.23 1.57 13.23 1.57 13.3C1.64 13.7 1.98 13.91 2.39 13.84C2.66 13.77 2.93 13.57 2.93 13.23L3.27 8.18L4.57 13.43C4.7 13.7 4.98 13.91 5.32 13.84C5.73 13.77 5.93 13.43 5.86 13.02C5.86 12.95 5.86 12.95 5.86 12.89L3.89 6.14L3.89 5.52L4.09 5.93C4.23 6.2 4.5 6.2 4.5 6.2L6.14 6.34L6.2 6.34C6.48 6.27 6.61 6.07 6.61 5.8C6.61 5.59 6.41 5.39 6.2 5.39L4.77 5.25L4.09 3.82C3.75 3 2.93 3.14 2.93 3.14C2.18 3.27 2.11 4.09 2.11 4.09L1.57 13.16Z"/>
  <path d="M8.18 9.14L8.18 12.95L12.82 12.95C13.43 12.89 14.93 11.18 14.93 11.18L8.18 9.14Z"/>
  <path d="M7.16 6.14C6.95 6.14 6.82 6.27 6.82 6.48L6.82 13.64L7.5 13.64L7.5 6.48C7.5 6.27 7.36 6.14 7.16 6.14Z"/>
</svg>