<?xml version="1.0" encoding="UTF-8"?>
<svg viewBox="0 0 15 15" version="1.1" xmlns="http://www.w3.org/2000/svg" xmlns:xlink="http://www.w3.org/1999/xlink">
  <path d="M5.39 13.46C5.5 13.58 5.49 13.77 5.37 13.89L4.72 14.5C4.6 14.61 4.41 14.6 4.3 14.48L0.5 10.39C0.39 10.27 0.4 10.08 0.52 9.97L1.17 9.36C1.29 9.24 1.48 9.25 1.59 9.37L5.39 13.46ZM10.23 5.77C10.34 5.89 10.34 6.08 10.22 6.19L6.11 10.02C5.99 10.14 5.8 10.13 5.69 10.01L4.71 8.95C4.6 8.83 4.61 8.64 4.73 8.53L8.83 4.7C8.95 4.58 9.14 4.59 9.25 4.71L10.23 5.77L10.23 5.77ZM6.78 12.16C6.89 12.28 6.89 12.47 6.77 12.58L6.12 13.19C6 13.31 5.81 13.3 5.69 13.18L1.9 9.09C1.79 8.97 1.8 8.78 1.92 8.66L2.57 8.05C2.69 7.94 2.88 7.95 2.99 8.07L6.79 12.16L6.78 12.16ZM13.1 5.91C13.21 6.03 13.21 6.23 13.09 6.34L12.44 6.95C12.32 7.06 12.12 7.05 12.01 6.93L8.22 2.84C8.11 2.72 8.12 2.53 8.24 2.42L8.89 1.81C9.01 1.7 9.2 1.7 9.31 1.82L13.1 5.91L13.1 5.91ZM14.49 4.61C14.6 4.73 14.6 4.92 14.48 5.04L13.83 5.65C13.71 5.76 13.52 5.75 13.4 5.63L9.61 1.54C9.5 1.42 9.51 1.23 9.63 1.12L10.28 0.51C10.4 0.39 10.59 0.4 10.7 0.52L14.49 4.61L14.49 4.61Z"/>
</svg>