<?xml version="1.0" encoding="UTF-8"?>
<svg viewBox="0 0 15 15" version="1.1" xmlns="http://www.w3.org/2000/svg" xmlns:xlink="http://www.w3.org/1999/xlink">
  <path d="M7.65 6.77C7.2 6.77 6.83 7.14 6.83 7.59C6.83 8.05 7.2 8.41 7.65 8.41C8.11 8.41 8.48 8.05 8.48 7.59C8.48 7.14 8.11 6.77 7.65 6.77L7.65 6.77ZM12.55 1.22C12.55 0.88 12.27 0.6 11.93 0.6L3.02 0.6C2.68 0.6 2.4 0.88 2.4 1.22L2.4 13.78C2.4 14.12 2.68 14.4 3.02 14.4L11.93 14.4C12.27 14.4 12.55 14.12 12.55 13.78L12.55 1.22ZM7.65 11.52C5.49 11.52 3.72 9.76 3.72 7.59C3.72 5.43 5.49 3.66 7.65 3.66C9.82 3.66 11.58 5.43 11.58 7.59C11.58 9.76 9.82 11.52 7.65 11.52Z"/>
</svg>