<?xml version="1.0" encoding="UTF-8"?>
<svg viewBox="0 0 15 15" version="1.1" xmlns="http://www.w3.org/2000/svg" xmlns:xlink="http://www.w3.org/1999/xlink">
  <path d="M11.79 7.5L11.79 13.93L3.21 13.93L3.21 7.5L11.79 7.5M11.79 6.43L3.21 6.43C2.57 6.43 2.14 6.96 2.14 7.5L2.14 13.93C2.14 14.46 2.57 15 3.21 15L11.79 15C12.43 15 12.86 14.46 12.86 13.93L12.86 7.5C12.86 6.96 12.43 6.43 11.79 6.43L11.79 6.43Z"/>
  <path d="M7.5 3.21L4.82 0L2.14 3.21L4.29 3.21L4.29 5.36L5.36 5.36L5.36 3.21z"/>
  <path d="M10.71 2.14L10.71 0L9.64 0L9.64 2.14L7.5 2.14L10.18 5.36L12.86 2.14z"/>
  <path d="M7.5 13.93L7.5 13.93C6.86 13.93 6.43 13.5 6.43 12.86L6.43 10.71C6.43 10.18 6.86 9.64 7.5 9.64L7.5 9.64C8.04 9.64 8.57 10.07 8.57 10.71L8.57 12.86C8.57 13.5 8.14 13.93 7.5 13.93Z"/>
  <path d="M9.64 11.79L5.36 11.79L5.36 10.71L6.43 9.64L8.57 9.64L9.64 10.71z"/>
  <path d="M6.5 8.57a1 1 0 1 0 2 0a1 1 0 1 0 -2 0z"/>
</svg>