<?xml version="1.0" encoding="UTF-8"?>
<svg viewBox="0 0 15 15" version="1.1" xmlns="http://www.w3.org/2000/svg" xmlns:xlink="http://www.w3.org/1999/xlink">
  <path d="M12.27 6.82L12.27 14.32L2.73 14.32L2.73 6.82L12.27 6.82M12.27 6.14L2.73 6.14C2.39 6.14 2.05 6.48 2.05 6.82L2.05 14.32C2.05 14.66 2.39 15 2.73 15L12.27 15C12.61 15 12.95 14.66 12.95 14.32L12.95 6.82C12.95 6.48 12.61 6.14 12.27 6.14L12.27 6.14Z"/>
  <path d="M9.61 0.68C9.61 -0.2 10.84 -0.2 10.84 0.68L10.84 3.34L11.52 2.52C12 2.05 12.82 2.73 12.34 3.34L10.7 5.32C10.43 5.59 10.09 5.59 9.89 5.32L8.18 3.34C7.7 2.73 8.52 2.05 9 2.52L9.68 3.34L9.61 0.68Z"/>
  <path d="M4.09 4.84C4.09 5.73 5.32 5.73 5.32 4.84L5.32 2.18L6 3C6.48 3.48 7.3 2.8 6.82 2.18L5.18 0.27C4.91 0 4.57 0 4.3 0.2L2.66 2.25C2.18 2.8 2.93 3.55 3.48 3L4.16 2.18L4.09 4.84Z"/>
  <path d="M5.45 8.86L4.09 8.86C3.82 8.86 3.75 9.27 3.75 9.55L3.75 10.23C3.75 10.5 3.82 10.91 4.09 10.91L4.09 12.95C4.09 13.64 4.5 13.64 4.77 13.64L4.77 13.64C5.05 13.64 5.45 13.64 5.45 12.95L5.45 10.91C5.73 10.91 5.8 10.5 5.8 10.23L5.8 9.55C5.8 9.27 5.73 8.86 5.45 8.86Z"/>
  <path d="M3.77 8.18a1 1 0 1 0 2 0a1 1 0 1 0 -2 0z"/>
  <path d="M8.18 8.86L6.82 8.86C6.55 8.86 6.48 9.27 6.48 9.55L6.48 10.23C6.48 10.5 6.55 10.91 6.82 10.91L6.82 12.95C6.82 13.64 7.23 13.64 7.5 13.64L7.5 13.64C7.77 13.64 8.18 13.64 8.18 12.95L8.18 10.91C8.45 10.91 8.52 10.5 8.52 10.23L8.52 9.55C8.52 9.27 8.45 8.86 8.18 8.86Z"/>
  <path d="M6.5 8.18a1 1 0 1 0 2 0a1 1 0 1 0 -2 0z"/>
  <path d="M10.91 8.86L9.55 8.86C9.27 8.86 9.2 9.27 9.2 9.55L9.2 10.23C9.2 10.5 9.27 10.91 9.55 10.91L9.55 12.95C9.55 13.64 9.95 13.64 10.23 13.64L10.23 13.64C10.5 13.64 10.91 13.64 10.91 12.95L10.91 10.91C11.18 10.91 11.25 10.5 11.25 10.23L11.25 9.55C11.25 9.27 11.18 8.86 10.91 8.86Z"/>
  <path d="M9.23 8.18a1 1 0 1 0 2 0a1 1 0 1 0 -2 0z"/>
</svg>