<?xml version="1.0" encoding="UTF-8"?>
<svg viewBox="0 0 15 15" version="1.1" xmlns="http://www.w3.org/2000/svg" xmlns:xlink="http://www.w3.org/1999/xlink">
  <path d="M2,9.5 C3.1045695,9.5 4,8.6045695 4,7.5 C4,6.3954305 3.1045695,5.5 2,5.5 C0.8954305,5.5 0,6.3954305 0,7.5 C0,8.6045695 0.8954305,9.5 2,9.5 Z M7.5,9.5 C8.6045695,9.5 9.5,8.6045695 9.5,7.5 C9.5,6.3954305 8.6045695,5.5 7.5,5.5 C6.3954305,5.5 5.5,6.3954305 5.5,7.5 C5.5,8.6045695 6.3954305,9.5 7.5,9.5 Z M13,9.5 C14.1045695,9.5 15,8.6045695 15,7.5 C15,6.3954305 14.1045695,5.5 13,5.5 C11.8954305,5.5 11,6.3954305 11,7.5 C11,8.6045695 11.8954305,9.5 13,9.5 Z"/>
</svg>