<?xml version="1.0" encoding="UTF-8"?>
<svg viewBox="0 0 15 15" version="1.1" xmlns="http://www.w3.org/2000/svg" xmlns:xlink="http://www.w3.org/1999/xlink">
  <path d="M6.25 9.81L6.25 11.5L6.21 11.74L5.46 13.99C5.34 14.38 4.9 14.59 4.51 14.46C4.12 14.34 3.91 13.9 4.05 13.51L4.75 11.38L4.75 9.81C4.3 9.54 4 9.06 4 8.5L4 5.88C4 5.05 4.68 4.38 5.5 4.38C5.82 4.38 6.1 4.47 6.36 4.65L7.62 5.32L8.73 4.23C9.01 3.93 9.49 3.93 9.78 4.23C10.08 4.51 10.08 4.99 9.78 5.28L8.28 6.78C8.05 7.02 7.69 7.08 7.39 6.91L7 6.7L7 8.41L8.83 9.33C9.09 9.46 9.25 9.72 9.25 10L9.25 12.25C9.25 12.67 8.92 13 8.5 13C8.08 13 7.75 12.67 7.75 12.25L7.75 10.47L6.33 9.75C6.3 9.78 6.28 9.79 6.25 9.81ZM5.5 4C4.68 4 4 3.33 4 2.5C4 1.68 4.68 1 5.5 1C6.33 1 7 1.68 7 2.5C7 3.33 6.33 4 5.5 4Z"/>
</svg>