<?xml version="1.0" encoding="UTF-8"?>
<svg viewBox="0 0 15 15" version="1.1" xmlns="http://www.w3.org/2000/svg" xmlns:xlink="http://www.w3.org/1999/xlink">
  <path d="M10.93 4.29C11.57 4.39 12.21 3.96 12.32 3.32C12.43 2.68 12 2.04 11.36 1.93C10.61 1.82 9.96 2.25 9.86 2.89C9.75 3.54 10.18 4.18 10.93 4.29Z"/>
  <path d="M7.5 7.07L10.29 6.21L12.21 8.79C12.32 8.89 12.43 9 12.64 9C12.96 9 13.29 8.89 13.29 8.57C13.29 8.36 13.29 8.25 13.18 8.14L10.39 4.39C10.29 4.29 10.18 4.18 9.96 4.07L7.61 2.68L7.61 0.32C7.5 0.21 7.39 0.11 7.18 0.11C6.86 0 6.54 0.11 6.43 0.43C6.43 0.54 6.43 0.64 6.43 0.86L6.43 3.21C6.43 3.32 6.54 3.32 6.64 3.43L7.93 4.29L5.46 5.04C5.14 5.14 4.82 5.46 4.71 5.79L4.39 7.93L2.04 8.46C1.82 8.57 1.61 8.79 1.5 9.11C1.39 9.43 1.71 9.86 2.04 9.96C2.14 9.96 2.25 9.96 2.36 9.96L5.14 9.21C5.36 9.11 5.57 9 5.57 8.79L6 7.5L7.5 9.43L6.64 12.11C6.64 12.11 6.64 12.11 6.64 12.11C6.54 12.54 6.86 12.96 7.18 12.96C7.61 13.07 7.93 12.86 8.04 12.43L9 9.32C9 9.32 9 9.32 9 9.32C9 9.11 9 8.89 8.89 8.68L7.5 7.07Z"/>
  <path d="M0 15L15 15L15 12.86L12.11 14.89L9.54 12.86L7.71 14.89L5.36 12.86L2.89 14.89L0 12.86z"/>
</svg>