<?xml version="1.0" encoding="UTF-8"?>
<svg viewBox="0 0 15 15" version="1.1" xmlns="http://www.w3.org/2000/svg" xmlns:xlink="http://www.w3.org/1999/xlink">
  <path d="M1.29 2.04C1.29 2.04 1.39 2.04 1.5 2.04C1.5 2.04 3.32 1.61 3.75 1.5C3.86 1.82 3.96 2.04 4.29 2.25L4.29 3.11L5.57 3.11L5.57 2.14C5.79 2.04 6 1.71 6.11 1.5C6.64 1.61 8.25 2.04 8.25 2.04C8.36 2.04 8.46 2.04 8.46 2.04C9 2.04 9.32 1.61 9.32 1.18C9.32 0.64 8.89 0.32 8.46 0.32C8.36 0.32 8.36 0.32 8.36 0.32L6 0.75C5.79 0.32 5.36 0 4.93 0C4.39 0 3.96 0.32 3.86 0.75L1.39 0.21C1.39 0.21 1.29 0.21 1.29 0.21C0.75 0.21 0.43 0.64 0.43 1.07C0.43 1.5 0.75 2.04 1.29 2.04Z"/>
  <path d="M11.25 10.29C11.25 10.29 9.75 12.96 9.75 13.07C9.75 13.18 9.64 13.39 9.64 13.61C9.64 14.36 10.5 15 11.25 15C12 15 12.86 14.36 12.86 13.61C12.86 13.29 12.75 13.07 12.75 13.07L11.25 10.29Z"/>
  <path d="M12.43 8.57C12.43 8.14 12.43 7.82 12.43 7.29C12.43 5.36 10.29 5.36 10.29 5.36L7.5 5.36L7.5 4.29L5.89 3.64L3.75 3.64L2.14 4.29L2.14 5.36L0 5.36L0 8.57L9.64 8.57L9.64 9.64L12.86 9.64L12.86 8.57L12.43 8.57Z"/>
</svg>