<?xml version="1.0" encoding="UTF-8"?>
<svg viewBox="0 0 15 15" xmlns="http://www.w3.org/2000/svg">
  <path d="M3 1.5a1.5 1.5 0 1 0 3 0a1.5 1.5 0 0 0 -3 0ZM11.5 0a1.5 1.5 0 1 1 0 3a1.5 1.5 0 0 1 0 -3ZM3.29 4a1 1 0 0 0 -0.87 0.5L0.57 7.75a0.5 0.5 0 1 0 0.87 0.5l1.41 -2.47A345.05 345.05 0 0 0 1 11h2v2.5a0.5 0.5 0 0 0 1 0V11h1v2.5a0.5 0.5 0 0 0 1 0V11h2L6.1 5.69l1.46 2.56a0.5 0.5 0 1 0 0.87 -0.5L6.58 4.5A1 1 0 0 0 5.71 4H3.29ZM9 4.5a0.5 0.5 0 0 1 0.5 -0.5h4a0.5 0.5 0 0 1 0.5 0.5v5a0.5 0.5 0 0 1 -1 0v4a0.5 0.5 0 0 1 -1 0v-4h-1v4a0.5 0.5 0 0 1 -1 0v-4a0.5 0.5 0 0 1 -1 0v-5Z"/>
</svg>