<?xml version="1.0" encoding="UTF-8"?>
<svg viewBox="0 0 15 15" version="1.1" xmlns="http://www.w3.org/2000/svg" xmlns:xlink="http://www.w3.org/1999/xlink">
  <path d="M6 1.5C6 2.33 6.67 3 7.5 3C8.33 3 9 2.33 9 1.5C9 0.67 8.33 0 7.5 0C6.67 0 6 0.67 6 1.5ZM6.29 4C5.93 4 5.6 4.19 5.42 4.5L3.57 7.75C3.48 7.91 3.48 8.1 3.57 8.25C3.66 8.41 3.82 8.5 4 8.5C4.18 8.5 4.35 8.41 4.44 8.25L5.85 5.78C5.22 7.52 4.6 9.26 4 11L6 11L6 13.5C6 13.78 6.22 14 6.5 14C6.77 14 7 13.78 7 13.5L7 11L8 11L8 13.5C8 13.78 8.22 14 8.5 14C8.77 14 9 13.78 9 13.5L9 11L11 11L9.1 5.69L10.56 8.25C10.65 8.41 10.81 8.5 10.99 8.5C11.17 8.5 11.34 8.41 11.43 8.25C11.52 8.1 11.52 7.91 11.43 7.75L9.58 4.5C9.4 4.19 9.07 4 8.71 4L6.29 4Z"/>
</svg>