<?xml version="1.0" encoding="UTF-8"?>
<svg version="1.1" xmlns="http://www.w3.org/2000/svg" viewBox="0 0 15 15">
  <path d="M14 7.5v2c0 0.28 -0.22 0.5 -0.5 0.5S13 9.78 13 9.5c0 0 0.06 -0.5 -1 -0.5h-1v2.5c0 0.28 -0.22 0.5 -0.5 0.5h-8C2.22 12 2 11.78 2 11.5v-4C2 7.22 2.22 7 2.5 7h8C10.78 7 11 7.22 11 7.5V8h1c1.06 0 1 -0.5 1 -0.5C13 7.22 13.22 7 13.5 7S14 7.22 14 7.5zM4 3C2.9 3 2 3.9 2 5s0.9 2 2 2s2 -0.9 2 -2S5.1 3 4 3zM4 6C3.45 6 3 5.55 3 5s0.45 -1 1 -1s1 0.45 1 1S4.55 6 4 6zM8.5 2C7.12 2 6 3.12 6 4.5S7.12 7 8.5 7S11 5.88 11 4.5S9.88 2 8.5 2zM8.5 6C7.67 6 7 5.33 7 4.5S7.67 3 8.5 3S10 3.67 10 4.5S9.33 6 8.5 6z"/>
</svg>