<?xml version="1.0" encoding="UTF-8"?>
<svg viewBox="0 0 15 15" version="1.1" xmlns="http://www.w3.org/2000/svg" xmlns:xlink="http://www.w3.org/1999/xlink">
  <path d="M14.99 0.02C10.85 0.02 7.5 3.37 7.5 7.5C7.5 11.64 10.86 15 15 15C15.01 13.94 14.98 14.98 15 13.93C11.46 13.93 8.61 11.06 8.61 7.51C8.61 3.96 11.47 1.08 15.01 1.08L15.01 0.02L14.99 0.02L14.99 0.02ZM0 1.07L0 15L1.07 15L2.14 15L3.21 15L9.28 15L9.28 13.93L3.21 13.93L3.21 8.57L6.43 8.57L6.43 7.5L3.21 7.5L3.21 2.14L8.57 2.14L8.57 1.07L3.21 1.07L2.14 1.07L1.07 1.07L0 1.07ZM1.07 2.14L2.14 2.14L2.14 3.21L1.07 3.21L1.07 2.14ZM1.07 4.29L2.14 4.29L2.14 5.36L1.07 5.36L1.07 4.29ZM15.01 5.36C13.83 5.36 12.88 6.32 12.88 7.5C12.88 8.68 13.83 9.63 15.01 9.64L15.01 8.57C15.01 8.57 15 8.57 14.99 8.57C14.38 8.57 13.89 8.09 13.89 7.5C13.89 6.91 14.38 6.43 14.99 6.43C15 6.43 15.01 6.43 15.01 6.43L15.01 5.36ZM1.07 6.43L2.14 6.43L2.14 7.5L1.07 7.5L1.07 6.43ZM1.07 8.57L2.14 8.57L2.14 9.64L1.07 9.64L1.07 8.57ZM1.07 10.71L2.14 10.71L2.14 11.79L1.07 11.79L1.07 10.71ZM1.07 12.86L2.14 12.86L2.14 13.93L1.07 13.93L1.07 12.86Z"/>
</svg>