<?xml version="1.0" encoding="UTF-8"?>
<svg viewBox="0 0 15 15" version="1.1" xmlns="http://www.w3.org/2000/svg" xmlns:xlink="http://www.w3.org/1999/xlink">
  <path d="M2 1C1.45 1 1 1.45 1 2L1 13C1 13.55 1.45 14 2 14L13 14C13.55 14 14 13.55 14 13L14 2C14 1.45 13.55 1 13 1L2 1ZM2.25 2L2.75 2C2.89 2 3 2.11 3 2.25L3 2.75C3 2.89 2.89 3 2.75 3L2.25 3C2.11 3 2 2.89 2 2.75L2 2.25C2 2.11 2.11 2 2.25 2ZM4 2L11 2L11 7L4 7L4 2ZM12.25 2L12.75 2C12.89 2 13 2.11 13 2.25L13 2.75C13 2.89 12.89 3 12.75 3L12.25 3C12.11 3 12 2.89 12 2.75L12 2.25C12 2.11 12.11 2 12.25 2ZM2.25 4L2.75 4C2.89 4 3 4.11 3 4.25L3 4.75C3 4.89 2.89 5 2.75 5L2.25 5C2.11 5 2 4.89 2 4.75L2 4.25C2 4.11 2.11 4 2.25 4ZM12.25 4L12.75 4C12.89 4 13 4.11 13 4.25L13 4.75C13 4.89 12.89 5 12.75 5L12.25 5C12.11 5 12 4.89 12 4.75L12 4.25C12 4.11 12.11 4 12.25 4ZM2.25 6L2.75 6C2.89 6 3 6.11 3 6.25L3 6.75C3 6.89 2.89 7 2.75 7L2.25 7C2.11 7 2 6.89 2 6.75L2 6.25C2 6.11 2.11 6 2.25 6ZM12.25 6L12.75 6C12.89 6 13 6.11 13 6.25L13 6.75C13 6.89 12.89 7 12.75 7L12.25 7C12.11 7 12 6.89 12 6.75L12 6.25C12 6.11 12.11 6 12.25 6ZM2.25 8L2.75 8C2.89 8 3 8.11 3 8.25L3 8.75C3 8.89 2.89 9 2.75 9L2.25 9C2.11 9 2 8.89 2 8.75L2 8.25C2 8.11 2.11 8 2.25 8ZM4 8L11 8L11 13L4 13L4 8ZM12.25 8L12.75 8C12.89 8 13 8.11 13 8.25L13 8.75C13 8.89 12.89 9 12.75 9L12.25 9C12.11 9 12 8.89 12 8.75L12 8.25C12 8.11 12.11 8 12.25 8ZM2.25 10L2.75 10C2.89 10 3 10.11 3 10.25L3 10.75C3 10.89 2.89 11 2.75 11L2.25 11C2.11 11 2 10.89 2 10.75L2 10.25C2 10.11 2.11 10 2.25 10ZM12.25 10L12.75 10C12.89 10 13 10.11 13 10.25L13 10.75C13 10.89 12.89 11 12.75 11L12.25 11C12.11 11 12 10.89 12 10.75L12 10.25C12 10.11 12.11 10 12.25 10ZM2.25 12L2.75 12C2.89 12 3 12.11 3 12.25L3 12.75C3 12.89 2.89 13 2.75 13L2.25 13C2.11 13 2 12.89 2 12.75L2 12.25C2 12.11 2.11 12 2.25 12ZM12.25 12L12.75 12C12.89 12 13 12.11 13 12.25L13 12.75C13 12.89 12.89 13 12.75 13L12.25 13C12.11 13 12 12.89 12 12.75L12 12.25C12 12.11 12.11 12 12.25 12Z"/>
</svg>