<?xml version="1.0" encoding="UTF-8"?>
<svg viewBox="0 0 15 15" version="1.1" xmlns="http://www.w3.org/2000/svg" xmlns:xlink="http://www.w3.org/1999/xlink">
  <path d="M8.57 0L8.57 2.14L7.5 1.61L0 5.36L0 7.5L1.61 6.8L1.61 15L3.21 15L3.21 6.11L7.5 4.29L8.57 4.74L8.57 9.64L4.82 9.64C4.85 11.41 4.78 13.27 4.82 15L10.18 15C10.2 11.84 10.19 8.63 10.18 5.42L11.79 6.11L11.79 15L13.39 15L13.39 6.8L15 7.5L15 5.36L10.18 2.95C10.18 1.96 10.18 0.98 10.18 0L8.57 0ZM7.5 11.79C7.5 11.79 8.57 11.79 8.57 12.86L8.57 13.93L6.43 13.93L6.43 12.86C6.43 11.79 7.5 11.79 7.5 11.79Z"/>
</svg>