<?xml version="1.0" encoding="UTF-8"?>
<svg viewBox="0 0 15 15" version="1.1" xmlns="http://www.w3.org/2000/svg" xmlns:xlink="http://www.w3.org/1999/xlink">
  <path d="M5.14 1.5C3.96 1.71 3.64 2.36 3.21 2.89C2.89 3.43 2.14 3 2.46 2.46C2.68 1.93 3.54 1.07 4.18 0.86C4.07 0.75 4.39 0 5.04 0C5.57 0 6.43 0 6.43 0L6.43 1.07L8.57 1.07L12.86 0L12.86 3.21L8.57 2.14L6.43 2.14L6.43 3.21C6.96 3.32 8.57 3.86 8.57 5.36L8.57 13.93C8.57 14.14 8.14 15 7.71 15L3.86 15C3.43 15 3.21 14.14 3.21 13.93L3.21 5.36C3.21 3.86 4.71 3.43 5.14 3.32L5.14 1.5Z"/>
</svg>