<?xml version="1.0" encoding="UTF-8"?>
<svg viewBox="0 0 15 15" version="1.1" xmlns="http://www.w3.org/2000/svg" xmlns:xlink="http://www.w3.org/1999/xlink">
  <path d="M14.7 14.22C11.4 14.27 7.83 13.62 5.1 11.45L5.12 11.38C5.12 11.33 5.19 11.29 5.24 11.29L7.94 11.3C8.07 11.3 8.18 11.19 8.18 11.06C8.18 10.96 8.14 10.9 8.03 10.84L5.61 9.69C5.56 9.66 5.53 9.62 5.53 9.56C5.53 9.51 5.46 9.47 5.48 9.44C5.48 9.44 8.4 6.84 14.7 6.9L14.7 14.22L14.7 14.22ZM9.19 10.1C9.51 10.1 9.77 9.84 9.77 9.53C9.77 9.21 9.51 8.96 9.19 8.96C8.88 8.96 8.62 9.21 8.62 9.53C8.62 9.84 8.88 10.1 9.19 10.1ZM0.3 0.6L3 0.6L3 2.7L0.3 2.7L0.3 0.6ZM5.7 0.6L14.7 0.6L14.7 2.7L5.7 2.7L5.7 0.6ZM4.2 3.75C3.9 3.83 3.81 4.04 3.81 4.29C3.81 4.54 3.9 4.76 4.2 4.84L4.2 8.36C4.2 8.82 3.77 9.18 3.31 9.18C2.86 9.18 2.45 8.81 2.45 8.36C2.45 8.25 2.46 8.14 2.5 8.05L2.53 8.07L2.81 8.34L2.63 6.73L2.15 7.81C2.01 8.15 2.05 8.36 2.05 8.36C2.05 9.02 2.61 9.55 3.27 9.55C3.93 9.55 4.5 9.02 4.5 8.36L4.5 4.83C4.8 4.75 4.88 4.54 4.88 4.29C4.88 4.04 4.8 3.83 4.5 3.75L4.5 0.6L4.2 0.6L4.2 3.75L4.2 3.75Z"/>
</svg>