<?xml version="1.0" encoding="UTF-8"?>
<svg viewBox="0 0 15 15" version="1.1" xmlns="http://www.w3.org/2000/svg" xmlns:xlink="http://www.w3.org/1999/xlink">
  <path d="M3.15 2.84C3.15 2.67 3 2.18 3 2.36C3 2.24 3.5 2.34 4.51 2.67C4.51 2.67 4.65 2.67 4.65 2.49C4.65 2.49 4.65 2.32 4.51 2.32L3.29 1.61C3.29 1.61 4.53 0 7.5 0C9 0 10.53 0.48 12.09 1.44L15 0L15 0.25L13.5 2.25L15 4.25L15 4.5L12.09 3.19C12.09 3.19 6.69 6.35 3.15 2.84ZM6.6 1.69C6.6 1.38 6.35 1.13 6.04 1.13L5.96 1.13C5.65 1.13 5.4 1.38 5.4 1.69C5.4 2 5.65 2.25 5.96 2.25L6.04 2.25C6.35 2.25 6.6 2 6.6 1.69ZM0.15 8.09C0.15 7.92 0 7.43 0 7.61C0 7.49 0.5 7.59 1.51 7.92C1.51 7.92 1.65 7.92 1.65 7.74C1.65 7.74 1.65 7.57 1.51 7.57L0.29 6.86C0.29 6.86 1.53 5.25 4.5 5.25C6 5.25 7.53 5.73 9.09 6.69L12 5.25L12 5.5L10.5 7.5L12 9.5L12 9.75L9.09 8.44C9.09 8.44 3.69 11.6 0.15 8.09ZM3.6 6.94C3.6 6.63 3.35 6.38 3.04 6.38L2.96 6.38C2.65 6.38 2.4 6.63 2.4 6.94C2.4 7.25 2.65 7.5 2.96 7.5L3.04 7.5C3.35 7.5 3.6 7.25 3.6 6.94ZM3.15 13.34C3.15 13.17 3 12.68 3 12.86C3 12.74 3.5 12.84 4.51 13.17C4.51 13.17 4.65 13.17 4.65 12.99C4.65 12.99 4.65 12.82 4.51 12.82L3.29 12.11C3.29 12.11 4.53 10.5 7.5 10.5C9 10.5 10.53 10.98 12.09 11.94L15 10.5L15 10.75L13.5 12.75L15 14.75L15 15L12.09 13.69C12.09 13.69 6.69 16.85 3.15 13.34ZM6.6 12.19C6.6 11.88 6.35 11.63 6.04 11.63L5.96 11.63C5.65 11.63 5.4 11.88 5.4 12.19C5.4 12.5 5.65 12.75 5.96 12.75L6.04 12.75C6.35 12.75 6.6 12.5 6.6 12.19Z"/>
</svg>