<?xml version="1.0" encoding="UTF-8"?>
<svg viewBox="0 0 15 15" version="1.1" xmlns="http://www.w3.org/2000/svg" xmlns:xlink="http://www.w3.org/1999/xlink">
  <path d="M0.73 10.08L0.71 10.05C0.71 10.02 0.74 9.99 0.77 9.99L2.22 10C2.3 10 2.36 9.94 2.36 9.86C2.36 9.8 2.33 9.77 2.27 9.73L0.95 9.06C0.93 9.05 0.91 9.02 0.91 8.99C0.91 8.96 0.92 8.93 0.94 8.92C0.94 8.92 4.41 5.65 12.1 8.82L14.21 7.73C14.23 7.71 14.26 7.71 14.28 7.71C14.37 7.71 14.45 7.79 14.45 7.88C14.45 7.91 14.44 7.94 14.42 7.97L13.18 9.62L14.42 11.26C14.44 11.29 14.45 11.32 14.45 11.35C14.45 11.45 14.37 11.53 14.28 11.53C14.26 11.53 14.23 11.52 14.21 11.51L12.1 10.41C12.1 10.41 4.75 13.52 0.73 10.09L0.73 10.08ZM3.07 9.41C3.35 9.41 3.57 9.17 3.57 8.88C3.57 8.58 3.35 8.35 3.07 8.35C2.8 8.35 2.57 8.58 2.57 8.88C2.57 9.18 2.8 9.41 3.07 9.41L3.07 9.41ZM9.6 3.9L9.6 5.7L13.85 5.7C14.32 5.7 14.7 5.3 14.7 4.8C14.7 4.3 14.32 3.9 13.85 3.9L9.6 3.9ZM1.77 5.2L2.16 5.03L2.4 5.47L2.79 5.17L3.07 5.58L3.44 5.26L3.75 5.66L4.1 5.31L4.42 5.69L4.76 5.33L5.1 5.69L5.44 5.33L5.78 5.69L6.12 5.33L6.46 5.69L6.8 5.33L7.14 5.7L7.48 5.34L7.82 5.7L8.16 5.34L8.5 5.7L8.9 5.34L9.3 5.71L9.3 3.92L0.3 3.92L0.3 3.94C0.6 4.46 1.21 4.9 1.77 5.22L1.77 5.2Z"/>
</svg>