<?xml version="1.0" encoding="UTF-8"?>
<svg viewBox="0 0 15 15" version="1.1" xmlns="http://www.w3.org/2000/svg" xmlns:xlink="http://www.w3.org/1999/xlink">
  <path d="M6.43 3.21C3.21 3.21 0 5.36 0 7.5C0 9.64 3.21 11.79 6.43 11.79C8.83 11.76 11.79 9.64 11.79 7.5C11.79 5.36 8.57 3.21 6.43 3.21ZM11.79 7.5C11.79 9.64 13.54 11.01 15 11.79C15 9.64 14.29 8.93 13.93 7.5C14.29 6.07 15 5.36 15 3.21C13.68 3.93 11.79 5.36 11.79 7.5ZM3.2 5.36C3.78 5.35 4.27 5.81 4.29 6.4L4.29 6.43C4.29 7.02 3.81 7.5 3.22 7.5C2.63 7.5 2.15 7.03 2.14 6.44C2.14 5.85 2.61 5.37 3.2 5.36L3.2 5.36Z"/>
</svg>