<?xml version="1.0" encoding="UTF-8"?>
<svg viewBox="0 0 15 15" version="1.1" xmlns="http://www.w3.org/2000/svg" xmlns:xlink="http://www.w3.org/1999/xlink">
  <path d="M0.89 9.2L0.89 9.2C0.89 9.2 0.89 9.2 0.89 9.2C0.89 9.2 0.89 9.2 0.89 9.2L1.57 9.14C1.57 9.14 1.64 9.14 1.64 9.07C1.64 9.07 1.64 9 1.64 9L1.09 8.73C1.09 8.73 1.09 8.73 1.09 8.73C1.09 8.73 1.09 8.73 1.09 8.73L1.09 8.73C1.09 8.73 2.59 7.36 5.93 8.66L6.89 8.18C6.89 8.18 6.89 8.18 6.89 8.18C6.95 8.18 6.95 8.18 6.95 8.25C6.95 8.25 6.95 8.25 6.95 8.32L6.41 9L6.95 9.68C6.95 9.68 6.95 9.68 6.95 9.75C6.95 9.82 6.95 9.82 6.89 9.82C6.89 9.82 6.89 9.82 6.89 9.82L5.93 9.34C5.8 9.34 2.59 10.64 0.89 9.2ZM1.98 9.07C2.11 9.07 2.25 8.93 2.25 8.8C2.25 8.66 2.11 8.52 1.98 8.52C1.84 8.52 1.7 8.66 1.7 8.8C1.7 8.93 1.84 9.07 1.98 9.07Z"/>
  <path d="M8.39 9.2L8.39 9.2C8.39 9.2 8.39 9.2 8.39 9.2C8.39 9.2 8.39 9.2 8.39 9.2L9.07 9.14C9.07 9.14 9.14 9.14 9.14 9.07C9.14 9.07 9.14 9 9.07 9L8.52 8.73C8.52 8.73 8.52 8.73 8.52 8.73C8.52 8.73 8.52 8.73 8.52 8.73L8.52 8.73C8.52 8.73 10.02 7.36 13.43 8.66L14.32 8.18C14.32 8.18 14.32 8.18 14.32 8.18C14.39 8.18 14.39 8.18 14.39 8.25C14.39 8.25 14.39 8.25 14.39 8.32L13.84 9L14.39 9.68C14.39 9.68 14.39 9.68 14.39 9.75C14.39 9.82 14.39 9.82 14.32 9.82C14.32 9.82 14.32 9.82 14.32 9.82L13.43 9.34C13.36 9.34 10.16 10.64 8.39 9.2ZM9.55 9.07C9.68 9.07 9.82 8.93 9.82 8.8C9.82 8.66 9.68 8.52 9.55 8.52C9.41 8.52 9.27 8.66 9.27 8.8C9.2 8.93 9.34 9.07 9.55 9.07Z"/>
  <path d="M4.91 12.07L4.91 12.07C4.91 12 4.91 12 4.91 12.07C4.91 12 4.91 12 4.91 12.07L5.59 12C5.59 12 5.66 12 5.66 11.93C5.66 11.93 5.66 11.86 5.59 11.86L4.98 11.59C4.98 11.59 4.98 11.59 4.98 11.59C4.98 11.59 4.98 11.59 4.98 11.59L4.98 11.59C4.98 11.59 6.48 10.23 9.89 11.52L10.77 11.05C10.77 11.05 10.77 11.05 10.77 11.05C10.84 11.05 10.84 11.05 10.84 11.11C10.84 11.11 10.84 11.11 10.84 11.18L10.3 11.86L10.84 12.55C10.84 12.55 10.84 12.55 10.84 12.61C10.84 12.68 10.84 12.68 10.77 12.68C10.77 12.68 10.77 12.68 10.77 12.68L9.89 12.2C9.89 12.2 6.68 13.43 4.91 12.07ZM6.07 11.86C6.2 11.86 6.34 11.73 6.34 11.59C6.34 11.45 6.2 11.32 6.07 11.32C5.93 11.32 5.8 11.45 5.8 11.59C5.73 11.73 5.86 11.86 6.07 11.86Z"/>
  <path d="M13.64 4.57L15 2.86C15 2.86 15 2.8 15 2.8C15 2.73 14.93 2.59 14.8 2.59C14.8 2.59 14.73 2.59 14.73 2.59L12.41 3.75C4.02 0.48 0.27 3.82 0.27 3.82C0.27 3.82 0.27 3.89 0.27 3.89C0.27 3.95 0.27 3.95 0.34 3.95L1.77 4.64C1.84 4.64 1.84 4.7 1.84 4.77C1.84 4.84 1.77 4.91 1.7 4.91L0.07 4.91C0.07 4.91 0 4.91 0 4.98C0 4.98 0 4.98 0 5.05C4.36 8.59 12.41 5.39 12.41 5.39L14.73 6.55C14.73 6.55 14.8 6.55 14.8 6.55C14.86 6.55 15 6.48 15 6.34C15 6.27 15 6.27 15 6.27L13.64 4.57ZM2.73 4.77C2.32 4.77 2.05 4.5 2.05 4.09C2.05 3.68 2.32 3.41 2.73 3.41C3.14 3.41 3.41 3.68 3.41 4.09C3.41 4.5 3.14 4.77 2.73 4.77Z"/>
</svg>