<?xml version="1.0" encoding="UTF-8"?>
<svg xmlns="http://www.w3.org/2000/svg" viewBox="0 0 15 15">
  <path d="M4.99 1.58C5.04 1.31 4.85 1.05 4.58 1.01C4.31 0.96 4.05 1.15 4.01 1.42L2.01 13.42C1.96 13.69 2.15 13.95 2.42 13.99C2.69 14.04 2.95 13.85 2.99 13.58L3.66 9.56C4.47 9.68 5.34 9.72 6.03 10.2C6.45 10.51 6.94 10.7 7.46 10.78C8.42 10.93 9.29 10.4 10.24 10.55L11.53 10.74C11.79 10.78 12.06 10.58 12.1 10.32L12.98 4.39L12.99 4.38C13.02 4.12 12.82 3.86 12.56 3.82L11.27 3.63C10.31 3.48 9.44 4 8.49 3.86C8.06 3.79 7.65 3.63 7.3 3.38C6.56 2.86 5.68 2.78 4.81 2.66L4.99 1.58ZM4.4 5.12L4.73 3.15C5.33 3.23 5.97 3.28 6.52 3.52L6.23 5.48C5.66 5.25 5.01 5.2 4.4 5.12ZM3.75 9.07L4.07 7.1C4.69 7.18 5.35 7.22 5.93 7.46L6.23 5.49C6.89 5.76 7.39 6.22 8.13 6.33L8.43 4.35C9.16 4.46 9.77 4.17 10.48 4.11L10.18 6.08C9.47 6.14 8.86 6.44 8.12 6.33L7.84 8.31C7.1 8.2 6.6 7.73 5.94 7.46L5.64 9.44C5.04 9.2 4.38 9.16 3.75 9.07ZM7.84 8.31C8.57 8.42 9.19 8.12 9.9 8.06L10.18 6.08C10.84 6.02 11.51 6.19 12.15 6.29L11.87 8.26C11.23 8.17 10.56 8 9.9 8.06L9.6 10.03C8.89 10.08 8.27 10.39 7.54 10.28L7.84 8.31Z"/>
</svg>