<?xml version="1.0" encoding="UTF-8"?>
<svg viewBox="0 0 15 15" version="1.1" xmlns="http://www.w3.org/2000/svg" xmlns:xlink="http://www.w3.org/1999/xlink">
  <path d="M7.5 4C11.68 4 15 5.25 15 7.75C15 10.25 11.68 11.5 7.5 11.5C3.33 11.5 0 10.25 0 7.75C0 5.25 3.33 4 7.5 4ZM6.9 9.93C6.73 9.93 6.58 10.05 6.58 10.23C6.55 10.4 6.7 10.55 6.88 10.55C7.08 10.55 7.28 10.58 7.5 10.58C7.68 10.58 7.83 10.43 7.83 10.25C7.83 10.08 7.68 9.95 7.5 9.95C7.3 9.95 7.1 9.93 6.9 9.93ZM9.15 9.85C8.95 9.88 8.75 9.9 8.55 9.9C8.38 9.93 8.25 10.08 8.25 10.23C8.25 10.4 8.4 10.55 8.57 10.53C8.8 10.53 9 10.5 9.23 10.48C9.4 10.45 9.53 10.3 9.5 10.13C9.48 9.95 9.32 9.83 9.15 9.85ZM5.08 9.75C4.9 9.7 4.72 9.83 4.7 10C4.68 10.18 4.78 10.33 4.95 10.35C5.18 10.4 5.38 10.43 5.6 10.45C5.75 10.48 5.93 10.35 5.95 10.18C5.95 10 5.85 9.85 5.68 9.83C5.45 9.8 5.25 9.78 5.08 9.75ZM11.08 9.48C10.88 9.53 10.7 9.58 10.5 9.63C10.33 9.68 10.23 9.83 10.25 10C10.3 10.18 10.45 10.28 10.63 10.25C10.85 10.2 11.05 10.15 11.25 10.08C11.43 10.03 11.5 9.85 11.45 9.7C11.43 9.53 11.25 9.43 11.08 9.48ZM3.3 9.28C3.15 9.2 2.98 9.28 2.9 9.45C2.85 9.6 2.93 9.8 3.08 9.85C3.28 9.93 3.48 10 3.7 10.05C3.85 10.1 4.03 10.03 4.08 9.85C4.13 9.68 4.05 9.53 3.88 9.45C3.68 9.4 3.48 9.35 3.3 9.28ZM13.03 8.63L12.8 8.7C12.65 8.8 12.5 8.9 12.3 9C12.15 9.08 12.1 9.28 12.18 9.43C12.25 9.58 12.45 9.63 12.6 9.55C12.8 9.43 13 9.33 13.18 9.2C13.3 9.1 13.35 8.9 13.23 8.75L13.03 8.63ZM1.6 8.22L1.38 8.28C1.23 8.4 1.23 8.6 1.33 8.72C1.48 8.9 1.65 9.05 1.85 9.2C1.98 9.3 2.17 9.28 2.28 9.13C2.38 9 2.35 8.8 2.23 8.7C2.05 8.58 1.93 8.45 1.8 8.33L1.6 8.22ZM13.75 7L13.5 7C13.35 7.08 13.28 7.28 13.35 7.43C13.45 7.78 13.43 7.83 13.43 7.85C13.4 8.03 13.5 8.2 13.68 8.22C13.85 8.25 14.03 8.13 14.05 7.98C14.05 7.9 14.08 7.83 14.08 7.73C14.05 7.55 14 7.35 13.93 7.15L13.75 7ZM1.75 6.48L1.53 6.58C1.33 6.75 1.18 6.95 1.08 7.15C1 7.33 1.08 7.5 1.23 7.58C1.38 7.65 1.58 7.58 1.65 7.43C1.7 7.3 1.8 7.15 1.95 7.03C2.08 6.9 2.08 6.7 1.98 6.58L1.75 6.48ZM12 5.78L11.83 5.95C11.78 6.1 11.83 6.28 12 6.35C12.18 6.45 12.35 6.53 12.53 6.63C12.68 6.73 12.85 6.68 12.95 6.53C13.03 6.38 12.98 6.17 12.83 6.1C12.65 5.98 12.45 5.88 12.25 5.78L12 5.78ZM3.38 5.55C3.15 5.63 2.95 5.7 2.75 5.78C2.6 5.85 2.53 6.05 2.6 6.2C2.68 6.35 2.85 6.42 3.03 6.35C3.18 6.28 3.38 6.2 3.58 6.13C3.73 6.08 3.83 5.9 3.78 5.75C3.7 5.58 3.53 5.5 3.38 5.55ZM10.38 5.2C10.2 5.18 10.03 5.27 10 5.45C9.98 5.63 10.07 5.78 10.25 5.83C10.45 5.85 10.65 5.9 10.83 5.95C11 6 11.18 5.9 11.23 5.73C11.25 5.58 11.15 5.4 11 5.35C10.8 5.3 10.58 5.25 10.38 5.2ZM5.4 5.08C5.18 5.1 4.95 5.15 4.75 5.18C4.58 5.23 4.47 5.38 4.5 5.55C4.55 5.73 4.7 5.83 4.88 5.8C5.08 5.75 5.28 5.73 5.48 5.7C5.65 5.68 5.78 5.53 5.75 5.35C5.73 5.18 5.55 5.05 5.4 5.08ZM8.45 4.98C8.3 4.95 8.15 5.1 8.13 5.25C8.13 5.43 8.25 5.58 8.43 5.6C8.63 5.6 8.82 5.63 9.03 5.65C9.2 5.65 9.35 5.53 9.38 5.35C9.4 5.2 9.28 5.02 9.1 5.02C8.9 5 8.68 4.98 8.45 4.98ZM7.15 4.95C6.95 4.95 6.73 4.95 6.53 4.98C6.35 4.98 6.23 5.13 6.23 5.3C6.25 5.48 6.4 5.6 6.55 5.6C6.75 5.58 6.98 5.58 7.18 5.58C7.35 5.58 7.48 5.43 7.48 5.25C7.48 5.08 7.33 4.95 7.15 4.95Z"/>
</svg>