<?xml version="1.0" encoding="UTF-8"?>
<svg viewBox="0 0 15 15" version="1.1" xmlns="http://www.w3.org/2000/svg" xmlns:xlink="http://www.w3.org/1999/xlink">
  <path d="M1.4 0L0 5.16L3.07 5.16L3.07 13.8L1.62 13.8L1.62 15L5.71 15L5.71 13.8L4.27 13.8L4.27 5.16L7.33 5.16L5.92 0L1.4 0ZM12.05 0.58C11.48 0.58 10.98 0.96 10.83 1.5C10.73 1.48 10.63 1.47 10.52 1.46C10.19 1.46 9.86 1.6 9.62 1.84C9.38 2.08 9.25 2.4 9.25 2.74C9.25 3.14 9.44 3.52 9.77 3.76C9.44 4 9.25 4.38 9.25 4.78C9.25 5.12 9.38 5.45 9.62 5.69C9.86 5.92 10.19 6.06 10.52 6.06C10.63 6.06 10.74 6.04 10.84 6.02C10.97 6.38 11.25 6.68 11.61 6.81L11.61 9.27L9.15 9.27L10.28 15L13.88 15L15 9.27L12.48 9.27L12.48 6.81C12.89 6.66 13.2 6.31 13.29 5.89C13.43 5.94 13.58 5.96 13.73 5.97C14.06 5.97 14.39 5.83 14.63 5.59C14.87 5.35 15 5.03 15 4.69C15 4.34 14.85 4.01 14.6 3.77C14.85 3.53 15 3.19 15 2.84C15 2.5 14.87 2.18 14.63 1.94C14.39 1.7 14.06 1.57 13.73 1.57C13.58 1.57 13.44 1.59 13.3 1.64C13.2 1.03 12.67 0.58 12.05 0.58L12.05 0.58ZM12.12 2.79C12.38 2.79 12.62 2.89 12.8 3.06C12.97 3.24 13.07 3.48 13.07 3.74C13.07 3.99 12.97 4.23 12.8 4.41C12.62 4.58 12.38 4.68 12.12 4.68C11.87 4.68 11.63 4.58 11.45 4.41C11.28 4.23 11.18 3.99 11.18 3.74C11.18 3.48 11.28 3.24 11.45 3.06C11.63 2.89 11.87 2.79 12.12 2.79L12.12 2.79Z"/>
</svg>