<?xml version="1.0" encoding="UTF-8"?>
<svg xmlns="http://www.w3.org/2000/svg" viewBox="0 0 15 15">
  <path d="M12.02 12.5H14.5L12 15V12.52a1.62 1.62 0 0 1 -1.14 0.48a1.6 1.6 0 0 1 -0.99 -0.34A6.78 6.78 0 0 1 9.88 2.34A1.62 1.62 0 0 1 12 2.46V0l2.5 2.5H12.04a1.59 1.59 0 0 1 0.12 0.13a1.62 1.62 0 0 1 -0.29 2.28A3.51 3.51 0 0 0 10.75 7.5a3.56 3.56 0 0 0 1.15 2.62a1.64 1.64 0 0 1 0.23 2.28C12.09 12.43 12.05 12.46 12.02 12.5ZM2.5 0l-1 5.5c-0.15 0.81 1.78 1.18 1.75 2L3 14a0.96 0.96 0 0 0 1 1a0.96 0.96 0 0 0 1 -1l-0.25 -6.5c-0.03 -0.82 1.73 -1.18 1.75 -2l-1 -5.5h-0.5l0.25 4l-0.75 0.5L4.25 0h-0.5l-0.25 4.5L2.75 4l0.25 -4Z"/>
</svg>