<?xml version="1.0" encoding="UTF-8"?>
<svg viewBox="0 0 15 15" version="1.1" xmlns="http://www.w3.org/2000/svg" xmlns:xlink="http://www.w3.org/1999/xlink">
  <path d="M1.07 1.07L1.07 3.21L6.43 3.21L6.43 1.07L5.36 1.07L5.36 2.14L4.29 2.14L4.29 1.07L3.21 1.07L3.21 2.14L2.14 2.14L2.14 1.07L1.07 1.07ZM8.57 1.07L8.57 3.21L13.93 3.21L13.93 1.07L12.86 1.07L12.86 2.14L11.79 2.14L11.79 1.07L10.71 1.07L10.71 2.14L9.64 2.14L9.64 1.07L8.57 1.07ZM1.07 4.29L1.07 10.71L13.93 10.71L13.93 4.29L8.57 4.29L8.57 6.43L6.43 6.43L6.43 4.29L1.07 4.29ZM3.21 6.43L4.29 6.43L4.29 7.5L3.75 8.57L3.21 7.5L3.21 6.43ZM10.71 6.43L11.79 6.43L11.79 7.5L11.25 8.57L10.71 7.5L10.71 6.43ZM1.07 11.79L0 15L15 15L13.93 11.79L1.07 11.79Z"/>
</svg>