<?xml version="1.0" encoding="UTF-8"?>
<svg viewBox="0 0 15 15" version="1.1" xmlns="http://www.w3.org/2000/svg" xmlns:xlink="http://www.w3.org/1999/xlink">
  <path d="M9.11 4.29C9.11 4.29 1.07 6.43 1.07 7.5C1.07 8.57 7.5 9.64 7.5 10.71C7.5 11.79 0 15 0 15L9.64 15C9.64 15 13.93 11.79 13.93 10.71C13.93 9.64 6.43 8.57 6.43 7.5C6.43 6.43 10.18 4.29 10.18 4.29L9.11 4.29Z"/>
  <path d="M10.18 4.29L9.11 4.29C9.11 2.79 9.75 1.71 10.82 1.29C12.11 0.75 13.71 1.18 15 2.46L14.25 3.21C13.29 2.25 12.11 1.93 11.25 2.25C10.61 2.57 10.18 3.32 10.18 4.29Z"/>
  <path d="M10.18 4.29L9.11 4.29C9.11 3.21 8.68 2.46 8.04 2.25C7.18 1.93 6 2.25 5.04 3.21L4.29 2.46C5.57 1.18 7.18 0.75 8.46 1.29C9.54 1.71 10.18 2.89 10.18 4.29Z"/>
</svg>