<?xml version="1.0" encoding="UTF-8"?>
<svg viewBox="0 0 15 15" version="1.1" xmlns="http://www.w3.org/2000/svg" xmlns:xlink="http://www.w3.org/1999/xlink">
  <path d="M3.75 1.5C1.5 1.5 0.75 3.5 0.75 6C0.75 8 1.75 8 1.75 6C1.75 3.5 2.75 2.5 3.75 2.5C5.5 2.5 6.5 5.75 6.5 7C6.5 7 6.25 6.75 5.5 6.75C4.25 6.75 3.5 7.75 3.5 9.5C3.5 10.75 4.25 10.75 4.25 9.5C4.25 8.25 5 7.75 5.5 7.75C6 7.75 6.75 10 7 12C7.28 13.98 7.72 13.98 7.97 12C8.25 10 8.75 7.75 9.5 7.75C10 7.75 10.5 8.25 10.5 9C10.5 10.5 11.25 10.5 11.25 9C11.25 7.25 10.25 6.75 9.5 6.75C8.75 6.75 8.5 7 8.5 7C8.75 5.25 9.5 3 11 3C12.5 3 13.25 5 13.25 6.75C13.25 8.5 14.25 8.5 14.25 6.75C14.25 3.5 12.75 2 11 2C8.75 2 7.75 4.5 7.5 6C7.25 4 6.25 1.5 3.75 1.5Z"/>
</svg>