<?xml version="1.0" encoding="UTF-8"?>
<svg viewBox="0 0 15 15" xmlns="http://www.w3.org/2000/svg">
  <path d="M14 6v5.5c0 0.28 -0.22 0.5 -0.5 0.5s-0.5 -0.22 -0.5 -0.5v-2c0 -0.83 -0.67 -1.5 -1.5 -1.5h-1.5v-6c0 -0.55 -0.45 -1 -1 -1h-6c-0.55 0 -1 0.45 -1 1v11c0 0.55 0.45 1 1 1h6c0.55 0 1 -0.45 1 -1v-4h1.5c0.28 0 0.5 0.22 0.5 0.5v2c0 0.83 0.67 1.5 1.5 1.5s1.5 -0.67 1.5 -1.5v-6.5c0 -0.55 -0.45 -1 -1 -1v-1.51c-0.01 -0.27 -0.23 -0.49 -0.5 -0.49c-0.28 0 -0.51 0.24 -0.5 0.52c0 0.01 0 0.02 0 0.03v2.45c0 0.55 0.45 1 1 1s1 -0.45 1 -1s-0.45 -1 -1 -1zm-5 0.5c0 0.28 -0.22 0.5 -0.5 0.5h-5c-0.28 0 -0.5 -0.22 -0.5 -0.5v-3c0 -0.28 0.22 -0.5 0.5 -0.5h5c0.28 0 0.5 0.22 0.5 0.5z"/>
</svg>