<?xml version="1.0" encoding="UTF-8"?>
<svg viewBox="0 0 15 15" version="1.1" xmlns="http://www.w3.org/2000/svg" xmlns:xlink="http://www.w3.org/1999/xlink">
  <path d="M5.43 7.36L2.67 5.81L3.63 4.12L6.39 5.68L5.43 7.36ZM10.94 8.8L6.28 6.17L5.8 7.01L10.46 9.64L10.94 8.8ZM11.51 9.12L11.03 9.96L13.43 11.32L13.91 10.48L11.51 9.12ZM10.86 9.96C10.82 10.03 10.72 10.04 10.64 10C10.55 9.95 10.51 9.86 10.55 9.79L11.11 8.8C11.15 8.74 11.25 8.72 11.33 8.77C11.42 8.82 11.46 8.91 11.42 8.98L10.86 9.97L10.86 9.96ZM14.41 10.5C14.31 10.45 14.21 10.43 14.11 10.43L13.49 11.51C13.54 11.6 13.61 11.67 13.71 11.73C13.98 11.88 14.33 11.79 14.48 11.53L14.63 11.25C14.78 10.99 14.69 10.66 14.41 10.5L14.41 10.5ZM6.66 5.36C6.59 5.49 6.42 5.53 6.29 5.46L3.87 4.1C3.74 4.03 3.7 3.86 3.77 3.73C3.84 3.6 4.01 3.56 4.14 3.63L6.55 5C6.68 5.07 6.73 5.23 6.65 5.36L6.66 5.36ZM7 4.77C6.92 4.9 6.76 4.94 6.63 4.87L4.21 3.51C4.08 3.44 4.04 3.27 4.11 3.14C4.18 3.01 4.34 2.96 4.48 3.04L6.89 4.4C7.03 4.48 7.07 4.64 7 4.77L7 4.77ZM4.95 8.35C4.88 8.48 4.71 8.52 4.58 8.45L2.17 7.09C2.04 7.01 1.99 6.85 2.06 6.72C2.14 6.59 2.3 6.55 2.43 6.62L4.85 7.98C4.98 8.06 5.03 8.22 4.95 8.35ZM5.29 7.76C5.22 7.89 5.06 7.93 4.92 7.86L2.51 6.5C2.38 6.42 2.33 6.26 2.4 6.13C2.48 6 2.64 5.96 2.77 6.03L5.19 7.39C5.32 7.47 5.37 7.63 5.29 7.76L5.29 7.76ZM1.24 10.18L5.5 10.18L5.5 10.67L1.24 10.67L1.24 10.18ZM6.43 11.2C6.4 11.04 6.26 10.91 6.09 10.91L0.65 10.91C0.48 10.91 0.34 11.04 0.31 11.2L0.31 11.2L0.31 12L6.44 12L6.44 11.2L6.44 11.2L6.43 11.2Z"/>
</svg>