<?xml version="1.0" encoding="UTF-8"?>
<svg viewBox="0 0 15 15" version="1.1" xmlns="http://www.w3.org/2000/svg" xmlns:xlink="http://www.w3.org/1999/xlink">
  <path d="M13.78 8.69L13.75 8.6C13.64 8.32 13.52 7.98 13.19 7.78C12.97 7.65 12.7 7.6 12.47 7.56C12.35 7.54 12.24 7.52 12.14 7.49L12.05 7.46L12.04 7.45C11.11 6.7 9.22 6.68 8.05 5.63C6.36 4.11 5.01 2.58 3.49 0.3L1.58 1.82C1.45 1.93 1.2 2.01 1.2 2.39C1.2 2.58 1.39 2.61 1.62 2.54L2.69 2.21L5.7 6.39L5.7 8.67C5.7 9.2 5.69 9.68 6.14 9.95L5.01 14.7L5.77 14.7L6.48 12.45L7.2 11.33L7.2 14.7L8.1 14.7L8.1 10.95C8.1 10.95 8.09 10.19 8.85 10.19L9.6 10.95L9.6 14.71L10.2 14.71L10.2 11.71L11.85 14.71L12.62 14.71C12.23 13.51 11.7 13.61 11.7 12.47L11.7 11.72C11.7 10.92 12.6 10.19 12.6 9.44L12.6 8.68C12.6 8.5 12.58 8.34 12.54 8.19C12.67 8.22 12.79 8.25 12.89 8.31C13.03 8.39 13.11 8.61 13.19 8.82L13.22 8.91C13.28 9.07 13.45 9.14 13.61 9.08L13.61 9.08C13.76 9.02 13.84 8.85 13.78 8.7L13.78 8.69Z"/>
</svg>