<?xml version="1.0" encoding="UTF-8"?>
<svg viewBox="0 0 15 15" version="1.1" xmlns="http://www.w3.org/2000/svg" xmlns:xlink="http://www.w3.org/1999/xlink">
  <path d="M3.21 0L3.21 4.29L10.71 4.29L10.71 0L7.5 0L7.5 2.14L6.43 2.14L6.43 0L3.21 0ZM0 5.36L0 10.71L5.36 10.71L5.36 5.36L3.21 5.36L3.21 7.5L2.14 7.5L2.14 5.36L0 5.36ZM6.43 5.36L6.43 10.71L15 10.71L15 5.36L6.43 5.36ZM0 11.79C0 12.86 0 13.93 0 15L2.14 15L2.14 12.86L6.43 12.86L6.43 15L8.57 15L8.57 12.86L12.86 12.86L12.86 15L15 15C15 13.93 15 12.86 15 11.79L0 11.79Z"/>
</svg>