<?xml version="1.0" encoding="UTF-8"?>
<svg viewBox="0 0 15 15" version="1.1" xmlns="http://www.w3.org/2000/svg" xmlns:xlink="http://www.w3.org/1999/xlink">
  <path d="M12.67 7.59C12.77 7.46 12.99 7.32 13.14 7.27L14.43 6.74C14.58 6.67 14.7 6.47 14.7 6.31L14.7 2.63C14.7 2.47 14.57 2.28 14.42 2.23C14.42 2.23 11.72 1.2 9.92 1.2C8.24 1.2 5.92 2.09 5.92 2.09C5.76 2.15 5.5 2.21 5.34 2.23L0.6 2.74C0.43 2.76 0.3 2.91 0.3 3.08L0.3 5.57C0.3 5.74 0.43 5.9 0.59 5.93L5.33 6.69C5.5 6.72 5.76 6.79 5.91 6.85L9.16 7.68C9.32 7.7 9.5 7.85 9.55 8.01L11.46 13.52C11.51 13.67 11.69 13.76 11.84 13.71L13.86 13.03C14.01 12.98 14.1 12.81 14.04 12.65L12.72 8.83C12.67 8.68 12.62 8.54 12.62 8.53L12.62 8.52C12.46 7.87 12.67 7.6 12.67 7.6L12.67 7.59ZM10.37 5.61C9.62 5.61 9.01 5.01 9.01 4.27C9.01 3.53 9.62 2.93 10.37 2.93C11.12 2.93 11.73 3.53 11.73 4.28C11.73 5.02 11.12 5.62 10.37 5.62L10.37 5.61Z"/>
</svg>