<?xml version="1.0" encoding="UTF-8"?>
<svg viewBox="0 0 15 15" version="1.1" xmlns="http://www.w3.org/2000/svg" xmlns:xlink="http://www.w3.org/1999/xlink">
  <path d="M5.66 2.32C6.14 2.32 6.55 1.84 6.48 1.36C6.41 0.82 6 0.48 5.45 0.55C4.98 0.55 4.57 1.02 4.64 1.5C4.7 2.05 5.11 2.39 5.66 2.32Z"/>
  <path d="M7.5 5.18L5.11 2.59C5.11 2.52 5.05 2.52 4.98 2.45C4.64 2.18 4.23 2.11 3.82 2.39L1.64 3.75C1.36 3.89 1.23 4.16 1.23 4.5C1.23 4.57 1.23 4.64 1.23 4.7C1.23 4.7 1.23 4.7 1.23 4.7C1.23 4.77 1.23 4.77 1.23 4.84L1.23 4.84C1.23 4.91 1.3 4.98 1.3 5.05C1.3 5.05 1.3 5.05 1.3 5.11L1.84 6.2L0.68 7.64C0.48 7.91 0.55 8.25 0.75 8.45C1.02 8.66 1.36 8.59 1.57 8.39L2.93 6.68C2.93 6.68 2.93 6.61 3 6.61C3 6.55 3.07 6.55 3.07 6.48C3.07 6.41 3.07 6.41 3.07 6.34C3.07 6.27 3.07 6.27 3.07 6.2C3.07 6.14 3.07 6.14 3.07 6.07L3.07 6.07C3.41 6.34 3.75 6.55 3.89 6.68C3.89 7.16 3.82 8.86 3.82 8.86C3.82 9.2 4.09 9.41 4.36 9.41C4.7 9.41 4.91 9.14 4.98 8.86L5.05 6.41C5.05 6.2 4.98 6.07 4.84 5.93L3.41 4.91L5.05 3.89L6.82 5.8C6.95 6 7.3 6 7.43 5.8C7.64 5.66 7.64 5.39 7.5 5.18Z"/>
  <path d="M0.07 14.45C0.41 14.45 0.68 14.39 0.95 14.25C1.23 14.11 1.57 14.05 1.91 14.05C2.25 14.05 2.59 14.11 2.86 14.25C3.14 14.39 3.48 14.45 3.75 14.45C4.09 14.45 4.36 14.39 4.64 14.25C4.91 14.11 5.25 14.05 5.59 14.05C5.93 14.05 6.27 14.11 6.55 14.25C6.82 14.39 7.16 14.45 7.43 14.45C7.77 14.45 8.05 14.39 8.32 14.25C8.59 14.11 8.93 14.05 9.27 14.05C9.61 14.05 9.95 14.11 10.23 14.25C10.5 14.39 10.84 14.45 11.11 14.45C11.45 14.45 11.73 14.39 12 14.25C12.27 14.11 12.61 14.05 12.95 14.05C13.3 14.05 13.64 14.11 13.91 14.25C14.18 14.39 14.52 14.45 14.8 14.45L14.8 13.09C14.45 13.09 14.18 13.02 13.91 12.89C13.64 12.75 13.3 12.68 12.95 12.68C12.61 12.68 12.27 12.75 12 12.89C11.73 13.02 11.39 13.09 11.11 13.09C10.77 13.09 10.5 13.02 10.23 12.89C9.95 12.75 9.61 12.68 9.27 12.68C8.93 12.68 8.59 12.75 8.32 12.89C8.05 13.02 7.77 13.09 7.43 13.09C7.09 13.09 6.82 13.02 6.55 12.89C6.27 12.75 5.93 12.68 5.59 12.68C5.25 12.68 4.91 12.75 4.64 12.89C4.36 13.02 4.09 13.09 3.75 13.09C3.41 13.09 3.14 13.02 2.86 12.89C2.59 12.75 2.25 12.68 1.91 12.68C1.57 12.68 1.3 12.75 0.95 12.89C0.68 13.02 0.34 13.09 0.07 13.09L0.07 14.45Z"/>
  <path d="M0.07 12C0.34 12 0.55 11.93 0.75 11.86C1.09 11.73 1.5 11.59 1.91 11.59C2.32 11.59 2.66 11.66 3 11.86C3.2 11.93 3.48 12 3.68 12C3.95 12 4.16 11.93 4.36 11.86C4.77 11.73 5.18 11.59 5.52 11.59C5.93 11.59 6.27 11.66 6.61 11.86C6.82 11.93 7.09 12 7.3 12C7.57 12 7.77 11.93 7.98 11.86C8.18 11.73 8.45 11.66 8.73 11.66L7.5 10.77L5.73 10.7L4.5 9.82L2.18 8.93L0 8.66L0.07 12L0.07 12Z"/>
  <path d="M14.39 9.82L11.18 8.25C11.39 8.18 11.52 8.05 11.52 7.84C11.52 7.57 11.32 7.43 11.11 7.43C10.91 7.43 10.7 7.64 10.7 7.84C10.7 7.91 10.7 7.98 10.77 8.05L7.5 6.48C6.95 6.2 6.34 6.41 6.07 6.95L15 11.18C15.14 10.64 14.93 10.02 14.39 9.82ZM10.84 7.84C10.84 7.7 10.91 7.64 11.05 7.64C11.18 7.64 11.25 7.7 11.25 7.84C11.25 7.98 11.18 8.05 11.05 8.05C10.98 8.05 10.84 7.98 10.84 7.84Z"/>
  <path d="M5.86 7.3C5.8 7.77 6 8.25 6.48 8.45L13.43 11.8C13.91 12 14.39 11.86 14.73 11.52L5.86 7.3Z"/>
</svg>