<?xml version="1.0" encoding="UTF-8"?>
<svg viewBox="0 0 15 15" version="1.1" xmlns="http://www.w3.org/2000/svg" xmlns:xlink="http://www.w3.org/1999/xlink">
  <path d="M11.57 0.11C10.82 0.96 9.86 1.82 8.36 2.46C5.79 3.43 3.64 3.75 3.64 3.75L3.64 3.75L1.07 4.18C0.64 4.29 0.32 4.61 0.43 5.04C0.54 5.36 0.75 5.57 1.18 5.57C1.18 5.57 1.29 5.57 1.29 5.57L3.86 5.14C3.86 5.14 3.86 5.14 3.86 5.14C3.86 5.14 3.86 5.14 3.86 5.25C3.86 5.25 3.86 5.25 3.86 5.25C2.04 6.11 0.43 6.96 0.32 7.07C0 7.29 -0.11 7.71 0.11 8.04C0.21 8.25 0.54 8.36 0.75 8.36C0.86 8.36 0.96 8.36 1.07 8.25C1.07 8.25 2.79 7.29 4.82 6.43C4.82 6.43 4.82 6.43 4.82 6.43C4.82 6.43 4.93 6.43 4.82 6.54C4.82 6.54 4.82 6.54 4.82 6.54C3.75 7.18 2.46 8.25 1.61 9.64C1.39 9.96 1.5 10.5 1.82 10.71C1.93 10.71 2.04 10.82 2.14 10.82C2.36 10.82 2.57 10.71 2.79 10.5C3.32 9.64 4.07 8.89 4.82 8.36C4.82 8.36 6.75 6.64 8.68 7.07C10.61 7.39 9.86 8.89 9.75 9.75C9.64 10.61 10.07 11.04 10.39 11.14C10.5 11.14 10.5 11.14 10.61 11.25C10.82 11.25 10.93 11.04 10.93 11.04C10.93 11.04 10.93 10.93 10.93 10.93C12 6.96 13.5 4.29 15 2.36L11.57 0.11Z"/>
  <path d="M11.25 13.93L10.5 13.93L9.32 12.64L8.14 13.93L7.39 13.93L5.46 12L3.54 13.93L2.89 13.93L1.61 12.86L0.43 14.14L0.43 14.89L7.39 14.89L14.36 14.89L14.36 14.14L12.64 11.89z"/>
</svg>