<?xml version="1.0" encoding="UTF-8"?>
<svg viewBox="0 0 15 15" version="1.1" xmlns="http://www.w3.org/2000/svg" xmlns:xlink="http://www.w3.org/1999/xlink">
  <path d="M14.4 4.45C13.6 4.9 13.15 5.1 12.3 5.05C12 5.05 11.8 4.9 11.5 4.95C11.2 4.95 11.05 5.05 10.75 5.15C10.3 5.3 10.05 5.4 9.6 5.55C9.3 5.65 9.1 5.65 8.8 5.75C8.55 5.85 8.65 5.75 8.5 6C8.25 6.25 8.3 6.45 8.1 6.9C7.8 7.5 7.85 7.55 8 7.65C7.9 7.95 7.85 8.15 7.9 8.5C7.95 8.75 7.8 8.9 8.1 9.1C8.45 9.35 9.25 10 9.45 10C9.75 10 10.6 10 11.05 9.7C11.15 9.65 11.2 9.6 11.1 9.8C11.1 9.85 10 10.65 9.9 10.65C8.55 10.7 9 10.75 8.9 10.75C8.85 10.75 8.2 9.95 7.8 10.25C7.65 10.35 7.6 10.45 7.55 10.6C7.6 10.7 7.85 10.85 8.05 11C8.35 11.2 8.4 11.4 8.7 11.5C9.1 11.6 9.5 11.55 9.75 11.55C9.85 11.6 10.7 11.35 11.25 11.05C11.75 10.8 10.55 11.55 10.3 11.9C9.45 12.15 9.7 12.2 9.25 12.25C8.85 12.35 8.9 12.3 8.65 12.4C8.4 12.45 8.15 12.85 8.4 13C8.55 13.15 9.05 12.95 9.5 12.95C9.7 12.95 10.55 12.55 10.75 12.45C11.25 12.2 11.6 11.85 11.85 11.65C12.1 11.45 11.25 12.45 10.9 12.9C10.8 13.05 10.75 13.05 10.65 13.25C10.45 13.5 10.7 13.95 10.85 13.85C11 13.8 11.1 13.5 11.3 13.4C11.4 13.35 11.6 13 11.85 12.8C12 12.6 12.15 12.55 12.3 12.35C12.55 12.05 12.6 11.8 12.85 11.45C13 11.25 13.1 11.2 13.2 11C13.85 9.75 13.65 9.15 14.3 8.25C14.5 8 14.7 7.9 15.05 7.75C15.35 5.65 14.4 4.45 14.4 4.45ZM11.25 7.8C11.05 8.35 11.1 8.4 10.8 8.6C10.4 8.85 10.4 8.65 9.6 9.1C9.6 9.1 9.25 8.75 8.75 8.6C8.75 8.6 8.6 7.95 8.3 7.7C8.95 7.2 8.95 6.75 9.15 6.75C9.4 6.75 9.8 6.85 10.5 6.6C10.9 7.4 11.4 7.35 11.25 7.8Z"/>
  <path d="M7.15 4C6.85 3.8 6.8 3.55 6.5 3.5C6.1 3.4 5.7 3.45 5.45 3.4C5.35 3.4 4.5 3.65 3.95 3.9C3.45 4.15 4.6 3.4 4.9 3.05C5.75 2.8 5.5 2.8 5.95 2.7C6.35 2.6 6.3 2.65 6.55 2.55C6.8 2.5 7.05 2.1 6.8 1.9C6.65 1.8 6.15 1.95 5.7 1.95C5.5 1.95 4.65 2.35 4.45 2.45C3.95 2.7 3.6 3.05 3.35 3.25C2.9 3.55 3.75 2.55 4.1 2.1C4.2 1.95 4.25 1.95 4.4 1.75C4.6 1.5 4.3 1.1 4.2 1.15C4.05 1.2 3.95 1.5 3.75 1.65C3.65 1.65 3.45 2 3.2 2.25C3.05 2.4 2.95 2.5 2.8 2.7C2.55 3 2.5 3.25 2.25 3.55C2.1 3.75 2 3.8 1.9 4.05C1.25 5.3 1.4 5.9 0.8 6.75C0.6 7.05 0.4 7.1 0.05 7.25C-0.25 9.35 0.7 10.55 0.7 10.5C1.5 10.05 1.95 9.85 2.8 9.9C3.1 9.9 3.3 10.05 3.6 10.05C3.9 10.05 4.05 9.9 4.35 9.85C4.8 9.7 5.05 9.6 5.5 9.45C5.8 9.35 6 9.35 6.3 9.25C6.55 9.15 6.45 9.25 6.6 9.05C6.85 8.8 6.8 8.55 7 8.15C7.3 7.55 7.25 7.45 7.1 7.4C7.2 7.1 7.25 6.9 7.2 6.55C7.15 6.3 7.3 6.1 7 5.95C6.65 5.65 5.85 5.05 5.7 5.05C5.4 5.05 4.55 5 4.1 5.3C4 5.4 3.95 5.45 4.05 5.2C4.05 5.15 5.15 4.35 5.25 4.3C6 4.25 6.2 4.25 6.25 4.25C6.25 4.25 6.25 4.25 6.25 4.25C6.25 4.25 6.25 4.25 6.25 4.25C6.3 4.25 6.95 5.05 7.35 4.75C7.5 4.65 7.55 4.55 7.65 4.4C7.6 4.3 7.35 4.1 7.15 4ZM4.2 6.4C4.55 6.15 4.6 6.35 5.4 5.9C5.4 5.9 5.75 6.25 6.25 6.4C6.25 6.4 6.4 7.05 6.7 7.3C6.05 7.85 6.05 8.25 5.85 8.3C5.6 8.25 5.2 8.15 4.5 8.4C4.1 7.6 3.6 7.65 3.75 7.2C3.95 6.65 3.9 6.6 4.2 6.4Z"/>
</svg>