<?xml version="1.0" encoding="UTF-8"?>
<svg viewBox="0 0 15 15" version="1.1" xmlns="http://www.w3.org/2000/svg" xmlns:xlink="http://www.w3.org/1999/xlink">
  <path d="M8.65 8.62C9.05 8.75 9.47 8.55 9.6 8.17C9.74 7.79 9.53 7.38 9.14 7.25C8.75 7.12 8.33 7.32 8.2 7.7C8.06 8.08 8.27 8.49 8.66 8.62L8.65 8.62ZM14.76 3.89C14.76 3.89 12.24 3.6 7.01 3.6C3.15 3.6 0 3.89 0 3.89C0 3.89 1.31 4.46 1.08 6.19C1.08 6.19 2.96 5.97 3.74 7.54L7.26 6.5L7.03 8.79L5.54 9.14C5.41 9.17 5.3 9.24 5.21 9.32L1.94 12.39C1.74 12.57 1.74 12.87 1.93 13.05C2.11 13.24 2.42 13.25 2.61 13.07L5.07 10.76L8.08 10.04L8.06 10.05L8.56 9.92L9.02 10.44C9.1 10.51 9.2 10.56 9.31 10.56L10.93 10.57C11.13 10.57 11.3 10.4 11.3 10.2C11.3 10.03 11.18 9.89 11.01 9.85L9.8 5.75L14.84 4.27C15.08 4.17 15.05 3.93 14.76 3.9L14.76 3.89ZM10.65 9.83C10.28 9.83 9.66 9.83 9.48 9.83L8.6 8.87L8.57 8.84C8.39 8.64 8.11 8.54 7.83 8.6L7.39 8.71L7.63 6.39L9.47 5.85L10.65 9.83L10.65 9.83Z"/>
</svg>