<?xml version="1.0" encoding="UTF-8"?>
<svg viewBox="0 0 15 15" version="1.1" xmlns="http://www.w3.org/2000/svg" xmlns:xlink="http://www.w3.org/1999/xlink">
  <path d="M7.5 1.07C4.54 1.07 2.14 3.47 2.14 6.43C0.96 6.43 0 7.38 0 8.57L0 10.71C0 11.9 0.96 12.86 2.14 12.86L3.21 12.86L3.21 6.43C3.21 4.06 5.13 2.14 7.5 2.14C8.64 2.14 9.73 2.59 10.53 3.4C11.33 4.2 11.79 5.29 11.79 6.43L11.79 12.86L12.86 12.86C14.04 12.86 15 11.9 15 10.71L15 8.57C15 7.38 14.04 6.43 12.86 6.43C12.86 5.01 12.29 3.65 11.29 2.64C10.28 1.64 8.92 1.07 7.5 1.07L7.5 1.07ZM7.5 5.31C6.83 5.31 6.28 5.86 6.28 6.53C6.28 7.2 6.83 7.75 7.5 7.75C8.17 7.75 8.72 7.2 8.72 6.53C8.72 5.86 8.17 5.31 7.5 5.31L7.5 5.31ZM8.31 8.55L5.89 9.36L5.89 10.16L6.63 10.16L6.69 14.19L5.89 14.19L5.89 15L9.11 15L9.11 14.19L8.31 14.19L8.31 8.55Z"/>
</svg>