<?xml version="1.0" encoding="UTF-8"?>
<svg viewBox="0 0 15 15" xmlns="http://www.w3.org/2000/svg">
  <path d="M1.55 7.34c-2.39 -4.6 3.63 -7.66 5.95 -3.06c2.32 -4.6 8.34 -1.53 5.95 3.06c-0.09 0.17 -0.2 0.35 -0.31 0.52h-1.81l-1.81 -2.72c-0.06 -0.09 -0.15 -0.17 -0.25 -0.22c-0.1 -0.05 -0.22 -0.07 -0.33 -0.06c-0.11 0.01 -0.22 0.05 -0.31 0.12c-0.09 0.07 -0.16 0.16 -0.2 0.27l-1.65 4.12l-1.33 -1.33c-0.12 -0.12 -0.28 -0.18 -0.44 -0.18h-3.14c-0.11 -0.18 -0.22 -0.35 -0.31 -0.52zm9.45 1.77c-0.1 0 -0.2 -0.03 -0.3 -0.07c-0.09 -0.05 -0.17 -0.12 -0.23 -0.2l-1.34 -2.01l-1.56 3.9c-0.04 0.1 -0.1 0.18 -0.18 0.25c-0.08 0.07 -0.17 0.11 -0.28 0.13c-0.04 0.01 -0.08 0.01 -0.13 0.01c-0.17 0 -0.32 -0.07 -0.44 -0.18l-1.82 -1.82h-2.01c1.37 1.67 2.86 3.23 4.46 4.67c0.09 0.08 0.2 0.12 0.31 0.12s0.23 -0.04 0.31 -0.12c1.6 -1.44 3.09 -3.01 4.45 -4.67z"/>
</svg>