<?xml version="1.0" encoding="UTF-8"?>
<svg viewBox="0 0 15 15" version="1.1" xmlns="http://www.w3.org/2000/svg" xmlns:xlink="http://www.w3.org/1999/xlink">
  <path d="M5.89 1.09C5.01 1.09 4.29 1.81 4.29 2.7C4.29 3.58 5.01 4.3 5.89 4.3C6.78 4.3 7.5 3.58 7.5 2.7C7.5 1.81 6.78 1.09 5.89 1.09ZM10.71 2.14L8.57 3.21L11.79 9.64L13.93 8.57L10.71 2.14ZM8.57 4.29L6.43 5.36L6.74 6.93L4.29 8.57L1.07 7.5L1.07 8.57L4.29 10.71L7.12 8.82L7.5 10.71L10.71 9.64L8.57 4.29ZM1.07 9.64L1.07 15L2.14 15L2.14 9.64L1.07 9.64ZM10.71 10.71L7.5 11.79L5.36 15L7.32 15L8.96 12.86L9.64 15L11.79 15L10.71 10.71Z"/>
</svg>