<?xml version="1.0" encoding="UTF-8"?>
<svg viewBox="0 0 15 15" version="1.1" xmlns="http://www.w3.org/2000/svg" xmlns:xlink="http://www.w3.org/1999/xlink">
  <path d="M7.5 0L0 3.75L0 5.89L1.61 5.2L1.61 15L3.21 15L3.21 4.5L7.5 2.68L11.79 4.5L11.79 15L13.39 15L13.39 5.2L15 5.89L15 3.75L7.5 0ZM7.47 5.41C7.05 5.41 6.72 5.75 6.72 6.16C6.72 6.58 7.05 6.92 7.47 6.92C7.89 6.92 8.22 6.58 8.22 6.16C8.22 5.75 7.89 5.41 7.47 5.41ZM5.41 6.63C5.29 6.6 5.18 6.67 5.15 6.79L4.62 8.97C4.59 9.09 4.67 9.2 4.78 9.23L5.41 9.38C5.52 9.41 5.64 9.34 5.67 9.23L6.2 7.04C6.22 6.93 6.15 6.81 6.04 6.78L5.41 6.63ZM7.25 7.03C6.64 7.02 6.48 7.66 6.48 7.66L4.89 14.36C4.88 14.4 4.88 14.43 4.88 14.47C4.88 14.76 5.12 15 5.41 15C5.65 15 5.85 14.84 5.92 14.62L6.83 10.85L7.69 14.6C7.75 14.83 7.96 15 8.21 15C8.5 15 8.74 14.76 8.74 14.47C8.74 14.43 8.73 14.39 8.73 14.35L7.54 9.37L7.64 8.94L7.71 9.28C7.78 9.51 7.99 9.53 7.99 9.53L9.22 9.84C9.24 9.84 9.27 9.85 9.29 9.85C9.49 9.85 9.65 9.69 9.65 9.49C9.65 9.31 9.54 9.17 9.38 9.13L8.31 8.86L8.02 7.68C7.88 7.02 7.25 7.03 7.25 7.03ZM10.53 7.8C10.44 7.8 10.38 7.87 10.36 7.95L9.09 14.81C9.09 14.82 9.09 14.82 9.09 14.82C9.09 14.92 9.17 15 9.27 15C9.35 15 9.43 14.93 9.44 14.85L10.7 7.98L10.7 7.97C10.7 7.88 10.63 7.8 10.53 7.8Z"/>
</svg>