<?xml version="1.0" encoding="UTF-8"?>
<svg xmlns="http://www.w3.org/2000/svg" viewBox="0 0 15 15">
  <path d="M6 1A1 1 0 1 1 7 2A1 1 0 0 1 6 1ZM8 3.5a0.48 0.48 0 0 0 0 -0.06A0.47 0.47 0 0 0 7.5 3h-1a0.48 0.48 0 0 0 -0.06 0A0.47 0.47 0 0 0 6 3.5V7H8Zm6.85 3.64L12.8 4.8l0.09 -0.51a0.48 0.48 0 0 0 0.01 -0.06a0.25 0.25 0 0 0 -0.25 -0.25a0.35 0.35 0 0 0 -0.16 0.06L9 7H8L9 8V9.5a0.5 0.5 0 0 1 -1 0v-1L6 7H4a1.5 1.5 0 0 0 -1.24 0.66A1.47 1.47 0 0 0 1.56 7H1.5A1.45 1.45 0 0 0 0 8.4v0.09A3.78 3.78 0 0 0 0.56 10.4a0.28 0.28 0 0 0 0.19 0.1A0.25 0.25 0 0 0 1 10.25V9s-0.02 -0.92 0.75 -1c0.5 -0.05 0.75 0.25 0.75 0.5V11L2 13v1.75a0.25 0.25 0 0 0 0.25 0.25a0.25 0.25 0 0 0 0.25 -0.23V13L4 11v1l0.5 2.8a0.26 0.26 0 0 0 0.25 0.2A0.25 0.25 0 0 0 5 14.75H5L4.86 12.3L5.5 11H8v1l0.51 2.81A0.26 0.26 0 0 0 8.75 15A0.25 0.25 0 0 0 9 14.75V12l0.37 -1a1.16 1.16 0 0 0 0.54 -0.6l2.16 -3.77a0.86 0.86 0 0 0 1.02 0.4l1.07 0.82a0.59 0.59 0 0 0 0.35 0.14a0.49 0.49 0 0 0 0.48 -0.4A0.55 0.55 0 0 0 14.85 7.14Z"/>
</svg>