<?xml version="1.0" encoding="UTF-8"?>
<svg viewBox="0 0 15 15" version="1.1" xmlns="http://www.w3.org/2000/svg" xmlns:xlink="http://www.w3.org/1999/xlink">
  <path d="M14.2175144,4.31801948 C14.998563,5.09906807 14.998563,6.36539803 14.2175144,7.14644661 L7.14644661,14.2175144 C6.36539803,14.998563 5.09906807,14.998563 4.31801948,14.2175144 L14.216,4.318 Z M14.2175144,0.782485579 C14.8033009,1.36827202 14.8033009,2.31801948 14.2175144,2.90380592 L2.90380592,14.2175144 C2.31801948,14.8033009 1.36827202,14.8033009 0.782485579,14.2175144 C0.196699141,13.631728 0.196699141,12.6819805 0.782485579,12.0961941 L12.0961941,0.782485579 C12.6819805,0.196699141 13.631728,0.196699141 14.2175144,0.782485579 Z M12.3283133,2.32350799 C12.0078236,2.19531211 11.644092,2.35119705 11.5158961,2.67168675 C11.0010354,3.95883862 10.6309568,4.26547521 9.60045469,4.6089759 C8.24447137,5.06097034 7.58335262,5.60875444 6.91970207,7.26788083 C6.40484132,8.5550327 6.03476268,8.86166929 5.00426061,9.20516998 C3.64827729,9.65716442 2.98715854,10.2049485 2.32350799,11.8640749 C2.19531211,12.1845646 2.35119705,12.5482961 2.67168675,12.676492 C2.99217645,12.8046879 3.35590797,12.6488029 3.48410385,12.3283133 C3.9989646,11.0411614 4.36904324,10.7345248 5.39954531,10.3910241 C6.75552863,9.93902966 7.41664738,9.39124556 8.08029793,7.73211917 C8.59515868,6.4449673 8.96523732,6.13833071 9.99573939,5.79483002 C11.3517227,5.34283558 12.0128415,4.79505148 12.676492,3.1359251 C12.8046879,2.8154354 12.6488029,2.45170387 12.3283133,2.32350799 Z M10.6819805,0.782485579 L10.682,0.783 L0.783,10.682 C0.00143699527,9.90093193 0.00143699527,8.63460197 0.782485579,7.85355339 L7.85355339,0.782485579 C8.63460197,0.00143699527 9.90093193,0.00143699527 10.6819805,0.782485579 Z"/>
</svg>