<?xml version="1.0" encoding="UTF-8"?>
<svg viewBox="0 0 15 15" version="1.1" xmlns="http://www.w3.org/2000/svg" xmlns:xlink="http://www.w3.org/1999/xlink">
  <path d="M13.09 2.94C13.82 2.94 14.4 2.35 14.4 1.62C14.4 0.89 13.82 0.3 13.09 0.3C12.37 0.3 11.78 0.89 11.78 1.62C11.78 2.35 12.37 2.94 13.09 2.94ZM9.3 14.4L12.9 14.4C12.9 14.4 13.2 14.37 13.2 14.1L13.2 13.8L13.5 13.8C13.5 13.8 13.62 14.61 12.94 14.7L9.3 14.7L9.3 14.4ZM0.9 11.7L3.3 14.1C3.3 14.1 3.5 14.18 3.69 13.99L3.88 13.79L4.2 14.1C4.2 14.1 3.66 14.89 3.12 14.46L0.6 11.92L0.9 11.7L0.9 11.7ZM10.17 10.73L10.18 13.12C10.18 13.57 10.49 13.93 10.94 13.93C11.35 13.93 11.7 13.46 11.7 13.12L11.7 9.79C11.7 9.56 11.65 9.35 11.49 9.2L9.58 7.25L12.16 4.66C12.64 4.06 12.39 3.33 12.39 3.33C12.13 2.52 11.22 2.49 11.22 2.49L4.61 2.49C4.26 2.49 3.97 2.78 3.97 3.14C3.97 3.5 4.26 3.78 4.61 3.78L9.17 3.79L7.25 5.72C6.98 6 6.84 6.32 6.84 6.74C6.84 7.14 7 7.5 7.26 7.76L10.17 10.73ZM6.86 8.12C6.79 8.06 6.74 8 6.69 7.93L2.87 11.79C2.59 12.02 2.49 12.44 2.66 12.78C2.86 13.17 3.34 13.33 3.73 13.13C3.79 13.1 3.83 13.07 3.88 13.03L7.79 9.07L6.86 8.13L6.86 8.12Z"/>
</svg>