<?xml version="1.0" encoding="UTF-8"?>
<svg viewBox="0 0 15 15" version="1.1" xmlns="http://www.w3.org/2000/svg" xmlns:xlink="http://www.w3.org/1999/xlink">
  <path d="M4.94 3.57C5.58 3.49 6.04 2.9 5.96 2.25C5.89 1.6 5.3 1.13 4.67 1.21C4.03 1.29 3.57 1.88 3.65 2.53C3.73 3.18 4.3 3.65 4.94 3.57ZM14.53 9.16C14.46 9.14 9.71 6.68 9.71 6.68L8.51 5.09L8.43 5.07C8.27 4.92 8.1 4.93 7.8 5.1L7.8 5.1C7.8 5.23 7.73 5.42 7.82 5.57L8.74 6.74L8.76 6.75L8.03 8.49L6.06 7.99L5.98 7.27L7.6 7.07C7.67 7.07 7.74 7.05 7.81 7.01C8.08 6.86 8.18 6.53 8.04 6.25C7.93 6.04 7.71 5.93 7.5 5.96L5.85 6.16L5.7 4.91C5.62 4.26 5.04 3.8 4.4 3.87C3.77 3.95 3.31 4.55 3.38 5.2L3.73 8.08C3.77 8.45 3.98 8.77 4.27 8.96L1.68 9.27L0.87 11.31L0.97 11.28C1.3 11.12 1.67 11.04 2.04 11.04C2.4 11.04 2.77 11.12 3.1 11.27C3.31 11.37 3.54 11.42 3.76 11.42C3.99 11.42 4.22 11.37 4.42 11.28C4.75 11.12 5.12 11.03 5.49 11.03C5.86 11.03 6.22 11.12 6.55 11.27C6.76 11.37 6.99 11.42 7.22 11.42C7.44 11.42 7.67 11.37 7.88 11.27C8.21 11.12 8.58 11.03 8.95 11.03C9.31 11.03 9.68 11.12 10.01 11.27C10.08 11.3 10.17 11.33 10.26 11.35C11.58 11 13.93 10.31 14.56 9.74C14.75 9.57 14.78 9.29 14.54 9.16L14.53 9.16ZM0.3 13.8C0.6 13.8 0.89 13.73 1.15 13.61C1.42 13.49 1.72 13.41 2.03 13.41C2.34 13.41 2.64 13.49 2.9 13.61C3.16 13.73 3.45 13.8 3.75 13.8C4.05 13.8 4.34 13.73 4.61 13.61C4.87 13.49 5.17 13.42 5.48 13.42C5.79 13.42 6.09 13.49 6.36 13.62C6.62 13.74 6.9 13.81 7.21 13.81C7.51 13.81 7.8 13.74 8.06 13.62C8.32 13.49 8.62 13.42 8.93 13.42C9.24 13.42 9.54 13.49 9.81 13.62C10.07 13.74 10.36 13.81 10.66 13.81C10.96 13.81 11.25 13.74 11.51 13.62C11.78 13.49 12.08 13.42 12.38 13.42C12.7 13.42 12.99 13.49 13.25 13.62C13.51 13.74 13.79 13.81 14.09 13.81L14.09 12.51C13.79 12.51 13.51 12.44 13.25 12.32C12.99 12.2 12.69 12.13 12.38 12.13C12.07 12.13 11.78 12.2 11.51 12.33C11.25 12.45 10.96 12.52 10.66 12.52C10.36 12.52 10.07 12.45 9.81 12.33C9.54 12.2 9.24 12.13 8.93 12.13C8.62 12.13 8.32 12.2 8.06 12.33C7.8 12.45 7.51 12.52 7.21 12.52C6.9 12.52 6.62 12.45 6.36 12.33C6.09 12.2 5.79 12.14 5.48 12.14C5.17 12.14 4.87 12.2 4.61 12.33C4.34 12.45 4.06 12.52 3.75 12.52C3.45 12.52 3.16 12.45 2.9 12.33C2.64 12.21 2.34 12.14 2.03 12.14C1.72 12.14 1.42 12.21 1.15 12.34C0.89 12.46 0.6 12.53 0.3 12.53L0.3 13.82L0.3 13.8Z"/>
</svg>