<?xml version="1.0" encoding="UTF-8"?>
<svg viewBox="0 0 15 15" version="1.1" xmlns="http://www.w3.org/2000/svg" xmlns:xlink="http://www.w3.org/1999/xlink">
  <path d="M9.17 0.26L7.19 2.25C6.21 3.22 5.93 4.63 6.31 5.91L0 12.22L0 15L2.79 15L2.71 12.29L5.43 12.36L5.35 9.65L8.07 9.73L9.09 8.7C10.38 9.07 11.78 8.79 12.76 7.82L14.74 5.84C15.1 5.48 15.09 4.87 14.7 4.48L10.52 0.3C10.14 -0.08 9.53 -0.1 9.17 0.26ZM11.99 4.41C12.37 4.79 12.39 5.4 12.03 5.77C11.66 6.13 11.05 6.11 10.67 5.73L9.28 4.34C8.89 3.95 8.87 3.34 9.24 2.98C9.6 2.61 10.21 2.63 10.6 3.02L11.99 4.41Z"/>
</svg>