<?xml version="1.0" encoding="UTF-8"?>
<svg viewBox="0 0 15 15" version="1.1" xmlns="http://www.w3.org/2000/svg" xmlns:xlink="http://www.w3.org/1999/xlink">
  <path d="M3.21 1.07C2.7 1.07 2.14 1.62 2.14 2.14L2.14 8.57C2.14 9.09 2.7 9.64 3.21 9.64L11.79 9.64C12.3 9.64 12.86 9.09 12.86 8.57L12.86 2.14C12.86 1.62 12.3 1.07 11.79 1.07L3.21 1.07ZM3.21 2.14L11.79 2.14L11.79 8.57L3.21 8.57L3.21 2.14ZM2.14 10.71C1.87 10.71 1.8 10.87 1.66 11.14L0.5 14.5C0.3 14.76 0.8 15 1.07 15L13.93 15C14.2 15 14.59 14.73 14.5 14.5L13.3 11.11C13.17 10.87 13.13 10.71 12.86 10.71L2.14 10.71Z"/>
</svg>