<?xml version="1.0" encoding="UTF-8"?>
<svg viewBox="0 0 15 15" version="1.1" xmlns="http://www.w3.org/2000/svg" xmlns:xlink="http://www.w3.org/1999/xlink">
  <path d="M4.06 13.42L4.06 14.53C4.06 14.79 4.27 15 4.53 15C4.79 15 5 14.79 5 14.53L5 14.06L10 14.06L10 14.53C10 14.79 10.21 15 10.47 15C10.73 15 10.94 14.79 10.94 14.53L10.94 2.5L4.06 2.5L4.06 13.42ZM9.38 7.81C9.38 7.64 9.51 7.5 9.69 7.5C9.86 7.5 10 7.64 10 7.81L10 8.75C10 8.92 9.86 9.06 9.69 9.06C9.51 9.06 9.38 8.92 9.38 8.75L9.38 7.81Z"/>
  <path d="M9.06 0L5.94 0C4.9 0 4.06 0.84 4.06 1.88L10.94 1.88C10.94 0.84 10.1 0 9.06 0Z"/>
</svg>