<?xml version="1.0" encoding="UTF-8"?>
<svg viewBox="0 0 15 15" version="1.1" xmlns="http://www.w3.org/2000/svg" xmlns:xlink="http://www.w3.org/1999/xlink">
  <path d="M14.17 12.3L9.3 12.3L9.3 13.5L14.22 13.5C14.63 13.5 14.7 13.15 14.7 13.15L14.7 12.86C14.7 12.86 14.7 12.3 14.17 12.3L14.17 12.3ZM13.5 12.06C14.16 12.06 14.7 11.52 14.7 10.86C14.7 10.19 14.16 9.65 13.5 9.65C12.83 9.65 12.29 10.19 12.29 10.86C12.29 11.52 12.83 12.06 13.5 12.06L13.5 12.06ZM10.96 12C11.6 12 12.1 11.56 12.1 10.92C12.1 10.29 11.59 9.96 10.97 9.96L9.3 10.17L9.3 12L10.96 12L10.96 12ZM5.56 4.18C6.3 4.18 6.89 3.58 6.89 2.84C6.89 2.1 6.3 1.5 5.56 1.5C4.82 1.5 4.22 2.1 4.22 2.84C4.22 3.58 4.82 4.18 5.56 4.18ZM4.2 8.52L4.18 8.5L3.58 7.09L3.58 9.9L5.39 9.9L5.78 9.48L4.71 9.07C4.46 8.97 4.28 8.76 4.2 8.52L4.2 8.52ZM4.58 8.39C4.64 8.52 4.75 8.63 4.88 8.68L6.95 9.44C7.21 9.56 7.52 9.44 7.64 9.17C7.75 8.91 7.63 8.6 7.37 8.48L5.46 7.76L4.88 6.35L5.26 6.21L5.76 7.42L7.2 7.95L7.2 6.48L7.97 6.93L8.36 8.86C8.45 9.14 8.74 9.28 9.02 9.19C9.29 9.09 9.44 8.79 9.35 8.52L8.92 6.66C8.89 6.56 8.83 6.47 8.75 6.4C8.53 6.15 7.42 4.91 7.34 4.83C7.22 4.71 6.96 4.5 6.46 4.5L4.66 4.5C3.63 4.5 3.44 5.54 3.65 6.08L4.59 8.39L4.58 8.39ZM9 10.2L0.89 10.2C0.6 10.2 0.3 10.37 0.3 10.73L0.3 13.5L9 13.5L9 10.2Z"/>
</svg>