<?xml version="1.0" encoding="UTF-8"?>
<svg viewBox="0 0 15 15" version="1.1" xmlns="http://www.w3.org/2000/svg" xmlns:xlink="http://www.w3.org/1999/xlink">
  <path d="M14.59 15C14.25 15 13.98 14.93 13.7 14.8C13.43 14.66 13.09 14.25 12.82 14.25C12.48 14.25 12.2 14.66 11.93 14.8C11.66 14.93 11.39 15 11.05 15C10.7 15 10.43 14.93 10.16 14.8C9.89 14.66 9.55 14.25 9.27 14.25C8.93 14.25 8.66 14.66 8.39 14.8C8.11 14.93 7.84 15 7.5 15C7.16 15 6.89 14.93 6.61 14.8C6.34 14.66 6.07 14.32 5.73 14.32C5.39 14.32 5.11 14.73 4.84 14.86C4.57 14.93 4.23 15 3.95 15C3.61 15 3.34 14.93 3.07 14.8C2.8 14.66 2.45 14.32 2.18 14.32C1.84 14.32 1.57 14.73 1.3 14.86C1.02 14.93 0.68 15 0.41 15L0.41 13.7C0.75 13.7 1.02 13.64 1.3 13.5C1.5 13.36 1.84 12.95 2.18 12.95C2.52 12.95 2.8 13.36 3.07 13.5C3.34 13.64 3.61 13.7 3.95 13.7C4.3 13.7 4.57 13.64 4.84 13.5C5.11 13.36 5.39 12.95 5.73 12.95C6.07 12.95 6.34 13.36 6.61 13.5C6.89 13.64 7.16 13.7 7.5 13.7C7.84 13.7 8.11 13.64 8.39 13.5C8.66 13.36 9 12.95 9.27 12.95C9.61 12.95 9.89 13.36 10.16 13.5C10.43 13.64 10.7 13.7 11.05 13.7C11.39 13.7 11.66 13.64 11.93 13.5C12.2 13.36 12.55 12.95 12.82 12.95C13.16 12.95 13.43 13.36 13.7 13.5C13.98 13.64 14.25 13.7 14.59 13.7L14.59 15L14.59 15Z"/>
  <path d="M7.16 1.77C7.64 1.77 8.05 1.36 8.05 0.89C8.05 0.41 7.64 0 7.16 0C6.68 0 6.27 0.41 6.27 0.89C6.27 1.36 6.68 1.77 7.16 1.77Z"/>
  <path d="M10.23 12.61L11.05 12.61L10.09 8.86L10.09 8.86C10.16 8.86 10.23 8.86 10.3 8.86C10.77 8.73 11.05 8.25 10.98 7.77L10.43 5.59C10.36 5.18 9.95 4.91 9.55 4.91L8.11 4.91L8.11 3C8.11 2.52 7.64 2.11 7.16 2.11C6.68 2.11 6.2 2.52 6.2 3L6.2 5.8C6.2 5.86 6.2 5.86 6.2 5.93L5.66 5.93L5.66 5.93L5.11 2.66C5.05 2.45 4.84 2.32 4.64 2.32C4.36 2.39 4.23 2.59 4.3 2.8L4.91 6.41C4.98 6.68 5.11 6.82 5.32 6.82L5.45 6.82L3.95 12.68L4.77 12.68L5.25 10.91L9.75 10.91L10.23 12.61ZM8.73 6.82L9.07 8.25L5.93 8.25L6.27 6.82L8.73 6.82ZM5.39 10.23L5.73 8.86L9.2 8.86L9.55 10.23L5.39 10.23Z"/>
</svg>