<?xml version="1.0" encoding="UTF-8"?>
<svg viewBox="0 0 15 15" version="1.1" xmlns="http://www.w3.org/2000/svg" xmlns:xlink="http://www.w3.org/1999/xlink">
  <path d="M6.95 10.23L6.95 14.05C6.95 14.05 7.09 15 5.93 15L1.3 15C0.14 15 0.27 14.05 0.27 14.05L0.27 10.23L6.95 10.23Z"/>
  <path d="M4.84 0.41C4.64 0.2 4.36 0 4.02 0L2.52 0C2.05 0 1.64 0.41 1.64 0.95C1.64 1.16 1.7 1.3 1.77 1.43L1.77 1.43C2.18 2.05 2.45 2.8 2.45 3.61C2.45 4.98 1.7 6.2 0.61 6.89L0.61 6.89C0.41 7.02 0.27 7.23 0.27 7.5L0.27 8.86L7.02 8.86L7.02 4.57C7.02 4.57 7.02 4.16 6.75 3.68L4.84 0.41Z"/>
  <path d="M10.16 0.41C10.36 0.2 10.64 0 10.98 0L12.48 0C13.02 0 13.43 0.41 13.43 0.95C13.43 1.16 13.36 1.3 13.3 1.43L13.3 1.43C12.89 2.05 12.61 2.8 12.61 3.61C12.61 4.98 13.36 6.2 14.45 6.89L14.45 6.89C14.66 7.02 14.8 7.23 14.8 7.5L14.8 8.86L8.05 8.86L8.05 4.57C8.05 4.57 8.05 4.16 8.32 3.68L10.16 0.41Z"/>
  <path d="M14.8 10.23L14.8 14.05C14.8 14.05 14.93 15 13.77 15L9.14 15C7.98 15 8.11 14.05 8.11 14.05L8.11 10.23L14.8 10.23Z"/>
  <path d="M8.05 9.95C8.25 9.95 8.39 9.82 8.39 9.61C8.39 9.41 8.25 9.27 8.05 9.27L6.95 9.27C6.75 9.27 6.61 9.41 6.61 9.61C6.61 9.82 6.75 9.95 6.95 9.95L8.05 9.95Z"/>
</svg>