<?xml version="1.0" encoding="UTF-8"?>
<svg viewBox="0 0 15 15" version="1.1" xmlns="http://www.w3.org/2000/svg" xmlns:xlink="http://www.w3.org/1999/xlink">
  <path d="M12.95 6.3L12.3 6.3L12.3 3.71C12.3 2.01 10.59 0.3 8.89 0.3L6.05 0.3C4.34 0.3 2.7 2.01 2.7 3.71L2.7 6.3L1.99 6.3C1.78 6.3 1.5 6.62 1.5 6.8L1.5 14.44C1.5 14.62 1.78 14.7 1.99 14.7L12.95 14.7C13.16 14.7 13.5 14.62 13.5 14.44L13.5 6.8C13.5 6.62 13.16 6.3 12.95 6.3L12.95 6.3ZM10.2 6.3L4.8 6.3L4.8 3.71C4.8 2.94 5.31 2.4 6.07 2.4L8.86 2.4C9.62 2.4 10.2 2.94 10.2 3.71L10.2 6.3Z"/>
</svg>