<?xml version="1.0" encoding="UTF-8"?>
<svg viewBox="0 0 15 15" version="1.1" xmlns="http://www.w3.org/2000/svg" xmlns:xlink="http://www.w3.org/1999/xlink">
  <path d="M6,0 C9.3137085,-8.8817842e-16 12,2.6862915 12,6 C12,7.2954479 11.5894515,8.49500707 10.8913664,9.47566569 L14.7071068,13.2928932 C15.0976311,13.6834175 15.0976311,14.3165825 14.7071068,14.7071068 C14.3165825,15.0976311 13.6834175,15.0976311 13.2928932,14.7071068 L9.47566569,10.8913664 C8.49500707,11.5894515 7.2954479,12 6,12 C2.6862915,12 0,9.3137085 0,6 C0,2.6862915 2.6862915,0 6,0 Z M6,2 C3.790861,2 2,3.790861 2,6 C2,8.209139 3.790861,10 6,10 C8.209139,10 10,8.209139 10,6 C10,3.790861 8.209139,2 6,2 Z"/>
</svg>