<?xml version="1.0" encoding="UTF-8"?>
<svg viewBox="0 0 15 15" version="1.1" xmlns="http://www.w3.org/2000/svg" xmlns:xlink="http://www.w3.org/1999/xlink">
  <path d="M7.5 0C8.33 0 9 0.67 9 1.5C9 2.33 8.33 3 7.5 3C6.67 3 6 2.33 6 1.5C6 0.67 6.67 0 7.5 0ZM5 4.5C5 4.22 5.22 4 5.5 4L9.5 4C9.78 4 10 4.22 10 4.5L10 9.5C10 9.78 9.78 10 9.5 10C9.22 10 9 9.78 9 9.5L9 13.5C9 13.78 8.78 14 8.5 14C8.22 14 8 13.78 8 13.5L8 9.5L7 9.5L7 13.5C7 13.78 6.78 14 6.5 14C6.22 14 6 13.78 6 13.5L6 9.5C6 9.78 5.78 10 5.5 10C5.22 10 5 9.78 5 9.5L5 4.5Z"/>
</svg>