<?xml version="1.0" encoding="UTF-8"?>
<svg viewBox="0 0 15 15" version="1.1" xmlns="http://www.w3.org/2000/svg" xmlns:xlink="http://www.w3.org/1999/xlink">
  <path d="M4.23 9.87L5.82 9.87L5.82 12.2L8.4 9.53C9.03 8.89 9.03 7.85 8.4 7.21L7.84 6.63L8.97 5.47L9.53 6.05C10.78 7.33 10.78 9.41 9.53 10.69L6.95 13.36L9.2 13.36L9.2 15L4.23 15L4.23 9.87ZM14.96 2.46C14.99 2.54 15 2.63 15 2.72L15 11C15 11.34 14.79 11.65 14.48 11.78L11.12 13.12C10.93 13.19 10.73 13.2 10.54 13.14L9.91 12.92C9.77 12.68 9.5 12.52 9.2 12.52L8.92 12.52L10.13 11.27L10.15 11.25L10.78 11.46L13.33 10.44L13.33 3.88L11.73 4.41L11.73 2.66L13.9 1.93C14.34 1.79 14.81 2.02 14.96 2.46ZM4.44 1.64L5.11 1.83C5.19 2.2 5.52 2.48 5.92 2.48L6.2 2.48L5.13 3.57L4.26 3.32L1.67 4.36L1.67 11.02L3.39 10.53L3.39 12.26L1.06 12.93C0.62 13.06 0.16 12.8 0.03 12.36C0.01 12.28 0 12.2 0 12.13L0 3.8C0 3.46 0.21 3.15 0.52 3.02L3.9 1.67C4.07 1.6 4.26 1.59 4.44 1.64ZM7.57 10.39L9.28 10.96L7.99 12.28L6.29 11.72L7.57 10.39ZM5.82 9.94L5.82 11.6C5.74 11.6 5.66 11.61 5.59 11.64L4.22 12.02L4.22 10.29L5.13 10.03C5.35 9.97 5.59 9.94 5.82 9.94ZM10.89 0L10.89 5.13L9.3 5.13L9.3 2.8L6.71 5.47C6.09 6.11 6.09 7.15 6.71 7.79L7.28 8.37L6.15 9.53L5.59 8.95C4.34 7.67 4.34 5.59 5.59 4.31L6.19 3.68L7.36 2.48L8.17 1.64L5.92 1.64L5.92 0L10.89 0Z"/>
</svg>