<?xml version="1.0" encoding="UTF-8"?>
<svg viewBox="0 0 15 15" version="1.1" xmlns="http://www.w3.org/2000/svg" xmlns:xlink="http://www.w3.org/1999/xlink">
  <path d="M3.79970932,0.345479061 C4.2480801,0.0350685214 4.82959519,-0.00754601823 5.31842792,0.234184453 L9.63,2.366 L12.7504163,0.56642666 C13.4257779,0.176795003 14.2780674,0.371880045 14.7211407,0.994423563 L14.7992784,1.11612136 C14.9307763,1.34405116 15,1.60256305 15,1.86570504 L15,11.2380235 C15,11.7302409 14.7585123,12.1911368 14.353815,12.4713118 L11.2183688,14.6420053 C10.7415894,14.9720833 10.1172607,14.9977784 9.61497014,14.7079954 L6.019,12.633 L2.16490363,14.5395364 C1.46599292,14.8851515 0.627934135,14.6359264 0.225606884,13.9863056 L0.155417104,13.8598571 C0.0531835442,13.6531181 0,13.4255889 0,13.1949535 L0,3.76197647 C0,3.26975909 0.241487742,2.80886323 0.646185032,2.52868819 L3.79970932,0.345479061 Z M4.696,2.157 L1.999,4.024 L2,12.389 L5.37249887,10.7221877 C5.7719971,10.5246336 6.23575142,10.516115 6.63889314,10.6926324 L6.78698618,10.7674922 L10.339,12.817 L12.999,10.976 L13,2.73 L10.3980973,4.2325078 C10.0120598,4.45522173 9.54980111,4.49339956 9.13618994,4.34304186 L8.98360998,4.27781231 L4.696,2.157 Z"/>
</svg>