<?xml version="1.0" encoding="UTF-8"?>
<svg viewBox="0 0 15 15" version="1.1" xmlns="http://www.w3.org/2000/svg" xmlns:xlink="http://www.w3.org/1999/xlink">
  <path d="M5.75 2.85C5.95 2.7 6.2 2.6 6.45 2.55L6.45 0L0 2.15L0 15L6.45 12.85L6.45 3.45C6.35 3.5 6.3 3.55 6.2 3.6L5.75 2.85ZM0.8 9.25L0.8 8.4C0.8 8.4 1.3 8.4 1.9 8.1L2.25 8.85C1.5 9.25 0.8 9.25 0.8 9.25ZM2.9 8.45L2.4 7.8C2.7 7.55 2.95 7.25 3.15 6.9L3.9 7.3C3.6 7.75 3.3 8.15 2.9 8.45ZM4.15 6.65L3.35 6.35C3.55 5.85 3.7 5.45 3.9 5.05L4.65 5.4C4.5 5.8 4.35 6.15 4.15 6.65ZM4.95 4.9L4.25 4.45C4.5 4 4.8 3.6 5.15 3.3L5.7 3.9C5.45 4.2 5.2 4.5 4.95 4.9Z"/>
  <path d="M7.5 0L7.5 12.85L15 15L15 2.15L7.5 0ZM12.8 7.35C12.8 7.5 12.8 7.65 12.75 7.8L11.95 7.65C11.95 7.55 11.95 7.45 11.95 7.35C11.95 7.1 11.9 6.8 11.85 6.5L12.65 6.3C12.75 6.65 12.8 7.05 12.8 7.35ZM12.4 5.6L11.6 5.9C11.45 5.5 11.25 5.15 11 4.85L11.65 4.35C12 4.7 12.25 5.15 12.4 5.6ZM9.1 3.45C8.75 3.35 8.3 3.25 7.9 3.25L7.95 2.4C8.45 2.4 8.95 2.5 9.35 2.65L9.1 3.45ZM10 2.95C10.45 3.15 10.85 3.45 11.2 3.8L10.6 4.4C10.3 4.1 10 3.9 9.6 3.7L10 2.95ZM12.5 11.8L12 10.7L11.45 11.4L10.35 11L11.3 9.85L10.4 8.15L11.6 8.55L12 9.5L12.5 8.85L13.6 9.25L12.7 10.3L13.65 12.15L12.5 11.8Z"/>
</svg>