<?xml version="1.0" encoding="UTF-8"?>
<svg viewBox="0 0 15 15" xmlns="http://www.w3.org/2000/svg">
  <path d="M5.12 2.82C5.77 2.27 6.65 2 7.5 2C8.35 2 9.23 2.27 9.88 2.82C10.51 3.35 11 4.2 11 5.57C11 5.94 10.85 6.52 10.51 7.29C10.19 8.03 9.74 8.85 9.24 9.66C8.64 10.64 8 11.58 7.48 12.31C6.96 11.58 6.32 10.62 5.72 9.62C5.23 8.81 4.79 7.99 4.48 7.25C4.15 6.48 4 5.91 4 5.57C4 4.2 4.49 3.35 5.12 2.82ZM8.11 13.16C9.46 11.26 12 7.54 12 5.57C12 2.29 9.58 1 7.5 1C5.42 1 3 2.29 3 5.57C3 7.45 5.48 11.26 6.87 13.17C7.12 13.52 7.34 13.8 7.5 14C7.56 13.92 7.62 13.83 7.7 13.73C7.81 13.56 7.95 13.37 8.11 13.16Z"/>
</svg>