<?xml version="1.0" encoding="UTF-8"?>
<svg viewBox="0 0 15 15" version="1.1" xmlns="http://www.w3.org/2000/svg" xmlns:xlink="http://www.w3.org/1999/xlink">
  <path d="M5.94 1.07C5.05 1.07 4.33 1.79 4.33 2.68C4.33 3.57 5.05 4.29 5.94 4.29C6.83 4.29 7.55 3.57 7.55 2.68C7.55 1.79 6.83 1.07 5.94 1.07L5.94 1.07ZM4.64 4.83C4.22 4.89 3.85 5.17 3.7 5.59L2.31 9.64L4.53 9.64L5.54 6.69L6.63 7.81C6.65 7.83 6.67 7.83 6.69 7.85C6.71 7.87 6.73 7.88 6.75 7.89C6.78 7.91 6.81 7.93 6.85 7.94C6.86 7.95 6.88 7.96 6.9 7.96L8.96 8.54C9.24 8.62 9.54 8.46 9.62 8.17C9.7 7.89 9.54 7.6 9.25 7.51L7.31 6.97L5.54 5.14C5.52 5.13 5.51 5.12 5.49 5.11C5.38 5 5.24 4.9 5.06 4.86C4.92 4.82 4.78 4.81 4.64 4.83ZM12.32 8.57C11.43 8.57 10.71 9.29 10.71 10.18C10.71 11.07 11.43 11.79 12.32 11.79C13.21 11.79 13.93 11.07 13.93 10.18C13.93 9.29 13.21 8.57 12.32 8.57ZM1.07 10.71C0.48 10.71 0 11.19 0 11.79C0 12.38 0.48 12.86 1.07 12.86L5.93 12.86L7.5 12.86L9.85 12.86L12.06 13.87C12.13 13.91 12.2 13.92 12.28 13.92C12.29 13.92 12.31 13.93 12.32 13.93L14.46 13.93C14.76 13.93 15 13.69 15 13.39C15 13.1 14.76 12.86 14.46 12.86L12.39 12.86L7.87 10.77C7.78 10.73 7.69 10.73 7.6 10.74C7.57 10.73 7.54 10.71 7.5 10.71L4.16 10.71L1.94 10.71L1.07 10.71Z"/>
</svg>