<?xml version="1.0" encoding="UTF-8"?>
<svg viewBox="0 0 15 15" version="1.1" xmlns="http://www.w3.org/2000/svg" xmlns:xlink="http://www.w3.org/1999/xlink">
  <path d="M5.43 2.14C4.36 2.14 3.29 3.21 3.29 4.29L3.29 12.86L11.86 12.86L11.86 4.29C11.86 3.21 10.79 2.14 9.71 2.14L5.43 2.14ZM6.5 4.29L8.64 4.29L8.64 5.36L6.5 5.36L6.5 4.29ZM4.36 6.43L10.79 6.43L10.79 7.5L4.36 7.5L4.36 6.43ZM5.43 8.57L9.71 8.57L9.71 9.64L5.43 9.64L5.43 8.57ZM2.21 13.93L1.14 15L1.14 16.07L14 16.07L14 15L12.93 13.93L2.21 13.93Z"/>
</svg>