<?xml version="1.0" encoding="UTF-8"?>
<svg viewBox="0 0 15 15" version="1.1" xmlns="http://www.w3.org/2000/svg" xmlns:xlink="http://www.w3.org/1999/xlink">
  <path d="M6.43 0C5.91 0 5.36 0.42 5.36 1.07L5.36 2.14C4.16 2.23 3.21 3.11 3.21 4.29L3.21 12.86C3.21 14.09 4.07 15 5.36 15L9.64 15C10.93 15 11.79 14.09 11.79 12.86L11.79 4.29C11.79 3.05 10.93 2.14 9.64 2.14L7.5 2.14L7.5 1.07C7.5 0.39 6.95 0 6.43 0ZM4.29 4.29L10.71 4.29L10.71 11.79L4.29 11.79L4.29 4.29ZM6.43 12.86L8.57 12.86L8.57 13.93L6.43 13.93L6.43 12.86Z"/>
</svg>