<?xml version="1.0" encoding="UTF-8"?>
<svg viewBox="0 0 15 15" version="1.1" xmlns="http://www.w3.org/2000/svg" xmlns:xlink="http://www.w3.org/1999/xlink">
  <path d="M13.5 0L13.5 1.5L7.93 1.5C7.43 1.64 7.02 2.04 7.02 2.53L7.02 14.11C7.02 14.6 7.43 15 7.93 15L13.35 15C13.85 15 14.26 14.6 14.5 14.11L14.5 0L13.5 0ZM11.86 12.4C11.86 12.24 11.99 12.12 12.14 12.12L12.74 12.12C12.89 12.12 13.01 12.24 13.01 12.4L13.01 12.99C13.01 13.15 12.89 13.27 12.74 13.27L12.14 13.27C11.99 13.27 11.86 13.15 11.86 13L11.86 12.4L11.86 12.4ZM11.86 10.73C11.86 10.57 11.99 10.45 12.14 10.45L12.74 10.45C12.89 10.45 13.01 10.57 13.01 10.73L13.01 11.32C13.01 11.48 12.89 11.6 12.74 11.6L12.14 11.6C11.99 11.6 11.86 11.48 11.86 11.32L11.86 10.73L11.86 10.73ZM11.86 9.05C11.86 8.9 11.99 8.78 12.14 8.78L12.74 8.78C12.89 8.78 13.01 8.9 13.01 9.05L13.01 9.65C13.01 9.8 12.89 9.93 12.74 9.93L12.14 9.93C11.99 9.93 11.86 9.8 11.86 9.65L11.86 9.05L11.86 9.05ZM10.17 12.4C10.17 12.24 10.29 12.12 10.45 12.12L11.04 12.12C11.2 12.12 11.32 12.24 11.32 12.4L11.32 12.99C11.32 13.15 11.2 13.27 11.04 13.27L10.45 13.27C10.29 13.27 10.17 13.15 10.17 12.99L10.17 12.4ZM10.17 10.73C10.17 10.57 10.29 10.45 10.45 10.45L11.04 10.45C11.2 10.45 11.32 10.57 11.32 10.73L11.32 11.32C11.32 11.48 11.2 11.6 11.04 11.6L10.45 11.6C10.29 11.6 10.17 11.48 10.17 11.32L10.17 10.73ZM10.17 9.05C10.17 8.9 10.29 8.78 10.45 8.78L11.04 8.78C11.2 8.78 11.32 8.9 11.32 9.05L11.32 9.65C11.32 9.8 11.2 9.93 11.04 9.93L10.45 9.93C10.29 9.93 10.17 9.8 10.17 9.65L10.17 9.05ZM8.48 13L8.48 12.4C8.48 12.24 8.6 12.12 8.75 12.12L9.35 12.12C9.5 12.12 9.63 12.25 9.63 12.4L9.63 13C9.63 13.15 9.5 13.27 9.35 13.27L8.75 13.27C8.6 13.27 8.48 13.15 8.48 13ZM8.48 11.32L8.48 10.73C8.48 10.57 8.6 10.45 8.75 10.45L9.35 10.45C9.5 10.45 9.63 10.57 9.63 10.73L9.63 11.32C9.63 11.48 9.5 11.6 9.35 11.6L8.75 11.6C8.6 11.6 8.48 11.48 8.48 11.32ZM8.48 9.65L8.48 9.05C8.48 8.9 8.6 8.78 8.75 8.78L9.35 8.78C9.5 8.78 9.63 8.9 9.63 9.05L9.63 9.65C9.63 9.8 9.5 9.93 9.35 9.93L8.75 9.93C8.6 9.93 8.48 9.8 8.48 9.65ZM8.47 6.36L8.47 3.23C8.47 3.08 8.6 2.95 8.75 2.95L12.74 2.95C12.89 2.95 13.01 3.08 13.01 3.23L13.01 6.36C13.01 6.51 12.89 6.64 12.73 6.64L8.75 6.64C8.59 6.64 8.47 6.51 8.47 6.36Z"/>
  <path d="M5.21 7.96L1.15 13.37L2.4 9.47L0.74 9.47L3.23 4.06L5.21 4.06L3.47 7.96z"/>
</svg>