<?xml version="1.0" encoding="UTF-8"?>
<svg viewBox="0 0 15 15" version="1.1" xmlns="http://www.w3.org/2000/svg" xmlns:xlink="http://www.w3.org/1999/xlink">
  <path d="M15 12C14.7 12 14.4 11.93 14.14 11.81C13.87 11.68 13.57 11.61 13.25 11.61C12.94 11.61 12.64 11.68 12.37 11.81C12.1 11.93 11.81 12 11.51 12C11.2 12 10.91 11.93 10.65 11.81C10.38 11.68 10.08 11.61 9.76 11.61C9.45 11.61 9.14 11.68 8.88 11.81C8.61 11.93 8.32 12 8.01 12C7.71 12 7.42 11.93 7.16 11.81C6.89 11.68 6.59 11.61 6.27 11.61C5.95 11.61 5.66 11.68 5.39 11.81C5.12 11.93 4.83 12 4.52 12C4.22 12 3.93 11.93 3.67 11.81C3.4 11.68 3.1 11.61 2.78 11.61C2.46 11.61 2.25 11.68 1.98 11.81C1.72 11.93 1.5 12 1.2 12L1.2 10.69C1.5 10.69 1.72 10.61 1.98 10.49C2.25 10.37 2.51 10.3 2.82 10.3C3.14 10.3 3.42 10.37 3.69 10.49C3.95 10.61 4.23 10.69 4.54 10.69C4.84 10.69 5.13 10.61 5.39 10.49C5.66 10.37 5.96 10.3 6.28 10.3C6.59 10.3 6.89 10.37 7.16 10.49C7.42 10.61 7.71 10.69 8.02 10.69C8.32 10.69 8.62 10.61 8.88 10.49C9.15 10.37 9.45 10.3 9.77 10.3C10.08 10.3 10.38 10.37 10.65 10.49C10.91 10.61 11.21 10.69 11.51 10.69C11.82 10.69 12.11 10.61 12.38 10.49C12.65 10.37 12.95 10.3 13.26 10.3C13.58 10.3 13.88 10.37 14.15 10.49C14.41 10.61 14.71 10.69 15.01 10.69L15.01 12L15 12ZM11.49 6.51L14.03 6.71L13.84 5.39L11.97 5.26C11.47 5.24 11.54 5.75 11.54 5.75L11.49 6.51L11.49 6.51ZM6.78 6.21C7.25 6.21 7.62 5.83 7.62 5.36C7.62 4.88 7.25 4.5 6.78 4.5C6.31 4.5 5.94 4.88 5.94 5.36C5.94 5.84 6.31 6.22 6.78 6.22L6.78 6.21ZM1.58 9.52C1.69 9.48 1.79 9.44 1.89 9.4C2.16 9.27 2.46 9.2 2.78 9.2C3.1 9.2 3.39 9.27 3.67 9.4C3.93 9.52 4.22 9.59 4.52 9.59C4.83 9.59 5.12 9.52 5.39 9.4C5.66 9.27 5.96 9.2 6.27 9.2C6.59 9.2 6.89 9.27 7.16 9.4C7.42 9.52 7.71 9.59 8.02 9.59C8.32 9.59 8.61 9.52 8.88 9.4C9.15 9.27 9.45 9.2 9.77 9.2C10.08 9.2 10.38 9.27 10.65 9.4C10.91 9.52 11.21 9.59 11.51 9.59C11.82 9.59 12.11 9.52 12.38 9.4C12.65 9.27 12.95 9.2 13.26 9.2C13.58 9.2 13.88 9.27 14.15 9.4C14.41 9.52 14.7 9.59 15.01 9.59L14.72 7.25L4.16 6.35L5.76 4.71L5.06 4.65L3.47 6.29L0.01 5.99C-0.01 7.19 1.31 9.19 1.59 9.52L1.58 9.52Z"/>
</svg>