<?xml version="1.0" encoding="UTF-8"?>
<svg viewBox="0 0 15 15" version="1.1" xmlns="http://www.w3.org/2000/svg" xmlns:xlink="http://www.w3.org/1999/xlink">
  <path d="M0.68 0.68L6.82 0.68L6.82 1.36L6.14 1.36L6.14 2.05L0.68 2.73z"/>
  <path d="M8.86 2.66C9.55 2.66 10.16 2.11 10.16 1.36C10.16 0.61 9.55 0.07 8.86 0.07C8.18 0.07 7.57 0.61 7.57 1.36C7.57 2.11 8.18 2.66 8.86 2.66Z"/>
  <path d="M9.82 2.52C10.16 2.18 10.77 2.18 11.11 2.52L14.11 5.32C14.25 5.39 14.32 5.52 14.32 5.66L14.32 13.98C14.32 14.52 13.84 15 13.3 15C12.75 15 12.27 14.52 12.27 13.98L12.27 7.16L9.41 4.57L8.39 5.59C8.25 5.73 8.11 5.8 7.91 5.8C7.7 5.8 7.57 5.73 7.43 5.59L5.66 3.82C5.39 3.55 5.45 3.14 5.66 2.93C5.93 2.73 6.34 2.73 6.55 3L7.91 4.36L9.82 2.52Z"/>
  <path d="M4.43 2.86C4.43 2.73 4.3 2.66 4.16 2.66C4.02 2.66 3.89 2.73 3.89 2.86L3.41 5.45L3.41 15L7.5 15L7.5 13.64L4.77 13.64L4.77 5.45L4.43 2.86Z"/>
</svg>