<?xml version="1.0" encoding="UTF-8"?>
<svg viewBox="0 0 15 15" version="1.1" xmlns="http://www.w3.org/2000/svg" xmlns:xlink="http://www.w3.org/1999/xlink">
  <path d="M7.5,10 L7.28368052,10.0005512 L7.71631948,10.0005512 C11.3928439,10.0192308 15,10.5096154 15,11 C15,11.4875 11.4351562,11.975 7.78119141,11.9990703 L7.5,12 C3.75,12 -1.77635684e-15,11.5 -1.77635684e-15,11 C-1.77635684e-15,10.5 3.75,10 7.5,10 Z M10.2059659,2 L14.8765556,9.79352286 C13.4375704,9.21038172 10.7583284,9 7.5,9 C4.2587854,9 1.59059013,9.20817754 0.14622111,9.78436511 L4.09090909,4 L6.473,7.495 L10.2059659,2 Z" transform="translate(7.5, 7) scale(-1, 1) translate(-7.5, -7)"/>
</svg>