<?xml version="1.0" encoding="UTF-8"?>
<svg viewBox="0 0 15 15" version="1.1" xmlns="http://www.w3.org/2000/svg" xmlns:xlink="http://www.w3.org/1999/xlink">
  <path d="M6.5 0L4.42 0.33C4.4 3.85 4.39 7.37 4.38 10.9L3.79 10.85C2.37 10.75 0.86 11.46 0.2 12.52C-0.04 12.92 -0.07 13.54 0.15 13.88C0.48 14.41 1.27 14.86 2.14 15C4.12 14.94 5.54 14.25 6.5 12.82C6.5 8.49 6.5 3.84 6.5 0ZM7.51 0.02C7.5 0.02 7.5 0.02 7.49 0.02L7.49 1.08C11.03 1.08 13.89 3.96 13.89 7.51C13.89 9.22 13.22 10.85 12.01 12.06C10.81 13.27 9.18 13.95 7.48 13.95C7.3 13.94 7.12 13.93 6.95 13.92L6.02 14.83C6.51 14.94 7.01 14.99 7.51 14.99C11.65 14.99 15 11.64 15 7.51C15 5.52 14.21 3.62 12.81 2.21C11.4 0.81 9.5 0.02 7.51 0.02ZM3.24 1.36C1.23 2.76 0.02 5.05 0.02 7.51C0.03 8.59 0.26 9.65 0.71 10.63L1.65 10.19C1.26 9.35 1.06 8.43 1.06 7.51C1.06 5.66 1.86 3.9 3.24 2.68L3.24 1.36ZM7.49 5.36L7.49 6.43C7.49 6.43 7.5 6.43 7.51 6.43C7.8 6.43 8.08 6.54 8.29 6.74C8.5 6.94 8.61 7.22 8.61 7.5C8.61 7.78 8.5 8.06 8.29 8.26C8.08 8.46 7.8 8.57 7.51 8.57C7.5 8.57 7.49 8.57 7.49 8.57L7.49 9.64C8.67 9.64 9.62 8.68 9.62 7.5C9.62 6.32 8.67 5.36 7.49 5.36Z"/>
</svg>