<?xml version="1.0" encoding="UTF-8"?>
<svg viewBox="0 0 15 15" xmlns="http://www.w3.org/2000/svg">
  <path d="M1 13V2h4.5a3.5 3.5 0 0 1 3.21 2.1a3.36 3.36 0 0 0 -0.5 0.68c-0.23 0.41 -0.23 0.84 -0.17 1.15l0.3 1.63A3.5 3.5 0 0 1 5.5 9H3v4H1Zm4.5 -6a1.5 1.5 0 1 0 0 -3H3v3h2.5Zm3.52 -1.25a0.72 0.72 0 0 1 0.06 -0.48C9.32 4.85 9.98 4 11.5 4c1.52 0 2.19 0.85 2.42 1.27a0.72 0.72 0 0 1 0.06 0.48L13.02 11H12v2h-1v-2H9.98l-0.96 -5.25ZM12.75 7L13 5.66C12.83 5.41 12.42 5 11.5 5s-1.33 0.41 -1.5 0.66L10.25 7h2.5Z"/>
</svg>