<?xml version="1.0" encoding="UTF-8"?>
<svg version="1.1" xmlns="http://www.w3.org/2000/svg" viewBox="0 0 15 15">
  <path d="M10.5 10.14c-0.66 0.48 -1.47 0.71 -2.29 0.66h-1.9V14h-1.9V5h3.92c0.78 -0.04 1.55 0.2 2.16 0.69c0.58 0.56 0.88 1.35 0.81 2.15C11.4 8.69 11.11 9.54 10.5 10.14zM9 6.9C8.71 6.69 8.36 6.58 8 6.6H6.31v2.65H8c0.36 0.02 0.72 -0.09 1 -0.32c0.26 -0.27 0.39 -0.63 0.36 -1C9.41 7.55 9.27 7.17 9 6.9zM14.41 4.21c0.11 -0.25 0.01 -0.54 -0.24 -0.66L7.5 0.45l-6.71 3.1C0.54 3.67 0.43 3.96 0.55 4.22C0.66 4.47 0.96 4.58 1.21 4.46l0 0L7.5 1.55l6.29 2.9c0.25 0.11 0.54 0.01 0.66 -0.24H14.41z"/>
</svg>