<?xml version="1.0" encoding="UTF-8"?>
<svg viewBox="0 0 15 15" version="1.1" xmlns="http://www.w3.org/2000/svg" xmlns:xlink="http://www.w3.org/1999/xlink">
  <path d="M1.07 0C0.48 0 0 0.48 0 1.07L0 3.21C0 3.81 0.48 4.29 1.07 4.29L11.79 4.29C12.38 4.29 12.86 3.81 12.86 3.21L12.86 2.68L13.93 2.68L13.93 5.36C11.43 5.36 8.93 5.36 6.43 5.36L6.43 7.5L5.36 7.5L5.36 15L8.57 15L8.57 7.5L7.5 7.5L7.5 6.43C10 6.43 12.5 6.43 15 6.43L15 1.61C14.29 1.61 13.57 1.61 12.86 1.61L12.86 1.07C12.86 0.48 12.38 0 11.79 0L1.07 0Z"/>
</svg>