<?xml version="1.0" encoding="UTF-8"?>
<svg viewBox="0 0 15 15" xmlns="http://www.w3.org/2000/svg">
  <path d="M13.5 3.5h-1v-1c0 -0.28 -0.23 -0.5 -0.5 -0.5h-10.49c-0.28 0 -0.5 0.23 -0.5 0.5v2.99c0 0.28 0.23 0.5 0.5 0.5h10.49c0.28 0 0.5 -0.23 0.5 -0.5v-1h0.5v3.1l-6.11 1.41c-0.23 0.05 -0.39 0.25 -0.39 0.49v1.51c-0.28 0.02 -0.5 0.25 -0.5 0.53v2.93c0 0.3 0.24 0.54 0.54 0.54h0.93c0.3 0 0.54 -0.24 0.54 -0.54v-2.93c0 -0.28 -0.22 -0.51 -0.5 -0.53v-1.11l6.11 -1.41c0.23 -0.05 0.39 -0.25 0.39 -0.49v-4c0 -0.28 -0.22 -0.5 -0.5 -0.5z"/>
</svg>