<?xml version="1.0" encoding="UTF-8"?>
<svg viewBox="0 0 15 15" version="1.1" xmlns="http://www.w3.org/2000/svg" xmlns:xlink="http://www.w3.org/1999/xlink">
  <path d="M12.86 2.14L11.79 3.75L11.79 4.29L15 4.29L15 3.75L13.93 2.14L12.86 2.14ZM1.07 2.14L0 3.75L0 4.29L3.21 4.29L3.21 3.75L2.14 2.14L1.07 2.14ZM4.29 4.29L10.71 4.29L10.71 3.21L7.5 0L4.29 3.21L4.29 4.29ZM0 5.36L0 13.93L5.36 13.93C5.36 12.86 5.36 10.71 7.5 10.71C9.64 10.71 9.64 12.86 9.64 13.93L15 13.93L15 5.36L11.81 5.36L11.79 6.43L10.71 6.43L10.75 5.36L4.33 5.36L4.29 6.43L3.21 6.43L3.21 5.36L0 5.36ZM3.21 8.57C4.29 8.57 4.29 9.64 4.29 10.71L2.14 10.71C2.14 9.64 2.14 8.57 3.21 8.57ZM11.79 8.57C12.86 8.57 12.86 9.35 12.86 10.71L10.71 10.74C10.68 9.37 10.71 8.57 11.79 8.57Z"/>
</svg>