<?xml version="1.0" encoding="UTF-8"?>
<svg viewBox="0 0 15 15" version="1.1" xmlns="http://www.w3.org/2000/svg" xmlns:xlink="http://www.w3.org/1999/xlink">
  <path d="M15 0C14.29 0.1 13.57 0.21 12.86 0.33L12.86 10.9L12.31 10.86C10.9 10.76 9.41 11.46 8.76 12.53C8.52 12.92 8.49 13.54 8.71 13.88C9.04 14.41 9.82 14.86 10.67 15C12.64 14.95 14.04 14.25 15 12.82C15 8.57 15 4.29 15 0ZM7.62 0.01C4.99 -0.06 2.4 1.28 0.99 3.71C-1.05 7.26 0.16 11.79 3.71 13.84C4.3 14.18 5.05 13.98 5.39 13.38C5.56 13.11 5.6 12.8 5.53 12.51C5.47 12.22 5.52 11.92 5.68 11.65C6.02 11.05 6.77 10.85 7.36 11.19L7.63 11.35C8.41 10.33 9.57 9.79 10.82 9.56C10.42 9.08 10.36 8.41 10.67 7.87C10.81 7.64 11.01 7.44 11.25 7.32L11.25 5.95C11.07 5.92 10.89 5.86 10.73 5.77C10.03 5.36 9.79 4.46 10.2 3.76C10.42 3.37 10.81 3.11 11.25 3.04L11.25 1.08C11.21 1.05 11.17 1.02 11.12 1C10.01 0.36 8.81 0.04 7.62 0.01ZM7.82 0.98C8.1 0.97 8.38 1.03 8.62 1.17C8.96 1.37 9.21 1.69 9.31 2.07C9.41 2.45 9.36 2.85 9.16 3.19C8.97 3.53 8.64 3.77 8.27 3.87C7.89 3.97 7.49 3.92 7.15 3.72C6.45 3.32 6.21 2.42 6.61 1.72C6.86 1.28 7.32 1 7.82 0.98L7.82 0.98ZM4.02 2.61C4.31 2.6 4.59 2.66 4.83 2.8C5.17 3 5.41 3.32 5.52 3.7C5.62 4.08 5.56 4.48 5.37 4.82C4.96 5.52 4.06 5.76 3.36 5.36C3.02 5.16 2.77 4.84 2.67 4.46C2.57 4.08 2.62 3.68 2.82 3.34C3.07 2.91 3.52 2.63 4.02 2.61Z"/>
</svg>