<?xml version="1.0" encoding="UTF-8"?>
<svg viewBox="0 0 15 15" version="1.1" xmlns="http://www.w3.org/2000/svg" xmlns:xlink="http://www.w3.org/1999/xlink">
  <path d="M7.5 0C3.36 0 0 3.36 0 7.5C0 11.64 3.36 15 7.5 15C8.19 15 8.75 14.44 8.75 13.75C8.75 13.43 8.63 13.13 8.42 12.91C8.23 12.69 8.11 12.4 8.11 12.08C8.11 11.39 8.67 10.83 9.36 10.83L10.83 10.83C13.13 10.83 15 8.97 15 6.67C15 2.98 11.64 0 7.5 0L7.5 0ZM9.57 1.4C10.39 1.4 11.06 2.06 11.06 2.89C11.06 3.28 10.9 3.66 10.62 3.94C10.35 4.22 9.97 4.38 9.57 4.38C9.18 4.38 8.8 4.22 8.52 3.94C8.24 3.66 8.08 3.28 8.08 2.89C8.08 2.06 8.75 1.4 9.57 1.4ZM5.4 1.42C5.79 1.42 6.17 1.58 6.45 1.85C6.73 2.13 6.89 2.51 6.89 2.91C6.89 3.3 6.73 3.68 6.45 3.96C6.17 4.24 5.79 4.4 5.4 4.4C4.58 4.4 3.91 3.73 3.91 2.91C3.91 2.51 4.07 2.13 4.35 1.86C4.63 1.58 5 1.42 5.4 1.42L5.4 1.42ZM2.9 4.76C3.3 4.77 3.67 4.92 3.95 5.2C4.23 5.48 4.39 5.86 4.39 6.25C4.39 7.08 3.72 7.74 2.9 7.74C2.08 7.74 1.41 7.08 1.41 6.25C1.41 5.86 1.57 5.48 1.85 5.2C2.13 4.92 2.51 4.77 2.9 4.76L2.9 4.76ZM12.07 4.76C12.47 4.77 12.84 4.92 13.12 5.2C13.4 5.48 13.56 5.86 13.56 6.25C13.56 7.08 12.89 7.74 12.07 7.74C11.25 7.74 10.58 7.08 10.58 6.25C10.58 5.86 10.74 5.48 11.02 5.2C11.3 4.92 11.68 4.77 12.07 4.76L12.07 4.76Z"/>
</svg>