<?xml version="1.0" encoding="UTF-8"?>
<svg viewBox="0 0 15 15" version="1.1" xmlns="http://www.w3.org/2000/svg" xmlns:xlink="http://www.w3.org/1999/xlink">
  <path d="M7.93 0.75L7.93 12.75C7.93 12.75 12.54 14.25 15 14.14L15 2.14C15 2.14 13.5 2.25 7.93 0.75ZM13.93 11.68C13.07 11.57 11.79 11.36 9.64 10.82L9.64 9.75C11.79 10.29 13.07 10.5 13.93 10.61L13.93 11.68ZM13.93 7.39C13.07 7.29 11.79 7.07 9.64 6.54L9.64 5.46C11.79 6 13.07 6.21 13.93 6.32L13.93 7.39ZM13.93 5.25C13.07 5.14 11.79 4.93 9.64 4.39L9.64 3.32C11.79 3.86 13.07 4.07 13.93 4.18L13.93 5.25Z"/>
  <path d="M0 2.14L0 14.14C2.46 14.25 6.96 12.75 6.96 12.75L6.96 0.75C1.5 2.25 0 2.14 0 2.14ZM5.36 10.82C3.21 11.36 1.93 11.57 1.07 11.68L1.07 10.61C1.93 10.5 3.21 10.29 5.36 9.75L5.36 10.82ZM5.36 8.68C3.21 9.21 1.93 9.43 1.07 9.54L1.07 8.46C1.93 8.36 3.21 8.14 5.36 7.61L5.36 8.68ZM5.36 4.39C3.21 4.93 1.93 5.14 1.07 5.25L1.07 4.18C1.93 4.07 3.21 3.86 5.36 3.32L5.36 4.39Z"/>
</svg>