<?xml version="1.0" encoding="UTF-8"?>
<svg viewBox="0 0 15 15" version="1.1" xmlns="http://www.w3.org/2000/svg" xmlns:xlink="http://www.w3.org/1999/xlink">
  <path d="M5.36 10.71C5.36 9.94 5.36 5 5.36 2.14C5.36 1.07 5.36 1.07 6.43 1.07L7.5 1.07C8.57 1.07 8.57 1.07 8.57 2.14L8.56 9.65L7.49 9.65L7.5 3.21L6.43 3.21C6.43 5 6.42 7.87 6.42 9.65C6.42 10.72 6.42 10.71 7.5 10.71L8.56 10.72C9.63 10.72 9.63 10.72 9.63 9.65L9.64 2.14C9.65 0 9.64 0 7.5 0C6.43 0 7.5 0 6.43 0C4.29 0 4.29 0 4.29 2.14C4.29 5.36 4.29 7.5 4.29 10.71C4.29 11.79 4.29 11.79 7.13 14.65C7.35 14.97 7.5 15 8.08 15C8.57 15 8.78 15.02 9.11 14.66C11.79 11.79 11.79 11.79 11.79 10.71C11.79 7.14 11.79 5.71 11.79 2.14L10.71 2.14L10.71 10.71C10.71 11.24 8.57 14.17 8.1 13.93C7.5 14.1 5.36 11.41 5.36 10.71Z"/>
</svg>