<?xml version="1.0" encoding="UTF-8"?>
<svg viewBox="0 0 15 15" version="1.1" xmlns="http://www.w3.org/2000/svg" xmlns:xlink="http://www.w3.org/1999/xlink">
  <path d="M3.32 3.21C3.96 3.11 4.5 2.46 4.39 1.82C4.29 1.18 3.75 0.64 3 0.75C2.36 0.86 1.93 1.5 1.93 2.14C2.04 2.79 2.68 3.32 3.32 3.21Z"/>
  <path d="M13.93 12.32C13.61 12.54 13.29 12.86 12.86 12.86C12.32 12.86 12.11 12.54 11.79 12.32C11.57 12.11 11.14 11.79 10.71 11.79C10.29 11.79 9.96 12.11 9.64 12.32C9.43 12.54 9 12.86 8.57 12.86C8.14 12.86 7.82 12.54 7.5 12.32C7.18 12.11 6.96 11.79 6.43 11.79C5.89 11.79 5.57 12.11 5.36 12.32C5.14 12.54 4.82 12.86 4.29 12.86C3.75 12.86 3.43 12.54 3.21 12.32C3 12.11 2.79 11.79 2.14 11.79C1.61 11.79 1.29 12.11 1.07 12.32C0.86 12.54 0 12.86 0 12.86L0 13.93L0 15C0 15 0.86 14.68 1.07 14.46C1.29 14.25 1.61 13.93 2.14 13.93C2.79 13.93 3 14.25 3.21 14.46C3.43 14.68 3.75 15 4.29 15C4.82 15 5.14 14.68 5.36 14.46C5.57 14.25 5.89 13.93 6.43 13.93C6.96 13.93 7.18 14.25 7.5 14.46C7.82 14.68 8.14 15 8.57 15C9 15 9.43 14.68 9.64 14.46C9.96 14.25 10.29 13.93 10.71 13.93C11.14 13.93 11.57 14.25 11.79 14.46C12.11 14.68 12.32 15 12.86 15C13.29 15 13.61 14.68 13.93 14.46C14.25 14.25 15 13.93 15 13.93L15 12.86L15 11.79C15 11.79 14.25 12.11 13.93 12.32Z"/>
  <path d="M14.36 8.57C13.5 8.57 13.07 7.29 12.75 6.86C12.64 6.75 9.32 6.54 8.89 7.29L7.29 5.46C7.29 5.46 7.18 5.36 6.86 5.25C6.75 5.25 6.64 5.36 6.43 5.46L4.82 6.96L4.07 4.39L4.07 4.39C3.86 3.86 3.32 3.54 2.68 3.64C2.04 3.64 1.61 4.29 1.61 4.93C1.61 5.04 1.61 5.04 1.61 5.14L1.61 5.14L1.61 5.14C1.61 5.14 1.61 5.14 1.61 5.14L2.46 8.14C2.46 8.14 2.57 8.25 2.89 8.46L0 8.46L0 11.68C0 11.68 0.86 11.36 1.07 11.14C1.29 11.04 1.61 10.71 2.14 10.71C2.79 10.71 3 11.04 3.21 11.25C3.43 11.46 3.75 11.79 4.29 11.79C4.82 11.79 5.14 11.46 5.36 11.25C5.57 11.04 5.89 10.71 6.43 10.71C6.96 10.71 7.18 11.04 7.5 11.25C7.82 11.46 8.14 11.79 8.57 11.79C9 11.79 9.43 11.46 9.64 11.25C9.96 11.04 10.29 10.71 10.71 10.71C11.14 10.71 11.57 11.04 11.79 11.25C11.89 11.36 12 11.36 12.11 11.46L15 8.57L14.36 8.57ZM6.96 7.18L7.82 8.57L5.79 8.57L6.96 7.18Z"/>
</svg>