<?xml version="1.0" encoding="UTF-8"?>
<svg viewBox="0 0 15 15" xmlns="http://www.w3.org/2000/svg">
  <path d="M5.54 3.65L3.11 3l0.44 -1.63a0.51 0.51 0 0 1 0.62 -0.35l1.46 0.39a0.5 0.5 0 0 1 0.36 0.61l-0.44 1.62Zm-4.52 7.36a0.5 0.5 0 0 1 0 -0.28l1.82 -6.73l2.44 0.65l-1.82 6.73a0.5 0.5 0 0 1 -0.14 0.24l-1.46 1.35a0.15 0.15 0 0 1 -0.25 -0.07l-0.58 -1.89ZM10 5c-2.25 0 -3 -0.75 -3 -3c2.25 0 3 0.75 3 3Zm-1.4 7.98c-1.37 0.21 -3.13 -1.71 -3.52 -3.8L5.97 5.9c0.4 -0.35 0.9 -0.53 1.42 -0.53a2.71 2.71 0 0 1 1.56 0.49a0.96 0.96 0 0 0 1.09 -0.01a2.44 2.44 0 0 1 1.46 -0.48c0.77 0 1.64 0.49 2.05 1.2c1.54 2.7 -1.19 6.71 -3.14 6.42a0.87 0.87 0 0 1 -0.25 -0.09a1.43 1.43 0 0 0 -1.3 0a0.87 0.87 0 0 1 -0.25 0.09Z"/>
</svg>