<?xml version="1.0" encoding="UTF-8"?>
<svg viewBox="0 0 15 15" version="1.1" xmlns="http://www.w3.org/2000/svg" xmlns:xlink="http://www.w3.org/1999/xlink">
  <path d="M10.71 4.29C11.31 4.29 11.79 3.81 11.79 3.21C11.79 2.62 11.31 2.14 10.71 2.14C10.12 2.14 9.64 2.62 9.64 3.21C9.64 3.81 10.12 4.29 10.71 4.29ZM5.36 4.29C5.95 4.29 6.43 3.81 6.43 3.21C6.43 2.62 5.95 2.14 5.36 2.14C4.77 2.14 4.29 2.62 4.29 3.21C4.29 3.81 4.77 4.29 5.36 4.29ZM2.14 4.29C2.73 4.29 3.21 3.81 3.21 3.21C3.21 2.62 2.73 2.14 2.14 2.14C1.55 2.14 1.07 2.62 1.07 3.21C1.07 3.81 1.55 4.29 2.14 4.29ZM6.43 5.36L7.5 6.43L7.5 9.64L6.43 9.64L6.43 13.93L4.29 13.93L4.29 9.64L3.21 9.64L3.21 13.93L1.07 13.93L1.07 9.64L0 9.64L0 6.43L1.07 5.36L6.43 5.36ZM11.79 13.93L9.64 13.93L9.64 5.36L12.86 5.36L12.86 6.43L11.79 6.43L11.79 13.93ZM9.64 5.36L8.57 6.43L8.57 9.64L9.64 9.64L9.64 5.36ZM13.93 4.29C13.93 3.21 15 3.21 15 4.29C15 5.36 13.93 6.43 13.93 6.43L12.86 6.43L12.86 5.36C12.86 5.36 13.93 5.36 13.93 4.29"/>
</svg>