<?xml version="1.0" encoding="UTF-8"?>
<svg viewBox="0 0 15 15" version="1.1" xmlns="http://www.w3.org/2000/svg" xmlns:xlink="http://www.w3.org/1999/xlink">
  <path d="M10.02 10.7L10.77 11.39L12.14 9.82L10.57 8.45L9.89 9.2z"/>
  <path d="M14.45 11.73L11.45 11.73L11.45 14.73L13.5 14.73L14.45 13.7z"/>
  <path d="M9.07 14.93L10.09 14.59L9.2 11.59L7.02 12.2L6.61 14.05z"/>
  <path d="M7.02 1.64C4.7 0.27 3.48 0.27 1.36 0L1.3 0.41C3.89 1.02 4.57 1.64 6.34 2.73L6.61 3.89L0.68 13.7C0.61 13.84 0.61 13.98 0.61 14.11C0.61 14.59 1.02 15 1.5 15C1.84 15 2.11 14.86 2.25 14.59L8.11 4.98L10.5 6.48L11.73 4.43L7.02 1.64"/>
</svg>