<?xml version="1.0" encoding="UTF-8"?>
<svg version="1.1" xmlns="http://www.w3.org/2000/svg" viewBox="0 0 15 15">
  <path d="M4 3C3.45 3 3 3.45 3 4s0.45 1 1 1h1.3L4.65 7H2.5c-0.55 0 -1 0.45 -1 1s0.45 1 1 1h1.51L3.04 12.01c-0.13 0.39 0.09 0.82 0.48 0.95s0.82 -0.09 0.95 -0.48c0 0 0 0 0 0L5.59 9h3.83l1.12 3.47c0.13 0.39 0.55 0.61 0.94 0.48s0.61 -0.55 0.48 -0.94l0 0L10.99 9H12.5c0.55 0 1 -0.45 1 -1s-0.45 -1 -1 -1h-2.15L9.7 5H11c0.55 0 1 -0.45 1 -1s-0.45 -1 -1 -1H4zM6.87 5H8.13l0.64 2h-2.54L6.87 5z"/>
</svg>