<?xml version="1.0" encoding="UTF-8"?>
<svg viewBox="0 0 15 15" version="1.1" xmlns="http://www.w3.org/2000/svg" xmlns:xlink="http://www.w3.org/1999/xlink">
  <path d="M8 6.46L8 15L7 15L7 6.46C7.16 6.49 7.33 6.5 7.5 6.5C7.67 6.5 7.84 6.49 8 6.46ZM7.5 0C9.16 0 10.5 1.34 10.5 3C10.5 4.48 9.43 5.71 8.02 5.96L8 5.96L7.85 5.98C7.74 5.99 7.62 6 7.5 6C7.33 6 7.16 5.99 7 5.96L6.98 5.96C5.57 5.71 4.5 4.48 4.5 3C4.5 1.34 5.84 0 7.5 0ZM6.09 1.59C5.5 2.18 5.54 3.16 5.73 3.36C5.93 3.55 6.03 2.71 6.62 2.12C7.2 1.54 8.05 1.43 7.85 1.24C7.66 1.04 6.67 1 6.09 1.59Z"/>
</svg>