<?xml version="1.0" encoding="UTF-8"?>
<svg version="1.1" xmlns="http://www.w3.org/2000/svg" viewBox="0 0 15 15">
  <path d="M12 5V2c0 0 -1 -1 -4.5 -1S3 2 3 2v3c0.03 1.39 0.37 2.76 1 4c0.63 1.43 0.63 3.07 0 4.5c0 0 0 1 3.5 1s3.5 -1 3.5 -1c-0.63 -1.43 -0.63 -3.07 0 -4.5C11.63 7.76 11.97 6.39 12 5zM7.5 13.5c-0.8 0.04 -1.59 -0.06 -2.36 -0.28c0.2 -0.72 0.3 -1.47 0.3 -2.22h4.12c0 0.75 0.1 1.5 0.3 2.22C9.09 13.44 8.3 13.54 7.5 13.5zM7.5 5C6.31 5.03 5.13 4.86 4 4.5v-2C5.13 2.14 6.31 1.97 7.5 2C8.69 1.97 9.87 2.14 11 2.5v2C9.87 4.86 8.69 5.03 7.5 5z"/>
</svg>