<?xml version="1.0" encoding="UTF-8"?>
<svg viewBox="0 0 15 15" version="1.1" xmlns="http://www.w3.org/2000/svg" xmlns:xlink="http://www.w3.org/1999/xlink">
  <path d="M1 1L4.71 1L4.71 2.85L1 2.85L1 1ZM10.29 1L14 1L14 2.85L10.29 2.85L10.29 1ZM4.71 2.85L4.71 4.69L2.86 4.69L2.86 6.54L1 6.54L1 14L2.86 14L2.86 12.15L4.71 12.15L4.71 14L6.57 14L6.57 12.15L8.43 12.15L8.43 14L10.29 14L10.29 12.15L12.14 12.15L12.14 14L14 14L14 6.54L12.14 6.54L12.14 4.69L10.29 4.69L10.29 2.85L8.43 2.85L8.43 4.69L6.57 4.69L6.57 2.85L4.71 2.85ZM4.71 6.54L6.57 6.54L6.57 8.38L4.71 8.38L4.71 6.54ZM8.43 6.54L10.29 6.54L10.29 8.38L8.43 8.38L8.43 6.54Z"/>
</svg>