<?xml version="1.0" encoding="UTF-8"?>
<svg viewBox="0 0 15 15" xmlns="http://www.w3.org/2000/svg">
  <path d="M1.39 7.93L0.03 7.32A14.05 14.05 0 0 1 7.76 0l0.03 0.07l0.51 1.33l0 0a12.61 12.61 0 0 0 -6.91 6.53Zm10.96 4.96L2.42 8.41a11.6 11.6 0 0 1 6.35 -6.01l0 0l0.82 2.12c-0.03 0 -0.05 -0.02 -0.08 -0.02a1.06 1.06 0 1 0 0.76 1.79l2.41 6.27a0.25 0.25 0 0 1 -0.33 0.32ZM7.43 7.52a0.93 0.93 0 1 0 -1.85 0a0.93 0.93 0 0 0 1.85 0Zm3.02 2.03a0.93 0.93 0 1 0 -0.07 0.35a0.92 0.92 0 0 0 0.07 -0.35Z"/>
</svg>