<?xml version="1.0" encoding="UTF-8"?>
<svg viewBox="0 0 15 15" version="1.1" xmlns="http://www.w3.org/2000/svg" xmlns:xlink="http://www.w3.org/1999/xlink">
  <path d="M2.14 1.07C0.89 1.07 0 1.92 0 3.21L0 15L7.5 15L7.5 6.56C7.5 6.56 8.44 6.43 8.44 7.5L8.44 11.79C8.44 13.93 10.44 14.06 10.71 14.06C11.01 14.06 12.99 13.93 12.99 11.79L12.99 7.5C12.99 7.5 14.48 7.52 14.46 4.32L13.66 4.32L13.66 2.18C13.66 1.57 12.86 1.57 12.86 2.14L12.86 4.29L11.79 4.29L11.79 2.14C11.79 1.56 10.98 1.56 10.98 2.14L10.98 4.29L10.18 4.29C10.19 7.49 11.65 7.5 11.65 7.5L11.65 11.79C11.65 12.72 10.83 12.72 10.71 12.72C10.6 12.72 9.78 12.68 9.78 11.79L9.78 7.5C9.78 6.13 8.57 5.22 7.5 5.22L7.5 3.21C7.5 1.9 6.63 1.07 5.36 1.07L2.14 1.07ZM3.18 3.21L6.13 3.21L4.29 6.07L6.5 6.07L2.44 11.79L1.71 11.79L3.18 7.5L1.34 7.5L3.18 3.21Z"/>
</svg>