<?xml version="1.0" encoding="UTF-8"?>
<svg viewBox="0 0 15 15" version="1.1" xmlns="http://www.w3.org/2000/svg" xmlns:xlink="http://www.w3.org/1999/xlink">
  <path d="M7.5,2 C8.05228475,2 8.5,2.44771525 8.5,3 L8.5,6.5 L14,6.5 C14.5522847,6.5 15,6.94771525 15,7.5 C15,8.05228475 14.5522847,8.5 14,8.5 L8.5,8.5 L8.5,12 C8.5,12.5522847 8.05228475,13 7.5,13 C6.94771525,13 6.5,12.5522847 6.5,12 L6.5,8.5 L1,8.5 C0.44771525,8.5 0,8.05228475 0,7.5 C0,6.94771525 0.44771525,6.5 1,6.5 L6.5,6.5 L6.5,3 C6.5,2.44771525 6.94771525,2 7.5,2 Z"/>
</svg>