<?xml version="1.0" encoding="UTF-8"?>
<svg viewBox="0 0 15 15" version="1.1" xmlns="http://www.w3.org/2000/svg" xmlns:xlink="http://www.w3.org/1999/xlink">
  <path d="M7.52 2.27C8.06 2.27 8.48 1.84 8.48 1.31C8.48 0.79 8.06 0.35 7.52 0.35C6.99 0.35 6.56 0.79 6.56 1.31C6.56 1.84 6.99 2.27 7.52 2.27ZM13.55 13.25C13.29 13.13 12.99 13.06 12.68 13.06C12.37 13.06 12.07 13.13 11.8 13.25C11.54 13.37 11.25 13.43 10.95 13.43C10.65 13.43 10.36 13.37 10.1 13.25C9.84 13.13 9.54 13.06 9.23 13.06C8.91 13.06 8.61 13.13 8.35 13.25C8.09 13.37 7.8 13.44 7.5 13.44C7.19 13.44 6.91 13.37 6.65 13.26C6.38 13.13 6.08 13.06 5.77 13.06C5.46 13.06 5.16 13.13 4.89 13.26C4.64 13.37 4.35 13.44 4.05 13.44C3.74 13.44 3.45 13.37 3.2 13.26C2.93 13.14 2.63 13.07 2.32 13.07C2.01 13.07 1.71 13.14 1.44 13.26C1.18 13.37 0.89 13.44 0.59 13.44L0.59 14.71C0.89 14.71 1.18 14.65 1.44 14.53C1.71 14.41 2.01 14.34 2.32 14.34C2.63 14.34 2.93 14.41 3.2 14.53C3.45 14.65 3.74 14.72 4.05 14.72C4.35 14.72 4.64 14.65 4.89 14.54C5.16 14.41 5.46 14.34 5.77 14.34C6.08 14.34 6.38 14.41 6.65 14.54C6.91 14.65 7.19 14.72 7.5 14.72C7.8 14.72 8.09 14.65 8.35 14.54C8.61 14.42 8.91 14.34 9.23 14.34C9.54 14.34 9.84 14.42 10.1 14.54C10.36 14.66 10.65 14.72 10.95 14.72C11.26 14.72 11.54 14.66 11.8 14.54C12.07 14.42 12.37 14.35 12.68 14.35C12.99 14.35 13.29 14.42 13.55 14.54C13.81 14.66 14.1 14.72 14.4 14.72L14.4 13.46C14.1 13.46 13.81 13.39 13.55 13.27L13.55 13.25ZM13.63 0.32C13.56 0.29 13.46 0.3 13.4 0.36L9.89 3.9C9.83 3.87 9.76 3.9 9.69 3.9L8.36 3.9C8.14 3.6 6.94 2.43 6.94 2.43C6.88 2.37 6.8 2.31 6.72 2.29C6.44 2.05 6.03 2.05 5.76 2.31L3.71 4.37C3.63 4.45 3.6 4.55 3.6 4.67L3.6 6L0.6 6L0.6 6.6L3.6 6.6L3.6 10.06C3.6 10.49 3.92 10.83 4.35 10.83C4.77 10.83 5.1 10.49 5.1 10.06L5.1 6.6L7.2 6.6L7.2 11.1L0.6 11.1L0.6 12L7.8 12L7.8 6.6L8.7 6.6L8.7 6L5.1 6L5.1 5.76L7.04 3.83L7.84 4.64C7.92 4.73 8.05 4.8 8.17 4.8L9.69 4.8C9.95 4.8 10.2 4.76 10.2 4.5C10.2 4.44 10.22 4.26 10.2 4.2C11.03 3.38 13.2 1.34 13.5 0.92L13.5 12L13.8 12L13.8 0.49C13.8 0.41 13.7 0.35 13.63 0.32L13.63 0.32Z"/>
</svg>