<?xml version="1.0" encoding="UTF-8"?>
<svg viewBox="0 0 15 15" xmlns="http://www.w3.org/2000/svg">
  <path d="M10.5 1C9.1 0.96 7.85 1.89 7.5 3.25C7.15 1.89 5.9 0.96 4.5 1C2.77 0.95 2.24 2.8 2.82 4H1.5C1.22 4 1 4.22 1 4.5V5.5C1 5.78 1.22 6 1.5 6H13.5C13.78 6 14 5.78 14 5.5V4.5C14 4.22 13.78 4 13.5 4H12.19C12.8 2.82 12.29 1 10.54 1C10.53 1 10.51 1 10.5 1ZM10.68 4H8.5C8.5 2.9 9.4 2 10.5 2C11.68 2 11.88 3.87 10.68 4ZM6.5 4H4.29C3.26 3.88 3.2 2.11 4.33 2C4.39 2 4.44 2 4.5 2C5.6 2 6.5 2.9 6.5 4ZM2 7V11.5C2 12.33 2.67 13 3.5 13H6.5V7H2ZM8.5 7V13H11.5C12.33 13 13 12.33 13 11.5V7H8.5Z"/>
</svg>