<?xml version="1.0" encoding="UTF-8"?>
<svg viewBox="0 0 15 15" version="1.1" xmlns="http://www.w3.org/2000/svg" xmlns:xlink="http://www.w3.org/1999/xlink">
  <path d="M1 1L1 14L14 14L14 1L1 1ZM1.93 1.93L4.71 1.93L4.71 13.07L4.25 13.07L4.25 9.15C3.97 9.48 3.79 9.88 3.79 10.29L3.79 13.07L1.93 13.07L1.93 1.93ZM5.64 1.93L9.36 1.93L9.36 13.07L8.89 13.07L8.89 8.43L6.11 8.43L6.11 13.07L5.64 13.07L5.64 1.93ZM10.29 1.93L13.07 1.93L13.07 13.07L11.21 13.07L11.21 10.29C11.21 9.88 11.03 9.48 10.75 9.15L10.75 13.07L10.29 13.07L10.29 1.93ZM7.5 3.79C6.94 3.79 6.45 4.03 6.11 4.42L6.11 6.86C6.45 7.25 6.94 7.5 7.5 7.5C8.06 7.5 8.55 7.25 8.89 6.86L8.89 4.42C8.55 4.03 8.06 3.79 7.5 3.79Z"/>
</svg>