<?xml version="1.0" encoding="UTF-8"?>
<svg viewBox="0 0 15 15" version="1.1" xmlns="http://www.w3.org/2000/svg" xmlns:xlink="http://www.w3.org/1999/xlink">
  <path d="M10.45 2.75L10.45 0L4.55 0L4.55 2.75C3.1 3 2 4.25 2 5.75L2 10.55C2 12.05 3.1 13.3 4.55 13.55L4.55 15L10.4 15L10.4 13.55C11.85 13.3 12.95 12.05 12.95 10.55L12.95 5.75C12.95 4.25 11.85 3 10.45 2.75ZM8 1L9.5 1L9.5 2.5L8 2.5L8 1ZM5.5 1L7 1L7 2.5L5.5 2.5L5.5 1ZM6.5 11L4.55 11L3.85 9.8L4.75 8.25L3.8 7.7L5.6 7.6L6.4 9.2L5.6 8.75L5 9.8L5.1 10L6.5 10L6.5 11ZM6.65 7L5.8 6.45L6.8 4.7L8.2 4.7L9.25 6.5L10.15 6L9.35 7.6L7.55 7.5L8.4 7L7.65 5.7L7.4 5.7L6.65 7ZM10.45 11L8.5 11L8.5 12L7.5 10.5L8.5 9L8.5 10L9.9 10L10 9.8L9.4 8.8L10.25 8.3L11.1 9.8L10.45 11Z"/>
</svg>