<?xml version="1.0" encoding="UTF-8"?>
<svg viewBox="0 0 15 15" version="1.1" xmlns="http://www.w3.org/2000/svg" xmlns:xlink="http://www.w3.org/1999/xlink">
  <path d="M6.45 2.4L6.29 2.69C6.18 2.91 5.96 3 5.71 3L5.33 3C5.55 3.3 5.9 3.55 6.31 3.55C6.97 3.55 7.5 3.04 7.5 2.38L7.5 2.4L6.51 2.4C6.48 2.4 6.46 2.38 6.45 2.4L6.45 2.4ZM5.71 2.7C5.84 2.7 5.96 2.66 6.01 2.54L6.17 2.26C6.23 2.13 6.36 2.1 6.5 2.1L7.75 2.1C7.59 1.5 7 0.95 6.31 0.95C5.5 0.95 4.83 1.55 4.83 2.37C4.83 2.5 4.85 2.7 4.88 2.7L5.71 2.7L5.71 2.7ZM9.81 9.3C10.92 9.3 13.82 8.96 14.61 8.2C14.25 7.09 12.84 7.01 11.54 7.57C11.32 7.66 11.02 7.73 10.68 7.8L10.41 6.77C10.63 6.66 10.76 6.44 10.75 6.18C10.74 5.84 10.45 5.57 10.1 5.58L9.91 4.83C10.1 4.69 10.2 4.44 10.15 4.19C10.07 3.86 9.74 3.64 9.4 3.72C9.4 3.72 6.65 3.74 5.79 3.98C4.93 4.21 4.64 5.65 4.64 5.65L3.88 8.1L0.3 8.1L0.3 9.3L9.81 9.3L9.81 9.3ZM7.34 5.04L9.47 4.95L9.64 5.61C9.07 5.63 8.04 5.69 7.13 5.74L7.34 5.04L7.34 5.04ZM6.74 6.99L9.96 6.85L10.23 7.87C8.91 8.06 7.21 8.09 6.41 8.09L6.74 6.99L6.74 6.99ZM12.76 10.68C12.76 10.68 14.7 10.66 14.7 8.76C14.7 8.68 14.7 8.63 14.69 8.55C13.47 9.43 10.22 9.6 9.81 9.6L0.3 9.6L0.3 11.07C0.53 11.07 0.77 11.02 0.98 10.93C1.32 10.77 1.7 10.68 2.08 10.68C2.45 10.68 2.83 10.77 3.17 10.92C3.39 11.02 3.62 11.07 3.86 11.07C4.09 11.07 4.32 11.02 4.54 10.93C4.88 10.77 5.26 10.68 5.64 10.68C6.02 10.68 6.39 10.76 6.73 10.92C6.95 11.02 7.19 11.07 7.42 11.07C7.65 11.07 7.88 11.02 8.1 10.93C8.44 10.77 8.82 10.68 9.2 10.68C9.58 10.68 9.95 10.76 10.29 10.92C10.51 11.02 10.75 11.07 10.98 11.07L11.06 11.07L11.35 12.15C11.22 12.17 11.1 12.19 10.98 12.19C10.67 12.19 10.37 12.12 10.1 12C9.82 11.88 9.52 11.8 9.2 11.8C8.87 11.8 8.57 11.88 8.29 12C8.03 12.12 7.73 12.19 7.42 12.19C7.11 12.19 6.81 12.13 6.54 12.01C6.27 11.88 5.96 11.81 5.64 11.81C5.31 11.81 5.01 11.88 4.73 12.01C4.47 12.13 4.17 12.2 3.86 12.2C3.55 12.2 3.25 12.13 2.99 12.01C2.72 11.88 2.41 11.81 2.09 11.81C1.77 11.81 1.46 11.88 1.19 12.01C0.92 12.13 0.62 12.2 0.31 12.2L0.31 13.51C0.62 13.51 0.92 13.44 1.19 13.32C1.46 13.19 1.77 13.12 2.09 13.12C2.41 13.12 2.72 13.19 2.99 13.32C3.26 13.44 3.56 13.51 3.86 13.51C4.17 13.51 4.47 13.44 4.73 13.32C5.01 13.19 5.32 13.12 5.64 13.12C5.96 13.12 6.27 13.19 6.54 13.32C6.81 13.44 7.11 13.51 7.42 13.51C7.73 13.51 8.03 13.44 8.3 13.32C8.57 13.19 8.88 13.12 9.2 13.12C9.52 13.12 9.83 13.19 10.1 13.32C10.37 13.44 10.67 13.51 10.98 13.51C11.29 13.51 11.59 13.44 11.85 13.32C12.13 13.19 12.44 13.12 12.76 13.12C13.08 13.12 13.32 13.19 13.6 13.32C13.86 13.44 14.11 13.51 14.41 13.51L14.41 12.2C14.11 12.2 13.86 12.13 13.6 12.01C13.32 11.89 13.05 11.81 12.73 11.81C12.41 11.81 12.11 11.89 11.84 12.01L11.78 12.04L11.51 10.99L11.66 10.94C12.01 10.78 12.39 10.69 12.77 10.69L12.76 10.68Z"/>
</svg>