<?xml version="1.0" encoding="UTF-8"?>
<svg viewBox="0 0 15 15" version="1.1" xmlns="http://www.w3.org/2000/svg" xmlns:xlink="http://www.w3.org/1999/xlink">
  <path d="M11.9122668,7.53864126 C13.783748,8.03729422 15,8.84495802 15,9.75649312 C15,11.2710765 11.6421356,12.498889 7.5,12.498889 C3.35786438,12.498889 0,11.2710765 0,9.75649312 C0,8.84495802 1.21625199,8.03729422 3.08773317,7.53864126 L2.32440072,9.33054252 C4.03997176,10.0698643 5.76745567,10.4420921 7.5,10.4420921 C9.23254433,10.4420921 10.9600282,10.0698643 12.6755993,9.33054252 L11.9122668,7.53864126 Z M7.95401407,2.62013379 L9.5,4 L10.4941779,4.38389771 C10.6848735,4.45753402 10.8324685,4.61284642 10.8962986,4.80704431 L11.7746611,7.48063119 C10.3406523,8.08534307 8.91790429,8.3852952 7.5,8.3852952 C6.18247832,8.3852952 4.86077447,8.12631077 3.52974011,7.60448479 L3.225,7.47888896 L4.10370139,4.80704431 C4.16753149,4.61284642 4.3151265,4.45753402 4.50582206,4.38389771 L5.5,4 L7.04598593,2.62013379 C7.30464046,2.38927228 7.69535954,2.38927228 7.95401407,2.62013379 Z M7,4 L5,5.5 L6.00857326,5.5 C6.30204854,5.5 6.56259775,5.31220675 6.65540278,5.03379166 L7,4 Z M8,4 L8.34459722,5.03379166 C8.43740225,5.31220675 8.69795146,5.5 8.99142674,5.5 L10,5.5 L8,4 Z"/>
</svg>