<?xml version="1.0" encoding="UTF-8"?>
<svg xmlns="http://www.w3.org/2000/svg" viewBox="0 0 15 15">
  <path d="M13.13 1.87c-1.54 -1.54 -4.55 -0.78 -6.28 1.05a6.83 6.83 0 0 0 -1.88 4.4a5.73 5.73 0 0 1 -0.57 2.72a0.68 0.68 0 0 0 -0.67 0.17l-2.49 2.5a0.69 0.69 0 0 0 0 0.98l0.07 0.07a0.71 0.71 0 0 0 0.98 0l2.5 -2.49a0.68 0.68 0 0 0 0.18 -0.66a8.57 8.57 0 0 1 3.12 -0.58a6.55 6.55 0 0 0 3.99 -1.87C14.11 6.13 14.58 3.32 13.13 1.87Zm-2.2 -0.04a2.31 2.31 0 0 1 1.64 0.61a2.55 2.55 0 0 1 0.5 2.44l-2.95 -2.96A3.86 3.86 0 0 1 10.93 1.83Zm-4.57 6.81a2.65 2.65 0 0 1 -0.48 -2.55l3.04 3.04A2.85 2.85 0 0 1 6.36 8.64Zm2.88 0.39l-3.26 -3.27a5.16 5.16 0 0 1 0.49 -1.08l3.85 3.85A5.51 5.51 0 0 1 9.24 9.03Zm1.34 -0.66l-3.94 -3.95a5.2 5.2 0 0 1 0.74 -0.9l4.1 4.1A5.69 5.69 0 0 1 10.58 8.37Zm1.11 -0.96l-4.1 -4.1a5.57 5.57 0 0 1 0.84 -0.65l3.92 3.92A5.72 5.72 0 0 1 11.69 7.41Zm0.82 -1.09L8.7 2.5a4.17 4.17 0 0 1 1.09 -0.48l3.2 3.2A5.57 5.57 0 0 1 12.51 6.32Z"/>
</svg>