<?xml version="1.0" encoding="UTF-8"?>
<svg xmlns="http://www.w3.org/2000/svg" viewBox="0 0 15 15">
  <path d="M2.46 8.61C2.12 9.21 1.5 10.3 2.59 11.03c0.34 0.23 0.73 0.38 1.13 0.46C4.03 11.54 4.05 12.01 3.69 12c-0.38 -0.02 -2.26 -0.19 -2.56 -1.6c-0.16 -0.82 0.02 -1.56 0.5 -2.36L2.33 6.81L1.02 6.07L4.5 4v4L3.19 7.31L2.46 8.61zM6.7 2.03c1.16 -0.63 1.82 0.43 2.19 1.01l0.81 1.26L8.43 5.11L12 6.99L11.8 2.96l-1.26 0.81L9.78 2.58C9.26 1.83 8.88 1.28 7.94 1.03C6.31 0.72 5.3 2.62 5.31 2.61c-0.16 0.29 0.22 0.54 0.45 0.21C6.02 2.5 6.34 2.23 6.7 2.03zM13.29 8.22c-0.09 -0.19 -0.55 -0.14 -0.42 0.27c0.13 0.39 0.18 0.8 0.16 1.21C12.94 11.01 11.68 11 11 11H9.5V9.5l-3.5 2l3.49 2.03L9.49 12H11c0.89 0.02 1.6 -0.18 2.2 -0.71C14.4 10.23 13.29 8.22 13.29 8.22z"/>
</svg>