<?xml version="1.0" encoding="UTF-8"?>
<svg viewBox="0 0 15 15" version="1.1" xmlns="http://www.w3.org/2000/svg" xmlns:xlink="http://www.w3.org/1999/xlink">
  <path d="M6.14 4.09H10.23V5.09H6.14V4.09z"/>
  <path d="M5.25 6.55L3.82 6.48C3.27 6.48 3.27 6 3.27 6L0 6L0 5.18L0.34 5.18C0.34 5.18 0.41 5.18 0.41 5.25L0.48 5.45L10.23 5.45C10.36 5.45 10.43 5.52 10.5 5.59L11.11 6.14L14.05 6.14C15.14 6.2 15 7.5 15 7.5L15 12.95L10.36 12.95L10.36 9.14L9.27 9.61C8.66 10.02 8.32 9.68 8.32 9.68L5.45 7.36C4.98 6.95 5.18 6.48 5.25 6.55L5.25 6.55ZM7.02 6.61L8.59 7.91L9.95 7.3C9.41 7.23 9.48 6.68 9.48 6.68L7.02 6.61Z"/>
  <path d="M10.91 3.75a1.7 1.7 0 1 0 3.41 0a1.7 1.7 0 1 0 -3.41 0z"/>
</svg>