<?xml version="1.0" encoding="UTF-8"?>
<svg viewBox="0 0 15 15" version="1.1" xmlns="http://www.w3.org/2000/svg" xmlns:xlink="http://www.w3.org/1999/xlink">
  <path d="M11,2 L13,2 C13.55,2 14,2.45 14,3 L14,5 C14.55,5 15,5.45 15,6 L15,11 C15,11.55 14.55,12 14,12 L14,14 L13,14 L13,12 C12.45,12 12,11.55 12,11 L12,6 C12,5.45 12.45,5 13,5 L13,3 L11,3 C11,3.55 10.55,4 10,4 L5,4 C4.45,4 4,3.55 4,3 L2,3 L2,5 C2.55,5 3,5.45 3,6 L3,11 C3,11.55 2.55,12 2,12 L2,14 L1,14 L1,12 C0.45,12 0,11.55 0,11 L0,6 C0,5.45 0.45,5 1,5 L1,3 C1,2.45 1.45,2 2,2 L4,2 C4,1.45 4.45,1 5,1 L10,1 C10.55,1 11,1.45 11,2 Z"/>
</svg>