<?xml version="1.0" encoding="UTF-8"?>
<svg viewBox="0 0 15 15" version="1.1" xmlns="http://www.w3.org/2000/svg" xmlns:xlink="http://www.w3.org/1999/xlink">
  <path d="M9.75 4.02C10.5 4.02 11.11 3.41 11.11 2.66C11.11 1.91 10.5 1.3 9.75 1.3C9 1.3 8.39 1.91 8.39 2.66C8.39 3.41 9 4.02 9.75 4.02Z"/>
  <path d="M15 13.64C14.66 13.64 14.39 13.57 14.11 13.43C13.84 13.3 13.5 13.23 13.23 13.23C12.89 13.23 12.61 13.3 12.34 13.43C12.07 13.57 11.8 13.64 11.45 13.64C11.11 13.64 10.84 13.57 10.57 13.43C10.3 13.3 9.95 13.23 9.68 13.23C9.34 13.23 9.07 13.3 8.8 13.43C8.52 13.57 8.25 13.64 7.91 13.64C7.57 13.64 7.3 13.57 7.02 13.43C6.75 13.3 6.41 13.23 6.14 13.23C5.8 13.23 5.52 13.3 5.25 13.43C4.77 13.57 4.5 13.64 4.16 13.64C3.82 13.64 3.55 13.57 3.27 13.43C3 13.3 2.66 13.23 2.39 13.23C2.05 13.23 1.77 13.3 1.5 13.43C1.16 13.57 0.89 13.64 0.55 13.64L0.55 12.27C0.89 12.27 1.16 12.2 1.43 12.07C1.7 11.93 2.05 11.86 2.32 11.86C2.66 11.86 2.93 11.93 3.2 12.07C3.48 12.2 3.75 12.27 4.09 12.27C4.43 12.27 4.7 12.2 4.98 12.07C5.25 11.93 5.59 11.86 5.86 11.86C6.2 11.86 6.48 11.93 6.75 12.07C7.02 12.2 7.3 12.27 7.64 12.27C7.98 12.27 8.25 12.2 8.52 12.07C8.8 11.93 9.14 11.86 9.41 11.86C9.75 11.86 10.02 11.93 10.3 12.07C10.57 12.2 10.84 12.27 11.18 12.27C11.52 12.27 11.8 12.2 12.07 12.07C12.34 11.93 12.68 11.86 12.95 11.86C13.3 11.86 13.57 11.93 13.84 12.07C14.11 12.2 14.39 12.27 14.73 12.27L14.73 13.64L15 13.64Z"/>
  <path d="M1.43 10.98C1.7 10.84 1.98 10.77 2.32 10.77C2.66 10.77 2.93 10.84 3.2 10.98C3.48 11.11 3.75 11.18 4.09 11.18C4.43 11.18 4.7 11.11 4.98 10.98C5.25 10.84 5.59 10.77 5.86 10.77C6.2 10.77 6.48 10.84 6.75 10.98C7.02 11.11 7.3 11.18 7.64 11.18C7.98 11.18 8.25 11.11 8.52 10.98C8.73 10.91 8.86 10.84 9.07 10.77L11.39 8.11L8.39 8.11L9.61 6L12.34 7.5C13.23 7.98 13.91 6.82 13.02 6.34L9.14 4.23C7.7 3.41 7.09 4.77 7.09 4.77L5.11 8.11L-0.14 8.11C0.14 9.07 1.02 10.36 1.43 10.98Z"/>
  <path d="M10.23 10.84C10.09 10.84 10.3 10.91 10.5 11.05C10.77 11.18 11.05 11.25 11.39 11.25C11.73 11.25 12 11.18 12.27 11.05C12.55 10.91 12.89 10.84 13.16 10.84C13.5 10.84 13.77 10.91 14.05 11.05C14.32 11.18 14.59 11.25 14.93 11.25L14.93 8.25L12.48 8.25L10.23 10.84Z"/>
</svg>