<?xml version="1.0" encoding="UTF-8"?>
<svg viewBox="0 0 15 15" version="1.1" xmlns="http://www.w3.org/2000/svg" xmlns:xlink="http://www.w3.org/1999/xlink">
  <path d="M0.5 8L2.5 8C2.78 8 3 8.22 3 8.5C3 8.78 2.78 9 2.5 9L0.5 9C0.22 9 0 8.78 0 8.5C0 8.22 0.22 8 0.5 8ZM4.5 8L5.5 8C5.78 8 6 8.22 6 8.5C6 8.78 5.78 9 5.5 9L4.5 9C4.22 9 4 8.78 4 8.5C4 8.22 4.22 8 4.5 8ZM12.5 8L14.5 8C14.78 8 15 8.22 15 8.5C15 8.78 14.78 9 14.5 9L12.5 9C12.22 9 12 8.78 12 8.5C12 8.22 12.22 8 12.5 8ZM7.5 8L10.5 8C10.78 8 11 8.22 11 8.5C11 8.78 10.78 9 10.5 9L7.5 9C7.22 9 7 8.78 7 8.5C7 8.22 7.22 8 7.5 8ZM15 10L15 11C15 11.55 14.55 12 14 12L10 12L12 10L15 10ZM10 12L1 12C0.45 12 0 11.55 0 11L0 10L8 10L10 12ZM13 4C14.1 4 15 4.9 15 6L15 7L0 7L0 6C0 4.9 0.9 4 2 4L4.29 4L3.15 5.15C2.97 5.32 2.95 5.59 3.09 5.78L3.15 5.85C3.34 6.05 3.66 6.05 3.85 5.85L5.71 4L7.29 4L6.15 5.15C5.97 5.32 5.95 5.59 6.09 5.78L6.15 5.85C6.34 6.05 6.66 6.05 6.85 5.85L8.71 4L10.29 4L9.15 5.15C8.97 5.32 8.95 5.59 9.09 5.78L9.15 5.85C9.34 6.05 9.66 6.05 9.85 5.85L11.71 4L13 4Z"/>
</svg>