<?xml version="1.0" encoding="UTF-8"?>
<svg viewBox="0 0 15 15" version="1.1" xmlns="http://www.w3.org/2000/svg" xmlns:xlink="http://www.w3.org/1999/xlink">
  <path d="M1.4655,0.0744267857 C-2.81785714,2.86024821 4.92117857,3.31753393 0.160714286,6.62203393 L1.10112857,6.60940179 C5.56641429,3.08279464 -2.21483571,2.82479464 2.4987,0.0456160714 L1.4655,0.0744267857 Z M4.71610714,0.0753910714 C0.43275,2.8612125 8.17178571,3.31849821 3.41132143,6.62299821 L4.35173571,6.61036607 C8.81702143,3.08375893 1.03577143,2.82575893 5.74930714,0.0465803571 L4.71610714,0.0753910714 Z M10.9382143,3.87492857 C11.7619667,3.87492857 12.42975,3.20714529 12.42975,2.38339286 C12.42975,1.55964043 11.7619667,0.891857143 10.9382143,0.891857143 C10.1144619,0.891857143 9.44667857,1.55964043 9.44667857,2.38339286 C9.44667857,3.20714529 10.1144619,3.87492857 10.9382143,3.87492857 Z M12.87009,4.82145343 L14.9576046,10.6299662 C14.9763611,10.6821564 14.9886785,10.7350444 14.9949624,10.7877691 L15.000013,10.8920807 C14.9997972,11.2291741 14.7599846,11.5078094 14.4410399,11.5679121 L14.3263403,11.5798894 L10.494281,11.5726161 L7.86093429,14.7554304 C7.60025025,15.0703971 7.15617996,15.0926904 6.86526161,14.8054125 C6.57434314,14.5181368 6.55000232,14.0332982 6.81068625,13.7183314 L9.40761013,10.5783023 C9.51964447,10.3498601 9.75441175,10.1935471 10.0270326,10.1940368 L13.294281,10.1996161 L11.898281,6.31761607 L11.0970643,7.89809346 L11.0482072,7.97621138 L11.0235119,8.02623372 C10.9632647,8.12667194 10.8683414,8.20713971 10.7482414,8.24822057 L7.91708089,9.21664446 C7.64684614,9.30903621 7.35454093,9.16607464 7.26165643,8.89601443 C7.16876711,8.62595496 7.31153657,8.33412761 7.58175696,8.24169611 L10.241281,7.33161607 L11.5297436,4.79582968 L11.5541186,4.7529839 L11.5818908,4.7134211 C11.6633669,4.57058278 11.7943029,4.45425244 11.9620886,4.39384714 C12.3321096,4.26063461 12.7370775,4.4513475 12.87009,4.82145343 Z M15,12.9642857 L15,13.7455714 L11.3475,13.7455714 L11.3475,12.9642857 L15,12.9642857 Z M0.888471429,10.8160714 L4.50154286,10.8160714 L4.02298929,15.0001071 L1.29523929,15.0001071 L0.888471429,10.8160714 Z"/>
</svg>