<?xml version="1.0" encoding="UTF-8"?>
<svg viewBox="0 0 15 15" version="1.1" xmlns="http://www.w3.org/2000/svg" xmlns:xlink="http://www.w3.org/1999/xlink">
  <path d="M2.52 2.48L5 0L0 0L2.48 2.48C1.87 2.48 1.29 2.71 0.86 3.14C0.5 3.5 0.27 3.97 0.21 4.47C-0.01 7.27 1.01 10.03 3 12.01C4.98 13.99 7.74 15.01 10.54 14.78C11.67 14.64 12.52 13.68 12.54 12.54L15 15L15 10L12.54 12.46C12.54 12.38 12.54 12.29 12.53 12.21C12.45 11.6 12.14 11.05 11.66 10.68C11.18 10.31 10.57 10.14 9.96 10.22C8.57 10.27 7.23 9.74 6.25 8.75C5.25 7.75 4.72 6.39 4.78 4.98C4.89 3.73 3.98 2.61 2.73 2.47C2.66 2.48 2.59 2.49 2.52 2.48Z"/>
</svg>