<?xml version="1.0" encoding="UTF-8"?>
<svg viewBox="0 0 15 15" version="1.1" xmlns="http://www.w3.org/2000/svg" xmlns:xlink="http://www.w3.org/1999/xlink">
  <path d="M0.3 1.5L2.59 3.87L3.47 3.07L2.67 1.51L0.3 1.5ZM10.6 8.13C11.03 8.25 11.5 8.01 11.62 7.56C11.74 7.12 11.49 6.66 11.05 6.54L10.71 6.45L10.28 8.04L10.6 8.14L10.6 8.13ZM10.34 6.34L7.6 5.56C7.42 5.51 7.24 5.63 7.19 5.81L6.94 6.74C6.89 6.92 6.98 7.1 7.17 7.16L9.9 7.93L10.34 6.35L10.34 6.34ZM10.77 8.98C10.56 8.78 10.3 8.62 10 8.53L6.68 7.59L4.65 3.93C4.54 3.74 4.37 3.59 4.14 3.53C3.7 3.4 3.23 3.66 3.11 4.12C3.05 4.33 3.08 4.55 3.18 4.74L5.72 9.27C5.72 9.27 5.93 9.61 6.46 9.78L11.09 11.1L13.24 13.31C13.31 13.39 13.4 13.45 13.52 13.48C13.84 13.57 14.18 13.37 14.27 13.05C14.33 12.82 14.26 12.58 14.1 12.43L10.77 8.98ZM13.24 9.89L13.72 10.53L14.7 9.45L13.87 8.98C13.95 8.39 13.59 7.82 13.01 7.66C12.38 7.48 11.72 7.85 11.55 8.5C11.37 9.14 11.74 9.81 12.37 9.98C12.68 10.07 12.98 10.02 13.24 9.89L13.24 9.89Z"/>
</svg>