<?xml version="1.0" encoding="UTF-8"?>
<svg viewBox="0 0 15 15" version="1.1" xmlns="http://www.w3.org/2000/svg" xmlns:xlink="http://www.w3.org/1999/xlink">
  <path d="M5.04 5.79C5.14 5.79 5.14 5.79 5.04 5.79C5.46 5.68 5.79 5.46 6 5.14C6.11 4.93 6.21 4.61 6.21 4.39C6.43 3.64 6.43 2.79 6.64 2.04C6.75 1.61 6.86 1.29 6.96 0.86C7.07 0.64 7.61 -0.21 7.93 0.11C8.04 0.21 8.04 0.54 7.93 0.75C7.82 1.29 7.93 1.82 7.93 2.36C7.93 2.89 8.04 3.43 8.14 4.07C8.25 4.71 8.57 5.46 9.21 5.89C10.07 6.43 11.04 6.54 12 6.43C12.54 6.43 13.07 6.32 13.61 6.21C13.82 6.21 14.79 5.79 14.79 6.21C14.79 6.32 14.68 6.43 14.57 6.54C14.36 6.75 14.25 6.86 13.93 6.96C12.75 7.61 11.04 7.29 10.18 8.46C8.89 10.18 10.5 12 11.46 13.5C11.57 13.61 11.68 13.82 11.79 13.93C11.89 14.14 12.21 14.46 12.21 14.68C12.21 14.89 12.21 15 12 15.11C11.57 15.32 11.25 14.79 11.04 14.57C10.71 14.25 10.5 13.93 10.18 13.61C9.54 12.86 8.89 12.21 8.04 11.68C7.61 11.36 6.75 11.46 6.32 11.57C5.79 11.79 5.36 12.11 4.93 12.54C4.39 13.07 3.86 13.71 3.32 14.14C3.21 14.25 2.57 14.89 2.46 14.57C2.36 14.25 2.68 13.71 2.79 13.39C3.11 12.64 3.64 12 4.07 11.25C4.29 10.93 4.39 10.5 4.5 10.18C4.61 9.86 4.61 9.32 4.5 9C3.86 7.29 2.25 6.86 0.86 6C0.75 5.89 0.54 5.79 0.43 5.68C0.32 5.57 -0.11 5.36 0.11 5.14C0.21 5.04 0.43 5.14 0.64 5.14C0.96 5.36 1.39 5.46 1.71 5.57C1.93 5.68 2.25 5.68 2.46 5.68C3.32 5.79 4.18 6 5.04 5.79Z"/>
</svg>