<?xml version="1.0" encoding="UTF-8"?>
<svg viewBox="0 0 15 15" version="1.1" xmlns="http://www.w3.org/2000/svg" xmlns:xlink="http://www.w3.org/1999/xlink">
  <path d="M12.86 3.11L12.86 6.96C12.86 7.93 12.54 8.79 12.11 9.54C12.21 9.64 12.32 9.86 12.43 9.96C12.64 10.5 12.54 11.14 12.21 11.57L10.18 13.61C10.18 13.61 10.07 13.71 10.07 13.71C9.86 13.82 9.75 13.71 9.64 13.5C9.64 13.39 9.64 13.39 9.64 13.29L10.07 11.14C9.54 11.36 9 11.46 8.36 11.46L3.86 11.46C5.04 12.32 5.04 14.36 5.04 14.36C5.04 14.46 5.04 14.57 4.93 14.68C4.93 14.79 4.82 15 4.61 14.89L1.93 12.32C0.64 11.46 -0.43 10.07 0.11 8.57C0.43 7.5 1.5 7.07 2.46 6.96L8.14 5.79L10.61 1.39C10.93 0.75 11.79 0 12.32 0C12.86 0 13.29 0.64 13.61 0.96L14.79 1.18C14.89 1.18 15 1.29 15 1.39L14.89 1.93C14.89 2.04 14.79 2.14 14.68 2.14L12.86 3.11Z"/>
</svg>