<?xml version="1.0" encoding="UTF-8"?>
<svg xmlns="http://www.w3.org/2000/svg" viewBox="0 0 15 15">
  <path d="M3 3.07s0.19 -1.06 1 -1.06H5V1.73a0.5 0.5 0 0 1 0.5 -0.5H9.49a0.5 0.5 0 0 1 0.5 0.5v0.28h1.01a0.83 0.83 0 0 1 0.64 0.29a1.76 1.76 0 0 1 0.36 0.77s0.31 1.57 0.59 2.92h-0.94L11 3L3.98 3L3.33 5.99H2.38Zm11 4.91a1 1 0 0 1 -1 1l-1 3.97s-0.19 1.04 -1 1.04h-7c-0.81 0 -1 -1.04 -1 -1.04L1.98 8.98a1 1 0 0 1 0.02 -2h11A1 1 0 0 1 14 7.98ZM5.03 12.13L5.03 11.01L4.64 9.47a0.54 0.54 0 1 0 -1.06 0.14L3.78 11.01l0.19 1.27A0.54 0.54 0 1 0 5.03 12.13Zm2 -2.6A0.53 0.53 0 0 0 6.5 9l0 0L6.49 9a0.5 0.5 0 0 0 -0.36 0.15a0.53 0.53 0 0 0 -0.16 0.38v2.68a0.53 0.53 0 1 0 1.07 0Zm2 0A0.53 0.53 0 0 0 8.69 9.04a0.5 0.5 0 0 0 -0.39 0a0.53 0.53 0 0 0 -0.34 0.49v2.68a0.53 0.53 0 1 0 1.07 0Zm2.39 0.08a0.54 0.54 0 1 0 -1.06 -0.14L9.96 10.99L9.96 12.13a0.54 0.54 0 1 0 1.06 0.14Z"/>
</svg>