<?xml version="1.0" encoding="UTF-8"?>
<svg xmlns="http://www.w3.org/2000/svg" version="1.1" viewBox="0 0 15 15">
  <path d="M13.2 1.5C13.2 1.5 11.81 1.46 11.25 2C10.72 2.52 10.5 2.92 10.5 4L1.2 4L2.59 8.81C2.6 8.82 2.6 8.83 2.61 8.84C2.84 9.49 3.45 9.97 4.19 9.99C4.19 10 4.2 10 4.2 10L10.7 10L10.7 10.2C10.7 10.2 10.7 10.5 10.5 10.9C10.3 11.3 10.2 11.5 9.4 11.5L2.9 11.5C1.9 11.5 1.9 13 2.9 13L4.1 13L4.2 13L9.1 13L9.2 13L9.3 13C10.5 13 11.4 12.3 11.7 11.6C12 10.9 12 10.3 12 10.3L12 10L12 4C12 3.48 12.23 3 12.7 3L13.25 3C13.66 3 14 2.66 14 2.25C14 1.84 13.66 1.5 13.25 1.5L13.2 1.5zM9.2 13C8.6 13 8.2 13.4 8.2 14C8.2 14.6 8.6 15 9.2 15C9.8 15 10.2 14.6 10.2 14C10.2 13.4 9.8 13 9.2 13zM4.2 13C3.6 13 3.2 13.4 3.2 14C3.2 14.6 3.6 15 4.2 15C4.8 15 5.2 14.6 5.2 14C5.2 13.4 4.8 13 4.2 13z"/>
</svg>