<?xml version="1.0" encoding="UTF-8"?>
<svg viewBox="0 0 15 15" version="1.1" xmlns="http://www.w3.org/2000/svg" xmlns:xlink="http://www.w3.org/1999/xlink">
  <path d="M15 0L8.52 0L8.39 0.27C8.39 0.27 8.39 0.27 8.39 0.27L7.23 2.86C7.16 3.07 7.09 3.27 7.02 3.41C6.89 4.16 8.93 4.43 8.93 4.43C8.93 4.43 8.73 5.25 8.52 5.66C8.32 6.07 8.25 6.07 8.25 6.34C8.25 6.61 8.45 6.68 8.45 6.68L9.82 7.77C9.82 7.77 8.18 7.84 8.52 8.25C8.93 8.73 9.07 8.66 9.48 9.48C9.89 10.3 9.61 10.02 9.27 10.98C9.14 11.32 9.07 12.75 12.41 12.82L15 12.75L15 0L15 0Z"/>
  <path d="M7.64 14.25C7.64 14.11 7.7 13.98 7.7 13.77L7.02 7.09C7.02 6.75 6.68 6.48 6.27 6.48C5.86 6.48 5.59 6.75 5.59 7.09L5.86 10.77L5.52 10.84L5.45 10.3C5.45 10.02 5.11 9.89 4.7 9.89C4.3 9.89 4.02 10.16 4.09 10.36L4.23 11.05L3.89 11.11L3.82 10.7C3.82 10.5 3.48 10.3 3.07 10.36C2.66 10.36 2.39 10.57 2.39 10.84L2.45 11.45L2.05 11.45L2.05 11.39C2.05 11.18 1.7 11.05 1.3 11.05C0.89 11.05 0.61 11.32 0.68 11.66L0.95 13.43C0.95 13.43 1.02 13.84 1.23 14.11L1.7 14.59L1.7 14.59L1.7 14.59L1.91 15L7.3 15L7.43 14.73L7.64 14.25Z"/>
</svg>