<?xml version="1.0" encoding="UTF-8"?>
<svg viewBox="0 0 15 15" version="1.1" xmlns="http://www.w3.org/2000/svg" xmlns:xlink="http://www.w3.org/1999/xlink">
  <path d="M12.86 1.07L8.57 1.07C8.57 0.43 8.14 0 7.5 0C6.86 0 6.43 0.43 6.43 1.07L2.14 1.07C1.61 1.07 1.07 1.5 1.07 2.14L1.07 7.5C1.07 8.14 1.5 8.57 2.14 8.57L6.43 8.57L6.43 13.93C6.43 13.93 6.43 13.93 6.43 13.93L5.36 13.93L5.36 15L9.64 15L9.64 13.93L8.57 13.93C8.57 13.93 8.57 13.93 8.57 13.93L8.57 8.57L12.86 8.57C13.39 8.57 13.93 8.14 13.93 7.5L13.93 2.14C13.93 1.5 13.5 1.07 12.86 1.07ZM11.79 6.43L3.21 6.43L3.21 5.36L11.79 5.36L11.79 6.43ZM11.79 4.29L3.21 4.29L3.21 3.21L11.79 3.21L11.79 4.29Z"/>
</svg>