<?xml version="1.0" encoding="UTF-8"?>
<svg viewBox="0 0 15 15" version="1.1" xmlns="http://www.w3.org/2000/svg" xmlns:xlink="http://www.w3.org/1999/xlink">
  <path d="M10.55 0.3C9.88 0.3 9.33 0.86 9.33 1.54C9.33 2.23 9.88 2.78 10.55 2.78C11.24 2.78 11.79 2.23 11.79 1.54C11.79 0.86 11.24 0.3 10.55 0.3ZM1.27 8.86C1.17 8.69 0.94 8.64 0.77 8.74C0.6 8.85 0.55 9.08 0.66 9.25C0.77 9.42 0.99 9.47 1.16 9.37C1.33 9.26 1.38 9.04 1.27 8.87L1.27 8.86ZM1.52 9.88C1.42 9.71 1.19 9.65 1.02 9.76C0.86 9.87 0.8 10.1 0.91 10.26C1.02 10.44 1.24 10.49 1.41 10.38C1.58 10.28 1.63 10.05 1.52 9.88ZM1.78 10.89C1.67 10.72 1.44 10.67 1.27 10.78C1.1 10.88 1.05 11.11 1.16 11.28C1.26 11.45 1.49 11.51 1.66 11.4C1.83 11.29 1.88 11.06 1.78 10.9L1.78 10.89ZM2.03 11.91C1.92 11.74 1.7 11.69 1.53 11.79C1.35 11.9 1.31 12.12 1.41 12.29C1.52 12.47 1.74 12.52 1.91 12.41C2.08 12.3 2.13 12.08 2.03 11.91L2.03 11.91ZM7.93 13.97C7.73 14.04 7.63 14.24 7.69 14.44C7.75 14.63 7.96 14.74 8.15 14.68C8.34 14.61 8.45 14.41 8.39 14.22C8.32 14.02 8.12 13.92 7.93 13.97L7.93 13.97ZM8.96 13.98C8.77 14.04 8.66 14.25 8.72 14.44C8.79 14.63 8.99 14.74 9.18 14.68C9.37 14.62 9.48 14.41 9.42 14.22C9.35 14.03 9.15 13.92 8.96 13.98L8.96 13.98ZM10 13.98C9.8 14.05 9.7 14.25 9.76 14.45C9.82 14.64 10.03 14.75 10.22 14.68C10.41 14.63 10.52 14.42 10.45 14.22C10.4 14.03 10.19 13.92 10 13.98L10 13.98ZM11.03 13.99C10.84 14.05 10.73 14.26 10.8 14.45C10.86 14.64 11.07 14.75 11.26 14.69C11.45 14.62 11.55 14.42 11.49 14.23C11.43 14.03 11.22 13.93 11.03 13.99ZM13.5 5.1L11.35 5.1L10.29 3.37C10.11 2.97 9.72 2.7 9.27 2.69C9.18 2.68 9.1 2.69 9.02 2.71L3.62 3.99C3.3 4.07 3.09 4.4 3.17 4.73C3.24 5.06 3.57 5.27 3.89 5.19L7.49 4.53L4.76 9.3L1.83 9.3L2.48 11.67C2.5 11.75 2.5 11.66 2.52 11.7C2.61 11.85 2.81 11.85 2.96 11.76C3.04 11.71 3.09 11.6 3.1 11.52L3.49 10.31L3.5 10.26L5.31 10.25C5.67 10.25 5.98 10.15 6.16 9.84L6.99 8.45L8.84 10.35L8.06 13.51L10.77 13.51C10.94 13.51 11.09 13.32 11.09 13.15C11.09 13.01 11 12.9 10.9 12.84L9.73 12.17L10.29 9.93C10.29 9.93 10.43 9.45 9.98 9.02L8.47 7.49C8.47 7.49 9.28 6.15 9.8 5.29L10.5 6.31L13.49 6.31C13.82 6.31 14.1 6.05 14.1 5.71C14.1 5.37 13.83 5.11 13.5 5.11L13.5 5.1Z"/>
</svg>