<?xml version="1.0" encoding="UTF-8"?>
<svg viewBox="0 0 15 15" version="1.1" xmlns="http://www.w3.org/2000/svg" xmlns:xlink="http://www.w3.org/1999/xlink">
  <path d="M6.65 14.39C6.87 14.39 7.05 14.21 7.05 13.97C7.05 13.74 6.87 13.55 6.65 13.55C6.42 13.55 6.24 13.74 6.24 13.97C6.24 14.21 6.42 14.39 6.65 14.39L6.65 14.39ZM5.94 2.22C6.54 2.22 7.02 1.73 7.02 1.11C7.02 0.5 6.54 0 5.94 0C5.35 0 4.86 0.5 4.86 1.11C4.86 1.73 5.35 2.22 5.94 2.22ZM0.08 11.94C0.03 12.04 0 12.15 0 12.27C0 12.66 0.31 12.98 0.69 12.98C0.97 12.98 1.2 12.81 1.31 12.58L3.67 8.41L2.69 7.4L0.08 11.94L0.08 11.94ZM5.19 11.75C5.08 11.99 4.84 12.16 4.57 12.16C4.19 12.16 3.88 11.84 3.88 11.45C3.88 11.33 3.91 11.22 3.96 11.12L4.99 9.26L2.99 7.21C2.22 6.42 2.77 5.56 2.77 5.56L3.84 3.6L0.98 3.6C0.67 3.6 0.42 3.32 0.42 3C0.42 2.69 0.67 2.41 0.98 2.41L9.64 2.41C9.95 2.41 10.2 2.69 10.2 3.01C10.2 3.33 9.95 3.61 9.64 3.61L6.34 3.61L4.76 6.45L6.37 8.08C6.93 8.63 6.56 9.26 6.56 9.26L5.19 11.77L5.19 11.75ZM7.8 12.9C7.8 13.07 7.67 13.2 7.5 13.2L2.4 13.2C2.24 13.2 2.1 13.07 2.1 12.9C2.1 12.74 2.24 12.6 2.4 12.6L7.5 12.6C7.67 12.6 7.8 12.74 7.8 12.9Z"/>
  <path d="M2.95 13.99C2.94 14.14 3.01 14.29 3.14 14.38C3.27 14.46 3.44 14.46 3.57 14.38C3.7 14.29 3.78 14.14 3.76 13.99C3.78 13.83 3.7 13.68 3.57 13.6C3.44 13.51 3.27 13.51 3.14 13.6C3.01 13.68 2.94 13.83 2.95 13.99L2.95 13.99Z"/>
</svg>