<?xml version="1.0" encoding="UTF-8"?>
<svg viewBox="0 0 15 15" version="1.1" xmlns="http://www.w3.org/2000/svg" xmlns:xlink="http://www.w3.org/1999/xlink">
  <path d="M10.16 2.57C10.78 2.57 11.28 2.07 11.28 1.44C11.28 0.81 10.78 0.3 10.16 0.3C9.54 0.3 9.04 0.81 9.04 1.44C9.04 2.07 9.54 2.58 10.16 2.58L10.16 2.57ZM5.39 7.19L9.43 4.54C9.96 4.2 10.12 3.5 9.78 2.96C9.45 2.43 8.75 2.27 8.22 2.61L5.24 4.55C5.07 4.67 4.94 4.81 4.85 4.98L1.75 11.17C1.57 11.53 1.71 11.98 2.07 12.16C2.43 12.35 2.87 12.2 3.05 11.84L5.39 7.19L5.39 7.19ZM13.26 6.75C13.8 6.41 13.97 5.7 13.63 5.16L13.24 5.4C13.44 5.73 13.34 6.16 13.02 6.36L0.6 14.31L0.85 14.7L13.27 6.75L13.26 6.75Z"/>
</svg>