<?xml version="1.0" encoding="UTF-8"?>
<svg viewBox="0 0 15 15" version="1.1" xmlns="http://www.w3.org/2000/svg" xmlns:xlink="http://www.w3.org/1999/xlink">
  <path d="M14.6 6.68L14.6 7.39C14.6 7.72 14.49 8.05 14.28 8.32C13.4 9.3 12.45 10.22 11.44 11.05L11.44 12.88C11.44 13.22 11.24 13.52 10.94 13.63L7.53 15L7.42 15L4 13.63C3.71 13.48 3.54 13.2 3.56 12.88L3.56 11.05C2.53 10.22 1.57 9.3 0.68 8.32C0.49 8.05 0.4 7.72 0.4 7.39L0.4 6.68C0.67 3.17 3.4 0.36 6.88 0L7.45 0L7.45 0L8.07 0C11.59 0.33 14.33 3.16 14.6 6.68ZM5.13 6.32C5.13 5.45 4.42 4.74 3.56 4.74C2.69 4.74 1.98 5.45 1.98 6.32C1.98 7.18 2.69 7.89 3.56 7.89C4.42 7.89 5.13 7.18 5.13 6.32ZM6.71 11.05C6.71 10.61 6.36 10.26 5.92 10.26C5.48 10.26 5.13 10.61 5.13 11.05L5.13 11.84C5.13 12.28 5.48 12.63 5.92 12.63C6.36 12.63 6.71 12.28 6.71 11.84L6.71 11.05ZM9.87 11.05C9.87 10.61 9.52 10.26 9.08 10.26C8.64 10.26 8.29 10.61 8.29 11.05L8.29 11.84C8.29 12.28 8.64 12.63 9.08 12.63C9.52 12.63 9.87 12.28 9.87 11.84L9.87 11.05ZM13.02 6.32C13.02 5.45 12.31 4.74 11.44 4.74C10.58 4.74 9.87 5.45 9.87 6.32C9.87 7.18 10.58 7.89 11.44 7.89C12.31 7.89 13.02 7.18 13.02 6.32Z"/>
</svg>