<?xml version="1.0" encoding="UTF-8"?>
<svg version="1.1" xmlns="http://www.w3.org/2000/svg" viewBox="0 0 15 15">
  <path d="M13.94 14.68c-0.07 0.19 -0.26 0.32 -0.47 0.32c-0.06 0.01 -0.12 0.01 -0.18 0L7.5 12.56L1.7 15c-0.26 0.1 -0.55 -0.03 -0.65 -0.28C1.05 14.71 1.05 14.71 1.05 14.71c-0.13 -0.24 -0.04 -0.55 0.21 -0.68C1.28 14.02 1.31 14.01 1.34 14l4.85 -2l-4.85 -2C1.08 9.92 0.93 9.64 1.01 9.38s0.36 -0.41 0.62 -0.33C1.65 9.05 1.68 9.06 1.7 9.07l5.8 2.41l5.8 -2.41c0.25 -0.12 0.55 -0.01 0.67 0.24c0.12 0.25 0.01 0.55 -0.24 0.67C13.71 9.98 13.68 9.99 13.66 10L8.8 12l4.85 2c0.26 0.09 0.4 0.38 0.31 0.64C13.95 14.65 13.95 14.67 13.94 14.68zM12 4.23v0.45c0 0.21 -0.07 0.42 -0.2 0.59C11.24 5.89 10.64 6.47 10 7v1.16c0 0.21 -0.13 0.4 -0.32 0.47L7.52 9.5H7.45L5.28 8.63C5.1 8.54 4.99 8.36 5 8.16V7C4.35 6.47 3.74 5.89 3.18 5.27C3.06 5.1 3 4.89 3 4.68V4.23C3.17 2.01 4.9 0.23 7.11 0h0.36l0 0h0.39C10.09 0.21 11.83 2 12 4.23zM6 4c0 -0.55 -0.45 -1 -1 -1S4 3.45 4 4s0.45 1 1 1S6 4.55 6 4zM7 7c0 -0.28 -0.22 -0.5 -0.5 -0.5S6 6.72 6 7v0.5C6 7.78 6.22 8 6.5 8S7 7.78 7 7.5V7zM9 7c0 -0.28 -0.22 -0.5 -0.5 -0.5S8 6.72 8 7v0.5C8 7.78 8.22 8 8.5 8S9 7.78 9 7.5V7zM11 4c0 -0.55 -0.45 -1 -1 -1S9 3.45 9 4s0.45 1 1 1S11 4.55 11 4z"/>
</svg>