<?xml version="1.0" encoding="UTF-8"?>
<svg viewBox="0 0 15 15" version="1.1" xmlns="http://www.w3.org/2000/svg" xmlns:xlink="http://www.w3.org/1999/xlink">
  <path d="M12.89 10.04C13.65 10.04 14.26 9.41 14.26 8.62C14.26 7.84 13.64 7.21 12.89 7.21C12.13 7.21 11.52 7.84 11.52 8.62C11.52 9.41 12.13 10.04 12.89 10.04ZM13.94 13.22C14 13.24 14.03 13.25 14.1 13.25C14.45 13.25 14.72 12.95 14.72 12.59C14.72 12.32 14.54 12.08 14.31 11.99L12.41 11.22L11.03 8.68C11.03 8.68 10.92 8.4 10.52 8.25L5.99 6.38L3.31 1.66C3.15 1.39 2.86 1.2 2.54 1.2C2.04 1.2 1.64 1.62 1.64 2.14C1.64 2.3 1.68 2.46 1.75 2.59L5.09 8.45L2.97 7.58L2.44 7.94L10.9 11.41L10.89 11.41L11.24 11.95C11.24 11.95 11.38 12.24 11.79 12.41L12.84 12.83C12.15 13.53 11.2 13.22 11.2 13.22L0.87 8.93L0.3 9.28L11.15 13.69C12.41 14.17 13.5 13.03 13.5 13.03L13.5 13.04L13.95 13.22L13.94 13.22Z"/>
</svg>