<?xml version="1.0" encoding="UTF-8"?>
<svg viewBox="0 0 15 15" version="1.1" xmlns="http://www.w3.org/2000/svg" xmlns:xlink="http://www.w3.org/1999/xlink">
  <path d="M6.64 1.93C6.75 1.29 6.43 0.54 5.79 0.32C5.14 0.21 4.5 0.54 4.29 1.18C4.07 1.82 4.39 2.57 5.04 2.68C5.68 2.89 6.43 2.57 6.64 1.93Z"/>
  <path d="M8.89 5.68L8.46 2.79L11.36 1.07C11.46 0.96 11.57 0.86 11.68 0.75C11.79 0.43 11.57 0.11 11.25 0C11.04 0 10.93 0 10.82 0.11L6.64 2.46C6.54 2.57 6.32 2.68 6.21 2.79L4.61 5.14L2.14 4.82C2.04 4.82 1.82 5.04 1.82 5.14C1.71 5.46 1.82 5.79 2.14 5.89C2.25 5.89 2.36 6 2.57 5.89L4.93 6.21C5.04 6.21 5.14 6.11 5.14 6.11L6.11 4.93L6.64 7.5C6.75 7.82 6.96 8.14 7.29 8.36L9.43 9L9.64 11.36C9.64 11.68 9.86 11.89 10.18 12C10.61 12.11 11.04 11.89 11.14 11.57C11.14 11.46 11.14 11.36 11.14 11.25L10.71 8.36C10.71 8.14 10.5 7.93 10.29 7.82L9.11 7.29L11.25 6L13.93 7.18C13.93 7.18 13.93 7.18 13.93 7.18C14.36 7.29 14.79 7.07 14.89 6.75C15 6.43 14.89 6 14.46 5.79L11.46 4.39C11.46 4.39 11.46 4.39 11.46 4.39C11.25 4.29 11.04 4.39 10.82 4.5L8.89 5.68Z"/>
  <path d="M0 15L12.21 15L0 6.32z"/>
</svg>