<?xml version="1.0" encoding="UTF-8"?>
<svg viewBox="0 0 15 15" version="1.1" xmlns="http://www.w3.org/2000/svg" xmlns:xlink="http://www.w3.org/1999/xlink">
  <path d="M9.61 2.73L5.39 2.73C4.16 3.2 3.2 4.16 2.73 5.39L2.73 8.18L4.09 9.55L4.09 5.39C4.3 4.77 4.77 4.3 5.39 4.09L9.68 4.09C10.23 4.3 10.7 4.77 10.91 5.39L10.91 9.55L12.27 8.18L12.27 5.39C11.8 4.16 10.84 3.2 9.61 2.73Z"/>
  <path d="M9.61 8.59C9.61 8.59 8.52 6.48 7.5 6.48C6.48 6.48 5.39 8.59 5.39 8.59L4.09 8.59L4.09 9.55L10.91 9.55L10.91 8.59L9.61 8.59Z"/>
  <path d="M12.95 0L12.95 9.55C12.95 10.16 12.27 10.91 11.8 10.91L8.59 10.91L8.18 10.91L6.82 10.91C6.48 10.91 6.14 11.25 6.14 11.59L6.14 12.27C6.14 12.61 6.48 12.95 6.82 12.95L8.18 12.95C8.52 12.95 8.86 12.61 8.86 12.27L11.8 12.27C12.95 12.27 14.32 10.7 14.32 9.55L14.32 0L12.95 0Z"/>
</svg>