<?xml version="1.0" encoding="UTF-8"?>
<svg viewBox="0 0 15 15" version="1.1" xmlns="http://www.w3.org/2000/svg" xmlns:xlink="http://www.w3.org/1999/xlink">
  <path d="M14.68 9L0.32 9L0.86 12.86L1.61 10.93L2.68 10.39L3.75 15L4.82 10.5L5.68 11.25L6.11 13.18C6.11 13.18 6.86 10.5 6.86 10.61C6.86 10.71 8.04 10.39 8.04 10.39L9.11 14.25L10.29 10.29L11.25 11.89L12.21 9.86L13.29 12.86L14.68 9Z"/>
  <path d="M7.16 7.94L7.16 6.88L6.6 7.21L6.33 7.04L6.33 6.67L7.16 6.17L7.16 5.48L6.5 5.88L6.5 5.15L5.83 5.49L5.83 6.49L5.56 6.7L5.33 6.52L5.33 5.84L4.41 6.37L4 6.2L4 5.78L4.95 5.25L4.33 4.95L4.33 4.56L4.69 4.37L5.55 4.88L6.16 4.53L6.14 4.53L5.53 4.17L6.13 3.8L5.53 3.46L4.67 3.96L4.33 3.8L4.33 3.42L4.93 3.09L4 2.58L4 2.16L4.39 1.98L5.33 2.51L5.33 1.83L5.58 1.64L5.9 1.84L5.89 2.85L6.51 3.21L6.51 2.49L7.16 2.84L7.16 2.14L6.33 1.65L6.33 1.28L6.6 1.1L7.16 1.44L7.16 0.38L7.5 0.16L7.83 0.38L7.83 1.44L8.48 1.1L8.83 1.3L8.83 1.63L7.83 2.14L7.83 2.84L8.5 2.46L8.5 3.21L9.16 2.87L9.16 1.78L9.41 1.64L9.66 1.78L9.66 2.47L10.64 1.96L10.99 2.17L10.99 2.56L10.08 3.09L10.67 3.41L10.67 3.78L10.36 3.95L9.47 3.43L8.86 3.82L9.45 4.19L8.84 4.55L9.47 4.87L10.37 4.38L10.67 4.58L10.67 4.94L10.11 5.25L11 5.78L11 6.19L10.58 6.37L9.67 5.87L9.67 6.53L9.41 6.7L9.17 6.53L9.17 5.53L8.5 5.16L8.5 5.86L7.84 5.48L7.84 6.17L8.67 6.67L8.67 7.07L8.39 7.22L7.84 6.88L7.84 7.94L7.5 8.16L7.17 7.94L7.16 7.94ZM6.92 4.17L7.24 4.66L7.82 4.66L8.09 4.17L7.8 3.66L7.22 3.66L6.92 4.17L6.92 4.17Z"/>
</svg>