<?xml version="1.0" encoding="UTF-8"?>
<svg viewBox="0 0 15 15" version="1.1" xmlns="http://www.w3.org/2000/svg" xmlns:xlink="http://www.w3.org/1999/xlink">
  <path d="M10.39 2.62C11.02 2.62 11.53 2.1 11.53 1.46C11.53 0.82 11.02 0.3 10.39 0.3C9.75 0.3 9.23 0.82 9.23 1.46C9.23 2.1 9.75 2.62 10.39 2.62ZM13.47 7.05C13.27 7.51 12.84 7.37 12.84 7.37L11.04 6.69C10.86 6.62 10.73 6.47 10.68 6.29L10.27 5.09L9.63 6.86L11.5 8.83C11.73 9.25 11.7 9.55 11.7 9.55L11.7 12.28C11.7 12.28 12.92 12.82 12.92 13.49C12.92 14.16 12.38 14.71 11.72 14.71C11.62 14.71 11.54 14.7 11.44 14.67L7.49 13.79L7.49 13.2L10.49 12.54L10.49 10.06L8.48 8.05L8.16 10.15C8.11 10.42 7.92 10.67 7.81 10.79L6.42 12.41C6.4 12.39 6.38 12.39 6.35 12.4L6.42 12.41C6.78 12.7 6.97 13.17 6.86 13.65C6.71 14.3 6.05 14.71 5.41 14.55C5.31 14.53 5.23 14.5 5.14 14.45L1.5 12.67L1.64 12.09L4.98 12.14L6.56 10.29L7.06 6.65L8.09 3.89L6.66 4.72L5.81 6.41C5.55 6.94 5.09 6.66 5.09 6.66C4.67 6.41 4.83 6 4.83 6L5.7 4.22C5.93 3.77 6.12 3.71 6.12 3.71L8.16 2.58C8.6 2.27 9.12 2.51 9.12 2.51L10.29 2.96C10.88 3.17 10.9 3.5 10.9 3.5L11.63 5.85L13.19 6.41C13.19 6.41 13.61 6.59 13.47 7.06L13.47 7.05ZM11.64 14.15L11.73 14.16C12.1 14.16 12.38 13.86 12.38 13.49C12.38 13.12 12 12.82 11.7 12.82L11.7 12.96C11.7 13.31 11.43 13.6 11.08 13.6C10.77 13.6 10.54 13.37 10.48 13.08L8.64 13.49L11.64 14.15L11.64 14.15ZM5.45 13.98L5.53 14.01C5.89 14.09 6.25 13.87 6.33 13.52C6.4 13.24 6.29 12.97 6.07 12.81L5.8 13.13C5.57 13.4 5.17 13.43 4.91 13.2C4.75 13.06 4.69 12.87 4.7 12.68L2.68 12.64L5.45 13.99L5.45 13.98Z"/>
</svg>