<?xml version="1.0" encoding="UTF-8"?>
<svg viewBox="0 0 15 15" version="1.1" xmlns="http://www.w3.org/2000/svg" xmlns:xlink="http://www.w3.org/1999/xlink">
  <path d="M10.5 2.46C11.14 2.46 11.68 1.93 11.68 1.29C11.68 0.64 11.25 0 10.5 0C9.86 0 9.32 0.54 9.32 1.18C9.32 1.82 9.86 2.46 10.5 2.46Z"/>
  <path d="M13.82 7.07C13.61 7.61 13.18 7.39 13.18 7.39L11.25 6.64C11.04 6.54 10.93 6.43 10.82 6.21L10.39 5.04L9.75 6.86L11.68 8.89C12 9.32 11.89 9.64 11.89 9.64L11.89 12.43L11.89 12.43C12.64 12.43 13.18 12.96 13.18 13.71C13.18 14.46 12.64 15 11.89 15C11.79 15 11.68 15 11.57 15L7.5 14.04L7.5 13.39L10.61 12.75L10.61 10.18L8.46 8.04L8.14 10.18C8.14 10.5 7.93 10.71 7.82 10.82L6.32 12.54C6.32 12.54 6.32 12.54 6.21 12.54L6.32 12.54C6.75 12.86 6.96 13.39 6.86 13.93C6.75 14.57 6 15 5.36 14.89C5.25 14.89 5.14 14.79 5.04 14.79L1.18 12.86L1.29 12.21L4.82 12.21L6.54 10.29L7.07 6.54L8.14 3.64L6.64 4.61L5.68 6.32C5.46 6.86 4.93 6.64 4.93 6.64C4.5 6.32 4.71 5.89 4.71 5.89L5.68 4.07C5.89 3.64 6.11 3.54 6.11 3.54L8.25 2.36C8.68 2.04 9.21 2.25 9.21 2.25L10.5 2.68C11.14 2.89 11.14 3.21 11.14 3.21L11.89 5.68L13.5 6.21C13.5 6.32 13.93 6.54 13.82 7.07Z"/>
</svg>