<?xml version="1.0" encoding="UTF-8"?>
<svg viewBox="0 0 15 15" xmlns="http://www.w3.org/2000/svg">
  <path d="M15 10a1 1 0 0 1 -1 1H9.41a1 1 0 0 1 -0.71 -0.29L7.15 9.15A0.5 0.5 0 0 0 6.79 9H3.33a1 1 0 0 1 -0.6 -0.2L1.39 7.79A1.01 1.01 0 0 1 1 7a1 1 0 0 1 0.47 -0.84L5 4l1.04 -1.69A0.5 0.5 0 0 1 7 2.5V6l1 1h1l5.41 -0.99a0.5 0.5 0 0 1 0.36 0.92L13 8l1.63 1.22A0.99 0.99 0 0 1 15 10Zm-9.5 0H3.23c-0.5 0 -1 -0.13 -1.44 -0.37L0.74 9.06a0.5 0.5 0 0 0 -0.48 0.88l1.27 0.69c0.44 0.24 0.94 0.37 1.44 0.37H5.5a0.5 0.5 0 0 0 0 -1Z"/>
</svg>