<?xml version="1.0" encoding="UTF-8"?>
<svg viewBox="0 0 15 15" version="1.1" xmlns="http://www.w3.org/2000/svg" xmlns:xlink="http://www.w3.org/1999/xlink">
  <path d="M6.9 14.31L6.9 12.41L5.89 13L5.4 12.69L5.4 12.02L6.9 11.13L6.9 9.88L5.7 10.61L5.7 9.29L4.5 9.91L4.5 11.71L4.01 12.08L3.6 11.75L3.6 10.54L1.93 11.48L1.2 11.18L1.2 10.42L2.91 9.47L1.8 8.92L1.8 8.23L2.44 7.89L4 8.81L5.09 8.18L5.06 8.17L3.96 7.53L5.03 6.86L3.96 6.24L2.4 7.15L1.8 6.86L1.8 6.17L2.87 5.57L1.2 4.66L1.2 3.9L1.9 3.57L3.6 4.53L3.6 3.3L4.05 2.96L4.63 3.32L4.61 5.15L5.72 5.79L5.72 4.49L6.9 5.12L6.9 3.87L5.4 2.98L5.4 2.31L5.89 2L6.9 2.6L6.9 0.7L7.5 0.3L8.1 0.7L8.1 2.6L9.27 1.99L9.9 2.35L9.9 2.95L8.1 3.87L8.1 5.12L9.3 4.44L9.3 5.8L10.5 5.18L10.5 3.22L10.94 2.96L11.4 3.22L11.4 4.47L13.16 3.55L13.8 3.92L13.8 4.62L12.16 5.57L13.21 6.16L13.21 6.83L12.66 7.13L11.06 6.19L9.95 6.89L11.02 7.56L9.92 8.2L11.05 8.79L12.67 7.9L13.21 8.26L13.21 8.91L12.21 9.47L13.81 10.43L13.81 11.17L13.05 11.48L11.41 10.59L11.41 11.78L10.95 12.09L10.51 11.78L10.51 9.98L9.31 9.31L9.31 10.56L8.11 9.88L8.11 11.13L9.61 12.03L9.61 12.74L9.11 13.01L8.11 12.41L8.11 14.31L7.5 14.71L6.91 14.31L6.9 14.31ZM6.46 7.53L7.03 8.4L8.08 8.4L8.56 7.53L8.05 6.6L7 6.6L6.46 7.53L6.46 7.53Z"/>
</svg>