<?xml version="1.0" encoding="UTF-8"?>
<svg viewBox="0 0 15 15" version="1.1" xmlns="http://www.w3.org/2000/svg" xmlns:xlink="http://www.w3.org/1999/xlink">
  <path d="M13.61 5.93L10.36 3C10.25 2.9 10.13 2.81 9.99 2.75L7.46 1.86L6.31 0.22C6.22 0.11 6.08 0.02 5.92 0C5.62 -0.03 5.35 0.18 5.31 0.48C5.3 0.61 5.33 0.73 5.39 0.83L6.57 2.5C6.62 2.57 6.69 2.63 6.77 2.66L8.13 3.19L5.89 4.32C5.58 4.49 5.36 4.8 5.3 5.16L5.31 7.17L3.25 8.09C3.02 8.2 2.85 8.43 2.84 8.7C2.83 8.86 2.88 9.01 2.97 9.13L1.86 8.71C1.65 8.63 1.48 8.47 1.41 8.25C1.29 7.88 0.87 7.68 0.49 7.81C0.12 7.93 -0.09 8.34 0.04 8.71C0.25 9.33 0.72 9.81 1.34 10.04L11.01 13.66C11.63 13.9 12.32 13.84 12.88 13.52C13.23 13.33 13.35 12.89 13.15 12.55C12.95 12.21 12.51 12.09 12.16 12.29C11.97 12.39 11.74 12.41 11.53 12.33L9.13 11.43C9.38 11.35 9.57 11.13 9.6 10.87L9.98 7.86L9.98 7.82C9.99 7.61 9.91 7.41 9.76 7.28L8.13 5.86L10.58 4.67L12.86 6.74C12.96 6.83 13.1 6.89 13.25 6.89C13.55 6.89 13.8 6.65 13.8 6.35C13.8 6.18 13.72 6.04 13.61 5.94L13.61 5.93ZM8.5 8.05L8.18 10.69L8.18 10.73C8.17 10.87 8.21 11 8.27 11.11L3.71 9.4C3.76 9.39 3.81 9.37 3.86 9.35L6.39 8.22C6.57 8.13 6.71 7.96 6.75 7.75L6.75 6.5L8.51 8.04L8.5 8.05Z"/>
  <path d="M9.8 1.67C9.8 2.29 10.31 2.8 10.95 2.8C11.58 2.8 12.1 2.29 12.1 1.67C12.1 1.04 11.58 0.53 10.95 0.53C10.31 0.53 9.8 1.04 9.8 1.67Z"/>
</svg>