<?xml version="1.0" encoding="UTF-8"?>
<svg version="1.1" xmlns="http://www.w3.org/2000/svg" viewBox="0 0 15 15">
  <path d="M11 1.5C11 2.33 10.33 3 9.5 3S8 2.33 8 1.5S8.67 0 9.5 0S11 0.67 11 1.5zM11 11c-0.55 0 -1 0.45 -1 1s0.45 1 1 1s1 -0.45 1 -1S11.55 11 11 11zM12.84 6.09l-1.91 -1.91l0 0C10.84 4.07 10.7 4 10.56 4H3.5C3.22 4 3 4.22 3 4.5S3.22 5 3.5 5h2.7L3 11.3l0 0c-0.01 0.07 -0.01 0.13 0 0.2c-0.06 0.28 0.12 0.55 0.4 0.61C3.67 12.16 3.94 11.99 4 11.71l0 0L5 10h2l-1.93 4.24l0 0C5.02 14.32 5 14.41 5 14.5c-0.06 0.28 0.12 0.54 0.4 0.6c0.28 0.06 0.54 -0.12 0.6 -0.4l0 0l4.7 -9.38l1.44 1.48c0.21 0.18 0.53 0.15 0.7 -0.06C13 6.55 13 6.28 12.84 6.09z"/>
</svg>