<?xml version="1.0" encoding="UTF-8"?>
<svg viewBox="0 0 15 15" version="1.1" xmlns="http://www.w3.org/2000/svg" xmlns:xlink="http://www.w3.org/1999/xlink">
  <path d="M6.11 3.54C6.21 3.43 6.21 3.21 6.11 3.11L5.57 2.36C5.46 2.14 5.25 2.14 5.04 2.25L2.46 4.39C2.36 4.5 2.36 4.71 2.46 4.82L3.11 5.57C3.21 5.68 3.43 5.68 3.54 5.57L6.11 3.54Z"/>
  <path d="M3.54 6.43C3.43 6.54 3.32 6.75 3.21 6.86C3.11 7.07 3 7.18 3 7.39L2.25 10.61L0.21 12.54C0.11 12.54 0.11 12.64 0.11 12.75C-0.11 13.07 0 13.61 0.43 13.82C0.64 13.93 1.07 13.82 1.29 13.61L3.54 11.46L3.64 11.36C3.64 11.25 3.75 11.25 3.75 11.14L4.18 9.11L5.89 10.61L5.89 13.18C5.89 13.5 6 13.71 6.32 13.82C6.64 14.04 7.18 13.93 7.39 13.5C7.5 13.39 7.5 13.29 7.5 13.07L7.5 10.29C7.5 10.07 7.39 9.86 7.29 9.75L5.46 8.14L7.29 6.64L7.82 8.04C7.82 8.14 7.93 8.14 8.04 8.25L9.86 9.64C10.07 9.75 10.39 9.64 10.5 9.43C10.71 9.21 10.71 8.79 10.5 8.57C10.5 8.57 10.39 8.46 10.39 8.36L9 7.29L8.04 5.14C7.93 4.82 7.71 4.61 7.5 4.39C6.96 4.18 6.43 4.18 6 4.5L3.54 6.43Z"/>
  <path d="M11 3C11 3 12 2 14 0C14.67 0.67 15 1.67 15 3C15 4.33 14.67 5.33 14 6L11 3Z"/>
  <path d="M7.5 2.68a1.61 1.61 0 1 0 3.21 0a1.61 1.61 0 1 0 -3.21 0z"/>
</svg>