<?xml version="1.0" encoding="UTF-8"?>
<svg viewBox="0 0 15 15" version="1.1" xmlns="http://www.w3.org/2000/svg" xmlns:xlink="http://www.w3.org/1999/xlink">
  <path d="M0 0H15V15H0V0z"/>
  <path d="M10.71 3.21L5.17 3.21C4.85 3.99 3.85 4.55 2.65 4.55C1.19 4.55 0 3.71 0 2.68C0 1.64 1.19 0.8 2.65 0.8C3.85 0.8 4.85 1.37 5.17 2.14L10.71 2.14L10.71 3.21ZM1.07 9L1.07 12.86C1.07 14.04 2.03 15 3.21 15L7.5 15C8.68 15 9.64 14.04 9.64 12.86L9.64 9L1.07 9ZM10.71 8.57L10.71 7.5L7.5 7.5C7.5 6.91 7.02 6.43 6.43 6.43L4.29 6.43C3.69 6.43 3.21 6.91 3.21 7.5L0 7.5L0 8.57L10.71 8.57ZM12.86 15L12.86 11.79L14.46 11.79C14.46 7.48 13.93 3.21 11.79 1.07L11.79 15L12.86 15Z"/>
</svg>