<?xml version="1.0" encoding="UTF-8"?>
<svg viewBox="0 0 15 15" version="1.1" xmlns="http://www.w3.org/2000/svg" xmlns:xlink="http://www.w3.org/1999/xlink">
  <path d="M14.61 0.34C13.83 -0.45 10.55 0.21 8.85 1.6C7.15 3 7.95 5.72 7.19 6.43L0.4 12.8C0.14 13.03 0 13.36 0 13.7C0 14.04 0.14 14.37 0.4 14.6C0.63 14.86 0.95 15 1.3 15C1.64 15 1.96 14.86 2.2 14.6L8.54 7.79C9.15 7.13 11.7 8.14 13.35 6.12C15 4.1 15.4 1.12 14.61 0.34ZM13.64 1.53C13.76 2.85 13.28 4.05 12.21 5.13C11.13 6.21 10.05 6.57 8.97 6.21C10.09 5.57 10.93 4.97 11.49 4.41C12.05 3.85 12.76 2.89 13.64 1.53Z"/>
</svg>