<?xml version="1.0" encoding="UTF-8"?>
<svg viewBox="0 0 15 15" version="1.1" xmlns="http://www.w3.org/2000/svg" xmlns:xlink="http://www.w3.org/1999/xlink">
  <path d="M10.71,3.21 L5.17,3.21 C4.85,3.99 3.85,4.55 2.65,4.55 C1.19,4.55 0,3.71 0,2.68 C0,1.64 1.19,0.8 2.65,0.8 C3.85,0.8 4.85,1.37 5.17,2.14 L10.71,2.14 L10.71,3.21 Z M1.07,9 L1.07,12.86 C1.07,14.04 2.03,15 3.21,15 L7.5,15 C8.68,15 9.64,14.04 9.64,12.86 L9.64,9 L1.07,9 Z M10.71,8.57 L10.71,7.5 L7.5,7.5 C7.5,6.91 7.02,6.43 6.43,6.43 L4.29,6.43 C3.69,6.43 3.21,6.91 3.21,7.5 L0,7.5 L0,8.57 L10.71,8.57 Z M12.86,15 L12.86,11.79 L14.46,11.79 C14.46,7.48 13.93,3.21 11.79,1.07 L11.79,15 L12.86,15 Z"/>
</svg>