<?xml version="1.0" encoding="UTF-8"?>
<svg viewBox="0 0 15 15" version="1.1" xmlns="http://www.w3.org/2000/svg" xmlns:xlink="http://www.w3.org/1999/xlink">
  <path d="M10.1 4.01C9.85 3.76 9.53 3.62 9.17 3.62L5.84 3.62C5.47 3.62 5.14 3.76 4.91 4.01L1.57 7.44C1.27 7.78 1.27 8.29 1.6 8.62C1.93 8.93 2.44 8.93 2.75 8.59L5.33 5.94L5.33 9.48L2.44 9.48C1.9 9.48 1.47 9.93 1.47 10.47C1.47 10.76 1.57 11 1.77 11.19L5.03 14.54C5.31 14.98 5.87 15.12 6.33 14.85C6.81 14.57 6.97 13.95 6.69 13.48L4.83 11.57L4.86 11.57L10.21 11.57L8.34 13.48C8.07 13.97 8.23 14.59 8.7 14.85C9.15 15.14 9.73 15 10.01 14.56L13.27 11.21C13.46 11.02 13.57 10.77 13.57 10.49C13.57 9.93 13.14 9.49 12.61 9.49L9.71 9.49L9.71 5.99L12.26 8.6C12.57 8.93 13.07 8.95 13.39 8.62C13.72 8.31 13.74 7.78 13.43 7.45L10.1 4.02L10.1 4.01ZM7.53 3.26C8.4 3.26 9.12 2.53 9.12 1.64C9.12 0.73 8.4 0 7.54 0C6.67 0 5.95 0.73 5.95 1.64C5.95 2.53 6.67 3.26 7.54 3.26L7.53 3.26Z"/>
</svg>