<?xml version="1.0" encoding="UTF-8"?>
<svg viewBox="0 0 15 15" version="1.1" xmlns="http://www.w3.org/2000/svg" xmlns:xlink="http://www.w3.org/1999/xlink">
  <path d="M10.53 3.14C11.09 3.14 11.55 2.67 11.55 2.09C11.55 1.51 11.09 1.04 10.53 1.04C9.97 1.04 9.51 1.51 9.51 2.09C9.51 2.67 9.97 3.14 10.53 3.14L10.53 3.14ZM11.29 3.37L9.8 3.37L7.27 0.77C7.07 0.55 6.75 0.54 6.54 0.75C6.33 0.95 6.32 1.29 6.52 1.5L9.16 4.23L9.16 13.26C9.16 13.58 9.42 13.85 9.73 13.85C10.05 13.85 10.31 13.59 10.31 13.26L10.31 8.36L10.77 8.36L10.77 13.26C10.77 13.59 11.03 13.85 11.34 13.85C11.66 13.85 11.91 13.59 11.91 13.26L11.91 4.23L14.56 1.51C14.75 1.3 14.75 0.96 14.54 0.75C14.33 0.55 14 0.56 13.8 0.77L11.29 3.38L11.29 3.37ZM5.91 7.35C5.75 7.19 5.54 7.1 5.31 7.1L3.18 7.1C2.94 7.1 2.73 7.19 2.58 7.35L0.44 9.55C0.25 9.77 0.25 10.1 0.46 10.31C0.67 10.51 1 10.51 1.2 10.29L2.85 8.59L2.85 10.86L1 10.86C0.65 10.86 0.38 11.15 0.38 11.5C0.38 11.68 0.44 11.84 0.57 11.96L2.66 14.11C2.84 14.39 3.2 14.48 3.49 14.31C3.8 14.13 3.9 13.73 3.72 13.43L2.53 12.2L2.55 12.2L5.98 12.2L4.78 13.43C4.61 13.74 4.71 14.14 5.01 14.31C5.3 14.49 5.67 14.4 5.85 14.12L7.94 11.97C8.06 11.85 8.13 11.69 8.13 11.51C8.13 11.15 7.86 10.87 7.52 10.87L5.66 10.87L5.66 8.62L7.29 10.3C7.49 10.51 7.81 10.52 8.02 10.31C8.23 10.11 8.24 9.77 8.04 9.56L5.91 7.36L5.91 7.35ZM4.26 6.87C4.82 6.87 5.28 6.4 5.28 5.83C5.28 5.25 4.82 4.78 4.27 4.78C3.71 4.78 3.25 5.25 3.25 5.83C3.25 6.4 3.71 6.87 4.27 6.87L4.26 6.87Z"/>
</svg>