<?xml version="1.0" encoding="UTF-8"?>
<svg viewBox="0 0 15 15" version="1.1" xmlns="http://www.w3.org/2000/svg" xmlns:xlink="http://www.w3.org/1999/xlink">
  <path d="M12.9739453,0 L13.0478499,0.00960636747 L13.1255909,0.0383703772 L13.2210765,0.0959709044 L13.2865767,0.144316614 C13.4970832,0.32119498 13.6325876,0.484037376 13.805494,0.696853263 L13.9390064,0.884659944 L14.045408,1.05422369 L14.1590157,1.26973459 L14.2325194,1.43153426 L14.3135002,1.65094303 L14.3689651,1.83419773 L14.4229557,2.0698597 C14.4299842,2.10715928 14.4373985,2.1538208 14.4569836,2.2673855 L14.4873897,2.55274411 C14.4957552,2.64830371 14.4982964,2.71580219 14.4991743,2.80974944 L14.5,3.06461527 L14.4776526,3.37772996 C14.4712387,3.43863698 14.4610316,3.50053135 14.4325458,3.69676871 L14.3656325,3.99175278 L14.2748394,4.28991845 L14.1651087,4.56274787 L14.0304555,4.83587127 L13.8797889,5.08257784 L13.7031194,5.3263935 L13.5042488,5.55240818 L13.2965104,5.75333824 L13.0363734,5.96010411 L12.9690775,6.00569169 C12.3869286,6.37686016 12.4131054,6.27237948 11.2267077,7.05303902 L10.7413572,7.38488244 C10.5053772,7.55005521 10.2705134,7.72158155 9.99659529,7.93310778 C9.76005993,8.1210081 9.71396593,8.16664292 9.60275133,8.41022102 L9.52996741,8.60126639 C9.50230717,8.69085262 9.47616702,8.80841231 9.42085443,9.06889551 L9.35509109,9.40315868 L9.35201097,9.4518158 C9.44742909,9.47068481 9.55928892,9.46005533 9.68401313,9.45357048 L9.79338677,9.2379983 C9.88442551,9.06301878 9.9352024,8.98936551 10.078403,8.83297286 L10.1800693,8.74214299 C10.1957309,8.72983343 10.2167201,8.71445037 10.2629339,8.67934704 L10.3837352,8.60474965 L10.481985,8.55360886 C11.0042785,8.32826547 11.1470349,8.39847262 11.9585645,8.11754798 C12.4422634,7.93954485 12.5149828,7.86368265 12.9591919,7.7331675 L13.0853623,7.7059231 C13.1034007,7.70308905 13.1265954,7.70027685 13.1785922,7.69323649 L13.2670116,7.6916519 L13.3481681,7.70132927 L13.4163804,7.72427508 L13.4717012,7.75705678 L13.5179515,7.80427557 L13.5530623,7.86012357 L13.5770563,7.92690404 L13.589074,8.00726454 C13.572087,8.27902379 13.0143778,8.76544533 12.932966,8.96499899 L12.8236387,9.21324587 L12.7158526,9.41622255 L12.6011934,9.5925085 C12.5712398,9.63617938 12.5480055,9.66306861 12.4463345,9.7910013 L12.3083612,9.93301183 C12.2724892,9.96797695 12.2451597,9.98881225 12.124812,10.0891353 L11.9556179,10.2015236 C11.9128404,10.228099 11.8839417,10.2410062 11.7515325,10.3102381 C11.5292049,10.3983303 11.0546476,10.3861996 10.7582199,10.4280331 L10.4094856,10.494127 L10.1511403,10.5206138 L9.98200593,10.5321496 C10.2520362,11.203054 10.114425,11.9855905 9.6,12.5284091 L8.55,13.6363636 C8.55,14.5454545 8.2,15 7.5,15 C6.84375,15 6.49511719,14.6004972 6.45410156,13.8014915 L6.45,13.6363636 L5.4,12.5284091 C4.88557495,11.9855905 4.74796385,11.203054 5.0149499,10.531 L4.84885969,10.5206138 L4.5905144,10.494127 L4.37315739,10.4541607 C4.11054458,10.3793721 3.50784972,10.4130123 3.24846754,10.3102381 L3.04438206,10.2015236 L2.87518801,10.0891353 L2.71852798,9.95804911 C2.68057968,9.9242978 2.65947906,9.89982106 2.55366551,9.7910013 L2.3988066,9.5925085 L2.28414739,9.41622255 L2.17636128,9.21324587 C2.15053116,9.16170427 2.13697182,9.12625115 2.06703402,8.96499899 C1.98562222,8.76544533 1.42791305,8.27902379 1.41092595,8.00726454 L1.42294367,7.92690404 L1.44693766,7.86012357 L1.48204846,7.80427557 C1.48984053,7.79430531 1.49948918,7.78577325 1.5282988,7.75705678 L1.58361956,7.72427508 L1.65183189,7.70132927 L1.73298838,7.6916519 L1.82140782,7.69323649 L1.94078354,7.71072181 L2.04080806,7.7331675 C2.48501725,7.86368265 2.55773657,7.93954485 3.04143546,8.11754798 C3.85296511,8.39847262 3.9957215,8.32826547 4.51801501,8.55360886 L4.64235794,8.61967754 C4.6605409,8.63067104 4.68423604,8.64601877 4.73706606,8.67934704 L4.84191428,8.76038307 C4.85722227,8.77378084 4.87715093,8.79242851 4.92159703,8.83297286 C5.11253113,9.04149639 5.13915645,9.1029277 5.31598687,9.45357048 C5.44071108,9.46005533 5.55257091,9.47068481 5.64798903,9.4518158 L5.64490891,9.40315868 L5.57914557,9.06889551 L5.50717419,8.74091118 C5.4706088,8.58699489 5.44923865,8.53396058 5.39724867,8.41022102 C5.28603407,8.16664292 5.23994007,8.1210081 5.00340471,7.93310778 C4.54687455,7.58056406 4.19882855,7.33913116 3.7732923,7.05303902 L3.42023877,6.82373549 L3.00325508,6.5643615 C2.58638325,6.31422139 2.46321913,6.27455512 2.12262687,6.06338227 L1.96362659,5.96010411 L1.70348957,5.75333824 L1.49575117,5.55240818 L1.29688058,5.3263935 L1.1202111,5.08257784 C1.08876902,5.03529171 1.06166077,4.98752375 0.969544549,4.83587127 L0.834891292,4.56274787 L0.725160624,4.28991845 L0.629607666,3.97324471 C0.616537612,3.92102934 0.603776096,3.85855157 0.567454159,3.69676871 L0.522347441,3.37772996 C0.515933568,3.31682295 0.513312909,3.25690327 0.5,3.06461527 L0.50082574,2.80974944 C0.502362054,2.64534175 0.508992213,2.56193343 0.543016363,2.2673855 L0.584380687,2.03354962 C0.592461372,1.99609787 0.604084493,1.94882766 0.631034949,1.83419773 L0.697892469,1.61718853 L0.767480595,1.43153426 L0.867813658,1.21511735 L0.957189178,1.05573676 L1.06099356,0.884659944 L1.19450599,0.696853263 C1.36741238,0.484037376 1.50291675,0.32119498 1.71342334,0.144316614 L1.77892352,0.0959709044 L1.87440911,0.0383703772 L1.95215008,0.00960636747 L2.02605468,0 C2.01102232,0.515606635 1.91067076,0.970152089 1.725,1.36363636 C1.50902907,1.85230153 2.0324381,4.21931942 2.25,3.92045455 L3.158019,2.87549342 L3.71691663,2.2163811 C3.81182833,2.10292047 3.90666667,1.98863636 4,1.875 C4.7,1.02272727 5.80887595,0.948325717 6.32237764,0.857596286 L6.38644291,0.852532265 L6.46533321,0.852035333 L6.52573454,0.85891071 L6.54515454,0.872951555 L6.55751686,0.918367889 L6.56104787,0.99113374 L6.53641089,1.05821913 L6.47447224,1.13271766 L5.79526645,1.83799143 L4.82988873,2.86370163 C4.37510353,3.35174669 3.98535752,3.77867767 3.90927691,3.8849548 L3.77854311,4.09369724 L3.70442919,4.22374125 C3.66455656,4.29708215 3.61938962,4.38554358 3.56410986,4.50101531 C3.51041466,4.62412074 3.4961585,4.65800618 3.475,4.77272727 L3.47059753,4.85937926 L3.47607789,4.92950678 C3.47976432,4.95776128 3.48556971,4.9926707 3.49427198,5.03956377 C3.58929273,5.45110156 4.08774231,5.98255069 4.525,6.30681818 L4.57468831,6.32746354 L4.67607329,6.35960836 C4.94107692,6.43247987 5.46609275,6.49630152 5.575,5.96590909 C5.71122512,5.30247508 5.00964291,3.94395406 5.19418129,4.06502426 L5.225,4.09090909 C5.53038923,4.38653952 7.15,5.11363636 6.625,6.30681818 C6.1,7.5 5.925,7.32954545 6.49960543,8.36659002 C6.53175076,8.58715699 6.58546406,8.70225048 6.68162976,8.86176421 L8.31837024,8.86176421 C8.41453594,8.70225048 8.46824924,8.58715699 8.50039457,8.36659002 L8.65739736,8.07624189 C9.03427978,7.35032108 8.84473684,7.37440191 8.375,6.30681818 C7.871875,5.16335227 9.33836648,4.4479401 9.73023165,4.13011262 L9.775,4.09090909 C10.0558683,3.81901602 9.28258283,5.27231899 9.425,5.96590909 C9.56741717,6.65949919 10.4214046,6.33694805 10.475,6.30681818 C10.9122577,5.98255069 11.4107073,5.45110156 11.505728,5.03956377 C11.5347356,4.88325352 11.5315556,4.86009507 11.525,4.77272727 C11.5038415,4.65800618 11.4895853,4.62412074 11.4358901,4.50101531 C11.2746575,4.16422275 11.1994541,4.05720538 11.0907231,3.8849548 C10.9010288,3.61997049 8.76136722,1.36157382 8.52552776,1.13271766 L8.46358911,1.05821913 L8.43895213,0.99113374 L8.44248314,0.918367889 C8.44397924,0.906861859 8.44694722,0.899914081 8.45484546,0.872951555 L8.47426546,0.85891071 L8.53466679,0.852035333 L8.64681196,0.854947 L8.67762236,0.857596286 L9.15868989,0.934991242 L9.45352677,0.994660164 C9.96528283,1.11351502 10.5625,1.34232955 11,1.875 L11.7058495,2.71643011 L12.75,3.92045455 C12.9675619,4.21931942 13.4909709,1.85230153 13.275,1.36363636 C13.0893292,0.970152089 12.9889777,0.515606635 12.9739453,0 Z"/>
</svg>