<?xml version="1.0" encoding="UTF-8"?>
<svg viewBox="0 0 15 15" version="1.1" xmlns="http://www.w3.org/2000/svg" xmlns:xlink="http://www.w3.org/1999/xlink">
  <path d="M11.25 10.75a1 1 0 1 0 2 0a1 1 0 1 0 -2 0z"/>
  <path d="M2.5 10a1 1 0 1 0 2 0a1 1 0 1 0 -2 0z"/>
  <path d="M12 3.5L12 1.5L3.5 1.5L1.5 6.5L3.5 7C3.5 8.1 4.4 9 5.5 9C5.65 9 6 9 6 9L9.5 9C9.5 9 9.85 9 10 9C11.1 9 12 8.1 12 7L14 5L14 3.5L12 3.5ZM5.5 5L4 5L4 3L5.5 3L5.5 5ZM8.5 5L6.5 5L6.5 3L8.5 3L8.5 5ZM11 5L9.5 5L9.5 3L11 3L11 5Z"/>
  <path d="M3.5 6.5C1.55 6.5 0 8.05 0 10C0 11.95 1.55 13.5 3.5 13.5C5.45 13.5 7 11.95 7 10C7 8.05 5.45 6.5 3.5 6.5ZM3.5 13C1.85 13 0.5 11.65 0.5 10C0.5 8.35 1.85 7 3.5 7C5.15 7 6.5 8.35 6.5 10C6.5 11.65 5.15 13 3.5 13Z"/>
  <path d="M12.25 8C10.75 8 9.5 9.25 9.5 10.75C9.5 12.25 10.75 13.5 12.25 13.5C13.75 13.5 15 12.25 15 10.75C15 9.25 13.75 8 12.25 8ZM12.25 13C11 13 10 12 10 10.75C10 9.5 11 8.5 12.25 8.5C13.5 8.5 14.5 9.5 14.5 10.75C14.5 12 13.5 13 12.25 13Z"/>
</svg>