<?xml version="1.0" encoding="UTF-8"?>
<svg viewBox="0 0 15 15" version="1.1" xmlns="http://www.w3.org/2000/svg" xmlns:xlink="http://www.w3.org/1999/xlink">
  <path d="M6.43 2.14C1.69 2.14 0 4.28 0 8.51C0 11.79 3.21 12.86 8.29 12.85C12.57 12.85 15.02 10.26 15 7.95C15 5.36 9.64 2.14 6.43 2.14ZM4.29 4.29L5.36 4.29L5.36 5.36L4.29 5.36L4.29 4.29ZM6.43 4.29L9.64 4.29L9.64 5.36L6.43 5.36L6.43 4.29ZM2.14 7.5L11.79 7.5L11.79 8.57L2.14 8.57L2.14 7.5ZM4.29 9.64L9.64 9.64L9.64 10.71L4.29 10.71L4.29 9.64Z"/>
</svg>