<?xml version="1.0" encoding="UTF-8"?>
<svg viewBox="0 0 15 15" version="1.1" xmlns="http://www.w3.org/2000/svg" xmlns:xlink="http://www.w3.org/1999/xlink">
  <path d="M1.46218787,1.1 C1.76218787,1.1 2.06218787,1.2 2.31218787,1.4 L12.2121879,9.25 C12.4621879,9.45 12.6121879,9.7 12.7121879,10 C12.7621879,10.25 12.7621879,10.5 12.6621879,10.7 C13.1621879,11 13.5121879,11.55 13.5121879,12.2 C13.5121879,13.2 12.7121879,14 11.7621879,14 C10.8121879,14 10.0121879,13.2 10.0121879,12.25 C10.0121879,11.3 10.8121879,10.5 11.7621879,10.5 C11.8621879,10.5 12.0121879,10.5 12.1121879,10.55 C12.1621879,10.45 12.1621879,10.3 12.1121879,10.15 C12.0621879,9.95 11.9621879,9.8 11.8121879,9.65 L11.2121879,9.15 L8.16218787,10.15 C7.56218787,10.35 6.86218787,10 6.66218787,9.4 L6.61218787,9.25 L5.86218787,10.9 C6.21218787,11.2 6.46218787,11.7 6.46218787,12.2 C6.46218787,13.15 5.66218787,13.95 4.71218787,13.95 C3.76218787,13.95 2.96218787,13.15 2.96218787,12.2 C2.96218787,11.25 3.81218787,10.5 4.76218787,10.5 C5.01218787,10.5 5.21218787,10.55 5.41218787,10.65 L6.36218787,8.5 L4.86218787,4.15 L1.96218787,1.85 C1.81218787,1.75 1.61218787,1.65 1.41218787,1.65 C0.912187872,1.65 0.562187872,2.05 0.562187872,2.5 C0.562187872,2.8 0.712187872,3.05 0.912187872,3.2 C1.01218787,3.3 1.06218787,3.5 0.962187872,3.6 C0.862187872,3.7 0.712187872,3.75 0.562187872,3.65 C0.212187872,3.4 0.0121878716,3 0.0121878716,2.5 C0.0121878716,1.7 0.662187872,1.1 1.46218787,1.1 Z M11.7621879,11.25 C11.2121879,11.25 10.7621879,11.7 10.7621879,12.25 C10.7621879,12.8 11.2121879,13.25 11.7621879,13.25 C12.3121879,13.25 12.7621879,12.8 12.7621879,12.25 C12.7621879,11.7 12.3121879,11.25 11.7621879,11.25 Z M3.76218787,12.25 C3.76218787,12.8 4.21218787,13.25 4.76218787,13.25 C5.31218787,13.25 5.76218787,12.8 5.76218787,12.25 C5.76218787,11.7 5.31218787,11.25 4.76218787,11.25 C4.21218787,11.25 3.76218787,11.7 3.76218787,12.25 Z"/>
</svg>