<?xml version="1.0" encoding="UTF-8"?>
<svg viewBox="0 0 15 15" version="1.1" xmlns="http://www.w3.org/2000/svg" xmlns:xlink="http://www.w3.org/1999/xlink">
  <path d="M10.63 0C10.63 0 10.63 3.13 11.25 3.75C11.88 4.38 15 4.38 15 4.38C15 4.38 12.5 6.88 12.5 7.5C12.5 8.13 15 10.63 15 10.63C15 10.63 11.88 10.63 11.25 11.25C10.63 11.88 10.63 15 10.63 15C10.63 15 8.13 12.5 7.5 12.5C6.88 12.5 4.38 15 4.38 15C4.38 15 4.38 11.88 3.75 11.25C3.13 10.63 0 10.63 0 10.63C0 10.63 2.5 8.13 2.5 7.5C2.5 6.88 0 4.38 0 4.38C0 4.38 3.13 4.38 3.75 3.75C4.38 3.13 4.38 0 4.38 0C4.38 0 6.88 2.5 7.5 2.5C8.13 2.5 10.63 0 10.63 0ZM7.5 4.38C5.63 4.38 4.38 5.63 4.38 7.5C4.38 9.38 5.63 10.63 7.5 10.63C9.38 10.63 10.63 9.38 10.63 7.5C10.63 5.63 9.38 4.38 7.5 4.38ZM7.5 10C8.88 10 10 8.88 10 7.5C10 6.13 8.88 5 7.5 5C6.13 5 5 6.13 5 7.5C5 8.88 6.13 10 7.5 10Z"/>
</svg>