<?xml version="1.0" encoding="UTF-8"?>
<svg viewBox="0 0 15 15" version="1.1" xmlns="http://www.w3.org/2000/svg" xmlns:xlink="http://www.w3.org/1999/xlink">
  <path d="M2.83 10.64C6.85 12.34 9.91 13.34 14.22 14.7C14.3 14.72 14.39 14.65 14.4 14.56C14.42 14.47 14.35 14.39 14.27 14.37C7.48 12.22 2.16 9.85 0.94 9.29C0.82 9.24 0.67 9.3 0.62 9.42C0.57 9.55 0.63 9.68 0.75 9.73C1.05 9.86 1.35 10 1.64 10.13L0.68 10.86C0.57 11.02 0.62 11.22 0.78 11.33C0.9 11.41 1.07 11.4 1.19 11.33L2.83 10.64L2.83 10.64ZM13.94 6.35L10.81 3.45L10.88 3.46C11.51 3.46 12.02 2.94 12.02 2.3C12.02 1.67 11.51 1.15 10.88 1.15C10.24 1.15 9.73 1.67 9.73 2.3C9.73 2.55 9.8 2.77 9.93 2.96L7.81 2.2L6.66 0.53C6.57 0.41 6.44 0.33 6.28 0.31C5.98 0.27 5.7 0.49 5.67 0.8C5.66 0.92 5.69 1.04 5.75 1.15L6.92 2.85C6.97 2.92 7.04 2.98 7.12 3.02L8.48 3.55L6.25 4.7C5.94 4.88 5.72 5.19 5.66 5.55L5.67 7.6L3.61 8.54C3.38 8.65 3.21 8.88 3.2 9.16C3.18 9.55 3.49 9.88 3.88 9.9C4 9.91 4.12 9.88 4.22 9.83L6.74 8.68C6.92 8.59 7.06 8.41 7.1 8.2L7.1 6.93L8.85 8.5L8.53 11.19L8.53 11.24C8.51 11.63 8.82 11.97 9.21 11.99C9.58 12 9.89 11.73 9.95 11.36L10.32 8.3L10.33 8.26C10.33 8.04 10.25 7.85 10.11 7.71L8.48 6.26L10.93 5.06L13.2 7.15C13.3 7.25 13.44 7.31 13.59 7.31C13.89 7.31 14.14 7.06 14.13 6.76C14.13 6.59 14.06 6.45 13.94 6.34L13.94 6.35Z"/>
</svg>