<?xml version="1.0" encoding="UTF-8"?>
<svg viewBox="0 0 15 15" version="1.1" xmlns="http://www.w3.org/2000/svg" xmlns:xlink="http://www.w3.org/1999/xlink">
  <path d="M4.29 11.57C8.46 13.39 10.07 13.61 14.57 15C14.68 15 14.79 15 14.79 14.89C14.79 14.79 14.79 14.68 14.68 14.68C7.5 12.43 1.93 9.96 0.64 9.32C0.54 9.32 0.32 9.32 0.32 9.43C0.32 9.54 0.32 9.75 0.43 9.75C0.75 9.86 2.79 10.82 3 10.93L1.29 12.32C1.18 12.54 1.18 12.75 1.39 12.86C1.5 12.96 1.71 12.96 1.82 12.86L4.29 11.57Z"/>
  <path d="M11.04 3.32C11.68 3.32 12.21 2.79 12.21 2.14C12.21 1.5 11.68 0.96 11.04 0.96C10.39 0.96 9.86 1.5 9.86 2.14C9.86 2.79 10.39 3.32 11.04 3.32Z"/>
  <path d="M8.57 6.21L11.14 4.93L13.5 7.07C13.61 7.18 13.71 7.29 13.93 7.29C14.25 7.29 14.46 7.07 14.46 6.75C14.46 6.54 14.36 6.43 14.25 6.32L10.82 3.21C10.71 3.11 10.61 3 10.5 2.89L7.82 1.93L6.64 0.21C6.54 0.11 6.43 0 6.21 0C5.89 0 5.57 0.21 5.57 0.54C5.57 0.64 5.57 0.75 5.68 0.86L6.86 2.68C6.96 2.79 6.96 2.79 7.07 2.89L8.57 3.43L6.21 4.61C5.89 4.71 5.68 5.04 5.57 5.46L5.57 7.61L3.43 8.57C3.21 8.68 3 8.89 3 9.21C3 9.64 3.32 9.96 3.75 9.96C3.86 9.96 3.96 9.96 4.07 9.86L6.75 8.68C6.96 8.57 7.07 8.36 7.18 8.14L7.18 6.86L8.89 8.57L8.57 11.36C8.57 11.36 8.57 11.36 8.57 11.36C8.57 11.79 8.89 12.11 9.32 12.11C9.75 12.11 10.07 11.89 10.07 11.46L10.5 8.25C10.5 8.25 10.5 8.25 10.5 8.25C10.5 8.04 10.39 7.82 10.29 7.71L8.57 6.21Z"/>
</svg>