<?xml version="1.0" encoding="UTF-8"?>
<svg viewBox="0 0 15 15" xmlns="http://www.w3.org/2000/svg">
  <path d="M3 1.15c0.21 -0.8 1.03 -1.28 1.83 -1.07s1.28 1.03 1.07 1.83c-0.2 0.77 -0.96 1.25 -1.74 1.09c-0.81 -0.16 -1.34 -0.95 -1.18 -1.76c0.01 -0.03 0.01 -0.06 0.02 -0.09zm11 11.17c0.1 0.54 -0.25 1.07 -0.8 1.17c0 0 0 0 0 0c-0.43 0.09 -0.86 -0.11 -1.07 -0.49l-1.68 -3.37l-1.45 0.29l-0.22 0.08h-0.06v2.15l0.62 -0.15h0.14c0.29 0.01 0.52 0.24 0.51 0.53c0 0.21 -0.13 0.39 -0.32 0.47l-5 1c-0.06 0.01 -0.11 0.01 -0.17 0c-0.29 0 -0.52 -0.23 -0.52 -0.52c0 -0.21 0.13 -0.4 0.32 -0.48l4.15 -0.83v-2.17l-3.22 0.58c-0.16 0.04 -0.34 0.04 -0.5 0c-0.34 -0.09 -0.61 -0.34 -0.71 -0.68h-0.02l-1 -4.07c-0.03 -0.14 -0.03 -0.29 0 -0.43c0.09 -0.39 0.41 -0.68 0.8 -0.75l4.7 -0.52v-4.13h0.22v4.1h0.06l0.22 -0.02l0.4 -0.08h0.21c0.27 0.06 0.43 0.33 0.37 0.6c-0.04 0.24 -0.25 0.4 -0.49 0.4l-0.49 0.08h-0.22h-0.06v2.86h0.06l0.22 -0.06l1.81 -0.36c0.43 -0.04 0.83 0.21 1 0.6l2 3.94c0.08 0.08 0.14 0.16 0.19 0.26zm-5.5 -7.19l-2.5 0.27l0.74 2.94l1.76 -0.34z"/>
</svg>