<?xml version="1.0" encoding="UTF-8"?>
<svg viewBox="0 0 15 15" xmlns="http://www.w3.org/2000/svg">
  <path d="M1 2.75A0.75 0.75 0 0 1 1.75 2h1.11c0.09 0 0.18 0.02 0.26 0.05l3.39 1.27A0.75 0.75 0 0 1 7 4.02v5.96a0.75 0.75 0 0 1 -0.49 0.7L3 12v0.25a0.75 0.75 0 0 1 -0.75 0.75h-0.5a0.75 0.75 0 0 1 -0.75 -0.75v-9.5Zm3 5.74v-4.87a0.25 0.25 0 0 0 -0.16 -0.23l-0.5 -0.19A0.25 0.25 0 0 0 3 3.43v5.22c0 0.17 0.17 0.29 0.33 0.24l0.5 -0.17A0.25 0.25 0 0 0 4 8.49ZM5 4.18v3.81a0.25 0.25 0 0 0 0.33 0.24l0.5 -0.17A0.25 0.25 0 0 0 6 7.82V4.37a0.25 0.25 0 0 0 -0.16 -0.23l-0.5 -0.19A0.25 0.25 0 0 0 5 4.18Zm9 -1.43a0.75 0.75 0 0 0 -0.75 -0.75h-1.11a0.75 0.75 0 0 0 -0.26 0.05l-3.39 1.27A0.75 0.75 0 0 0 8 4.02v5.96a0.75 0.75 0 0 0 0.49 0.7L12 12v0.25c0 0.41 0.34 0.75 0.75 0.75h0.5a0.75 0.75 0 0 0 0.75 -0.75v-9.5Zm-2.83 5.97a0.25 0.25 0 0 1 -0.17 -0.24v-4.87a0.25 0.25 0 0 1 0.16 -0.23l0.5 -0.19a0.25 0.25 0 0 1 0.34 0.23v5.22a0.25 0.25 0 0 1 -0.33 0.24l-0.5 -0.17ZM10 4.18v3.81a0.25 0.25 0 0 1 -0.33 0.24l-0.5 -0.17A0.25 0.25 0 0 1 9 7.82V4.37a0.25 0.25 0 0 1 0.16 -0.23l0.5 -0.19a0.25 0.25 0 0 1 0.34 0.23Z"/>
</svg>