<?xml version="1.0" encoding="UTF-8"?>
<svg viewBox="0 0 15 15" version="1.1" xmlns="http://www.w3.org/2000/svg" xmlns:xlink="http://www.w3.org/1999/xlink">
  <path d="M13.71 7.25L11.34 3.26C11.25 3.08 11.02 3 10.83 3L8.7 3L8.7 1.2C8.7 0.87 8.43 0.6 8.1 0.6L6.6 0.6C6.27 0.6 6 0.87 6 1.2L6 3L4.21 3C4.02 3 3.78 3.08 3.69 3.26L1.31 7.28C0.92 7.28 0.6 7.58 0.6 7.97L0.6 11.62C0.6 12.02 0.92 12.3 1.31 12.3L2.1 12.3L2.1 13.44C2.1 14.04 2.5 14.4 3.09 14.4L3.44 14.4C4.03 14.4 4.5 14.04 4.5 13.44L4.5 12.3L10.5 12.3L10.5 13.44C10.5 14.04 11.02 14.4 11.6 14.4L11.96 14.4C12.54 14.4 12.9 14.04 12.9 13.44L12.9 12.3L13.73 12.3C14.12 12.3 14.4 12.02 14.4 11.62L14.4 7.97C14.4 7.58 14.1 7.25 13.71 7.25L13.71 7.25ZM2.55 10.16C2.06 10.16 1.67 9.75 1.67 9.25C1.67 8.74 2.06 8.34 2.55 8.34C3.05 8.34 3.44 8.75 3.44 9.25C3.44 9.76 3.05 10.16 2.55 10.16L2.55 10.16ZM3.08 7.2L4.7 4.39C4.79 4.21 5.02 4.2 5.21 4.2L9.82 4.2C10.02 4.2 10.25 4.21 10.34 4.39L11.96 7.2L3.08 7.2ZM12.49 10.16C12 10.16 11.6 9.75 11.6 9.25C11.6 8.75 12 8.34 12.49 8.34C12.98 8.34 13.37 8.75 13.37 9.26C13.37 9.76 12.98 10.16 12.49 10.16L12.49 10.16Z"/>
</svg>