<?xml version="1.0" encoding="UTF-8"?>
<svg viewBox="0 0 15 15" version="1.1" xmlns="http://www.w3.org/2000/svg" xmlns:xlink="http://www.w3.org/1999/xlink">
  <path d="M6.43 0L6.43 1.07L7.5 1.07C11.05 1.07 13.93 3.95 13.93 7.5L13.93 8.57L15 8.57L15 7.5C15 5.88 14.47 4.31 13.5 3.02L15 1.52L13.48 0L11.98 1.5C10.69 0.53 9.12 0 7.5 0L6.43 0ZM6.43 2.14C4.72 2.14 3.09 2.82 1.88 4.03C0.68 5.23 0 6.87 0 8.57L12.86 8.57C12.86 6.87 12.18 5.23 10.97 4.03C9.77 2.82 8.13 2.14 6.43 2.14ZM0 9.64L0 15L12.86 15L12.86 9.64L0 9.64Z"/>
</svg>