<?xml version="1.0" encoding="UTF-8"?>
<svg viewBox="0 0 15 15" version="1.1" xmlns="http://www.w3.org/2000/svg" xmlns:xlink="http://www.w3.org/1999/xlink">
  <path d="M4.34 0C1.69 2.72 1.69 7.13 4.34 9.85C6.99 12.58 11.28 12.58 13.93 9.85C13.23 9.13 13.46 9.37 12.96 8.86L13.34 2.03C13.7 1.85 13.93 1.48 13.93 1.07C13.93 0.48 13.45 0 12.86 0C12.45 0 12.08 0.23 11.9 0.6L5.32 1.01C4.84 0.51 5.03 0.7 4.34 0ZM11.55 1.68L8.72 4.51C8.37 4.14 7.11 2.85 6.3 2.02L11.55 1.68ZM12.25 2.5L11.95 7.82C11.09 6.93 9.84 5.65 9.47 5.27L12.25 2.5ZM3.52 10.87L1.07 15L10.71 15L10.71 13.1C8.27 13.51 5.42 12.77 3.52 10.87Z"/>
</svg>