<?xml version="1.0" encoding="UTF-8"?>
<svg viewBox="0 0 15 15" version="1.1" xmlns="http://www.w3.org/2000/svg" xmlns:xlink="http://www.w3.org/1999/xlink">
  <path d="M1.74 7.26C1.44 7.26 1.19 7.51 1.19 7.82C1.19 8.12 1.44 8.36 1.74 8.36C2.05 8.36 2.29 8.12 2.29 7.82C2.29 7.51 2.05 7.27 1.74 7.27L1.74 7.26ZM9.39 2.69C10.05 2.69 10.58 2.15 10.58 1.49C10.58 0.83 10.05 0.3 9.39 0.3C8.73 0.3 8.19 0.83 8.19 1.49C8.19 2.15 8.73 2.69 9.39 2.69ZM14.53 13.31L12.59 11.02C12.59 11.02 11.98 7.49 11.98 7.48L11.89 7.08C11.89 7.08 11.65 5.97 11.45 5.09C11.76 5.27 12.03 5.42 12.05 5.43C12.06 5.46 13.07 7.39 13.07 7.39C13.15 7.53 13.28 7.64 13.43 7.68C13.59 7.73 13.76 7.72 13.9 7.64C14.04 7.57 14.15 7.44 14.19 7.28C14.24 7.13 14.23 6.96 14.15 6.82L13.04 4.71C13.04 4.71 13 4.63 12.94 4.57C12.86 4.49 12.68 4.39 12.68 4.39L10.52 3.17C10.25 3.03 9.95 2.98 9.64 3.05C9.52 3.08 9.4 3.12 9.27 3.2C9.26 3.2 8.78 3.41 8.5 4.06L7.39 6.29L5.64 6.63L5.6 6.64L4.02 5.53C3.67 5.28 3.62 4.54 3.62 4.51C3.58 4 3.28 3.52 2.81 3.19C2.39 2.89 1.88 2.76 1.41 2.84C1.04 2.9 0.74 3.09 0.54 3.36C0.38 3.58 0.3 3.84 0.3 4.11L0.32 4.35C0.41 4.82 0.69 5.26 1.12 5.56C1.54 5.87 2.05 5.99 2.52 5.91L2.63 5.89C2.64 5.89 3.34 5.67 3.69 5.9C3.69 5.91 4.87 6.74 5.18 6.96C5.15 7.01 5.09 7.13 5.1 7.24C5.1 7.28 5.1 7.31 5.11 7.35C5.17 7.68 5.49 7.9 5.82 7.83L7.92 7.42C7.92 7.42 8.1 7.37 8.17 7.31C8.27 7.25 8.34 7.1 8.34 7.1L8.9 5.99C8.9 5.99 9.28 7.78 9.28 7.82C9.24 7.86 7.56 9.63 7.56 9.63L7.5 9.67C7.34 9.82 7.21 10.01 7.21 10.22L7.21 13.98C7.21 14.39 7.56 14.71 7.96 14.71C8.36 14.71 8.71 14.39 8.71 13.98L8.71 10.85C9.01 10.69 10.16 9.33 10.51 8.98C10.54 9.19 10.88 11.09 10.88 11.09C10.91 11.26 11 11.42 11.12 11.54C11.12 11.54 13.43 14.26 13.43 14.26C13.55 14.4 13.73 14.5 13.92 14.51C14.12 14.53 14.3 14.47 14.45 14.34C14.62 14.2 14.71 13.99 14.71 13.79C14.71 13.62 14.66 13.46 14.54 13.32L14.53 13.31ZM3.01 5.12C2.88 5.3 2.68 5.41 2.44 5.45C2.09 5.51 1.71 5.42 1.39 5.18C1.07 4.95 0.85 4.62 0.79 4.28L0.77 4.11C0.77 3.93 0.82 3.77 0.92 3.63C1.24 3.19 1.96 3.16 2.54 3.57C3.11 3.98 3.32 4.67 3.01 5.12L3.01 5.12Z"/>
</svg>