<?xml version="1.0" encoding="UTF-8"?>
<svg viewBox="0 0 15 15" version="1.1" xmlns="http://www.w3.org/2000/svg" xmlns:xlink="http://www.w3.org/1999/xlink">
  <path d="M14.28 3.97C14.25 3.84 14.19 3.72 14.09 3.66L9.53 0.09C9.34 -0.03 9.09 -0.03 8.91 0.09L4.34 3.66C4.25 3.72 4.19 3.84 4.16 3.97L3.91 5.75L4.88 5C5.41 4.59 6.13 4.59 6.66 5L8.44 6.38L9.06 6.84L9.91 7.5L10.31 7.81L11.22 8.53C11.5 8.75 11.69 9.03 11.75 9.38L15 9.38L14.28 3.97Z"/>
  <path d="M10.66 9.28L9.06 8.03L8.78 7.81L8.44 7.56L6.09 5.75C6 5.69 5.91 5.66 5.78 5.66C5.66 5.66 5.56 5.69 5.47 5.75L3.75 7.06L0.91 9.25C0.81 9.31 0.75 9.44 0.72 9.56L0 15L5.63 15L5.63 11.97C5.63 11.91 5.66 11.88 5.72 11.88C5.72 11.88 5.72 11.88 5.72 11.88C5.75 11.88 5.78 11.91 5.81 11.91L7.5 15L11.56 15L10.84 9.59C10.81 9.47 10.75 9.34 10.66 9.28Z"/>
</svg>