<?xml version="1.0" encoding="UTF-8"?>
<svg viewBox="0 0 15 15" version="1.1" xmlns="http://www.w3.org/2000/svg" xmlns:xlink="http://www.w3.org/1999/xlink">
  <path d="M1.07 1.07L13.93 1.07L13.93 5.36L1.07 2.14L1.07 1.07ZM11.79 12.86L12.86 12.86L12.86 15L11.79 15L11.79 12.86ZM9.64 11.79L12.86 11.79L12.86 12.86L9.64 12.86L9.64 11.79ZM9.64 9.64L11.79 9.64L11.79 11.79L9.64 11.79L9.64 9.64ZM10.71 8.57C11.36 8.57 11.79 8.14 11.79 7.5C11.79 6.86 11.36 6.43 10.71 6.43C10.07 6.43 9.64 6.86 9.64 7.5C9.64 8.14 10.07 8.57 10.71 8.57ZM7.5 11.79L8.57 11.79L8.57 13.93L7.5 13.93L7.5 11.79ZM5.36 10.71L8.57 10.71L8.57 11.79L5.36 11.79L5.36 10.71ZM5.36 8.57L7.5 8.57L7.5 10.71L5.36 10.71L5.36 8.57ZM6.43 7.5C7.07 7.5 7.5 7.07 7.5 6.43C7.5 5.79 7.07 5.36 6.43 5.36C5.79 5.36 5.36 5.79 5.36 6.43C5.36 7.07 5.79 7.5 6.43 7.5ZM3.21 10.71L4.29 10.71L4.29 12.86L3.21 12.86L3.21 10.71ZM1.07 9.64L4.29 9.64L4.29 10.71L1.07 10.71L1.07 9.64ZM1.07 7.5L3.21 7.5L3.21 9.64L1.07 9.64L1.07 7.5ZM2.14 6.43C2.79 6.43 3.21 6 3.21 5.36C3.21 4.71 2.79 4.29 2.14 4.29C1.5 4.29 1.07 4.71 1.07 5.36C1.07 6 1.5 6.43 2.14 6.43Z"/>
</svg>