<?xml version="1.0" encoding="UTF-8"?>
<svg viewBox="0 0 15 15" version="1.1" xmlns="http://www.w3.org/2000/svg" xmlns:xlink="http://www.w3.org/1999/xlink">
  <path d="M9.4 0.03C11.81 0.03 13.76 3.38 13.76 7.51C13.76 11.65 11.81 15 9.4 15C6.98 15 5.03 11.65 5.03 7.51C5.03 3.38 6.98 0.03 9.4 0.03ZM7.52 7.51C7.52 9.88 8.5 11.79 9.71 11.79C10.95 11.79 11.89 9.87 11.89 7.51C11.89 5.15 10.91 3.23 9.71 3.23C8.46 3.23 7.52 5.15 7.52 7.51L7.52 7.51ZM9.71 3.77C9.36 3.77 9.03 4.06 8.77 4.53C9.16 5.3 9.4 6.35 9.4 7.51C9.4 8.76 9.16 9.72 8.77 10.5C9.03 10.97 9.36 11.26 9.71 11.26C10.57 11.26 11.27 9.59 11.27 7.51C11.27 5.45 10.57 3.77 9.71 3.77L9.71 3.77ZM4.4 7.51C4.4 3.57 6.06 0.34 8.15 0.03L8.15 0L6.28 0L6.28 0C6.28 0 6.28 0 6.28 0C3.52 0.03 1.29 3.37 1.29 7.51C1.29 11.65 3.52 15 6.28 15C6.28 15 6.28 15 6.28 15L8.12 15L8.12 15C6.06 14.68 4.4 11.46 4.4 7.51Z"/>
</svg>