<?xml version="1.0" encoding="UTF-8"?>
<svg viewBox="0 0 15 15" version="1.1" xmlns="http://www.w3.org/2000/svg" xmlns:xlink="http://www.w3.org/1999/xlink">
  <path d="M0.11 2.04C0.11 0.96 2.68 0 5.89 0C9.11 0 11.79 0.96 11.79 2.04C11.79 3.11 9.21 4.07 5.89 4.07C2.57 4.07 0.11 3.21 0.11 2.04ZM5.89 2.57C7.18 2.57 8.25 2.25 8.25 1.71C8.25 1.18 7.18 0.86 5.89 0.86C4.61 0.86 3.64 1.29 3.64 1.71C3.64 2.14 4.61 2.57 5.89 2.57Z"/>
  <path d="M11.79 3.54L11.79 3.54C11.25 4.5 9 5.14 5.89 5.14C2.79 5.14 0.75 4.71 0.11 3.54L0.11 3.54L0.11 12.96L0.11 12.96C0.21 14.04 2.79 15 6 15C9.21 15 11.79 14.14 11.89 12.96L11.89 12.96L11.89 3.54L11.79 3.54Z"/>
  <path d="M12.75 12.86L14.89 13.61L14.89 2.57L12.43 1.61C12.43 1.61 12.75 1.93 12.75 2.25C12.75 2.89 12.75 12.86 12.75 12.86Z"/>
</svg>