<?xml version="1.0" encoding="UTF-8"?>
<svg version="1.1" xmlns="http://www.w3.org/2000/svg" viewBox="0 0 15 15">
  <path d="M2.5 1C2.22 1 2 1.22 2 1.5V2V13H1.5C1.22 13 1 13.22 1 13.5C1 13.78 1.22 14 1.5 14H8.5C8.78 14 9 13.78 9 13.5C9 13.22 8.78 13 8.5 13H7V10.1L13.78 5.55C14.01 5.39 14.07 5.08 13.91 4.85L13.63 4.44C13.48 4.21 13.17 4.15 12.94 4.3L7 8.29V2H7.5C7.78 2 8 1.78 8 1.5C8 1.22 7.78 1 7.5 1H2.5ZM3 3.5C3 3.22 3.22 3 3.5 3H5.5C5.78 3 6 3.22 6 3.5V7.5C6 7.78 5.78 8 5.5 8H3.5C3.22 8 3 7.78 3 7.5V3.5Z"/>
</svg>