<?xml version="1.0" encoding="UTF-8"?>
<svg viewBox="0 0 15 15" version="1.1" xmlns="http://www.w3.org/2000/svg" xmlns:xlink="http://www.w3.org/1999/xlink">
  <path d="M10.64 4.51C10.57 4.51 10.5 4.46 10.5 4.39L10.5 2.53C10.5 2.46 10.46 2.4 10.39 2.4L4.62 2.4C4.54 2.4 4.5 2.46 4.5 2.53L4.5 4.39C4.5 4.46 4.42 4.5 4.35 4.5L0.44 4.5C0.36 4.5 0.3 4.58 0.3 4.65L0.3 6.71C0.3 6.79 0.36 6.9 0.44 6.9L6.74 6.9C6.81 6.9 6.9 6.79 6.9 6.71L6.9 6.28C6.9 6.2 6.93 6 7.01 6L8 6C8.08 6 8.1 6.2 8.1 6.28L8.1 6.72C8.1 6.79 8.2 6.9 8.27 6.9L14.57 6.9C14.64 6.9 14.7 6.79 14.7 6.72L14.7 4.66C14.7 4.58 14.64 4.5 14.57 4.5L10.66 4.5L10.65 4.51L10.64 4.51ZM5.43 4.5C5.35 4.5 5.4 4.46 5.4 4.39L5.4 3.33C5.4 3.26 5.36 3.3 5.43 3.3L9.57 3.3C9.65 3.3 9.6 3.26 9.6 3.33L9.6 4.39C9.6 4.46 9.65 4.5 9.57 4.5L5.43 4.5ZM8.12 8.91C8.12 8.99 8.07 9 8 9L7 9C6.93 9 6.9 9.03 6.9 8.96L6.9 7.48C6.9 7.41 6.8 7.2 6.73 7.2L0.44 7.2C0.36 7.2 0.3 7.41 0.3 7.48L0.3 11.87C0.3 11.94 0.36 12 0.44 12L14.57 12C14.64 12 14.7 11.94 14.7 11.87L14.7 7.48C14.7 7.41 14.64 7.2 14.57 7.2L8.27 7.2C8.19 7.2 8.1 7.41 8.1 7.48L8.1 8.96L8.12 8.92L8.12 8.91Z"/>
</svg>