<?xml version="1.0" encoding="UTF-8"?>
<svg viewBox="0 0 15 15" version="1.1" xmlns="http://www.w3.org/2000/svg" xmlns:xlink="http://www.w3.org/1999/xlink">
  <path d="M13.7 1.77L3.48 1.77C3.34 1.77 3.2 1.64 3.2 1.5L3.2 0.27C3.2 0.14 3.34 0 3.48 0L13.7 0C13.84 0 13.98 0.14 13.98 0.27L13.98 1.43C14.05 1.64 13.91 1.77 13.7 1.77ZM12.07 5.39L4.36 5.39C4.23 5.39 4.09 5.25 4.09 5.05L4.09 3.89C4.09 3.75 4.23 3.61 4.36 3.61L12 3.61C12.14 3.61 12.27 3.75 12.27 3.89L12.27 5.05C12.34 5.25 12.2 5.39 12.07 5.39ZM10.36 8.59L4.7 8.59C4.57 8.59 4.43 8.45 4.43 8.32L4.43 7.16C4.43 7.02 4.57 6.89 4.7 6.89L10.43 6.89C10.57 6.89 10.7 7.02 10.7 7.16L10.7 8.32C10.64 8.45 10.57 8.59 10.36 8.59ZM8.05 11.8L4.09 11.8C3.95 11.8 3.82 11.66 3.82 11.52L3.82 10.36C3.82 10.23 3.95 10.09 4.09 10.09L8.11 10.09C8.25 10.09 8.39 10.23 8.39 10.36L8.39 11.52C8.32 11.66 8.18 11.8 8.05 11.8ZM5.59 15L3.27 15C3.14 15 3 14.86 3 14.73L3 13.57C3 13.43 3.14 13.3 3.27 13.3L5.59 13.3C5.73 13.3 5.86 13.43 5.86 13.57L5.86 14.73C5.93 14.86 5.8 15 5.59 15Z"/>
</svg>