<?xml version="1.0" encoding="UTF-8"?>
<svg viewBox="0 0 15 15" version="1.1" xmlns="http://www.w3.org/2000/svg" xmlns:xlink="http://www.w3.org/1999/xlink">
  <path d="M14.25 9.68L14.25 8.52L7.3 11.66L7.3 12.82L8.18 12.41L8.18 15L15 15L15 13.64L9.55 13.64L9.55 11.8z"/>
  <path d="M10.98 1.77L0.75 1.77C0.61 1.77 0.48 1.64 0.48 1.5L0.48 0.27C0.48 0.14 0.61 0 0.75 0L10.98 0C11.11 0 11.25 0.14 11.25 0.27L11.25 1.43C11.32 1.64 11.18 1.77 10.98 1.77Z"/>
  <path d="M9.34 5.39L1.64 5.39C1.5 5.39 1.36 5.25 1.36 5.05L1.36 3.89C1.36 3.75 1.5 3.61 1.64 3.61L9.27 3.61C9.41 3.61 9.55 3.75 9.55 3.89L9.55 5.05C9.61 5.25 9.48 5.39 9.34 5.39Z"/>
  <path d="M7.64 8.59L1.98 8.59C1.84 8.59 1.7 8.45 1.7 8.32L1.7 7.16C1.7 7.02 1.84 6.89 1.98 6.89L7.7 6.89C7.84 6.89 7.98 7.02 7.98 7.16L7.98 8.32C7.91 8.45 7.84 8.59 7.64 8.59Z"/>
  <path d="M5.32 11.8L1.36 11.8C1.23 11.8 1.09 11.66 1.09 11.52L1.09 10.36C1.09 10.23 1.23 10.09 1.36 10.09L5.39 10.09C5.52 10.09 5.66 10.23 5.66 10.36L5.66 11.52C5.59 11.66 5.45 11.8 5.32 11.8Z"/>
  <path d="M2.86 15L0.55 15C0.41 15 0.27 14.86 0.27 14.73L0.27 13.57C0.27 13.43 0.41 13.3 0.55 13.3L2.86 13.3C3 13.3 3.14 13.43 3.14 13.57L3.14 14.73C3.2 14.86 3.07 15 2.86 15Z"/>
</svg>