<?xml version="1.0" encoding="UTF-8"?>
<svg version="1.1" xmlns="http://www.w3.org/2000/svg" viewBox="0 0 15 15">
  <path d="M12.41 5.58l-1.34 8c-0.04 0.24 -0.25 0.41 -0.49 0.41H4.42c-0.24 0 -0.45 -0.17 -0.49 -0.41l-1.34 -8C2.55 5.31 2.73 5.05 3 5.01C3.03 5 3.05 5 3.08 5h8.83c0.28 0 0.5 0.22 0.51 0.49C12.42 5.52 12.41 5.55 12.41 5.58zM13 3.5C13 3.78 12.78 4 12.5 4h-10C2.22 4 2 3.78 2 3.5S2.22 3 2.5 3H5V1.5C5 1.22 5.22 1 5.5 1h4C9.78 1 10 1.22 10 1.5V3h2.5C12.78 3 13 3.22 13 3.5zM9 3V2H6v1H9z"/>
</svg>