<?xml version="1.0" encoding="UTF-8"?>
<svg viewBox="0 0 15 15" version="1.1" xmlns="http://www.w3.org/2000/svg" xmlns:xlink="http://www.w3.org/1999/xlink">
  <path d="M7.5,0 L11.0170823,3.12629534 C11.1238264,3.22117906 11.1849003,3.35718109 11.1849003,3.5 C11.1849003,3.77614237 10.9610427,4 10.6849003,4 L8.59902703,4 L12.043033,7.13002996 C12.1264227,7.20583883 12.1811336,7.30697594 12.1996823,7.41652515 L12.2066966,7.5 C12.2066966,7.77614237 11.9828389,8 11.7066966,8 L8.79902703,8 L12.8347944,11.103688 C12.957837,11.1983362 13.029939,11.3447655 13.029939,11.5 C13.029939,11.7761424 12.8060814,12 12.529939,12 L8.49902703,12 L8.5,15 L6.5,15 L6.49902703,12 L2.49224473,12 C2.36834029,12 2.25003174,11.9540638 2.15918861,11.8729328 L2.09654773,11.8056532 C1.92774013,11.5871158 1.9680541,11.2731106 2.18659152,11.104303 L6.20502703,7.999 L3.29330344,8 C3.15243095,8 3.01809449,7.9405736 2.9233334,7.8363364 C2.73757994,7.63200759 2.75263823,7.31578343 2.95696704,7.13002996 L6.39902703,4 L4.31509966,4 C4.20084454,4 4.09095221,3.9609127 4.00298502,3.89062477 L3.941395,3.83218192 C3.75793599,3.62579054 3.77652636,3.30975435 3.98291774,3.12629534 L7.5,0 Z"/>
</svg>