<?xml version="1.0" encoding="UTF-8"?>
<svg viewBox="0 0 15 15" version="1.1" xmlns="http://www.w3.org/2000/svg" xmlns:xlink="http://www.w3.org/1999/xlink">
  <path d="M11.79 6.43C12.86 6.43 13.93 7.5 13.93 8.57L13.93 10.71C13.93 11.73 12.86 12.86 11.79 12.86L6.43 12.86C5.36 12.86 4.29 11.79 4.29 10.71L4.29 8.57C4.29 7.5 5.36 6.43 6.43 6.43L7.5 6.43C5.36 7.5 5.36 7.5 5.36 9.64C5.36 10.24 5.91 10.67 6.43 10.71L11.79 10.71C12.43 10.71 12.86 10.24 12.86 9.64C12.86 7.5 12.86 7.5 10.71 6.42L11.79 6.43ZM7.5 3.21L7.5 5.34L5.36 5.36L5.36 6.43L7.5 6.43L7.5 8.57L8.57 8.57L8.57 6.43L9.64 6.43L9.64 8.57L10.71 8.57L10.71 6.43L13.93 6.43C13.93 7.5 15 7.5 15 7.5L15 4.29C15 4.29 13.93 4.29 13.93 5.31L10.71 5.33L10.71 3.21L9.64 3.21L9.64 5.33L8.57 5.34L8.57 3.21L7.5 3.21ZM0 10.71L0 1.07C3.21 1.07 3.21 5.36 5.36 5.36L5.36 6.43C3.21 6.43 3.21 10.71 0 10.71Z"/>
</svg>