<?xml version="1.0" encoding="UTF-8"?>
<svg viewBox="0 0 15 15" version="1.1" xmlns="http://www.w3.org/2000/svg" xmlns:xlink="http://www.w3.org/1999/xlink">
  <path d="M11.79 2.68C11.79 1.82 12.54 1.07 13.39 1.07C14.25 1.07 15 1.82 15 2.68C15 3.54 14.25 4.29 13.39 4.29C12.54 4.29 11.79 3.54 11.79 2.68Z"/>
  <path d="M3.96 7.29C5.57 7.39 6.96 7.39 8.14 7.5L5.25 5.89C4.93 5.79 4.82 5.79 4.61 5.79L0.96 6.75C0.75 6.86 0.54 6.96 0.43 7.18C0.32 7.29 0.32 7.5 0.43 7.71C0.54 8.14 0.96 8.36 1.39 8.25L2.79 7.93C3.21 7.18 3.96 7.29 3.96 7.29Z"/>
  <path d="M11.57 5.25L9.54 7.5C11.36 7.5 12.32 7.29 12.75 7.29C13.07 6.86 13.29 6.64 13.29 6.54C13.61 6.11 13.71 5.57 13.18 5.04C12.32 4.29 11.57 5.25 11.57 5.25Z"/>
  <path d="M15 11.79C14.68 11.79 14.46 11.57 14.14 11.25C13.82 10.93 13.39 10.39 12.54 10.39C11.68 10.39 11.25 10.93 10.93 11.25C10.5 11.57 10.39 11.79 9.96 11.79C9.54 11.79 9.43 11.57 9.11 11.25C8.79 10.93 8.36 10.39 7.5 10.39C6.64 10.39 6.21 10.93 5.89 11.25C5.57 11.57 5.36 11.79 5.04 11.79C4.71 11.79 4.5 11.57 4.18 11.25C3.86 10.93 3.43 10.39 2.57 10.39C1.71 10.39 1.29 10.93 0.96 11.25C0.54 11.57 0.32 11.79 0 11.79L0 12.86C0.86 12.86 1.29 12.32 1.61 12C1.93 11.68 2.14 11.46 2.46 11.46C2.79 11.46 3 11.68 3.32 12C3.64 12.32 4.18 12.86 5.04 12.86C5.89 12.86 6.32 12.32 6.64 12C6.96 11.68 7.07 11.46 7.5 11.46C7.93 11.46 8.04 11.68 8.36 12C8.68 12.32 9.11 12.86 9.96 12.86C10.82 12.86 11.25 12.32 11.57 12C11.89 11.68 12 11.46 12.43 11.46C12.75 11.46 12.96 11.68 13.29 12C13.61 12.32 14.04 12.86 14.89 12.86L14.89 11.79L15 11.79Z"/>
  <path d="M4.93 10.5C4.93 10.61 5.04 10.61 4.93 10.5C5.04 10.5 5.04 10.5 5.04 10.5C5.46 10.07 6.11 9.32 7.5 9.32C8.89 9.32 9.54 10.07 9.96 10.5C9.96 10.5 9.96 10.5 9.96 10.61C9.96 10.61 9.96 10.61 9.96 10.5C10.39 10.07 11.04 9.32 12.43 9.32C12.96 9.32 13.5 9.43 13.82 9.64C13.93 9.43 13.93 9.11 13.93 8.89C13.93 8.79 13.93 7.93 12.96 7.61C12.54 7.71 9.75 8.25 3.75 7.71C3.64 7.71 2.68 7.71 2.57 8.89C2.57 8.89 2.57 9 2.57 9.21C3.96 9.43 4.61 10.18 4.93 10.5Z"/>
</svg>