<?xml version="1.0" encoding="UTF-8"?>
<svg viewBox="0 0 15 15" version="1.1" xmlns="http://www.w3.org/2000/svg" xmlns:xlink="http://www.w3.org/1999/xlink">
  <path d="M13.48,13.93 C13.48,1.07 13.51,3.16 13.51,1.07 C13.51,0 13.46,0 11.86,0 L11.86,13.97 C11.91,15 11.86,15 12.63,15 C13.45,15 13.48,15 13.48,13.93 L13.48,13.93 Z M1.69,12.46 C3.82,13.13 5.04,13.13 7.14,12.38 L6.5,4.29 C4.36,4.59 4.36,4.61 2.21,4.29 L1.69,12.46 Z M3.63,0 L5.13,0 L5.72,3.21 C4.65,3.54 4.06,3.54 2.98,3.21 L3.63,0 Z M1.17,15 L1.42,13.93 L7.31,13.93 L7.59,15 L1.17,15 Z M9.16,0 L11.26,0 L11.26,0.65 L9.16,0.65 L9.16,0 Z M9.16,1.07 L11.26,1.07 L11.26,1.72 L9.16,1.72 L9.16,1.07 Z M9.16,2.14 L11.26,2.14 L11.26,2.8 L9.16,2.8 L9.16,2.14 Z M9.16,3.21 L11.26,3.21 L11.26,3.87 L9.16,3.87 L9.16,3.21 Z M9.16,4.29 L11.26,4.29 L11.26,4.94 L9.16,4.94 L9.16,4.29 Z"/>
</svg>