<?xml version="1.0" encoding="UTF-8"?>
<svg viewBox="0 0 15 15" version="1.1" xmlns="http://www.w3.org/2000/svg" xmlns:xlink="http://www.w3.org/1999/xlink">
  <path d="M0 0H15V15H0V0z"/>
  <path d="M14.48 13.93C14.48 1.07 14.51 3.16 14.51 1.07C14.51 0 14.46 0 12.86 0L12.86 13.97C12.91 15 12.86 15 13.63 15C14.45 15 14.48 15 14.48 13.93L14.48 13.93ZM2.69 12.46C4.82 13.13 6.04 13.13 8.14 12.38L7.5 4.29C5.36 4.59 5.36 4.61 3.21 4.29L2.69 12.46ZM4.63 0L6.13 0L6.72 3.21C5.65 3.54 5.06 3.54 3.98 3.21L4.63 0ZM2.17 15L2.42 13.93L8.31 13.93L8.59 15L2.17 15ZM10.16 0L12.26 0L12.26 0.65L10.16 0.65L10.16 0ZM10.16 1.07L12.26 1.07L12.26 1.72L10.16 1.72L10.16 1.07ZM10.16 2.14L12.26 2.14L12.26 2.8L10.16 2.8L10.16 2.14ZM10.16 3.21L12.26 3.21L12.26 3.87L10.16 3.87L10.16 3.21ZM10.16 4.29L12.26 4.29L12.26 4.94L10.16 4.94L10.16 4.29Z"/>
</svg>