<?xml version="1.0" encoding="UTF-8"?>
<svg viewBox="0 0 15 15" version="1.1" xmlns="http://www.w3.org/2000/svg" xmlns:xlink="http://www.w3.org/1999/xlink">
  <path d="M10.04 0.03C9.89 0.02 9.72 0.06 9.58 0.2L6.46 3.35L4.42 1.27C4.19 0.97 3.68 0.93 3.42 1.21C3.15 1.48 3.18 1.98 3.48 2.21L5.52 4.29L2.14 4.29C1.07 4.29 0 5.36 0 6.43L0 12.86C0 13.93 1.07 15 2.14 15L12.86 15C13.93 15 15 13.93 15 12.86L15 6.43C15 5.36 13.93 4.29 12.86 4.29L7.4 4.29L10.51 1.14C10.93 0.72 10.52 0.09 10.04 0.03ZM6.43 6.43C9.64 6.43 10.71 6.43 10.71 9.64C10.71 12.86 9.64 12.86 6.43 12.86C3.21 12.86 2.14 12.86 2.14 9.64C2.14 6.43 3.21 6.43 6.43 6.43ZM12.86 6.56C13.37 6.56 13.79 6.98 13.79 7.5C13.79 8.02 13.37 8.44 12.86 8.44C12.34 8.44 11.92 8.02 11.92 7.5C11.92 6.98 12.34 6.56 12.86 6.56ZM12.86 9.78C13.37 9.78 13.79 10.2 13.79 10.71C13.79 11.23 13.37 11.65 12.86 11.65C12.34 11.65 11.92 11.23 11.92 10.71C11.92 10.2 12.34 9.78 12.86 9.78Z"/>
</svg>