<?xml version="1.0" encoding="UTF-8"?>
<svg viewBox="0 0 15 15" version="1.1" xmlns="http://www.w3.org/2000/svg" xmlns:xlink="http://www.w3.org/1999/xlink">
  <path d="M9.95 5.32L8.18 2.73L3.89 2.73L1.09 6.55L0.34 6.61L0 9.68L1.16 9.68C1.23 8.52 2.39 7.57 3.61 7.57C4.84 7.57 6 8.52 6.07 9.68L9.48 9.68C9.55 8.52 10.7 7.57 11.93 7.57C13.16 7.57 14.32 8.52 14.39 9.68L15 9.07L15 7.5L9.95 5.32ZM8.8 7.57L6.75 7.57C6.75 7.5 6.68 7.5 6.68 7.43L7.16 7.43C7.36 7.43 7.5 7.3 7.5 7.09C7.5 6.89 7.36 6.75 7.16 6.75L5.93 6.75C5.86 6.61 5.8 6.55 5.66 6.48L5.32 4.36C5.32 4.16 5.11 4.02 4.91 4.02C4.7 4.09 4.57 4.3 4.57 4.5L4.84 6.27C4.64 6.27 4.5 6.27 4.5 6.27L1.98 6.41L4.09 3.34L7.77 3.34L9.61 6L8.8 7.57Z"/>
  <path d="M5.25 10.64C5.32 10.5 5.32 10.36 5.32 10.23C5.32 10.09 5.25 9.95 5.25 9.82L5.59 9.68L5.39 9.2L5.05 9.34L5.05 9.41C4.91 9.14 4.7 8.93 4.43 8.8L4.64 8.45L4.16 8.25L3.95 8.59L4.02 8.59C3.89 8.52 3.75 8.52 3.55 8.52C3.41 8.52 3.27 8.59 3.14 8.59L3.14 8.59L3 8.18L2.52 8.39L2.66 8.73C2.45 8.86 2.25 9.07 2.05 9.27L1.7 9.14L1.5 9.61L1.84 9.75L1.84 9.75C1.77 9.89 1.77 10.02 1.77 10.16C1.77 10.3 1.84 10.5 1.84 10.64L1.84 10.64L1.5 10.77L1.7 11.25L2.05 11.11L2.05 11.11C2.25 11.32 2.45 11.59 2.73 11.73L2.59 12.07L3.07 12.27L3.2 11.93C3.34 11.93 3.48 12 3.55 12C3.68 12 3.82 11.93 4.02 11.93L4.23 12.27L4.7 12.07L4.5 11.73C4.7 11.59 4.91 11.39 5.05 11.11L5.05 11.11L5.45 11.25L5.66 10.77L5.25 10.64ZM4.09 10.16C4.09 10.43 3.89 10.64 3.61 10.64C3.34 10.64 3.14 10.43 3.14 10.16C3.14 9.89 3.34 9.68 3.61 9.68C3.82 9.68 4.09 9.89 4.09 10.16Z"/>
  <path d="M13.5 10.64C13.57 10.5 13.57 10.36 13.57 10.23C13.57 10.09 13.5 9.95 13.5 9.82L13.84 9.68L13.64 9.14L13.3 9.27L13.3 9.34C13.16 9.07 12.95 8.86 12.68 8.73L12.89 8.39L12.41 8.18L12.27 8.52L12.34 8.52C12.2 8.45 12.07 8.45 11.86 8.45C11.73 8.45 11.59 8.52 11.45 8.52L11.45 8.52L11.32 8.11L10.84 8.32L10.98 8.66C10.7 8.8 10.5 9 10.36 9.27L10.02 9.14L9.82 9.61L10.16 9.75L10.16 9.75C10.09 9.89 10.09 10.02 10.09 10.16C10.09 10.3 10.16 10.5 10.16 10.64L10.16 10.64L9.82 10.77L10.02 11.25L10.36 11.11L10.36 11.11C10.5 11.39 10.7 11.59 10.98 11.73L10.84 12.07L11.32 12.27L11.45 11.93C11.59 11.93 11.73 12 11.8 12C11.93 12 12.07 11.93 12.27 11.93L12.27 11.93L12.48 12.34L12.95 12.14L12.75 11.8C12.95 11.66 13.16 11.45 13.3 11.18L13.3 11.18L13.7 11.32L13.91 10.84L13.5 10.64ZM12.34 10.23C12.34 10.5 12.14 10.7 11.86 10.7C11.59 10.7 11.39 10.5 11.39 10.23C11.39 9.95 11.59 9.75 11.86 9.75C12.07 9.68 12.34 9.89 12.34 10.23Z"/>
</svg>