<?xml version="1.0" encoding="UTF-8"?>
<svg viewBox="0 0 15 15" version="1.1" xmlns="http://www.w3.org/2000/svg" xmlns:xlink="http://www.w3.org/1999/xlink">
  <path d="M14 9.72C13.13 8.96 12.61 8.7 11.83 8.7C10.88 8.7 10.32 9.1 9.03 10.31C8.15 11.14 7.75 11.43 7.5 11.43C7.25 11.43 6.85 11.14 5.97 10.31C4.68 9.1 4.12 8.7 3.17 8.7C2.39 8.7 1.87 8.96 1 9.72C1 9.65 1 9.6 1 9.55C1 5.9 5.33 6.82 5.33 4.09C5.33 2.28 4.37 1.36 2.44 1.36L2.44 0L12.56 0L12.56 1.36C10.63 1.36 9.67 2.28 9.67 4.09C9.67 6.82 14 5.9 14 9.55C14 9.6 14 9.65 14 9.72L14 9.72ZM13.55 11.69C12.93 13.08 11.63 14.18 9.67 15L5.33 15C3.37 14.18 2.07 13.08 1.45 11.69C1.51 11.63 1.56 11.58 1.64 11.51C2.52 10.68 2.92 10.4 3.17 10.4C3.41 10.4 3.82 10.68 4.7 11.51C5.98 12.72 6.55 13.13 7.5 13.13C8.45 13.13 9.02 12.72 10.3 11.51C11.18 10.68 11.59 10.4 11.83 10.4C12.08 10.4 12.48 10.68 13.36 11.51C13.44 11.58 13.49 11.63 13.55 11.69L13.55 11.69Z"/>
</svg>