<?xml version="1.0" encoding="UTF-8"?>
<svg viewBox="0 0 15 15" version="1.1" xmlns="http://www.w3.org/2000/svg" xmlns:xlink="http://www.w3.org/1999/xlink">
  <path d="M3.21 0L3.21 1.07L4.29 1.07C4.93 1.07 5.19 2.19 5.29 3.11C4.25 2.3 3.24 2.01 2.38 2.18C1.27 2.38 0.54 3.4 0.54 4.55C0.54 5.46 0.87 6.25 1.44 7.06C1.94 7.78 2.64 8.61 3.52 9.61C3.91 11.07 4.63 12.4 5.36 13.13L5.36 13.93L4.29 14.46L4.29 15L10.71 15L10.71 14.46L9.64 13.93L9.64 13.13C10.37 12.4 11.09 11.07 11.48 9.61C12.36 8.61 13.06 7.78 13.56 7.06C14.13 6.25 14.46 5.46 14.46 4.55C14.46 3.4 13.73 2.38 12.62 2.18C11.76 2.01 10.75 2.3 9.71 3.11C9.81 2.19 10.07 1.07 10.71 1.07L11.79 1.07L11.79 0L3.21 0ZM2.54 3.25C3.09 3.15 4 3.36 5.06 4.32C3.86 4.47 3.21 5.52 3.21 7.5C3.21 7.53 3.21 7.57 3.21 7.6C2.85 7.18 2.55 6.8 2.31 6.46C1.81 5.74 1.61 5.21 1.61 4.55C1.61 3.8 1.94 3.36 2.54 3.25ZM11.92 3.25C12.12 3.22 12.3 3.22 12.46 3.25C13.06 3.36 13.39 3.8 13.39 4.55C13.39 5.21 13.19 5.74 12.69 6.46C12.45 6.8 12.15 7.18 11.79 7.6C11.79 7.57 11.79 7.53 11.79 7.5C11.79 5.52 11.14 4.47 9.94 4.32C10.71 3.62 11.39 3.32 11.92 3.25Z"/>
</svg>