<?xml version="1.0" encoding="UTF-8"?>
<svg viewBox="0 0 15 15" version="1.1" xmlns="http://www.w3.org/2000/svg" xmlns:xlink="http://www.w3.org/1999/xlink">
  <path d="M8.89 8.36L7.71 8.79L8.57 11.79C8.57 11.79 9.32 11.79 9.64 11.79L11.79 11.79L11.79 10.71L9.64 10.71L8.89 8.36Z"/>
  <path d="M12.86 8.57L12.86 9.64L11.79 9.64L11.79 12.86L12.86 12.86L12.86 13.93L15 13.93L15 8.57z"/>
  <path d="M14.46 6.43L12.96 1.07L1.39 4.29L1.5 4.39C1.39 4.39 1.29 4.39 1.29 4.39C0.64 4.61 0.21 5.14 0 5.89C-0.11 6.43 -0.11 7.07 0.11 7.61C0.54 8.79 1.39 9.64 2.46 9.64C2.68 9.64 2.89 9.64 3 9.54C3 9.54 3 9.54 3 9.54L3 9.64L14.46 6.43ZM2.68 8.46C2.57 8.46 2.57 8.46 2.46 8.46C1.93 8.46 1.39 7.93 1.18 7.29C0.86 6.43 1.07 5.68 1.61 5.46C1.71 5.46 1.71 5.46 1.82 5.46C2.36 5.46 2.89 6 3.11 6.64C3.43 7.5 3.21 8.25 2.68 8.46Z"/>
</svg>