<?xml version="1.0" encoding="UTF-8"?>
<svg version="1.1" xmlns="http://www.w3.org/2000/svg" viewBox="0 0 15 15">
  <path d="M8.48 1c-0.15 0.01 -0.28 0.07 -0.37 0.19L6.45 3.26L4.84 1.74C4.41 1.34 3.76 1.89 4.09 2.38l1.67 2.4C5.95 5.06 6.35 5.07 6.56 4.81C6.72 4.6 7 4.13 7.5 4.13s0.79 0.49 0.94 0.68c0.18 0.22 0.5 0.25 0.71 0.07l1.67 -1.4c0.44 -0.37 0 -1.07 -0.53 -0.84L9 3.23V1.5C9 1.22 8.77 0.99 8.48 1L8.48 1zM5 6L2.08 11.92C2 12 2 12.16 2 12.31c0 0.54 0.38 0.69 0.69 0.69h9.62c0.38 0 0.69 -0.15 0.69 -0.69c0 -0.15 0 -0.23 -0.08 -0.38L10 6c-0.5 0 -1 0.5 -1 1v0.5c0 0.28 -0.22 0.5 -0.5 0.5S8 7.78 8 7.5v-0.5c0 -0.28 -0.22 -0.5 -0.5 -0.5S7 6.72 7 7v2c0 0.28 -0.22 0.5 -0.5 0.5S6 9.28 6 9v-2C6 6.5 5.5 6 5 6z"/>
</svg>