<?xml version="1.0" encoding="UTF-8"?>
<svg xmlns="http://www.w3.org/2000/svg" viewBox="0 0 15 15">
  <path d="M13.91 7.94a5.91 5.91 0 0 1 -0.13 0.94a8.82 8.82 0 0 0 -2.17 -1.49a8.89 8.89 0 0 0 -1.4 -0.56a8.61 8.61 0 0 0 -1.82 -0.35a0.22 0.22 0 0 0 -0.08 -0.01A7.32 7.32 0 0 1 7.5 4.59c-0.01 -0.01 -0.01 -0.01 0 -0.02a7.76 7.76 0 0 1 1.52 0.15a7.1 7.1 0 0 1 1.56 0.5a6.86 6.86 0 0 1 1.4 0.78A7.42 7.42 0 0 1 13.91 7.94Zm-1.87 -5a6.22 6.22 0 0 0 -1.85 -1.27a4.27 4.27 0 0 0 -0.98 -0.36a5.64 5.64 0 0 0 -1.55 -0.23a1.29 1.29 0 0 0 -0.32 0A7.43 7.43 0 0 0 7.21 2.5c0 0.2 0.01 0.39 0.02 0.58a2.28 2.28 0 0 1 0.26 -0.01a2.64 2.64 0 0 1 0.28 0.01a8.29 8.29 0 0 1 1.49 0.16a8.99 8.99 0 0 1 1.35 0.37a8.79 8.79 0 0 1 1.53 0.7a10.18 10.18 0 0 1 1.39 0.97A6.46 6.46 0 0 0 12.04 2.94ZM4.01 8.76a9.41 9.41 0 0 1 -0.62 -1.37a9.1 9.1 0 0 1 -0.37 -1.41a9.17 9.17 0 0 1 -0.16 -1.67V4.28a8.46 8.46 0 0 1 0.1 -1.34A6.28 6.28 0 0 0 1.47 5.3a6.22 6.22 0 0 0 -0.4 2.2c0 0.15 0.01 0.3 0.02 0.44a5.91 5.91 0 0 0 0.13 0.94a5.73 5.73 0 0 0 0.41 1.23c0.22 -0.05 0.44 -0.11 0.65 -0.17a8.02 8.02 0 0 0 1.9 -0.88C4.12 8.96 4.06 8.86 4.01 8.76Zm2.6 -2.28a9 9 0 0 1 -0.63 -1.76a9.14 9.14 0 0 1 -0.24 -1.48c-0.02 -0.25 -0.03 -0.49 -0.03 -0.74a9.38 9.38 0 0 1 0.08 -1.19a4.27 4.27 0 0 0 -0.98 0.36a7.7 7.7 0 0 0 -0.42 1.94c-0.02 0.22 -0.03 0.44 -0.03 0.67a7.27 7.27 0 0 0 0.06 0.93a7.43 7.43 0 0 0 0.37 1.63a6.47 6.47 0 0 0 0.59 1.28A8.02 8.02 0 0 0 6.65 6.55A0.25 0.25 0 0 1 6.61 6.48ZM12.7 9.93s0 -0.01 -0.01 0a7.01 7.01 0 0 0 -1.7 -1.16c-0.06 0.1 -0.11 0.19 -0.17 0.29a8.78 8.78 0 0 1 -0.88 1.22a8.91 8.91 0 0 1 -1.06 1.07a10.42 10.42 0 0 1 -1.38 0.98a8.99 8.99 0 0 1 -2.64 1.02a6.3 6.3 0 0 0 5.28 0a5.97 5.97 0 0 0 2.42 -1.89a4.83 4.83 0 0 0 0.65 -1.03A6.03 6.03 0 0 0 12.7 9.93Zm-5.17 -2c-0.01 0.01 -0.02 0.03 -0.03 0.04a9.26 9.26 0 0 1 -1.25 1.4a9.59 9.59 0 0 1 -1.19 0.91a9.27 9.27 0 0 1 -2.62 1.18a6.1 6.1 0 0 0 0.53 0.61a7.74 7.74 0 0 0 3.15 -0.72a7.38 7.38 0 0 0 1.38 -0.82A7.64 7.64 0 0 0 8.75 9.37a7.74 7.74 0 0 0 0.82 -1.15A7.34 7.34 0 0 0 7.53 7.93Z"/>
</svg>