<?xml version="1.0" encoding="UTF-8"?>
<svg xmlns="http://www.w3.org/2000/svg" viewBox="0 0 15 15">
  <path d="M12.5 7H12a0.43 0.43 0 0 0 -0.05 0.01A4.48 4.48 0 0 0 10 3.76V1.5A0.5 0.5 0 0 0 9.5 1h-4a0.5 0.5 0 0 0 -0.5 0.5V3.76a4.5 4.5 0 0 0 0 7.48V13.5a0.5 0.5 0 0 0 0.5 0.5h4a0.5 0.5 0 0 0 0.5 -0.5V11.24a4.49 4.49 0 0 0 1.95 -3.25A0.43 0.43 0 0 0 12 8h0.5a0.5 0.5 0 0 0 0 -1Zm-5 4A3.5 3.5 0 1 1 11 7.5A3.5 3.5 0 0 1 7.5 11ZM9 7H8V5.5a0.5 0.5 0 0 0 -1 0v2a0.5 0.5 0 0 0 0.5 0.5H9A0.5 0.5 0 0 0 9 7Z"/>
</svg>