<?xml version="1.0" encoding="UTF-8"?>
<svg viewBox="0 0 15 15" version="1.1" xmlns="http://www.w3.org/2000/svg" xmlns:xlink="http://www.w3.org/1999/xlink">
  <path d="M2.14 0L3.21 0L3.21 2.14L5.36 13.93L10.71 13.93L12.86 2.14L12.86 0L13.93 0L11.79 15L4.29 15z"/>
  <path d="M4.29 0C4.29 0 5.25 1.07 6.32 1.07C7.39 1.07 7.5 1.07 8.04 0C8.57 1.07 8.57 1.07 9.64 1.07C10.71 1.07 11.79 0 11.79 0L11.79 2.14C11.79 2.14 10.71 3.21 9.64 3.21C8.57 3.21 8.36 2.46 8.04 2.14C7.71 2.46 7.5 3.21 6.43 3.21C5.36 3.21 4.29 2.14 4.29 2.14L4.29 0Z"/>
</svg>