<?xml version="1.0" encoding="UTF-8"?>
<svg viewBox="0 0 15 15" xmlns="http://www.w3.org/2000/svg">
  <path d="M14 1H5C3.34 1 2 2.34 2 4V8.88C1.4 9.28 1 9.97 1 10.75C1 11.99 2.01 13 3.25 13C3.71 13 4.14 12.86 4.5 12.62C4.86 12.86 5.29 13 5.75 13C6.29 13 6.78 12.81 7.16 12.5H7.52C8.02 12.82 8.61 13 9.25 13C11.04 13 12.5 11.54 12.5 9.75C12.5 8.4 11.67 7.24 10.5 6.75V5C10.5 3.9 11.4 3 12.5 3H14V1ZM11.5 9.75C11.5 10.99 10.49 12 9.25 12C8.71 12 8.22 11.81 7.84 11.5H6.75C6.52 11.8 6.16 12 5.75 12C5.34 12 4.98 11.8 4.75 11.5H4.25C4.02 11.8 3.66 12 3.25 12C2.56 12 2 11.44 2 10.75C2 10.15 2.43 9.64 3 9.53V5.75C3 5.34 3.34 5 3.75 5C4.16 5 4.5 5.34 4.5 5.75V9C4.5 9.28 4.72 9.5 5 9.5C5.28 9.5 5.5 9.28 5.5 9V6.75C5.5 6.34 5.84 6 6.25 6C6.66 6 7 6.34 7 6.75V9C7 9.28 7.22 9.5 7.5 9.5C7.78 9.5 8 9.28 8 9V5.75C8 5.34 8.34 5 8.75 5C9.16 5 9.5 5.34 9.5 5.75V7.51C10.63 7.64 11.5 8.59 11.5 9.75Z"/>
</svg>