<?xml version="1.0" encoding="UTF-8"?>
<svg viewBox="0 0 15 15" version="1.1" xmlns="http://www.w3.org/2000/svg">
  <path d="M4 5L4 4.5C4 3.12 5.12 2 6.5 2C7.88 2 9 3.12 9 4.5L9 10.29L11.37 7.93L11.02 6.63C11.02 6.63 11.02 6.63 11.02 6.63L11.02 6.63L11.02 6.63C10.97 6.46 11.02 6.28 11.15 6.15C11.34 5.95 11.66 5.95 11.85 6.15L13.85 8.15C14.05 8.34 14.05 8.66 13.85 8.85C13.72 8.98 13.54 9.03 13.38 8.98C13.38 8.98 13.38 8.98 13.38 8.98C13.37 8.98 13.37 8.98 13.37 8.98L12.07 8.64L9 11.71L9 12C9 12.55 8.55 13 8 13L5 13C4.45 13 4 12.55 4 12L4 11.54L1.73 9.27C0.76 8.29 0.76 6.71 1.73 5.73C2.22 5.24 2.86 5 3.5 5L3.5 5L4 5ZM4 6L3.5 6L3.5 6C3.12 6 2.73 6.15 2.44 6.44C1.85 7.03 1.85 7.98 2.44 8.56L4 10.12L4 6ZM8 5L8 4.5C8 3.67 7.33 3 6.5 3C5.67 3 5 3.67 5 4.5L5 5L8 5Z"/>
</svg>