<?xml version="1.0" encoding="UTF-8"?>
<svg viewBox="0 0 15 15" version="1.1" xmlns="http://www.w3.org/2000/svg" xmlns:xlink="http://www.w3.org/1999/xlink">
  <path d="M8.88 13.03C8.99 13.01 9.09 13.01 9.2 13.01C9.52 13.01 9.82 13.08 10.1 13.21C10.37 13.33 10.66 13.4 10.97 13.4C11.29 13.4 11.59 13.33 11.85 13.21C12.13 13.08 12.44 13.01 12.75 13.01C13.08 13.01 13.32 13.08 13.59 13.21C13.86 13.33 14.1 13.4 14.4 13.4L14.4 14.7C14.1 14.7 13.85 14.63 13.59 14.51C13.32 14.39 13.04 14.31 12.72 14.31C12.4 14.31 12.11 14.39 11.84 14.51C11.57 14.63 11.28 14.7 10.97 14.7C10.66 14.7 10.36 14.63 10.1 14.51C9.82 14.39 9.52 14.31 9.2 14.31C8.88 14.31 8.57 14.39 8.3 14.51C8.03 14.63 7.73 14.7 7.42 14.7C7.11 14.7 6.81 14.63 6.54 14.51C6.27 14.39 5.96 14.31 5.64 14.31C5.32 14.31 5.01 14.39 4.74 14.51C4.47 14.63 4.17 14.7 3.86 14.7C3.55 14.7 3.26 14.63 2.99 14.51C2.71 14.39 2.4 14.31 2.09 14.31C1.76 14.31 1.46 14.39 1.18 14.51C0.92 14.63 0.62 14.7 0.31 14.7L0.31 13.4C0.62 13.4 0.92 13.33 1.18 13.21C1.46 13.08 1.76 13.01 2.09 13.01C2.4 13.01 2.71 13.08 2.99 13.21C3.26 13.33 3.55 13.4 3.86 13.4C4.17 13.4 4.47 13.33 4.74 13.21C4.89 13.14 5.06 13.08 5.23 13.05L13.52 11.58C13.79 11.52 14.16 11.33 14.28 11.01C14.31 10.95 14.4 10.94 14.47 10.94C14.61 10.95 14.71 11.06 14.71 11.2C14.71 11.41 14.54 12 13.64 12.18L8.89 13.03L8.88 13.03ZM1.69 2.68C2.35 2.68 2.89 2.15 2.89 1.49C2.89 0.83 2.35 0.3 1.69 0.3C1.02 0.3 0.49 0.83 0.49 1.49C0.49 2.15 1.03 2.68 1.69 2.68ZM5.18 12.31C5.24 12.57 5.56 12.83 5.9 12.83L5.89 12.83C6.31 12.83 6.66 12.49 6.66 12.07L6.64 11.95L5.73 8.06C5.65 7.81 5.41 7.57 5.17 7.47L3.82 6.67L3.21 4.04L6.99 4.04C7.3 4.04 7.55 3.83 7.55 3.52C7.55 3.22 7.3 3 6.99 3L1.53 3C0.99 3 0.74 3.35 0.8 3.69L1.58 7.15C1.64 7.48 1.85 7.75 2.14 7.89L2.16 7.89L4.41 9.2L5.18 12.32L5.18 12.31ZM7.8 3.6L14.7 3.6L14.7 3.9L7.8 3.9L7.8 3.6Z"/>
</svg>