<?xml version="1.0" encoding="UTF-8"?>
<svg viewBox="0 0 15 15" version="1.1" xmlns="http://www.w3.org/2000/svg" xmlns:xlink="http://www.w3.org/1999/xlink">
  <path d="M10.31 10L4.69 10C4.51 10 4.38 10.14 4.38 10.31L4.38 14.38C4.38 14.72 4.65 15 5 15L10 15C10.35 15 10.63 14.72 10.63 14.38L10.63 10.31C10.63 10.14 10.49 10 10.31 10ZM4.69 7.81L10.31 7.81C10.49 7.81 10.63 7.95 10.63 8.13L10.63 8.75C10.63 8.92 10.49 9.06 10.31 9.06L4.69 9.06C4.51 9.06 4.38 8.92 4.38 8.75L4.38 8.13C4.38 7.95 4.51 7.81 4.69 7.81ZM4.69 5.63L10.31 5.63C10.49 5.63 10.63 5.76 10.63 5.94L10.63 6.56C10.63 6.74 10.49 6.88 10.31 6.88L4.69 6.88C4.51 6.88 4.38 6.74 4.38 6.56L4.38 5.94C4.38 5.76 4.51 5.63 4.69 5.63ZM4.69 4.69L10.31 4.69C10.49 4.69 10.63 4.55 10.63 4.38C10.63 3.34 9.79 2.5 8.75 2.5L8.75 1.25C9.1 1.25 9.38 0.97 9.38 0.63C9.38 0.28 9.1 0 8.75 0L6.25 0C5.9 0 5.63 0.28 5.63 0.63C5.63 0.97 5.9 1.25 6.25 1.25L6.25 2.5C5.21 2.5 4.38 3.34 4.38 4.38C4.38 4.46 4.41 4.54 4.47 4.6C4.53 4.65 4.6 4.69 4.69 4.69Z"/>
</svg>