<?xml version="1.0" encoding="UTF-8"?>
<svg viewBox="0 0 15 15" version="1.1" xmlns="http://www.w3.org/2000/svg" xmlns:xlink="http://www.w3.org/1999/xlink">
  <path d="M14.4 14.7C14.1 14.7 13.81 14.63 13.55 14.51C13.28 14.39 12.98 14.32 12.68 14.32C12.36 14.32 12.06 14.39 11.8 14.51C11.54 14.63 11.25 14.7 10.95 14.7C10.65 14.7 10.36 14.63 10.1 14.51C9.83 14.39 9.53 14.32 9.22 14.32C8.91 14.32 8.61 14.39 8.35 14.51C8.09 14.63 7.8 14.7 7.5 14.7C7.19 14.7 6.91 14.63 6.65 14.51C6.38 14.39 6.08 14.32 5.77 14.32C5.46 14.32 5.16 14.39 4.9 14.51C4.64 14.63 4.35 14.7 4.05 14.7C3.75 14.7 3.46 14.63 3.2 14.51C2.94 14.39 2.64 14.32 2.33 14.32C2.02 14.32 1.72 14.39 1.45 14.51C1.19 14.63 0.9 14.7 0.6 14.7L0.6 13.42C0.9 13.42 1.19 13.35 1.45 13.23C1.72 13.11 2.02 13.04 2.33 13.04C2.64 13.04 2.94 13.11 3.2 13.23C3.46 13.35 3.75 13.42 4.05 13.42C4.35 13.42 4.64 13.35 4.9 13.23C5.16 13.11 5.46 13.04 5.77 13.04C6.08 13.04 6.38 13.11 6.65 13.23C6.91 13.35 7.19 13.42 7.5 13.42C7.8 13.42 8.09 13.35 8.35 13.24C8.61 13.12 8.91 13.04 9.22 13.04C9.53 13.04 9.83 13.12 10.1 13.24C10.36 13.35 10.65 13.43 10.95 13.43C11.25 13.43 11.54 13.36 11.8 13.24C12.06 13.12 12.36 13.05 12.68 13.05C12.98 13.05 13.28 13.12 13.55 13.24C13.81 13.36 14.1 13.43 14.4 13.43L14.4 14.71L14.4 14.7ZM8.83 12.05C8.96 12.02 9.09 12.01 9.22 12.01C9.53 12.01 9.83 12.08 10.1 12.2C10.36 12.32 10.65 12.39 10.95 12.39C11.25 12.39 11.54 12.32 11.8 12.2C11.98 12.12 12.18 12.05 12.39 12.02C12.27 8.58 8.71 5.51 8.54 5.35C8.36 5.19 8.2 4.85 8.32 4.43L9.17 1.6C9.32 1.16 9.24 0.57 9.04 0.39C8.92 0.3 8.66 0.23 8.49 0.42L6.19 3.05C5.68 3.59 6.11 4.17 6.09 4.17C5.31 3.88 4.39 4.07 3.83 4.31L1.93 5.28C1.74 5.36 1.66 5.6 1.76 5.76C2.07 6.27 3.12 6.27 5.3 6.03C8.83 5.65 8.84 11.34 8.83 12.05L8.83 12.05Z"/>
</svg>