<?xml version="1.0" encoding="UTF-8"?>
<svg version="1.1" xmlns="http://www.w3.org/2000/svg" viewBox="0 0 15 15">
  <path d="M12 1.5C12 2.33 11.33 3 10.5 3S9 2.33 9 1.5S9.67 0 10.5 0S12 0.67 12 1.5zM2.82 4.87l1.74 -1.71l1.85 1.29L5.67 5.7c1.07 0.33 2.02 0.99 2.71 1.88l0.88 -1.5c0.23 -0.42 0.08 -0.94 -0.34 -1.17C8.92 4.91 8.92 4.91 8.92 4.91L8.3 4.54L4.79 2.1C4.59 1.96 4.32 1.98 4.15 2.15l-2 2C1.99 4.37 2.03 4.68 2.25 4.85C2.42 4.97 2.65 4.98 2.82 4.87zM8.13 10.94c-0.01 1.23 -0.58 2.39 -1.54 3.16c-0.71 0.58 -1.6 0.9 -2.52 0.9C1.83 15 0.01 13.18 0 10.94c0 -0.92 0.32 -1.82 0.91 -2.53c0.19 -0.23 0.4 -0.44 0.63 -0.63c0.71 -0.59 1.61 -0.91 2.53 -0.91C6.31 6.88 8.13 8.7 8.13 10.94zM6 12.21C6.77 11.21 6.58 9.77 5.57 9C4.75 8.37 3.61 8.37 2.79 9C2.53 9.15 2.31 9.37 2.16 9.63c-0.69 1.06 -0.4 2.48 0.66 3.17c0.76 0.5 1.75 0.5 2.51 0C5.58 12.64 5.81 12.44 6 12.21zM14.2 13.21l-2.49 -5C11.59 7.93 11.31 7.74 11 7.75H8.51c0.33 0.46 0.59 0.96 0.76 1.5h1.26l2.29 4.58c0.19 0.37 0.64 0.53 1.01 0.34c0.37 -0.18 0.53 -0.64 0.34 -1.01L14.2 13.21z"/>
</svg>