<?xml version="1.0" encoding="UTF-8"?>
<svg viewBox="0 0 15 15" version="1.1" xmlns="http://www.w3.org/2000/svg" xmlns:xlink="http://www.w3.org/1999/xlink">
  <path d="M5.03 2.7C5.7 2.7 6.23 2.16 6.23 1.5C6.23 0.83 5.7 0.3 5.03 0.3C4.37 0.3 3.83 0.83 3.83 1.5C3.83 2.16 4.37 2.7 5.03 2.7ZM5.88 13.7C3.84 13.7 2.18 12.02 2.18 9.94C2.18 8.8 2.69 7.79 3.47 7.09L3.41 5.92C2.09 6.76 1.19 8.24 1.19 9.94C1.19 12.56 3.29 14.7 5.88 14.7C7.78 14.7 9.47 13.36 10.19 11.7L9.48 10.72C9.13 12.42 7.65 13.7 5.87 13.7L5.88 13.7ZM13.2 11.4L12.6 11.4L10.2 8.1C10.07 7.87 9.6 7.2 9 7.2L6.3 7.2L6.3 6L8.7 6C9.01 6 9.34 5.87 9.34 5.55C9.34 5.23 9.02 5.1 8.7 5.1L6.3 5.1L6.3 3.9C6.25 3.23 5.7 3 5.1 3.02C4.5 3.03 4.2 3.3 4.2 3.9L4.2 8.1C4.25 8.78 4.74 9 5.4 9L9 9L11.1 11.7C11.23 11.93 11.7 12.6 11.7 12.6L13.2 12.6C13.51 12.6 13.8 12.32 13.8 12C13.8 11.68 13.52 11.4 13.2 11.4Z"/>
</svg>