<?xml version="1.0" encoding="UTF-8"?>
<svg viewBox="0 0 15 15" version="1.1" xmlns="http://www.w3.org/2000/svg" xmlns:xlink="http://www.w3.org/1999/xlink">
  <path d="M12.11 3.75C13.18 3.96 13.93 4.93 13.93 6L13.93 14.46C13.93 14.68 13.71 14.89 13.39 14.89L9 14.89C8.79 15 8.57 14.79 8.57 14.57L8.57 6.11C8.57 5.04 9.32 4.07 10.39 3.86L10.39 0.11L12.11 0.11L12.11 3.75L12.11 3.75Z"/>
  <path d="M6.21 14.46L4.29 13.93L4.29 10.71C7.93 9.54 5.89 5.36 5.46 4.29L2.04 4.29C1.61 5.36 -0.32 9.54 3.21 10.71L3.21 13.93L1.29 14.46C1.18 14.46 1.07 14.57 1.07 14.79C1.07 14.89 1.18 15 1.29 15L6.11 15C6.32 15 6.43 14.89 6.43 14.79C6.43 14.68 6.32 14.46 6.21 14.46Z"/>
</svg>