<?xml version="1.0" encoding="UTF-8"?>
<svg version="1.1" xmlns="http://www.w3.org/2000/svg" viewBox="0 0 15 15">
  <path d="M13.79 3.26c0 0 -1.68 1.68 -2.12 2.12c-0.08 0.09 -0.17 0.11 -0.28 0.1c-0.15 -0.02 -0.3 -0.04 -0.45 -0.06c-0.41 -0.05 -0.81 -0.1 -1.23 -0.15C9.65 4.69 9.58 4.1 9.52 3.52C9.51 3.47 9.55 3.39 9.59 3.35c0.51 -0.51 1.93 -1.93 2.13 -2.14c-0.45 -0.21 -1.22 -0.3 -1.8 -0.2c-2.18 0.35 -3.51 2.53 -2.82 4.63C7.14 5.75 7.12 5.82 7.04 5.9C5.19 7.75 3.34 9.59 1.5 11.44c-0.06 0.06 -0.12 0.12 -0.18 0.19c-0.53 0.65 -0.39 1.63 0.3 2.1c0.6 0.42 1.37 0.34 1.91 -0.19c1.85 -1.85 3.71 -3.7 5.56 -5.56C9.17 7.88 9.24 7.85 9.38 7.9c0.62 0.21 1.25 0.24 1.89 0.09c1.94 -0.45 3.13 -2.37 2.65 -4.3C13.89 3.55 13.84 3.42 13.79 3.26z"/>
</svg>