<?xml version="1.0" encoding="UTF-8"?>
<svg viewBox="0 0 15 15" version="1.1" xmlns="http://www.w3.org/2000/svg" xmlns:xlink="http://www.w3.org/1999/xlink">
  <path d="M2.98 0.17C3.21 -0.07 3.58 -0.05 3.8 0.19L6.67 3.14L8.35 3.14L8.35 3.15L11.19 0.19C11.42 -0.04 11.79 -0.05 12.03 0.17C12.27 0.41 12.27 0.79 12.05 1.03L9.05 4.11L9.05 14.33C9.05 14.71 8.77 15 8.41 15C8.06 15 7.76 14.71 7.76 14.33L7.76 8.79L7.24 8.79L7.24 14.33C7.24 14.71 6.95 15 6.59 15C6.24 15 5.94 14.69 5.94 14.33L5.94 4.11L2.95 1.02C2.73 0.78 2.74 0.4 2.98 0.17ZM7.49 0.5C8.13 0.5 8.65 1.03 8.65 1.69C8.65 2.34 8.13 2.88 7.49 2.88C6.86 2.88 6.34 2.34 6.34 1.69C6.34 1.03 6.86 0.5 7.49 0.5Z"/>
</svg>