<?xml version="1.0" encoding="UTF-8"?>
<svg viewBox="0 0 15 15" version="1.1" xmlns="http://www.w3.org/2000/svg" xmlns:xlink="http://www.w3.org/1999/xlink">
  <path d="M9 0.5L9 2L11.5 2C12 2 12 2.5 12 2.5L12 12.5C12 12.5 12 13 11.5 13L9 13L9 14.5C9 15 6 15 6 14.5L6 13L3.5 13C3.04 13 3 12.58 3 12.51L3 2.5C3 2.5 3 2 3.5 2L6 2L6 0.5C6 0 9 0 9 0.5ZM7.5 4C5.5 4 4 5.5 4 7.5C4 9.5 5.5 11 7.5 11C9.5 11 11 9.5 11 7.5C11 5.5 9.5 4 7.5 4ZM9 9.13C9.5 9.13 9.5 10.13 9 10.13L6 10.13C5.5 10.13 5.5 9.13 6 9.13L9 9.13ZM5.5 5.63C5.75 5.38 7.1 6.73 7.1 6.73C7.1 6.73 7.2 6.63 7.5 6.63C8.13 6.63 8.5 7.13 8.5 7.63C8.5 8.13 8.13 8.63 7.5 8.63C6.88 8.63 6.5 8.13 6.5 7.63C6.5 7.43 6.6 7.23 6.6 7.23C6.6 7.23 5.25 5.88 5.5 5.63Z"/>
</svg>