<?xml version="1.0" encoding="UTF-8"?>
<svg viewBox="0 0 15 15" version="1.1" xmlns="http://www.w3.org/2000/svg" xmlns:xlink="http://www.w3.org/1999/xlink">
  <path d="M9 0.5L9 2L11.5 2C12 2 12 2.5 12 2.5L12 12.5C12 12.5 12 13 11.5 13L9 13L9 14.5C9 15 6 15 6 14.5L6 13L3.5 13C3.04 13 3 12.58 3 12.51L3 2.5C3 2.5 3 2 3.5 2L6 2L6 0.5C6 0 9 0 9 0.5ZM10.51 3L4.5 3C4.5 3 4 3 4 3.5L4 11.5C4 12 4.5 12 4.5 12L10.5 12C10.5 12 11 12 11 11.5L11 3.5C11 3.04 10.58 3 10.51 3ZM8 4.5L8 10.5C8 11 7.5 11 7.5 11L5.5 11C5.5 11 5 11 5 10.5L5 4.5C5 4.04 5.42 4 5.49 4L7.5 4C7.5 4 8 4 8 4.5ZM9.5 8.25C10.13 8.25 10.63 8.88 10.63 9.5C10.63 10.13 10.13 10.75 9.5 10.75C8.88 10.75 8.38 10.13 8.38 9.5C8.38 8.88 8.88 8.25 9.5 8.25ZM9.5 8.88C9.22 8.88 9 9.22 9 9.5C9 9.78 9.22 10.13 9.5 10.13C9.78 10.13 10 9.78 10 9.5C10 9.22 9.78 8.88 9.5 8.88ZM6.76 8L6.25 8C6.25 8 6 8 6 8.25L6 9.75C6 10 6.25 10 6.25 10L6.75 10C6.75 10 7 10 7 9.75L7 8.25C7 8.03 6.81 8 6.76 8ZM9.75 4.25C9.75 4.25 10 4.25 10 4.5L10 6.5C10 6.75 9.75 6.75 9.75 6.75L9.24 6.75C9.19 6.75 9 6.72 9 6.5L9 4.5C9 4.25 9.25 4.25 9.25 4.25Z"/>
</svg>