<?xml version="1.0" encoding="UTF-8"?>
<svg viewBox="0 0 15 15" version="1.1" xmlns="http://www.w3.org/2000/svg" xmlns:xlink="http://www.w3.org/1999/xlink">
  <path d="M3.21 0C2.14 0 2.14 0.54 2.14 2.14C2.14 3.21 0 7.5 0 8.57L0 13.93C0 14.54 0.5 15 1.07 15L5.36 15C6 15 6.43 14.57 6.43 13.93L6.43 8.57C6.43 7.5 4.29 3.21 4.29 2.14C4.29 0.5 4.29 0 3.21 0ZM11.65 1.07L10.58 5.36L11.79 5.36L12.59 2.14L15 2.14L15 1.07L11.65 1.07ZM7.5 6.43L8.57 13.93C8.57 13.93 8.57 15 9.64 15L11.79 15C12.86 15 12.86 13.93 12.86 13.93L13.93 6.43L7.5 6.43Z"/>
</svg>