<?xml version="1.0" encoding="UTF-8"?>
<svg viewBox="0 0 15 15" version="1.1" xmlns="http://www.w3.org/2000/svg" xmlns:xlink="http://www.w3.org/1999/xlink">
  <path d="M8.23 0.41C7.62 1.03 7.12 1.91 6.96 2.68C6.88 3.1 6.84 4.1 6.83 4.59C7.05 4.72 7.28 4.82 7.5 4.99C7.74 4.81 7.97 4.69 8.2 4.55C8.22 4.13 8.24 3.24 8.3 2.95C8.42 2.38 8.71 1.81 9.17 1.35L8.23 0.41ZM0.54 1.07C1.11 3.21 3.59 4.29 5.89 3.21C4.93 1.07 3.21 0.39 0.54 1.07ZM2.14 5.63C1.48 6.32 1.07 7.5 1.07 8.57C1.07 10.71 3.21 14.46 5.36 14.46C5.96 14.46 6.43 14.2 7.5 13.66C8.57 14.2 9.04 14.46 9.64 14.46C11.79 14.46 13.93 10.71 13.93 8.57C13.93 7.5 13.58 6.32 12.86 5.63C11.76 4.58 9.64 4.55 7.5 6.16C5.36 4.65 3.21 4.44 2.14 5.63Z"/>
</svg>