<?xml version="1.0" encoding="UTF-8"?>
<svg viewBox="0 0 15 15" version="1.1" xmlns="http://www.w3.org/2000/svg" xmlns:xlink="http://www.w3.org/1999/xlink">
  <path d="M2.85 7.2L11.85 7.2C12.51 7.2 12.3 7.5 12.45 7.5C12.75 7.5 12.6 7.23 12.75 7.2L14.25 6.9C14.56 6.83 14.7 7.2 14.37 7.28L12.87 7.58C12.74 7.61 12.71 7.7 12.71 7.78C12.6 13.35 2.1 13.35 1.98 7.78C1.98 7.7 1.95 7.61 1.82 7.58L0.32 7.28C0.08 7.23 0.17 6.84 0.44 6.9L1.95 7.2C2.1 7.23 1.95 7.5 2.25 7.5C2.4 7.5 2.19 7.2 2.85 7.2ZM4.05 5.7C4.2 6 4.8 5.7 4.65 5.4C4.05 4.2 5.55 3.6 4.65 1.8C4.5 1.5 3.9 1.8 4.05 2.1C4.65 3.3 3.15 3.9 4.05 5.7M7.05 5.7C7.2 6 7.8 5.7 7.65 5.4C7.05 4.2 8.55 3.6 7.65 1.8C7.5 1.5 6.9 1.8 7.05 2.1C7.65 3.3 6.15 3.9 7.05 5.7M10.05 5.7C10.2 6 10.8 5.7 10.65 5.4C10.05 4.2 11.55 3.6 10.65 1.8C10.5 1.5 9.9 1.8 10.05 2.1C10.65 3.3 9.15 3.9 10.05 5.7"/>
</svg>