<?xml version="1.0" encoding="UTF-8"?>
<svg viewBox="0 0 15 15" version="1.1" xmlns="http://www.w3.org/2000/svg" xmlns:xlink="http://www.w3.org/1999/xlink">
  <path d="M14.67 4.55L13.49 13.8L9.5 13.8L8.32 4.5L13.19 4.5L14.16 1.18L14.7 1.34L13.78 4.54L14.67 4.55L14.67 4.55ZM7.76 9.9C7.76 9.9 7.91 8.7 5.84 8.7L2.55 8.7C0.49 8.7 0.63 9.9 0.63 9.9L7.76 9.9L7.76 9.9ZM0.63 12.6C0.63 12.6 0.48 13.8 2.55 13.8L5.84 13.8C7.91 13.8 7.76 12.6 7.76 12.6L0.63 12.6L0.63 12.6ZM7.45 12C7.79 12 8.06 11.67 8.06 11.25C8.06 10.83 7.79 10.5 7.45 10.5L0.91 10.5C0.58 10.5 0.3 10.83 0.3 11.25C0.3 11.67 0.58 12 0.91 12L7.45 12Z"/>
</svg>