<?xml version="1.0" encoding="UTF-8"?>
<svg xmlns="http://www.w3.org/2000/svg" viewBox="0 0 15 15">
  <path d="M13 4a1 1 0 0 0 -1 -1a1 1 0 0 0 -2 0V5.07A3.48 3.48 0 0 0 4.36 9H2a1 1 0 0 0 0 2a1 1 0 0 0 1 1a1 1 0 0 0 2 0V9.93A3.48 3.48 0 0 0 10.64 6H13a1 1 0 0 0 0 -2ZM7.5 9.99A2.48 2.48 0 0 1 6.32 5.32a1.08 1.08 0 0 1 0.55 0.31A2.12 2.12 0 0 1 7.25 7.01l0 0.96A2.58 2.58 0 0 0 7.76 9.7a1.55 1.55 0 0 0 0.26 0.23A2.49 2.49 0 0 1 7.5 9.99ZM8.68 9.68a1.08 1.08 0 0 1 -0.55 -0.31A2.12 2.12 0 0 1 7.75 7.99l0 -0.96A2.58 2.58 0 0 0 7.24 5.3a1.56 1.56 0 0 0 -0.26 -0.23A2.48 2.48 0 0 1 8.68 9.68Z"/>
</svg>