<?xml version="1.0" encoding="UTF-8"?>
<svg viewBox="0 0 15 15" version="1.1" xmlns="http://www.w3.org/2000/svg" xmlns:xlink="http://www.w3.org/1999/xlink">
  <path d="M2.9 5L1.9 5L1.9 4.5C1.85 4.45 1.7 4.4 1.65 4.35C1.35 4.2 0.8 3.95 0.8 3.35C0.8 2.75 1.35 2.5 1.65 2.35C1.7 2.3 1.8 2.25 1.85 2.25C1.8 2.15 1.7 2.1 1.65 2.1C1.35 1.95 0.8 1.7 0.8 1.1L0.8 0.5L1.8 0.5L1.8 1C1.85 1.05 2 1.15 2.1 1.2C2.4 1.35 2.95 1.6 2.95 2.2C2.95 2.8 2.4 3.05 2.1 3.2C2 3.25 1.95 3.3 1.85 3.3C1.95 3.35 2 3.4 2.1 3.45C2.4 3.6 2.95 3.85 2.95 4.45L2.95 5L2.9 5Z"/>
  <path d="M6.3 5L5.3 5L5.3 4.5C5.25 4.45 5.1 4.4 5 4.35C4.7 4.2 4.15 3.95 4.15 3.35C4.15 2.75 4.7 2.5 5 2.35C5.05 2.3 5.15 2.25 5.2 2.25C5.15 2.2 5.05 2.15 5 2.15C4.7 2 4.15 1.75 4.15 1.15L4.15 0.5L5.15 0.5L5.15 1C5.2 1.05 5.35 1.1 5.45 1.15C5.75 1.3 6.3 1.55 6.3 2.15C6.3 2.75 5.75 3 5.45 3.15C5.4 3.2 5.3 3.25 5.25 3.25C5.3 3.3 5.4 3.35 5.45 3.35C5.75 3.5 6.3 3.75 6.3 4.35L6.3 5Z"/>
  <path d="M9.7 5L8.7 5L8.7 4.5C8.65 4.45 8.5 4.4 8.4 4.35C8.1 4.2 7.55 3.95 7.55 3.35C7.55 2.75 8.1 2.5 8.4 2.35C8.45 2.3 8.55 2.25 8.6 2.25C8.55 2.2 8.45 2.15 8.4 2.15C8.1 2 7.55 1.75 7.55 1.15L7.55 0.5L8.55 0.5L8.55 1C8.6 1.05 8.75 1.1 8.85 1.15C9.15 1.3 9.7 1.55 9.7 2.15C9.7 2.75 9.15 3 8.85 3.15C8.8 3.2 8.7 3.25 8.65 3.25C8.7 3.3 8.8 3.35 8.85 3.35C9.15 3.5 9.7 3.75 9.7 4.35L9.7 5Z"/>
  <path d="M14.5 8.25C14.5 7.65 14.05 7.15 13.5 7.05L13.5 7L10.5 7L10.5 6L0.5 6L0.5 13C0.5 13 0.5 13.15 0.5 13.25C0.5 13.95 1.05 14.5 1.75 14.5C1.85 14.5 2 14.5 2 14.5L9 14.5C9 14.5 9.15 14.5 9.25 14.5C9.95 14.5 10.5 13.95 10.5 13.25C10.5 13.15 10.5 13 10.5 13L13.5 13L13.5 12.95C14.05 12.85 14.5 12.35 14.5 11.75C14.5 11.65 14.5 11.6 14.45 11.5L14.5 11.5L14.5 8.5L14.45 8.5C14.5 8.4 14.5 8.35 14.5 8.25ZM13 9.45L13 10.5L13 11.5L11.55 11.5L10.5 11.5L10.5 8.5L11.55 8.5L13 8.5L13 9.45Z"/>
</svg>