<?xml version="1.0" encoding="UTF-8"?>
<svg viewBox="0 0 15 15" version="1.1" xmlns="http://www.w3.org/2000/svg" xmlns:xlink="http://www.w3.org/1999/xlink">
  <path d="M14.22 4.32C15 5.1 15 6.37 14.22 7.15L7.15 14.22C6.37 15 5.1 15 4.32 14.22L14.22 4.32ZM14.22 0.78C14.8 1.37 14.8 2.32 14.22 2.9L2.9 14.22C2.32 14.8 1.37 14.8 0.78 14.22C0.2 13.63 0.2 12.68 0.78 12.1L12.1 0.78C12.68 0.2 13.63 0.2 14.22 0.78ZM12.33 2.32C12.01 2.2 11.64 2.35 11.52 2.67C11 3.96 10.63 4.27 9.6 4.61C8.24 5.06 7.58 5.61 6.92 7.27C6.4 8.56 6.03 8.86 5 9.21C3.65 9.66 2.99 10.2 2.32 11.86C2.2 12.18 2.35 12.55 2.67 12.68C2.99 12.8 3.36 12.65 3.48 12.33C4 11.04 4.37 10.73 5.4 10.39C6.76 9.94 7.42 9.39 8.08 7.73C8.6 6.44 8.97 6.14 10 5.79C11.35 5.34 12.01 4.8 12.68 3.14C12.8 2.82 12.65 2.45 12.33 2.32ZM10.68 0.78L10.68 0.78L0.78 10.68C0 9.9 0 8.63 0.78 7.85L7.85 0.78C8.63 0 9.9 0 10.68 0.78Z"/>
</svg>