<?xml version="1.0" encoding="UTF-8"?>
<svg viewBox="0 0 15 15" version="1.1" xmlns="http://www.w3.org/2000/svg" xmlns:xlink="http://www.w3.org/1999/xlink">
  <path d="M11.57 9.75C11.89 9.43 12.43 9.21 12.96 9.21C14.14 9.21 15 10.18 15 11.25L15 11.36L15 11.36C15 11.79 14.79 12.32 14.46 13.07C14.46 13.07 13.93 14.14 13.39 14.68L13.39 14.68C13.18 14.89 12.86 15 12.54 15C12.11 15 11.79 14.79 11.57 14.46L11.57 14.46C11.36 14.79 10.93 15 10.61 15C10.29 15 9.96 14.89 9.75 14.68L9.75 14.68C9.32 14.14 8.68 13.07 8.68 13.07C8.36 12.43 8.25 11.89 8.14 11.36L8.14 11.36L8.14 11.25C8.14 10.07 9.11 9.21 10.18 9.21C10.61 9.21 11.14 9.43 11.57 9.75"/>
  <path d="M5.36 2.14L2.14 2.14L1.07 3.21L0 3.21L0 15L6.43 15L6.43 3.21L5.36 2.14ZM2.14 7.5L1.07 7.5L1.07 4.29L2.14 4.29L2.14 7.5Z"/>
  <path d="M2.14 0H5.36V1.07H2.14V0z"/>
  <path d="M10.71 8.57L10.71 7.5L11.79 6.43L12.86 5.36L13.93 5.36L13.93 6.43L11.79 8.57z"/>
</svg>