<?xml version="1.0" encoding="UTF-8"?>
<svg version="1.1" xmlns="http://www.w3.org/2000/svg" viewBox="0 0 15 15">
  <path d="M5.5 3C5.22 3 5 3.22 5 3.5H2.75C1.23 3.5 0 4.73 0 6.25c0 0.83 0.37 1.56 0.94 2.06C0.38 8.67 0 9.29 0 10c0 1.1 0.9 2 2 2h3.5h2H10c1.1 0 2 -0.9 2 -2c0 -0.49 -0.19 -0.93 -0.48 -1.28l2.18 0.96c0.37 0.18 0.82 0.03 1 -0.34c0.18 -0.37 0.03 -0.82 -0.34 -1c-0.02 -0.01 -0.04 -0.02 -0.06 -0.03l-1.81 -0.8l1.63 -0.27c0.41 -0.06 0.69 -0.44 0.63 -0.85c-0.05 -0.37 -0.38 -0.65 -0.75 -0.64c-0.04 0 -0.08 0 -0.13 0.01l-2.13 0.36C11.26 4.95 10.04 3.78 8 3.55V3.5C8 3.22 7.78 3 7.5 3H5.5zM6 4h1v5v2H6V9V4zM9.5 8c0.26 0 0.46 0.2 0.49 0.45l0.08 -0.13c0.14 -0.24 0.44 -0.32 0.68 -0.18s0.32 0.44 0.18 0.68l-0.26 0.45C10.87 9.45 11 9.7 11 10c0 0.56 -0.44 1 -1 1H8V9h1V8.5C9 8.22 9.22 8 9.5 8zM2.44 8.07c0.19 -0.02 0.39 0.07 0.49 0.25l0.2 0.35C3.23 8.56 3.35 8.5 3.5 8.5C3.78 8.5 4 8.72 4 9h1v2H2c-0.56 0 -1 -0.44 -1 -1s0.44 -1 1 -1h0.17L2.07 8.82C1.93 8.58 2.01 8.27 2.25 8.13C2.31 8.1 2.38 8.08 2.44 8.07z"/>
</svg>