<?xml version="1.0" encoding="UTF-8"?>
<svg viewBox="0 0 15 15" version="1.1" xmlns="http://www.w3.org/2000/svg" xmlns:xlink="http://www.w3.org/1999/xlink">
  <path d="M12.23 4.65C11.56 6.78 11.51 8.42 12.04 9.59L12.13 9.54L13.5 9.91L15 12.5L12.4 14L10.9 11.41L11.22 10.2C10.48 8.75 10.51 6.8 11.27 4.35C11.97 2.11 11.07 0.94 9.31 0.96C7.85 0.99 6.53 1.83 6.13 3L8 3L10 7L10 14L1 14L1 7L3 3L5.09 3C5.49 1.23 7.31 -0.01 9.29 -0.04C11.73 -0.07 13.13 1.75 12.23 4.65ZM7.38 4L6 4L6 4.5L5 4.5L5 4L3.62 4L2 7.24L2 13L9 13L9 7.24L7.38 4ZM12.27 10.61L12.12 10.7L11.97 11.26L12.77 12.64L13.63 12.14L12.84 10.77L12.27 10.61ZM8.5 7.64L8.5 12.5L2.5 12.5L2.5 8.25C3.37 7.52 4.37 7.1 5.5 7C6.63 6.9 7.63 7.11 8.5 7.64Z"/>
</svg>