<?xml version="1.0" encoding="UTF-8"?>
<svg viewBox="0 0 15 15" xmlns="http://www.w3.org/2000/svg">
  <path d="M8 5C8 5 10 4.9 10 3.4C10 2.47 9.18 2.21 8.48 1.99C7.95 1.83 7.5 1.68 7.5 1.3C7.5 0.39 8 0 8 0C8 0 7 0.53 7 1.5C7 2.21 7.54 2.46 8.06 2.7C8.54 2.93 9 3.14 9 3.7C9 4.7 8 5 8 5ZM11.84 6.67C11.38 8.62 10.79 11.11 9 12V14H6V12C4.21 11.11 3.62 8.62 3.16 6.67C3.11 6.44 3.05 6.21 3 6H12C11.95 6.21 11.89 6.44 11.84 6.67ZM7 4C7 5 5.5 5 5.5 5C5.5 5 6.29 4.9 6.29 4.3C6.29 4.03 6.02 3.85 5.72 3.67C5.37 3.46 5 3.23 5 2.8C5 1.97 6 1.5 6 1.5C6 1.5 5.5 1.77 5.5 2.5C5.5 2.89 5.85 3.04 6.22 3.2C6.6 3.36 7 3.54 7 4Z"/>
</svg>