<?xml version="1.0" encoding="UTF-8"?>
<svg viewBox="0 0 15 15" version="1.1" xmlns="http://www.w3.org/2000/svg" xmlns:xlink="http://www.w3.org/1999/xlink">
  <path d="M7.32 2.03C6.98 2.03 6.65 2.14 6.41 2.33C6.16 2.52 6.03 2.78 6.03 3.05C6.03 3.49 6.39 3.89 6.93 4.02C5.45 4.14 4.18 4.9 3.43 6.02C3.41 6.01 3.4 6 3.39 5.99C2.69 5.71 1.65 5.57 0.97 6C0.32 6.43 0.04 7.19 0 8.14C-0.07 10.07 1.37 10.46 2.82 10.66C2.93 10.67 3.05 10.66 3.16 10.66C3.48 11.57 3.95 12.43 4.56 12.86L10.08 12.86C10.73 12.4 11.23 11.44 11.55 10.44C11.8 10.49 12.07 10.45 12.44 10.15C13.1 9.63 13.78 8.6 14 8.09C14.4 7.22 15 4.1 15 4.1C15 4.1 14.06 4.36 13.3 4.1C13.14 4.66 12.93 5.73 12.62 6.24C12.35 6.68 12.17 7.06 11.73 7.13C11.21 5.43 9.63 4.17 7.71 4.02C8.25 3.89 8.61 3.49 8.61 3.05C8.61 2.78 8.48 2.52 8.23 2.33C7.99 2.14 7.66 2.03 7.32 2.03L7.32 2.03ZM2.12 6.59C2.47 6.58 2.75 6.69 3.01 6.83C2.83 7.3 2.72 7.79 2.72 8.32C2.72 8.74 2.79 9.25 2.91 9.79C2.08 9.77 1.11 9.67 1.16 8.22C1.2 7.41 1.41 6.71 1.81 6.63C1.92 6.6 2.02 6.59 2.12 6.59L2.12 6.59Z"/>
</svg>