<?xml version="1.0" encoding="UTF-8"?>
<svg viewBox="0 0 15 15" version="1.1" xmlns="http://www.w3.org/2000/svg" xmlns:xlink="http://www.w3.org/1999/xlink">
  <path d="M6.5 15L1.5 15C1.22 15 1 14.78 1 14.5L1 7.24C1 6.45 1.32 5.68 1.88 5.12L3 4L3 4L3 0L5 0L5 4L6.12 5.12C6.68 5.68 7 6.45 7 7.24L7 14.5C7 14.78 6.78 15 6.5 15ZM12 13.5C12 12.5 12 11.5 12 10.5C14.67 9.83 15 7.67 13 4L10 4C8 7.67 8.33 9.83 11 10.5C11 11.5 11 12.5 11 13.5L9.12 14.63C9.02 14.69 8.99 14.81 9.05 14.9C9.09 14.96 9.15 15 9.22 15L13.78 15C13.89 15 13.98 14.91 13.98 14.8C13.98 14.73 13.94 14.66 13.88 14.63L12 13.5L12 13.5Z"/>
</svg>