<?xml version="1.0" encoding="UTF-8"?>
<svg viewBox="0 0 15 15" xmlns="http://www.w3.org/2000/svg">
  <path d="M1.14 8.58C1.99 6.15 4.72 2 10 2C12.65 2 14 3 14 3C14 3 11.69 3 10.62 3.45C10.54 3.48 10.47 3.54 10.43 3.61C10.24 3.96 9.75 5.05 10.32 6.2C10.42 6.38 10.64 6.47 10.84 6.4C11.35 6.25 12.33 5.9 13.08 5.36C13.3 5.2 13.62 5.26 13.68 5.52C13.94 6.59 13.94 8.41 13.68 9.48C13.62 9.74 13.3 9.8 13.08 9.64C12.33 9.1 11.35 8.75 10.84 8.6C10.64 8.53 10.42 8.62 10.32 8.8C9.75 9.95 10.24 11.04 10.43 11.39C10.47 11.46 10.54 11.52 10.62 11.55C11.69 12 14 12 14 12C13.5 12.33 11.8 13 9 13C4.52 13 2.03 10.34 1.26 9.36C1.09 9.14 1.04 8.84 1.14 8.58ZM5 9C5.69 9 6.25 8.44 6.25 7.75C6.25 7.06 5.69 6.5 5 6.5C4.31 6.5 3.75 7.06 3.75 7.75C3.75 8.44 4.31 9 5 9Z"/>
</svg>