<?xml version="1.0" encoding="UTF-8"?>
<svg viewBox="0 0 15 15" version="1.1" xmlns="http://www.w3.org/2000/svg" xmlns:xlink="http://www.w3.org/1999/xlink">
  <path d="M1.61 7.93C1.39 7.61 1.29 7.18 1.18 6.75C1.18 6.75 1.07 6.75 1.07 6.75C0.75 6.75 0.43 6.43 0.43 6.11C0.43 5.89 0.54 5.68 0.75 5.57L2.57 4.29C3 4.07 3.43 3.86 3.86 3.86L8.36 3.86L11.68 3.32C11.68 3.32 11.68 3.32 11.68 3.32C11.68 3 11.89 2.68 12.32 2.68C12.75 2.68 12.86 3 12.86 3.43C12.86 3.43 12.86 3.54 12.86 3.54L13.18 3.54C13.5 3.64 13.82 3.96 13.82 4.29C13.82 4.29 13.82 4.29 13.82 4.39L14.79 4.93C14.89 5.04 15 5.14 15 5.25C15 5.36 15 5.36 15 5.46L14.79 6C14.68 6.21 14.46 6.32 14.25 6.32L12 6.64L9.86 9L11.46 11.57L12.21 11.89C12.32 12 12.43 12.11 12.43 12.32C12.43 12.54 12.21 12.75 12 12.75L10.5 12.75C10.07 12.75 9.75 12.54 9.64 12.21L7.93 9.43L5.14 9.43L6.11 11.57L6.86 11.89C6.96 12 7.07 12.11 7.07 12.32C7.07 12.54 6.86 12.75 6.64 12.75L5.14 12.75C4.82 12.75 4.5 12.54 4.29 12.32L2.89 9.54L1.61 11.04L1.5 11.68L1.82 11.89C1.93 11.89 1.93 12 1.93 12C2.14 12.21 2.14 12.43 1.93 12.64C1.82 12.75 1.71 12.75 1.61 12.75L1.29 12.75C1.07 12.75 0.96 12.64 0.86 12.54L0.11 11.25C0 11.04 0 10.93 0 10.71C0 10.5 0.11 10.18 0.21 10.07L1.61 7.93Z"/>
</svg>