<?xml version="1.0" encoding="UTF-8"?>
<svg viewBox="0 0 15 15" xmlns="http://www.w3.org/2000/svg">
  <path d="M7.53 0.9L9 2h1L11.47 0.9C11.69 0.73 12 0.89 12 1.16V4.5c0 0.72 -0.52 1.18 -1 1.57V10l0.8 2.4l0.71 0.35c0.3 0.15 0.49 0.46 0.49 0.8C13 13.8 12.8 14 12.55 14H4.25C3.02 14 2 13 2 11.71C2 9.54 2.45 7.93 2.75 6.85C2.89 6.3 3.04 5.89 3.14 5.61C3.2 5.46 3.25 5.31 3.33 5.17C3.78 4.31 5.07 4.96 4.67 5.83C4.62 5.94 4.58 6.05 4.54 6.15C4.45 6.38 4.33 6.74 4.19 7.23C3.95 8.15 3.67 9.52 3.56 11.37C3.93 9.31 5.98 7.24 7.64 5.76C7.29 5.43 7 5.04 7 4.5l0 -3.34c0 -0.27 0.31 -0.43 0.53 -0.26z"/>
</svg>