<?xml version="1.0" encoding="UTF-8"?>
<svg xmlns="http://www.w3.org/2000/svg" viewBox="0 0 15 15">
  <path d="M11.43 10.09h2.49v0.75H11.85A4.81 4.81 0 0 1 13.48 13.14l-0.71 0.24a4.01 4.01 0 0 0 -1.74 -2.2a1.78 1.78 0 0 1 -1.04 0.45L8.44 12.99H6.52L4.98 11.62a2.02 2.02 0 0 1 -1.09 -0.44a4.01 4.01 0 0 0 -1.74 2.2l-0.71 -0.24a4.81 4.81 0 0 1 1.62 -2.3H0.99v-0.75H3.48l0.86 -0.68L3.33 7.76a2.27 2.27 0 0 1 -0.27 0.03a2.02 2.02 0 0 1 -2.05 -2.08c0 -2.08 1.98 -4.16 1.98 -4.16L2.25 5.99l1.73 0L4.99 2.99l0 3a2.09 2.09 0 0 1 -0.7 1.41l0.85 1.39L5.23 8.72a3.87 3.87 0 0 1 4.48 0l0.06 0.05l0.87 -1.42a2.12 2.12 0 0 1 -0.64 -1.37l0 -3l0.98 3.01l1.75 0l-0.74 -4.45s1.98 2.08 1.98 4.16a2.02 2.02 0 0 1 -2.06 2.08a2.31 2.31 0 0 1 -0.34 -0.04L10.57 9.39l0.84 0.66C11.42 10.06 11.42 10.08 11.43 10.09Z"/>
</svg>