<?xml version="1.0" encoding="UTF-8"?>
<svg xmlns="http://www.w3.org/2000/svg" version="1.1" viewBox="0 0 15 15">
  <path d="M10.3 1.22C9.91 1.22 9.6 1.2 9.5 2L9.1 4.52L11.5 6.5L13.5 6.5C14.9 6.5 15 5.54 15 5.54L13.1 3.32C12.4 2.62 11.7 2.5 11 2.5L11 2C11 2 11.07 1.22 10.3 1.22zM4.75 1.5C4.75 1.5 3.8 1.52 3.2 1.72C2.6 1.92 2 2.62 2 3.62L2 7.52C2 9.22 1.3 9.5 1 9.5C1 9.5 0 9.52 0 10.52L0 12.72C0 12.72 0 13.52 0.8 13.52L1 13.52L1.5 13.52L2 13.52L2 13.02L2 12.82C2 12.42 1.8 12.22 1.5 12.12L1.5 11.02C2.5 11.02 2.6 10.82 3 10.72L3.55 12.92C3.65 13.22 3.75 13.42 4.05 13.52L5.05 13.52L6 13.5L6 12.7C6 12.02 5 12 5 12L5 9.5L8.5 9.5L9.2 12.12C9.6 13.52 10.5 13.5 10.5 13.5L11 13.5L12 13.5L12 12.7C12 11.99 11 12 11 12L11.1 7.92L8 5.5L3.5 5.5L3.5 3.5C3.5 3.1 3.78 3.01 4 3C4.49 2.99 4.75 3 4.75 3C5.16 3 5.5 2.66 5.5 2.25C5.5 1.84 5.16 1.5 4.75 1.5zM11.75 4C11.89 4 12 4.11 12 4.25C12 4.39 11.89 4.5 11.75 4.5C11.61 4.5 11.5 4.39 11.5 4.25C11.5 4.11 11.61 4 11.75 4z"/>
</svg>