<?xml version="1.0" encoding="UTF-8"?>
<svg viewBox="0 0 15 15" version="1.1" xmlns="http://www.w3.org/2000/svg" xmlns:xlink="http://www.w3.org/1999/xlink">
  <path d="M13.41 9.17L14.7 7.56C14.72 7.53 14.73 7.51 14.73 7.47C14.73 7.38 14.65 7.3 14.56 7.3C14.53 7.3 14.51 7.31 14.49 7.32L12.29 8.39C4.56 4.9 0.66 8.49 0.66 8.49C0.65 8.51 0.63 8.53 0.63 8.56C0.63 8.59 0.65 8.62 0.68 8.63L2.74 9.97C2.79 10 2.82 10.04 2.82 10.1C2.82 10.17 2.76 10.23 2.69 10.23L0.48 9.55C0.45 9.55 0.43 9.57 0.43 9.6C0.43 9.61 0.44 9.62 0.45 9.63C4.05 13.76 12.29 9.95 12.29 9.95L14.49 11.03C14.51 11.04 14.53 11.05 14.56 11.05C14.65 11.05 14.73 10.97 14.73 10.88C14.73 10.84 14.72 10.81 14.71 10.79L13.41 9.17ZM3.07 9.2C2.69 9.2 2.39 8.9 2.39 8.52C2.39 8.15 2.69 7.84 3.07 7.84C3.44 7.84 3.75 8.15 3.75 8.52C3.75 8.9 3.44 9.2 3.07 9.2Z"/>
  <path d="M13.98 3.41L9.55 3.41L9.55 5.45L13.98 5.45C14.54 5.45 15 5 15 4.43C15 3.87 14.54 3.41 13.98 3.41Z"/>
  <path d="M4.09 5.45C5.45 5.45 8.86 5.45 8.86 5.45L8.86 3.41L0 3.41C0 3.41 2.05 5.45 4.09 5.45Z"/>
</svg>