<?xml version="1.0" encoding="UTF-8"?>
<svg viewBox="0 0 15 15" version="1.1" xmlns="http://www.w3.org/2000/svg" xmlns:xlink="http://www.w3.org/1999/xlink">
  <path d="M0 0H2.14V2.14H0V0z"/>
  <path d="M5.36 0H15V2.14H5.36V0z"/>
  <path d="M3.54 3.32C3.32 3.43 3.11 3.64 3.11 3.86C3.11 4.07 3.32 4.39 3.54 4.39L3.54 8.04C3.54 8.57 3.21 9 2.68 9C2.25 9 1.82 8.57 1.82 8.14C1.82 8.04 1.82 7.93 1.93 7.82L1.93 7.82L2.25 8.14L2.04 6.43L1.61 7.61C1.39 7.93 1.39 8.14 1.39 8.14C1.39 8.79 1.93 9.43 2.68 9.43C3.32 9.43 3.96 8.89 3.96 8.14L3.96 4.39C4.18 4.39 4.29 4.07 4.29 3.86C4.29 3.64 4.07 3.32 3.86 3.32L3.86 0L3.54 0L3.54 3.32Z"/>
  <path d="M5.14 9.75C5.14 9.75 5.14 9.86 5.14 9.86C5.14 9.96 5.14 9.96 5.25 9.96L7.82 11.14C7.93 11.25 7.93 11.25 7.93 11.36C7.93 11.46 7.82 11.57 7.71 11.57L4.93 11.57C4.82 11.57 4.82 11.57 4.82 11.68C4.82 11.68 4.82 11.68 4.82 11.79C7.71 14.04 11.57 15 15.11 15L15.11 7.07C8.36 6.96 5.14 9.75 5.14 9.75ZM9.11 11.25C8.46 11.25 8.04 10.82 8.04 10.18C8.04 9.54 8.46 9.11 9.11 9.11C9.75 9.11 10.18 9.54 10.18 10.18C10.18 10.82 9.75 11.25 9.11 11.25Z"/>
</svg>