<?xml version="1.0" encoding="UTF-8"?>
<svg viewBox="0 0 15 15" version="1.1" xmlns="http://www.w3.org/2000/svg" xmlns:xlink="http://www.w3.org/1999/xlink">
  <path d="M0 0L0 5.36C0 7.13 1.44 8.57 3.21 8.57C4.99 8.57 6.43 7.13 6.43 5.36L6.43 3.21L4.29 5.36L5.36 5.36C5.36 6.54 4.4 7.5 3.21 7.5C2.03 7.5 1.07 6.54 1.07 5.36L1.07 0L0 0ZM5.89 9.64C3.37 9.64 0.84 10.98 0 12.32C0.84 13.66 3.37 15 5.89 15C8.42 15 10.94 13.66 11.79 12.32C10.94 10.98 8.42 9.64 5.89 9.64ZM11.79 12.32L15 15L15 9.64L11.79 12.32ZM3.21 10.71C3.81 10.71 4.29 11.19 4.29 11.79C4.29 12.38 3.81 12.86 3.21 12.86C2.62 12.86 2.14 12.38 2.14 11.79C2.14 11.19 2.62 10.71 3.21 10.71Z"/>
</svg>