<?xml version="1.0" encoding="UTF-8"?>
<svg version="1.1" xmlns="http://www.w3.org/2000/svg" viewBox="0 0 15 15">
  <path d="M8.39 3.89C8.39 3.89 7.68 5 7 5H4.5C3.82 5 3.2 5.41 2.73 5.86L0.5 8C0.23 8.26 0.01 8.77 0 9c-0.02 0.5 0 1 0 1s1 0 1 -1V8.5l1 -1h0.5l0.16 0.29c0 0 -0.95 1.82 -0.95 3.53C1.7 12 2.39 12 2.39 12h0.68c0 0 0.34 0 0 -0.34l-0.34 -0.34C2.73 10.64 3.5 9.67 4 9c0 0 0.02 1.16 0 2c-0.01 0.41 0.27 1 0.68 1h0.68c0 0 0.34 0 0 -0.34l-0.34 -0.34C4.71 10.75 5.5 8.5 5.5 8.5C6.77 8.5 7 9 8.5 9l0.36 2.32C8.98 12.03 9.5 12 9.5 12H11c0.34 0 0.96 -0.31 0.34 -0.77L11 11V9c1.21 -0.17 2 -1 2 -2h1c0.32 0 1 0 1 -0.5v-1l-1.7 -1.68C12.54 3.08 12 2.5 11 2.5C9.55 2.5 8.86 3.07 8.39 3.89z"/>
</svg>