<?xml version="1.0" encoding="UTF-8"?>
<svg viewBox="0 0 15 15" version="1.1" xmlns="http://www.w3.org/2000/svg" xmlns:xlink="http://www.w3.org/1999/xlink">
  <path d="M5.54 5.66C6.24 5.54 6.76 4.91 6.84 4.15C6.92 3.38 7.1 0.27 5.93 0.47C2.91 0.98 3.12 6.08 5.54 5.66L5.54 5.66ZM9.53 5.66C11.95 6.08 12.16 0.98 9.14 0.47C7.97 0.27 8.15 3.38 8.23 4.15C8.31 4.91 8.83 5.55 9.53 5.66ZM4.3 8.07C4.3 7.66 4.16 7.3 3.92 7.03C3.54 6.53 2.32 5.52 2.03 5.78C1.4 6.32 1.42 7.65 1.8 8.62C1.99 9.16 2.46 9.54 3 9.54C3.72 9.54 4.3 8.88 4.3 8.07L4.3 8.07ZM13.04 5.78C12.74 5.52 11.53 6.53 11.15 7.03C10.91 7.3 10.77 7.66 10.77 8.07C10.77 8.88 11.35 9.54 12.07 9.54C12.61 9.54 13.08 9.16 13.27 8.62C13.64 7.65 13.67 6.32 13.04 5.78ZM10.6 10.36C9.49 9.81 9.53 8.75 9.28 7.79C9.08 7.02 8.37 6.45 7.53 6.45C6.71 6.45 6.02 6.99 5.8 7.74C5.53 8.66 5.69 9.74 4.49 10.36C3.52 10.67 3.12 11.14 3.12 12.24C3.12 13.13 3.89 14.09 4.88 14.2C5.98 14.37 6.84 14.15 7.54 13.76C8.23 14.15 9.09 14.37 10.2 14.2C11.18 14.08 11.95 13.13 11.95 12.24C11.95 11.12 11.58 10.7 10.6 10.36L10.6 10.36ZM9.3 11.7L8.15 11.7L8.16 12.9L6.91 12.9L6.91 11.7L5.7 11.7L5.7 10.5L6.92 10.5L6.91 9.3L8.16 9.3L8.16 10.5L9.3 10.5L9.3 11.7L9.3 11.7Z"/>
</svg>