<?xml version="1.0" encoding="UTF-8"?>
<svg viewBox="0 0 15 15" version="1.1" xmlns="http://www.w3.org/2000/svg" xmlns:xlink="http://www.w3.org/1999/xlink">
  <path d="M11.04 6.32L9.54 4.5L9.54 6.11C9.21 6.11 9 6 8.68 6L7.5 4.5L7.39 6.11C7.07 6.11 6.64 6.11 6.32 6.21L5.46 5.04L5.46 6.43C5.14 6.54 4.71 6.64 4.39 6.75L3.43 5.68L3.43 7.29C3.21 7.39 3 7.61 2.79 7.71C2.57 7.5 2.36 7.39 2.14 7.18C1.71 6.86 0.54 6.64 0 6.32L1.29 8.14L0 9.96C0.54 9.75 1.71 9.43 2.14 9.11C2.36 9 2.57 8.79 2.79 8.57C4.18 9.54 6.21 10.29 8.57 10.29C10.29 10.29 11.89 9.86 13.18 9.32L13.61 10.71L14.14 8.79C14.46 8.57 14.68 8.36 15 8.14C14.14 7.29 12.75 6.64 11.04 6.32ZM11.79 8.36L10.71 8.36L10.71 7.29L11.79 7.29L11.79 8.36Z"/>
</svg>