<?xml version="1.0" encoding="UTF-8"?>
<svg viewBox="0 0 15 15" version="1.1" xmlns="http://www.w3.org/2000/svg" xmlns:xlink="http://www.w3.org/1999/xlink">
  <path d="M4.29 0L6.32 0L7.61 2.14L8.89 0L10.71 0L8.68 3.11L10.93 6.43L8.89 6.43L7.39 4.07L6 6.43L4.07 6.43L6.32 3.11z"/>
  <path d="M11.04 9.75L9.54 7.93L9.54 9.54C9.21 9.54 9 9.43 8.68 9.43L7.5 7.93L7.39 9.54C7.07 9.54 6.64 9.54 6.32 9.64L5.46 8.46L5.46 9.86C5.14 9.96 4.71 10.07 4.39 10.18L3.43 9.11L3.43 10.71C3.21 10.82 3 11.04 2.79 11.14C2.57 10.93 2.36 10.82 2.14 10.61C1.71 10.29 0.54 10.07 0 9.75L1.29 11.57L0 13.39C0.54 13.18 1.71 12.86 2.14 12.54C2.36 12.43 2.57 12.21 2.79 12C4.18 12.96 6.21 13.71 8.57 13.71C10.29 13.71 11.89 13.29 13.18 12.75L13.61 14.14L14.14 12.21C14.46 12 14.68 11.79 15 11.57C14.14 10.71 12.75 10.07 11.04 9.75ZM11.79 11.79L10.71 11.79L10.71 10.71L11.79 10.71L11.79 11.79Z"/>
</svg>