<?xml version="1.0" encoding="UTF-8"?>
<svg viewBox="0 0 15 15" version="1.1" xmlns="http://www.w3.org/2000/svg" xmlns:xlink="http://www.w3.org/1999/xlink">
  <path d="M1.5 9.21L0.54 8.57C0.54 8.57 4.5 7.39 6.96 7.39C8.68 7.39 10.07 6.96 9.54 5.89C9 4.93 9 2.14 11.25 2.25C11.25 2.25 12.75 2.25 12.96 3.75C12.96 3.75 12.86 4.29 14.89 4.71C14.89 4.71 15.21 4.93 14.57 5.25C14.57 5.25 11.46 5.04 11.79 5.79C11.79 5.79 11.68 6.43 12.75 6.86C14.57 7.5 16.29 13.18 8.89 12.64C8.89 12.64 6 12.54 3.64 11.14C3.64 11.14 0.96 9.96 -0.11 9.64L1.5 9.21Z"/>
</svg>