<?xml version="1.0" encoding="UTF-8"?>
<svg viewBox="0 0 15 15" xmlns="http://www.w3.org/2000/svg">
  <path d="M13 2h-11c-0.27 0 -0.52 0.11 -0.71 0.29c-0.19 0.19 -0.29 0.44 -0.29 0.71v6c0 0.27 0.11 0.52 0.29 0.71c0.19 0.19 0.44 0.29 0.71 0.29h1v2.5c0 0.13 0.05 0.26 0.15 0.35c0.09 0.09 0.22 0.15 0.35 0.15s0.26 -0.05 0.35 -0.15c0.09 -0.09 0.15 -0.22 0.15 -0.35v-0.5h7v0.5c0 0.13 0.05 0.26 0.15 0.35c0.09 0.09 0.22 0.15 0.35 0.15s0.26 -0.05 0.35 -0.15c0.09 -0.09 0.15 -0.22 0.15 -0.35v-2.5h1c0.27 0 0.52 -0.11 0.71 -0.29c0.19 -0.19 0.29 -0.44 0.29 -0.71v-6c0 -0.27 -0.11 -0.52 -0.29 -0.71c-0.19 -0.19 -0.44 -0.29 -0.71 -0.29zm0 1v2l-2 -2zm-3.5 0l3.5 3.5v2.5l-6 -6zm-4 6l-3.5 -3.5v-2.5l6 6zm-3.5 0v-2l2 2zm9 2h-7v-1h7zm-0.21 -2h-1.29l-6 -6h2l6 6z"/>
</svg>