<?xml version="1.0" encoding="UTF-8"?>
<svg viewBox="0 0 15 15" xmlns="http://www.w3.org/2000/svg">
  <path d="M13.5 9h-0.5v-3h0.5c0.13 0 0.26 -0.05 0.35 -0.15c0.09 -0.09 0.15 -0.22 0.15 -0.35s-0.05 -0.26 -0.15 -0.35c-0.09 -0.09 -0.22 -0.15 -0.35 -0.15h-0.5v-2l-0.29 -0.57c-0.02 -0.04 -0.05 -0.07 -0.09 -0.09c-0.04 -0.02 -0.08 -0.03 -0.12 -0.03s-0.08 0.01 -0.12 0.03c-0.04 0.02 -0.07 0.05 -0.09 0.09l-0.29 0.58v2h-1v-2l-0.29 -0.57c-0.02 -0.04 -0.05 -0.07 -0.09 -0.09c-0.04 -0.02 -0.08 -0.03 -0.12 -0.03s-0.08 0.01 -0.12 0.03c-0.04 0.02 -0.07 0.05 -0.09 0.09l-0.29 0.58v2h-1v-2l-0.29 -0.57c-0.02 -0.04 -0.05 -0.07 -0.09 -0.09c-0.04 -0.02 -0.08 -0.03 -0.12 -0.03c-0.04 0 -0.08 0.01 -0.12 0.03c-0.04 0.02 -0.07 0.05 -0.09 0.09l-0.29 0.58v2h-1v-2l-0.29 -0.57c-0.02 -0.04 -0.05 -0.07 -0.09 -0.09c-0.04 -0.02 -0.08 -0.03 -0.12 -0.03c-0.04 0 -0.08 0.01 -0.12 0.03c-0.04 0.02 -0.07 0.05 -0.09 0.09l-0.29 0.58v2h-1v-2l-0.29 -0.57c-0.02 -0.04 -0.05 -0.07 -0.09 -0.09c-0.04 -0.02 -0.08 -0.03 -0.12 -0.03c-0.04 0 -0.08 0.01 -0.12 0.03c-0.04 0.02 -0.07 0.05 -0.09 0.09l-0.29 0.58v2h-1v-2l-0.29 -0.57c-0.02 -0.04 -0.05 -0.07 -0.09 -0.09c-0.04 -0.02 -0.08 -0.03 -0.12 -0.03c-0.04 0 -0.08 0.01 -0.12 0.03c-0.04 0.02 -0.07 0.05 -0.09 0.09l-0.29 0.58v2h-0.5c-0.13 0 -0.26 0.05 -0.35 0.15c-0.09 0.09 -0.15 0.22 -0.15 0.35s0.05 0.26 0.15 0.35c0.09 0.09 0.22 0.15 0.35 0.15h0.5v3h-0.5c-0.13 0 -0.26 0.05 -0.35 0.15c-0.09 0.09 -0.15 0.22 -0.15 0.35s0.05 0.26 0.15 0.35c0.09 0.09 0.22 0.15 0.35 0.15h0.5v1.5c0 0.13 0.05 0.26 0.15 0.35c0.09 0.09 0.22 0.15 0.35 0.15s0.26 -0.05 0.35 -0.15c0.09 -0.09 0.15 -0.22 0.15 -0.35v-1.5h1v1.5c0 0.13 0.05 0.26 0.15 0.35c0.09 0.09 0.22 0.15 0.35 0.15s0.26 -0.05 0.35 -0.15c0.09 -0.09 0.15 -0.22 0.15 -0.35v-1.5h1v1.5c0 0.13 0.05 0.26 0.15 0.35c0.09 0.09 0.22 0.15 0.35 0.15s0.26 -0.05 0.35 -0.15c0.09 -0.09 0.15 -0.22 0.15 -0.35v-1.5h1v1.5c0 0.13 0.05 0.26 0.15 0.35c0.09 0.09 0.22 0.15 0.35 0.15s0.26 -0.05 0.35 -0.15c0.09 -0.09 0.15 -0.22 0.15 -0.35v-1.5h1v1.5c0 0.13 0.05 0.26 0.15 0.35c0.09 0.09 0.22 0.15 0.35 0.15s0.26 -0.05 0.35 -0.15c0.09 -0.09 0.15 -0.22 0.15 -0.35v-1.5h1v1.5c0 0.13 0.05 0.26 0.15 0.35c0.09 0.09 0.22 0.15 0.35 0.15s0.26 -0.05 0.35 -0.15c0.09 -0.09 0.15 -0.22 0.15 -0.35v-1.5h0.5c0.13 0 0.26 -0.05 0.35 -0.15c0.09 -0.09 0.15 -0.22 0.15 -0.35s-0.05 -0.26 -0.15 -0.35c-0.09 -0.09 -0.22 -0.15 -0.35 -0.15zm-10.5 0v-3h1v3zm2 0v-3h1v3zm2 0v-3h1v3zm2 0v-3h1v3zm2 0v-3h1v3z"/>
</svg>