<?xml version="1.0" encoding="UTF-8"?>
<svg viewBox="0 0 15 15" version="1.1" xmlns="http://www.w3.org/2000/svg" xmlns:xlink="http://www.w3.org/1999/xlink">
  <path d="M13 4C13.51 4 13.93 4.39 13.99 4.88C14.2 4.87 14.4 4.97 14.52 5.15C14.71 5.44 14.63 5.83 14.35 6.02L14 6.24L14 11L12 11L12 7.26C10.57 7.84 9.07 8.13 7.5 8.13C5.93 8.13 4.43 7.84 3 7.26L3 11L1 11L1 6.25C0.88 6.17 0.77 6.1 0.65 6.02C0.37 5.83 0.29 5.44 0.48 5.15C0.6 4.97 0.8 4.87 1.01 4.88C1.07 4.39 1.49 4 2 4C2.55 4 3 4.45 3 5L3 5.91C4.42 6.56 5.92 6.88 7.5 6.88C9.08 6.88 10.58 6.56 12 5.91L12 5C12 4.45 12.45 4 13 4Z"/>
</svg>