<?xml version="1.0" encoding="UTF-8"?>
<svg viewBox="0 0 15 15" version="1.1" xmlns="http://www.w3.org/2000/svg" xmlns:xlink="http://www.w3.org/1999/xlink">
  <path d="M5.36 0L1.07 3.75L5.36 7.5L5.36 5.36L9.64 5.36L9.64 7.5L13.93 3.75L9.64 0L9.64 2.14L5.36 2.14z"/>
  <path d="M0 8.57C0.8 8.57 2.29 10.71 3 10.71C3.67 10.71 5.24 8.57 6 8.57C6.76 8.57 8.33 10.71 9 10.71C9.8 10.71 11.28 8.57 12 8.57C12.8 8.54 14.38 10.71 15 10.71L15 13.93C14.24 13.93 12.71 11.79 12 11.79C11.29 11.79 9.76 13.93 9 13.93C8.28 13.93 6.76 11.79 6 11.79C5.24 11.79 3.71 13.93 3 13.93C2.2 13.93 0.76 11.79 0 11.79L0 8.57Z"/>
</svg>