<?xml version="1.0" encoding="UTF-8"?>
<svg viewBox="0 0 15 15" version="1.1" xmlns="http://www.w3.org/2000/svg" xmlns:xlink="http://www.w3.org/1999/xlink">
  <path d="M7.5 0C5.68 0 4.2 1.6 4.2 3.58C4.2 4.98 4.95 6.2 6.04 6.79C6.37 6.96 6.01 7.42 5.77 7.12C5.16 6.38 4.28 5.91 3.3 5.91C1.48 5.91 0 7.52 0 9.49C0 11.47 1.48 13.07 3.3 13.07C5.11 13.07 6.58 11.49 6.6 9.54C6.6 9.19 7.09 9.16 7.09 9.62C7.09 10.36 6.44 14.26 6.09 15C6.47 14.9 7.11 14.81 7.5 14.81C7.89 14.81 8.53 14.9 8.91 15C8.56 14.26 7.91 10.36 7.91 9.62C7.91 9.16 8.4 9.19 8.4 9.54C8.42 11.49 9.89 13.07 11.7 13.07C13.52 13.07 15 11.47 15 9.49C15 7.52 13.52 5.91 11.7 5.91C10.72 5.91 9.84 6.38 9.23 7.12C8.99 7.42 8.63 6.96 8.96 6.79C10.05 6.2 10.8 4.99 10.8 3.58C10.8 1.6 9.32 0 7.5 0Z"/>
</svg>