<?xml version="1.0" encoding="UTF-8"?>
<svg viewBox="0 0 15 15" xmlns="http://www.w3.org/2000/svg">
  <path d="M7.04 1.2L2.13 6.7C2.05 6.78 2.01 6.89 2 7C2 7.11 2.03 7.21 2.1 7.3L7.01 13.76C7.06 13.83 7.14 13.89 7.22 13.94C7.31 13.98 7.4 14 7.5 14C7.6 14 7.69 13.98 7.78 13.94C7.86 13.89 7.94 13.83 7.99 13.76L12.9 7.3C12.97 7.21 13 7.11 13 7C12.99 6.89 12.95 6.78 12.87 6.7L7.96 1.2C7.91 1.14 7.84 1.09 7.76 1.05C7.68 1.02 7.59 1 7.5 1C7.41 1 7.32 1.02 7.24 1.05C7.16 1.09 7.09 1.14 7.04 1.2Z"/>
</svg>