<?xml version="1.0" encoding="UTF-8"?>
<svg viewBox="0 0 15 15" version="1.1" xmlns="http://www.w3.org/2000/svg" xmlns:xlink="http://www.w3.org/1999/xlink">
  <path d="M11.04 0.54C9.64 0.54 8.36 1.29 7.61 2.46C6.86 1.29 5.46 0.43 3.96 0.43C1.82 0.43 0 2.25 0 4.5L0 4.5C0 6.21 0.75 8.14 2.79 10.61C4.29 12.32 5.89 13.71 7.5 14.68C9.11 13.71 10.71 12.32 12.21 10.61C14.25 8.25 15 6.32 15 4.61C15 2.36 13.29 0.54 11.04 0.54ZM4.29 11.14L6.43 6.86L3.32 6.86L10.71 1.5L8.57 5.79L11.79 5.79L4.29 11.14Z"/>
</svg>