<?xml version="1.0" encoding="UTF-8"?>
<svg viewBox="0 0 15 15" version="1.1" xmlns="http://www.w3.org/2000/svg" xmlns:xlink="http://www.w3.org/1999/xlink">
  <path d="M3.8 0.35C4.25 0.04 4.83 -0.01 5.32 0.23L9.63 2.37L12.75 0.57C13.43 0.18 14.28 0.37 14.72 0.99L14.8 1.12C14.93 1.34 15 1.6 15 1.87L15 11.24C15 11.73 14.76 12.19 14.35 12.47L11.22 14.64C10.74 14.97 10.12 15 9.61 14.71L6.02 12.63L2.16 14.54C1.47 14.89 0.63 14.64 0.23 13.99L0.16 13.86C0.05 13.65 0 13.43 0 13.19L0 3.76C0 3.27 0.24 2.81 0.65 2.53L3.8 0.35ZM4.7 2.16L2 4.02L2 12.39L5.37 10.72C5.77 10.52 6.24 10.52 6.64 10.69L6.79 10.77L10.34 12.82L13 10.98L13 2.73L10.4 4.23C10.01 4.46 9.55 4.49 9.14 4.34L8.98 4.28L4.7 2.16Z"/>
</svg>