<?xml version="1.0" encoding="UTF-8"?>
<svg version="1.1" xmlns="http://www.w3.org/2000/svg" viewBox="0 0 15 15">
  <path d="M8.5 10c0.46 0.61 1.18 1 2 1c1.38 0 2.5 -1.12 2.5 -2.5c0 -0.56 -0.19 -1.08 -0.51 -1.5L12.5 7l-5 -6l-5 6l0.01 0C2.19 7.42 2 7.94 2 8.5C2 9.88 3.12 11 4.5 11c0.82 0 1.54 -0.39 2 -1C6.6 9.87 6.79 9.61 7 9.33V11.5C7 13 4.5 13 4.5 13C4.22 13 4 13.22 4 13.5C4 13.78 4.22 14 4.5 14H7h1h2.5c0.28 0 0.5 -0.22 0.5 -0.5c0 -0.28 -0.22 -0.5 -0.5 -0.5c0 0 -2.5 0 -2.5 -1.5V9.33C8.21 9.61 8.4 9.87 8.5 10z"/>
</svg>