<?xml version="1.0" encoding="UTF-8"?>
<svg viewBox="0 0 15 15" version="1.1" xmlns="http://www.w3.org/2000/svg" xmlns:xlink="http://www.w3.org/1999/xlink">
  <path d="M7.5 8.15C6.25 8.15 5.1 8.65 4.25 9.5L5.35 10.6C5.9 10.05 6.65 9.7 7.5 9.7C8.35 9.7 9.1 10.05 9.65 10.6L10.75 9.5C9.9 8.65 8.75 8.15 7.5 8.15Z"/>
  <path d="M7.5 4.8C5.4 4.8 3.5 5.65 2.1 7.05L3.2 8.15C4.3 7.05 5.8 6.4 7.45 6.4C9.1 6.4 10.6 7.1 11.7 8.15L12.8 7.05C11.5 5.65 9.6 4.8 7.5 4.8Z"/>
  <path d="M7.5 3.05C10 3.05 12.25 4.05 13.9 5.7L15 4.6C13.1 2.7 10.45 1.5 7.5 1.5C4.55 1.45 1.9 2.65 0 4.6L1.1 5.7C2.75 4.05 5 3.05 7.5 3.05Z"/>
  <path d="M6.4 12.45a1.1 1.1 0 1 0 2.2 0a1.1 1.1 0 1 0 -2.2 0z"/>
</svg>