<?xml version="1.0" encoding="UTF-8"?>
<svg viewBox="0 0 15 15" xmlns="http://www.w3.org/2000/svg">
  <path d="M3.64 2.27L7.5 6.13L11.34 2.29C11.51 2.11 11.75 2 12 2C12.55 2 13 2.45 13 3C13 3.25 12.91 3.49 12.73 3.66L8.84 7.5L12.73 11.39C12.89 11.55 12.99 11.77 13 12C13 12.55 12.55 13 12 13C11.74 13.01 11.49 12.91 11.31 12.73L7.5 8.87L3.65 12.72C3.48 12.9 3.25 13 3 13C2.45 13 2 12.55 2 12C2 11.75 2.09 11.51 2.27 11.34L6.16 7.5L2.27 3.61C2.11 3.45 2.01 3.23 2 3C2 2.45 2.45 2 3 2C3.24 2 3.47 2.1 3.64 2.27Z"/>
</svg>