<?xml version="1.0" encoding="UTF-8"?>
<svg viewBox="0 0 15 15" version="1.1" xmlns="http://www.w3.org/2000/svg" xmlns:xlink="http://www.w3.org/1999/xlink">
  <path d="M11.67 7.54L11.67 9.79C11.67 10.63 10 10.63 10 9.79C10 9.79 10 7.29 10 7.29C10 7.29 8.33 7.29 8.33 7.29C8.33 7.29 8.33 8.13 8.33 8.96C8.33 9.79 6.67 9.79 6.67 8.96C6.67 8.13 6.67 7.29 6.67 7.29C6.67 7.29 5 7.29 5 7.29C5 7.29 5 9.79 5 9.79C5 10.63 3.33 10.63 3.33 9.79L3.33 7.54L1.67 8.13L1.67 11.46C1.67 12.29 0 12.29 0 11.46C0 11.46 0 4.79 0 4.79C0 3.96 1.67 3.96 1.67 4.79C1.67 4.79 1.67 6.46 1.67 6.46L3.33 5.88C3.33 5.88 3.33 3.13 3.33 3.13C3.33 2.29 5 2.29 5 3.13C5 3.13 5 5.63 5 5.63C5 5.63 6.67 5.63 6.67 5.63C6.67 5.63 6.67 3.96 6.67 3.96C6.67 3.13 8.33 3.13 8.33 3.96C8.33 3.96 8.33 5.63 8.33 5.63C8.33 5.63 10 5.63 10 5.63C10 3.13 10 3.13 10 3.13C10 2.29 11.67 2.29 11.67 3.13C11.67 3.13 11.67 5.88 11.67 5.88L13.33 6.46C13.33 6.46 13.33 4.79 13.33 4.79C13.33 3.96 15 3.96 15 4.79C15 4.79 15 11.46 15 11.46C15 12.29 13.33 12.29 13.33 11.46L13.33 8.13L11.67 7.54Z"/>
</svg>