<?xml version="1.0" encoding="UTF-8"?>
<svg viewBox="0 0 15 15" xmlns="http://www.w3.org/2000/svg">
  <path d="M0 6.84v4.16h2v-1c0.04 -1.09 0.91 -1.96 2 -2c1.09 0.04 1.96 0.91 2 2v1h3v-1c0.04 -1.09 0.91 -1.96 2 -2c1.09 0.04 1.96 0.91 2 2v1h2v-4.16c-4.4 -5.76 -11.93 -4.44 -15 0zm9.5 -3.11c0.51 0.12 1.02 0.29 1.5 0.5v2.77h-1.5zm-0.5 -0.1v3.37h-1.5v-3.49c0.5 0 1 0.04 1.5 0.13zm-5.5 0.84c0.48 -0.25 0.98 -0.45 1.5 -0.61v3.13h-1.5zm2 2.52v-3.27c0.49 -0.11 1 -0.19 1.5 -0.21v3.49zm-2.5 -2.26v2.26h-2.5c0.68 -0.91 1.53 -1.67 2.5 -2.26zm8.5 2.26v-2.5l-0.05 -0.05c1.2 0.6 2.25 1.48 3.05 2.55z"/>
</svg>