<?xml version="1.0" encoding="UTF-8"?>
<svg viewBox="0 0 15 15" xmlns="http://www.w3.org/2000/svg">
  <path d="M12.64 4H11V2.36C11 2.16 10.84 2 10.64 2H10.36C10.16 2 10 2.16 10 2.36V4H8.36C8.16 4 8 4.16 8 4.36V10H4.36C4.16 10 4 10.16 4 10.36V12.64C4 12.84 4.16 13 4.36 13H12.64C12.84 13 13 12.84 13 12.64V4.36C13 4.16 12.84 4 12.64 4ZM6 12H5V11H6V12ZM8 12H7V11H8V12ZM10 12H9V11H10V12ZM10 10H9V9H10V10ZM10 8H9V7H10V8ZM10 6H9V5H10V6ZM12 12H11V11H12V12ZM12 10H11V9H12V10ZM12 8H11V7H12V8ZM12 6H11V5H12V6ZM7 2.36C7 2.16 6.84 2 6.64 2H4.36C4.16 2 4 2.16 4 2.36V4H2.36C2.16 4 2 4.16 2 4.36V12.65C2 12.84 2.16 13 2.35 13H3V9H7V2.36ZM4 8H3V7H4V8ZM4 6H3V5H4V6ZM6 8H5V7H6V8ZM6 6H5V5H6V6ZM6 4H5V3H6V4V4Z"/>
</svg>