<?xml version="1.0" encoding="UTF-8"?>
<svg viewBox="0 0 15 15" xmlns="http://www.w3.org/2000/svg">
  <path d="M10.65 6.12c-0.04 -0.04 -0.1 -0.06 -0.16 -0.06s-0.11 0.02 -0.16 0.06l-2.24 1.81c-0.03 0.02 -0.05 0.05 -0.07 0.09c-0.02 0.03 -0.02 0.07 -0.02 0.11v4.63c0 0.07 0.03 0.13 0.07 0.18c0.05 0.05 0.11 0.07 0.18 0.07h1.49c0.07 0 0.13 -0.03 0.18 -0.07s0.07 -0.11 0.07 -0.18v-1.75h1v1.75c0 0.07 0.03 0.13 0.07 0.18c0.05 0.05 0.11 0.07 0.18 0.07h1.49c0.07 0 0.13 -0.03 0.18 -0.07s0.07 -0.11 0.07 -0.18v-4.63c0 -0.04 -0.01 -0.08 -0.02 -0.11s-0.04 -0.07 -0.07 -0.09zm-0.65 3.88h-1v-1h1zm2 0h-1v-1h1zm-6.29 -9.18c-0.02 -0.03 -0.05 -0.06 -0.09 -0.08s-0.08 -0.03 -0.12 -0.03c-0.04 0 -0.08 0.01 -0.12 0.03c-0.04 0.02 -0.07 0.05 -0.09 0.08l-3.25 4.12c-0.03 0.04 -0.04 0.09 -0.04 0.14v7.67c0 0.03 0.01 0.07 0.02 0.1s0.03 0.06 0.05 0.08c0.02 0.02 0.05 0.04 0.08 0.05c0.03 0.01 0.06 0.02 0.1 0.02h2.5c0.07 0 0.13 -0.03 0.18 -0.07c0.05 -0.05 0.07 -0.11 0.07 -0.18v-1.75h1v1.75c0 0.07 0.03 0.13 0.07 0.18s0.11 0.07 0.18 0.07h0.75v-6c0 -0.08 0.02 -0.15 0.05 -0.22c0.03 -0.07 0.08 -0.13 0.14 -0.17l1.81 -1.61c0 -0.05 -3.29 -4.18 -3.29 -4.18zm-1.71 8.18h-1v-1h1zm0 -3h-1v-1h1zm2 3h-1v-1h1zm0 -3h-1v-1h1z"/>
</svg>