<?xml version="1.0" encoding="UTF-8"?>
<svg viewBox="0 0 15 15" version="1.1" xmlns="http://www.w3.org/2000/svg" xmlns:xlink="http://www.w3.org/1999/xlink">
  <path d="M12 13L12 7L3 7L3 13L1.5 13L1.5 5.5L7.5 2L13.5 5.5L13.5 13L12 13ZM4.5 8L10.5 8C10.78 8 11 8.22 11 8.5C11 8.78 10.78 9 10.5 9L4.5 9C4.22 9 4 8.78 4 8.5C4 8.22 4.22 8 4.5 8ZM4.5 12L10.5 12C10.78 12 11 12.22 11 12.5C11 12.78 10.78 13 10.5 13L4.5 13C4.22 13 4 12.78 4 12.5C4 12.22 4.22 12 4.5 12ZM4.5 10L10.5 10C10.78 10 11 10.22 11 10.5C11 10.78 10.78 11 10.5 11L4.5 11C4.22 11 4 10.78 4 10.5C4 10.22 4.22 10 4.5 10Z"/>
</svg>