<?xml version="1.0" encoding="UTF-8"?>
<svg viewBox="0 0 15 15" version="1.1" xmlns="http://www.w3.org/2000/svg" xmlns:xlink="http://www.w3.org/1999/xlink">
  <path d="M5.36 8.46C5.04 8.46 4.71 8.25 4.61 7.82C4.61 7.5 4.82 7.18 5.25 7.18C5.57 7.18 5.89 7.39 5.89 7.82C5.89 8.14 5.68 8.46 5.36 8.46Z"/>
  <path d="M5.89 8.79C5.79 8.68 5.57 8.57 5.46 8.57C5.25 8.57 5.04 8.68 4.93 8.89L4.29 10.29L3.43 10.93C3.32 10.93 3.21 11.04 3.21 11.14C3.21 11.36 3.32 11.46 3.54 11.46C3.54 11.46 3.64 11.46 3.64 11.46L4.61 10.82C4.61 10.82 4.71 10.82 4.71 10.71L4.93 10.18L5.25 11.46L4.07 12.86C4.07 12.86 4.07 12.96 4.07 12.96L3.75 14.57C3.75 14.57 3.75 14.68 3.75 14.68C3.75 14.89 3.96 15.11 4.18 15.11C4.39 15.11 4.5 14.89 4.61 14.79L4.93 13.29L5.89 12.21L6.11 13.18C6.11 13.18 6.21 13.29 6.21 13.39L7.07 14.89C7.18 14.89 7.29 15 7.5 15C7.71 15 7.93 14.79 7.93 14.57C7.93 14.46 7.93 14.46 7.82 14.36L6.96 12.96L6.32 9.86L6.75 10.18L6.96 11.25C6.96 11.36 7.07 11.46 7.29 11.46C7.39 11.46 7.61 11.36 7.61 11.14C7.61 11.14 7.61 11.14 7.61 11.14L7.29 9.96C7.29 9.86 7.29 9.86 7.18 9.86L5.89 8.79Z"/>
  <path d="M2.36 6.96C2.04 7.5 2.04 7.71 1.82 8.04C1.5 8.46 1.39 9.11 1.18 9.54C1.29 9.32 1.39 7.93 1.5 7.61C1.5 7.39 1.82 7.71 2.36 6.96Z"/>
  <path d="M3.21 6C2.89 6.11 2.57 5.25 2.68 5.46C2.68 5.68 3.32 7.18 3.43 7.39C3.43 7.29 3.21 6.64 3.21 6Z"/>
  <path d="M1.82 9C1.82 9.32 1.5 9.75 1.5 9.96C1.5 10.18 1.82 11.14 1.93 11.46C1.93 11.25 1.93 9.64 1.82 9Z"/>
  <path d="M13.82 0C12.32 0.96 12.11 0.32 11.25 0.86C10.71 1.18 10.07 1.29 9.54 1.39C8.46 1.5 8.79 2.04 7.61 2.04C6.54 2.14 6.21 1.93 5.04 2.68C4.29 3.21 4.39 3.32 3.43 3.43C2.14 3.54 1.29 3.75 1.39 5.14C1.39 5.57 1.61 5.89 1.5 6.86C1.39 7.39 1.93 7.29 2.04 6.32C2.14 5.36 2.14 5.25 2.57 5.14C2.89 5.14 3.21 5.79 3.32 5.46C3.54 4.93 4.18 4.93 4.61 5.04C5.04 5.14 5.04 4.61 5.68 4.5L10.71 8.36L10.71 15L13.71 15C13.82 15 13.93 0 13.82 0ZM10.71 6.75L7.18 4.07L10.71 2.79L10.71 6.75Z"/>
</svg>