<?xml version="1.0" encoding="UTF-8"?>
<svg viewBox="0 0 15 15" version="1.1" xmlns="http://www.w3.org/2000/svg" xmlns:xlink="http://www.w3.org/1999/xlink">
  <path d="M9.64 7.5L10.71 7.5L10.71 8.57L9.64 8.57L9.64 7.5ZM4.29 7.5L5.36 7.5L5.36 8.57L4.29 8.57L4.29 7.5ZM7.5 7.42L6.43 8.49L6.43 13.93L8.57 13.93L8.57 8.57L7.5 7.42ZM9.64 8.57L9.64 13.93L15 13.93L15 8.57L9.64 8.57ZM11.79 9.64L13.93 9.64L13.93 11.79L11.79 11.79L11.79 9.64ZM0 8.57L0 13.93L5.36 13.93L5.36 8.57L0 8.57ZM1.07 9.64L3.21 9.64L3.21 11.79L1.07 11.79L1.07 9.64ZM7.5 1.07L1.07 4.29L0 7.5L5.36 7.5L7.5 5.36L9.64 7.5L15 7.5L13.93 4.29L7.5 1.07Z"/>
</svg>