<?xml version="1.0" encoding="UTF-8"?>
<svg viewBox="0 0 15 15" xmlns="http://www.w3.org/2000/svg">
  <path d="M7.5 1c-0.25 0 -0.5 0.25 -0.5 0.5v1.23L3 5.28V4.5c0 -0.25 -0.25 -0.5 -0.5 -0.5s-0.5 0.25 -0.5 0.5v1.42l-0.77 0.49a0.5 0.5 0 0 0 0.54 0.84L2 7.1V12h1V6.47l4.49 -2.87L12 6.6V12h1V7.27l0.22 0.15a0.5 0.5 0 0 0 0.55 -0.83L13 6.07V4.5c0 -0.25 -0.25 -0.5 -0.5 -0.5s-0.5 0.25 -0.5 0.5v0.9L8 2.73V1.5c0 -0.25 -0.25 -0.5 -0.5 -0.5Zm0 4a0.5 0.5 0 0 0 -0.28 0.08l-3 2A0.5 0.5 0 0 0 4 7.5V11h1V8h2v3h4V7.5a0.5 0.5 0 0 0 -0.22 -0.42l-3 -2A0.5 0.5 0 0 0 7.5 5ZM8 8h2v1H8V8Z"/>
</svg>