<?xml version="1.0" encoding="UTF-8"?>
<svg viewBox="0 0 15 15" version="1.1" xmlns="http://www.w3.org/2000/svg" xmlns:xlink="http://www.w3.org/1999/xlink">
  <path d="M1 1L1 1.93L1 2.86C1 3.88 1.83 4.71 2.86 4.71C3.88 4.71 4.71 3.88 4.71 2.86L5.64 2.86C5.64 3.88 6.47 4.71 7.5 4.71C8.53 4.71 9.36 3.88 9.36 2.86L10.29 2.86C10.29 3.88 11.12 4.71 12.14 4.71C13.17 4.71 14 3.88 14 2.86L14 1.93L14 1L12.14 1L1 1ZM1 5.64L1 9.36L1 11.21L1 14L2.86 14L2.86 11.21L12.14 11.21L12.14 14L14 14L14 11.21L14 9.36L14 5.64L12.14 5.64L12.14 9.36L2.86 9.36L2.86 5.64L1 5.64Z"/>
</svg>