<?xml version="1.0" encoding="UTF-8"?>
<svg version="1.1" xmlns="http://www.w3.org/2000/svg" viewBox="0 0 15 15">
  <path d="M2 10.2L4 9l2.5 1.5l1.47 -0.88C7.66 9.47 7.37 9.29 7.12 9.05l1.41 -1.41C8.77 7.84 9.06 7.96 9.38 7.99V9.22l0.25 0.15V7.99c0.32 -0.03 0.61 -0.15 0.84 -0.35l1.41 1.41c-0.41 0.38 -0.9 0.65 -1.45 0.8L11.5 10.5l0.7 -0.42C13.29 9.26 14 7.97 14 6.5C14 4.01 11.99 2 9.5 2C8.19 2 7.02 2.57 6.2 3.46L4.5 2L1 5h1V10.2zM12.05 8.88l-1.41 -1.41c0.2 -0.23 0.32 -0.52 0.35 -0.84h2C12.96 7.49 12.61 8.28 12.05 8.88zM12.99 6.38h-2c-0.03 -0.32 -0.15 -0.61 -0.35 -0.84l1.41 -1.41C12.61 4.72 12.96 5.51 12.99 6.38zM9.63 3.01c0.87 0.03 1.66 0.38 2.25 0.93l-1.41 1.41c-0.23 -0.2 -0.52 -0.32 -0.84 -0.35C9.63 5.01 9.63 3.01 9.63 3.01zM9.38 3.01v2C9.06 5.04 8.77 5.16 8.54 5.36L7.12 3.95C7.72 3.39 8.51 3.04 9.38 3.01zM6.95 4.12l1.41 1.41C8.16 5.77 8.04 6.06 8.01 6.38h-2C6.04 5.51 6.39 4.72 6.95 4.12zM8.01 6.63c0.03 0.32 0.15 0.61 0.35 0.84L6.95 8.88C6.39 8.28 6.04 7.49 6.01 6.63H8.01zM9 10L6.5 11.5L4 10l-2.5 1.5V13L4 11.5L6.5 13l2.5 -1.5L11.5 13l2.5 -1.5V10l-2.5 1.5L9 10z"/>
</svg>