<svg viewBox="0 0 323 214" version="1.1" xmlns="http://www.w3.org/2000/svg" xmlns:xlink="http://www.w3.org/1999/xlink">
    <g transform="translate(235.3123, 136.8149)" fill="#005da9">
        <path d="M25.3475855,32.9609824 L31.5837531,35.9131797 L26.6578463,49.7188178 C26.454937,50.287497 25.919217,50.642242 25.3475855,50.642242 L25.3475855,32.9609824 Z M25.3475446,25.32126 L25.3475446,32.9528533 L14.3370256,38.1713287 C13.7909843,38.430129 13.1610568,38.3025096 12.7568324,37.898704 L25.3475446,25.32126 Z M32.9873904,25.32126 L38.2113187,36.3202859 C38.4703894,36.8657573 38.3426366,37.4950272 37.9384091,37.8988297 L25.3478228,25.32126 L32.9873904,25.32126 Z M17.699735,25.3211271 L14.7443833,31.5508549 L0.924389095,26.6300203 C0.355115708,26.4273228 0,25.892162 0,25.3211271 L17.699735,25.3211271 Z M35.9507058,19.0914567 L49.7707696,24.0122217 C50.340043,24.2149193 50.6951587,24.75008 50.6951587,25.3211149 L32.9954237,25.3211149 L35.9507058,19.0914567 Z M12.7569582,12.7434124 L25.3475446,25.3209821 L17.7079769,25.3209821 L12.4840487,14.3219561 C12.224978,13.7764847 12.3527307,13.1472148 12.7569582,12.7434124 Z M37.9385349,12.743538 L25.3478228,25.3209821 L25.3478228,17.6893887 L36.3583417,12.4709134 C36.9043831,12.2121131 37.5343105,12.3397324 37.9385349,12.743538 Z M25.3475732,0 L25.3475732,17.6813017 L19.111336,14.7290349 L24.0373124,0.923424199 C24.2402217,0.354745031 24.7759416,0 25.3475732,0 Z" id="Shape"></path>
    </g>
    <g transform="translate(161.0961, 106.603) rotate(-15) translate(-161.0961, -106.603)translate(13.276, 35.8477)" fill="#000" fill-rule="nonzero">
        <path d="M69.0804329,7.74242066 C69.0804329,23.9789533 60.5863209,48.6344288 50.8143337,48.6344288 C47.2813844,48.6344288 46.3793548,42.0947143 46.3793548,42.0947143 C46.3793548,42.0947143 56.9030334,28.1884247 56.9030334,20.8218497 C56.9030334,18.4916066 55.1741434,16.7627166 52.693562,16.7627166 C42.9215747,16.7627166 40.7416699,40.5161625 40.7416699,40.5161625 C40.7416699,40.5161625 34.2019553,48.7847671 30.3683296,48.7847671 C28.4891013,48.7847671 27.1360569,47.5068918 27.1360569,45.5524944 C27.1360569,37.1335515 39.9148094,18.4164375 39.9148094,9.24580331 C39.9148094,3.08193444 35.7805071,0 29.6918074,0 C18.717114,0 0,10.9746934 0,21.6487102 C0,27.6622408 8.64445025,32.7737418 12.6284143,32.7737418 C13.6807821,32.7737418 14.2069661,32.322727 14.2069661,31.3455283 C14.2069661,30.3683296 10.5236786,28.7146087 10.5236786,22.9265855 C10.5236786,15.6351796 21.4232028,4.51014796 27.5119025,4.51014796 C29.7669765,4.51014796 30.7441752,6.08869974 30.7441752,7.89275893 C30.7441752,18.6419449 16.9130548,36.5321985 16.9130548,46.9807079 C16.9130548,52.0922089 21.3480337,55.1741434 26.1588582,55.1741434 C33.976448,55.1741434 41.4181921,46.5296931 41.4181921,46.5296931 C41.4181921,46.5296931 42.6208982,55.1741434 50.9646719,55.1741434 C65.5474837,55.1741434 78.5517436,26.0085199 78.5517436,7.51691326 C78.5517436,3.38261097 71.9368599,0 69.0804329,0 C68.554249,0 68.1784033,0.375845663 68.1784033,0.977198724 C68.1784033,1.80405918 69.0804329,3.4577801 69.0804329,7.74242066 Z" id="Path"></path>
        <path d="M112.753699,45.92834 C112.753699,45.92834 113.430221,44.8008031 113.430221,44.1242809 C113.430221,43.2974204 112.67853,42.6208982 111.851669,42.6208982 C110.94964,42.6208982 110.348287,43.6732661 110.348287,43.6732661 C110.348287,43.6732661 106.364323,50.1378115 102.30519,50.1378115 C101.027314,50.1378115 100.200454,49.2357819 100.200454,48.0330758 C100.200454,42.9215747 104.560263,34.3522936 104.560263,32.0972196 C104.560263,29.4663 101.478329,28.5642704 99.2232551,28.5642704 C99.2232551,28.5642704 97.1185194,25.0313212 91.0298196,25.0313212 C82.761215,25.0313212 73.7409191,36.5321985 73.7409191,47.3565536 C73.7409191,51.9418707 77.1986992,55.1741434 81.2578324,55.1741434 C86.9706865,55.1741434 91.9318492,48.7847671 91.9318492,48.7847671 C92.4580331,52.9942385 95.6903058,55.1741434 99.8246081,55.1741434 C107.266352,55.1741434 112.753699,45.92834 112.753699,45.92834 Z M95.3144602,32.6234036 C95.3144602,38.4114268 88.6995765,49.4612893 85.0914581,49.4612893 C83.5129064,49.4612893 82.9115533,48.2585832 82.9115533,46.0786783 C82.9115533,39.7644712 88.2485617,29.3911309 92.6083714,29.3911309 C94.1117541,29.3911309 95.3144602,30.4434987 95.3144602,32.6234036 Z" id="Shape"></path>
        <path d="M136.356807,49.0854436 C138.536711,41.6436995 141.167631,31.4206974 141.167631,29.3159617 C141.167631,28.1884247 137.484344,25.0313212 135.304439,25.0313212 C134.32724,25.0313212 133.42521,25.5575051 133.199703,26.4595347 C131.69632,31.5710357 129.741923,39.9148094 126.885496,45.1014796 C125.607621,47.4317227 122.676024,50.438488 120.270612,50.438488 C119.143075,50.438488 118.541722,49.3861201 118.541722,48.183414 C118.541722,41.5685303 123.427716,33.2247566 123.427716,29.3159617 C123.427716,28.1884247 119.744428,25.0313212 117.489354,25.0313212 C116.587325,25.0313212 115.835633,25.6326742 115.459788,26.4595347 C113.655729,30.6690061 109.596595,42.4705599 109.596595,47.8827375 C109.596595,51.9418707 113.956405,55.1741434 117.414185,55.1741434 C121.32298,55.1741434 125.306944,52.3177163 127.712356,49.5364584 C127.336511,51.3405176 126.810327,53.9714372 126.058635,56.7526951 C116.96317,60.3608135 110.348287,63.5930862 110.348287,68.7045872 C110.348287,72.6885513 114.257082,75.8456548 118.842399,75.8456548 C127.937864,75.8456548 131.77149,65.7729911 134.32724,56.7526951 C141.2428,53.1445768 145.151595,49.4612893 147.782515,45.92834 C147.782515,45.92834 148.609375,44.8008031 148.609375,44.1242809 C148.609375,43.2974204 147.932853,42.6208982 147.030823,42.6208982 C146.128794,42.6208982 145.377103,43.6732661 145.377103,43.6732661 C143.197198,46.6800314 140.190432,49.6867967 135.454777,52.4680546 L136.356807,49.0854436 Z M116.96317,71.8616908 C116.061141,71.8616908 115.610126,71.3355069 115.610126,70.3583081 C115.610126,68.2535724 119.368583,64.4199467 124.705591,61.4131814 C122.901532,66.900528 120.270612,71.8616908 116.96317,71.8616908 Z" id="Shape"></path>
        <path d="M157.328995,34.3522936 C157.328995,37.4342281 159.659238,42.2450525 159.659238,46.0786783 C159.659238,49.4612893 157.780009,52.3928854 155.449766,52.3928854 C152.743678,52.3928854 151.766479,48.183414 151.766479,43.8236043 C151.766479,42.8464056 157.328995,34.3522936 157.328995,34.3522936 Z M178.52669,45.92834 C178.52669,45.92834 179.203212,44.8008031 179.203212,44.1242809 C179.203212,43.2974204 178.451521,42.6208982 177.62466,42.6208982 C176.722631,42.6208982 176.121278,43.6732661 176.121278,43.6732661 C176.121278,43.6732661 172.738667,48.6344288 166.800305,50.2129806 C166.800305,50.2129806 168.529195,48.3337523 168.529195,44.5001265 C168.529195,39.9148094 165.597599,37.4342281 165.597599,31.4958666 C165.597599,29.4663 167.401658,27.5870717 167.401658,26.5347038 C167.401658,25.7830125 165.296923,23.7534459 163.718371,23.7534459 C161.839143,23.7534459 159.43373,25.5575051 155.900781,30.8193444 C152.443001,36.1563528 150.864449,38.6369342 150.864449,38.6369342 C150.864449,38.6369342 143.648212,40.2906551 143.648212,44.6504648 C143.648212,49.0854436 149.812081,55.7003273 157.253825,55.7003273 C172.663498,55.7003273 178.52669,45.92834 178.52669,45.92834 Z" id="Shape"></path>
        <path d="M195.514914,11.1250316 C195.514914,8.64445025 193.861193,6.99072934 191.681288,6.99072934 C188.373846,6.99072934 185.367081,10.749186 185.367081,14.5828117 C185.367081,17.2889005 187.246309,18.8674523 189.426214,18.8674523 C192.658487,18.8674523 195.514914,15.1089957 195.514914,11.1250316 Z M184.690559,47.2813844 C184.690559,39.9899786 188.90003,33.8261097 188.90003,29.3159617 C188.90003,28.1884247 185.216743,25.0313212 182.961669,25.0313212 C182.059639,25.0313212 181.307948,25.6326742 180.932102,26.4595347 C179.128043,30.6690061 175.06891,41.4933612 175.06891,46.9055388 C175.06891,51.7915324 178.902536,55.1741434 184.61539,55.1741434 C192.057134,55.1741434 197.544481,45.92834 197.544481,45.92834 C197.544481,45.92834 198.221003,44.8008031 198.221003,44.1242809 C198.221003,43.2974204 197.469311,42.6208982 196.642451,42.6208982 C195.740421,42.6208982 195.139068,43.6732661 195.139068,43.6732661 C195.139068,43.6732661 191.155104,50.1378115 187.095971,50.1378115 C185.592588,50.1378115 184.690559,49.0102745 184.690559,47.2813844 Z" id="Shape"></path>
        <path d="M216.336764,30.4434987 C215.660242,35.0288158 215.134058,39.3886255 215.058888,43.8236043 C215.058888,43.8236043 209.947387,50.0626423 206.790284,50.0626423 C205.061394,50.0626423 204.009026,48.4840906 204.009026,45.7780018 C204.009026,39.6141329 209.421204,29.2407926 214.232028,29.2407926 C215.509903,29.2407926 216.336764,30.4434987 216.336764,30.4434987 Z M224.379861,33.6006023 C227.010781,20.4460041 232.723635,6.61488367 235.279385,6.61488367 C235.955907,6.61488367 236.331753,7.1410676 236.331753,7.89275893 C236.331753,14.4324735 224.379861,33.6006023 224.379861,33.6006023 Z M225.131552,55.1741434 C232.573296,55.1741434 238.060643,45.92834 238.060643,45.92834 C238.060643,45.92834 238.737165,44.8008031 238.737165,44.1242809 C238.737165,43.2974204 237.985474,42.6208982 237.158613,42.6208982 C236.256584,42.6208982 235.655231,43.6732661 235.655231,43.6732661 C235.655231,43.6732661 231.746436,50.1378115 227.687303,50.1378115 C224.906045,50.1378115 223.62817,47.055877 223.62817,42.9215747 C223.62817,41.7188686 223.703339,40.4409934 223.928846,39.1631181 C223.928846,39.1631181 240.466055,16.3868709 240.466055,9.09546505 C240.466055,5.63768495 237.008275,2.10473571 233.926341,2.10473571 C227.010781,2.10473571 220.771743,13.9062895 217.313962,26.2340273 C217.313962,26.2340273 215.509903,25.0313212 212.578307,25.0313212 C205.662747,25.0313212 194.688054,33.6006023 194.688054,45.92834 C194.688054,51.4156867 198.972694,55.1741434 203.257335,55.1741434 C209.496373,55.1741434 215.585072,47.8075684 215.585072,47.8075684 C215.885749,50.438488 219.493867,55.1741434 225.131552,55.1741434 Z" id="Shape"></path>
        <path d="M244.675527,40.5161625 C244.675527,36.6073676 248.960167,28.8649469 253.09447,28.8649469 C253.92133,28.8649469 254.447514,29.3911309 254.447514,30.3683296 C254.447514,33.5254332 250.162873,40.5161625 244.675527,40.5161625 Z M264.896023,45.92834 C264.896023,45.92834 265.572546,44.8008031 265.572546,44.1242809 C265.572546,43.2974204 264.820854,42.6208982 263.993994,42.6208982 C263.091964,42.6208982 262.490611,43.6732661 262.490611,43.6732661 C262.490611,43.6732661 258.055632,50.5888263 250.914565,50.5888263 C247.306446,50.5888263 244.299681,48.0330758 244.299681,43.5980969 C244.299681,43.5980969 246.329248,44.0491117 247.156108,44.0491117 C256.627419,44.0491117 259.408677,36.5321985 259.408677,32.9240801 C259.408677,28.9401161 255.725389,25.0313212 251.140072,25.0313212 C244.600358,25.0313212 235.053878,32.6234036 235.053878,44.1242809 C235.053878,50.5136571 240.541224,55.1741434 248.133307,55.1741434 C259.559015,55.1741434 264.896023,45.92834 264.896023,45.92834 Z" id="Shape"></path>
        <path d="M88.3989,115.802801 C85.9183186,115.802801 84.1142594,114.299418 84.1142594,110.841638 C84.1142594,98.9649152 95.3144602,73.5577484 98.1708872,69.94963 C99.5239316,68.4462473 100.050116,67.694556 100.050116,67.2435412 C100.050116,66.4918499 99.3735933,66.1911734 97.8702107,66.1911734 C92.4580331,66.1911734 86.7451791,67.3187103 83.0618916,72.2798731 C73.2147352,85.4344713 63.9689319,105.579799 61.7138579,109.112748 C61.7138579,105.354291 63.5930862,88.2908984 63.5930862,78.5189111 C63.5930862,69.7992917 55.0989742,65.6649894 50.3633189,65.6649894 C39.3886255,65.6649894 24.956152,73.6329175 24.956152,82.9538899 C24.956152,88.8922514 32.848911,93.4023994 36.9080441,93.4023994 C37.8852428,93.4023994 38.4865959,92.9513846 38.4865959,91.8990167 C38.4865959,90.921818 34.7281393,88.8170823 34.7281393,84.2317652 C34.7281393,76.9403593 44.3497883,70.1751374 48.9351053,70.1751374 C51.7163633,70.1751374 52.8439002,71.7536892 52.8439002,73.5577484 C52.8439002,82.8787208 37.5845663,114.825602 29.0904543,114.825602 C26.2340273,114.825602 23.828615,112.570528 23.828615,109.338255 C23.828615,105.354291 26.9105495,102.04685 28.5642704,100.768974 C29.6166383,99.8669448 30.0676531,99.4910991 30.0676531,98.5890695 C30.0676531,97.9125473 29.3159617,97.4615325 28.1884247,97.4615325 C23.828615,97.4615325 15.0338265,101.821342 15.0338265,107.834873 C15.0338265,112.946374 23.3776002,120.839133 32.5482344,120.839133 C43.7484352,120.839133 50.8143337,97.9877165 54.8734668,84.68278 C54.8734668,91.0721563 52.7687311,107.834873 52.7687311,112.345021 C52.7687311,116.855169 55.9258347,120.839133 58.2560778,120.839133 C59.4587839,120.839133 63.8185936,118.057875 65.2468071,114.900771 C67.426712,110.240285 77.4242066,89.0425897 83.5129064,81.300169 C79.5289423,90.6211415 75.2443018,103.024048 75.2443018,110.465792 C75.2443018,116.629661 80.7316485,120.839133 85.9183186,120.839133 C93.3600627,120.839133 98.8474094,111.593329 98.8474094,111.593329 C98.8474094,111.593329 99.5239316,110.465792 99.5239316,109.78927 C99.5239316,108.96241 98.7722403,108.285888 97.9453798,108.285888 C97.0433502,108.285888 96.4419972,109.338255 96.4419972,109.338255 C96.4419972,109.338255 92.4580331,115.802801 88.3989,115.802801 Z" id="Path"></path>
        <path d="M134.552747,111.593329 C134.552747,111.593329 135.22927,110.465792 135.22927,109.78927 C135.22927,108.96241 134.477578,108.285888 133.650718,108.285888 C132.748688,108.285888 132.147335,109.338255 132.147335,109.338255 C132.147335,109.338255 128.163371,115.802801 124.104238,115.802801 C122.826363,115.802801 121.999502,114.900771 121.999502,113.698065 C121.999502,108.586564 126.359312,100.017283 126.359312,97.7622091 C126.359312,95.1312894 123.277378,94.2292598 121.022304,94.2292598 C121.022304,94.2292598 118.917568,90.6963106 112.828868,90.6963106 C104.560263,90.6963106 95.5399676,102.197188 95.5399676,113.021543 C95.5399676,117.60686 98.9977477,120.839133 103.056881,120.839133 C108.769735,120.839133 113.730898,114.449757 113.730898,114.449757 C114.257082,118.659228 117.489354,120.839133 121.623657,120.839133 C129.065401,120.839133 134.552747,111.593329 134.552747,111.593329 Z M117.113509,98.288393 C117.113509,104.076416 110.498625,115.126279 106.890507,115.126279 C105.311955,115.126279 104.710602,113.923573 104.710602,111.743668 C104.710602,105.429461 110.04761,95.0561203 114.40742,95.0561203 C115.910803,95.0561203 117.113509,96.1084881 117.113509,98.288393 Z" id="Shape"></path>
        <path d="M169.506394,111.593329 C169.506394,111.593329 170.182916,110.465792 170.182916,109.78927 C170.182916,108.96241 169.431225,108.285888 168.604365,108.285888 C167.702335,108.285888 167.100982,109.338255 167.100982,109.338255 C167.100982,109.338255 163.342525,114.449757 158.231024,114.449757 C158.005517,114.449757 157.780009,114.449757 157.554502,114.374587 C160.937113,110.014778 162.89151,104.301924 162.89151,100.092452 C162.89151,95.7326425 159.208223,90.6963106 153.871215,90.6963106 C149.436236,90.6963106 144.099227,95.5071351 144.099227,95.5071351 C141.768984,91.8990167 139.964925,91.4480019 138.912557,91.4480019 C137.935358,91.4480019 137.183667,91.9741859 136.807821,92.8762154 C132.899027,103.475063 126.208974,129.483583 126.208974,134.820591 C126.208974,138.879725 130.192938,140.1576 133.049365,140.1576 C134.101733,140.1576 134.477578,139.706585 134.477578,138.503879 C134.477578,132.640687 136.807821,121.440486 138.536711,117.005507 C138.536711,117.005507 141.2428,120.839133 146.053625,120.839133 C149.06039,120.839133 151.766479,119.711596 154.096722,117.907537 C154.923582,117.982706 155.750443,118.057875 156.426965,118.057875 C165.221754,118.057875 169.506394,111.593329 169.506394,111.593329 Z M140.491109,110.916807 C140.491109,105.579799 147.181162,95.8078116 151.089957,95.8078116 C152.743678,95.8078116 153.645707,96.7850103 153.645707,99.4910991 C153.645707,101.896511 152.367832,106.857674 150.413434,110.841638 C149.135559,110.916807 146.730147,112.946374 146.730147,114.524926 C146.730147,114.900771 146.880485,115.276617 147.105993,115.577294 C146.279132,116.328985 145.452272,116.70483 144.625411,116.70483 C142.14483,116.70483 140.491109,113.848403 140.491109,110.916807 Z" id="Shape"></path>
        <path d="M204.460041,111.593329 C204.460041,111.593329 205.136563,110.465792 205.136563,109.78927 C205.136563,108.96241 204.384872,108.285888 203.558011,108.285888 C202.655982,108.285888 202.054629,109.338255 202.054629,109.338255 C202.054629,109.338255 198.296172,114.449757 193.184671,114.449757 C192.959163,114.449757 192.733656,114.449757 192.508149,114.374587 C195.89076,110.014778 197.845157,104.301924 197.845157,100.092452 C197.845157,95.7326425 194.16187,90.6963106 188.824861,90.6963106 C184.389882,90.6963106 179.052874,95.5071351 179.052874,95.5071351 C176.722631,91.8990167 174.918572,91.4480019 173.866204,91.4480019 C172.889005,91.4480019 172.137314,91.9741859 171.761468,92.8762154 C167.852673,103.475063 161.16262,129.483583 161.16262,134.820591 C161.16262,138.879725 165.146584,140.1576 168.003011,140.1576 C169.055379,140.1576 169.431225,139.706585 169.431225,138.503879 C169.431225,132.640687 171.761468,121.440486 173.490358,117.005507 C173.490358,117.005507 176.196447,120.839133 181.007271,120.839133 C184.014037,120.839133 186.720125,119.711596 189.050369,117.907537 C189.877229,117.982706 190.704089,118.057875 191.380612,118.057875 C200.1754,118.057875 204.460041,111.593329 204.460041,111.593329 Z M175.444756,110.916807 C175.444756,105.579799 182.134808,95.8078116 186.043603,95.8078116 C187.697324,95.8078116 188.599354,96.7850103 188.599354,99.4910991 C188.599354,101.896511 187.321479,106.857674 185.367081,110.841638 C184.089206,110.916807 181.683794,112.946374 181.683794,114.524926 C181.683794,114.900771 181.834132,115.276617 182.059639,115.577294 C181.232779,116.328985 180.405918,116.70483 179.579058,116.70483 C177.098476,116.70483 175.444756,113.848403 175.444756,110.916807 Z" id="Shape"></path>
        <path d="M221.448265,76.7900211 C221.448265,74.3094397 219.794544,72.6557188 217.614639,72.6557188 C214.307197,72.6557188 211.300432,76.4141754 211.300432,80.2478012 C211.300432,82.9538899 213.17966,84.5324417 215.359565,84.5324417 C218.591838,84.5324417 221.448265,80.7739851 221.448265,76.7900211 Z M210.62391,112.946374 C210.62391,105.654968 214.833381,99.4910991 214.833381,94.9809512 C214.833381,93.8534142 211.150094,90.6963106 208.89502,90.6963106 C207.99299,90.6963106 207.241299,91.2976637 206.865453,92.1245241 C205.061394,96.3339955 201.002261,107.158351 201.002261,112.570528 C201.002261,117.456522 204.835886,120.839133 210.548741,120.839133 C217.990485,120.839133 223.477831,111.593329 223.477831,111.593329 C223.477831,111.593329 224.154354,110.465792 224.154354,109.78927 C224.154354,108.96241 223.402662,108.285888 222.575802,108.285888 C221.673772,108.285888 221.072419,109.338255 221.072419,109.338255 C221.072419,109.338255 217.088455,115.802801 213.029322,115.802801 C211.525939,115.802801 210.62391,114.675264 210.62391,112.946374 Z" id="Shape"></path>
        <path d="M247.381616,112.946374 C247.381616,107.534196 251.36558,101.671004 251.36558,97.160856 C251.36558,94.2292598 248.283645,90.6963106 244.976203,90.6963106 C238.586827,90.6963106 233.174649,95.5071351 233.174649,95.5071351 C230.844406,91.8990167 229.040347,91.4480019 227.91281,91.4480019 C227.010781,91.4480019 226.259089,91.9741859 225.883244,92.8762154 C224.154354,97.160856 219.794544,108.361057 219.794544,116.70483 C219.794544,119.110243 222.876478,120.839133 226.860442,120.839133 C227.91281,120.839133 228.514163,120.613625 228.514163,119.33575 C228.514163,104.903277 235.580062,95.9581499 240.09021,95.9581499 C240.91707,95.9581499 241.593592,96.4843338 241.593592,97.160856 C241.593592,101.671004 237.759967,107.083182 237.759967,113.24705 C237.759967,117.456522 241.593592,120.839133 247.306446,120.839133 C254.748191,120.839133 260.235537,111.593329 260.235537,111.593329 C260.235537,111.593329 260.912059,110.465792 260.912059,109.78927 C260.912059,108.96241 260.160368,108.285888 259.333508,108.285888 C258.431478,108.285888 257.830125,109.338255 257.830125,109.338255 C257.830125,109.338255 253.846161,115.802801 249.787028,115.802801 C248.283645,115.802801 247.381616,114.675264 247.381616,112.946374 Z" id="Path"></path>
        <path d="M287.597101,97.7622091 C287.597101,95.1312894 284.515167,94.2292598 282.260093,94.2292598 C282.260093,94.2292598 280.155357,90.6963106 274.066658,90.6963106 C265.798053,90.6963106 256.777757,102.197188 256.777757,113.021543 C256.777757,117.60686 260.235537,120.839133 264.29467,120.839133 C270.007524,120.839133 274.968687,114.449757 274.968687,114.449757 C274.668011,116.103477 274.141827,118.584059 273.465305,121.214978 C263.843656,124.898266 257.37911,129.107737 257.37911,134.369577 C257.37911,138.353541 261.287905,141.510644 265.873222,141.510644 C275.419702,141.510644 279.253328,130.686289 281.65874,121.365317 C288.724638,117.907537 292.257588,115.05111 294.813338,111.593329 C294.813338,111.593329 295.640199,110.390623 295.640199,109.78927 C295.640199,108.96241 294.963676,108.285888 294.061647,108.285888 C293.159617,108.285888 292.407926,109.338255 292.407926,109.338255 C290.30319,112.194683 287.296425,114.750433 282.711108,117.231014 L283.38763,114.750433 C285.717873,106.181152 287.597101,99.2655917 287.597101,97.7622091 Z M278.426467,98.288393 C278.426467,104.076416 271.736414,115.126279 268.128296,115.126279 C266.549744,115.126279 265.948391,113.923573 265.948391,111.743668 C265.948391,105.429461 271.2854,95.0561203 275.645209,95.0561203 C277.148592,95.0561203 278.426467,96.1084881 278.426467,98.288393 Z M263.993994,137.52668 C263.167133,137.52668 262.640949,137.000496 262.640949,136.023298 C262.640949,133.768224 266.399406,128.88223 272.187429,125.649957 C270.233032,131.738657 267.451774,137.52668 263.993994,137.52668 Z" id="Shape"></path>
    </g>
</svg>